<?xml version="1.0" encoding="UTF-8" standalone="no"?>

<svg
    width="400.0px"
    height="400.0px"
    viewBox="0px 0px 400.0px 400.0px"
    version="1.1"
    id="svg1=-body"
    xml:space="preserve"
    xmlns="http://www.w3.org/2000/svg"
    xmlns:svg="http://www.w3.org/2000/svg">

    <style>
path { fill: none; stroke-width:1.5px }
    </style>

    <rect width="100%" height="100%" fill="white"/>
    
    
    <text x='20' y='30'>(9 pseudolines)</text>
    <text x='20' y='45'>Generated by LineOrder</text>

    	<path id="line1" style="stroke:#1f77b4"  d="M 368.0 200.0 L 368.0 200.0 347.6578686965854 175.37454968055187 316.6847130562 134.23614266061333 277.02684435961453 110.36417036813286 236.33511252801262 104.23180524348541 163.6648874719873 104.23180524348547 122.97315564038536 110.36417036813295 83.31528694379996 134.23614266061335 52.34213130341459 175.37454968055187 32.0 200.00000000000003" />
	<path id="line2" style="stroke:#ff7f0e"  d="M 357.86836029203266 257.45938407871233 L 357.86836029203266 257.45938407871233 268.9668487390545 212.1607162071349 241.14285714285717 223.75383964665886 212.93404501120506 235.5359966104956 187.06595498879494 235.5359966104956 163.48657782019268 200.2154061808573 139.35157106115958 164.98461322623263 115.35886745661492 185.07548465487992 52.82459033712732 172.6383885339465 42.13163970796734 142.54061592128767" />
	<path id="line3" style="stroke:#2ca02c"  d="M 328.6954664439883 307.98831842733864 L 328.6954664439883 307.98831842733864 287.1551999045664 301.7063337396349 241.7242979493481 310.57486001088773 201.38918542133544 302.42000631326965 170.60444315635215 280.7636286602173 154.98508646688077 253.64668492341255 139.35157106115958 164.98461322623263 110.60707996627816 149.99306670880867 84.70447236513542 131.8300029297264 71.30453355601162 92.01168157266144" />
	<path id="line4" style="stroke:#d62728"  d="M 284.0 345.4922678357857 L 284.0 345.4922678357857 252.502668792019 340.1881905196341 201.38918542133544 333.9338544096603 160.88651662931647 311.5251188047099 135.22986673028907 279.3512278768825 125.56783721142315 242.97342922235092 115.35886745661492 185.07548465487992 111.9962653876136 147.58692697792173 125.10151118533719 108.57826801534975 115.99999999999991 54.50773216421433" />
	<path id="line5" style="stroke:#9467bd"  d="M 229.1728938480443 365.447702506051 L 229.1728938480443 365.447702506051 249.89185421335443 341.13844931345625 285.02684435961464 303.4922360924181 266.89848881466276 277.56532552409925 229.39555684364785 280.7636286602173 200.0 270.0307735475348 187.06595498879494 235.5359966104956 195.99999999999997 137.64617092752042 166.2757020506519 103.28154644966332 170.82710615195572 34.552297493949055" />
	<path id="line6" style="stroke:#8c564b"  d="M 170.82710615195572 365.447702506051 L 170.82710615195572 365.447702506051 198.61081457866456 333.9338544096603 239.11348337068355 311.5251188047099 264.770133269711 279.35122787688243 245.01491353311923 253.64668492341255 241.14285714285717 223.75383964665886 260.64842893884037 164.98461322623257 255.24557569973717 134.16088668490272 233.72429794934806 103.28154644966328 229.17289384804423 34.55229749394903" />
	<path id="line7" style="stroke:#e377c2"  d="M 116.00000000000003 345.4922678357857 L 116.00000000000003 345.4922678357857 158.27570205065192 310.57486001088773 198.61081457866456 302.42000631326965 229.39555684364785 280.7636286602173 245.01491353311923 253.64668492341255 268.9668487390545 212.1607162071349 284.6411325433851 185.07548465487992 288.0037346123863 147.58692697792168 274.8984888146627 108.57826801534969 283.9999999999999 54.50773216421425" />
	<path id="line8" style="stroke:#7f7f7f"  d="M 71.3045335560117 307.98831842733864 L 71.3045335560117 307.98831842733864 133.10151118533724 277.56532552409925 170.60444315635215 280.7636286602173 200.0 270.0307735475348 212.93404501120506 235.5359966104956 260.64842893884037 164.98461322623257 284.6411325433851 185.07548465487992 316.14032773029817 178.11071082715722 315.2955276348646 131.83000292972633 328.69546644398827 92.01168157266136" />
	<path id="line9" style="stroke:#bcbd22"  d="M 42.131639707967366 257.4593840787124 L 42.131639707967366 257.4593840787124 125.56783721142315 242.97342922235092 154.98508646688077 253.64668492341255 165.6149333651445 212.2859102886251 203.99999999999997 137.64617092752042 255.24557569973717 134.16088668490272 289.3929200337218 149.99306670880867 316.62278676401087 180.84687197376257 347.17540966287265 172.6383885339465 357.86836029203266 142.54061592128767" />

	<text text-anchor='middle' dominant-baseline='middle' x='372.2' y='200.0'>1</text>
	<text text-anchor='middle' dominant-baseline='middle' x='361.81506929933346' y='258.89586868068017'>2</text>
	<text text-anchor='middle' dominant-baseline='middle' x='331.912853105088' y='310.6880263880221'>3</text>
	<text text-anchor='middle' dominant-baseline='middle' x='286.1' y='349.1295745316803'>4</text>
	<text text-anchor='middle' dominant-baseline='middle' x='229.90221619424543' y='369.5838950687022'>5</text>
	<text text-anchor='middle' dominant-baseline='middle' x='170.0977838057546' y='369.5838950687022'>6</text>
	<text text-anchor='middle' dominant-baseline='middle' x='113.90000000000003' y='349.12957453168036'>7</text>
	<text text-anchor='middle' dominant-baseline='middle' x='68.08714689491202' y='310.6880263880221'>8</text>
	<text text-anchor='middle' dominant-baseline='middle' x='38.18493070066657' y='258.89586868068017'>9</text>

	</svg>