<?xml version="1.0" encoding="UTF-8" standalone="no"?>
<!-- Created with LineOrder (https://github.com/zegalur/line-order) -->

<svg
    width="400.0px"
    height="400.0px"
    viewBox="0 0 400.0 400.0"
    version="1.1"
    xmlns="http://www.w3.org/2000/svg">

    <style>
path { fill: none; stroke-width:1.5px }
    </style>

    <rect width="100%" height="100%" fill="white"/>
    
    
    <text x='20' y='30'>(9 pseudolines)</text>
    <text x='20' y='45'>Generated by LineOrder</text>

    	<path id="line1" style="stroke:#1f77b4"  d="M 368.8888888888889 200.0 L 368.8888888888889 200.0 346.82258636699794 224.32143241426976 314.48757393884546 264.3171059058767 274.3316542385142 286.18369502677695 232.66172982627546 289.7373651780192 200.0 277.811970608372 149.9834294076453 259.60742769268063 117.29759690158127 247.74825469150102 53.17741363300209 224.3214324142698 31.111111111111086 200.00000000000003" />
	<path id="line2" style="stroke:#ff7f0e"  d="M 358.70364262162013 257.76340198389073 L 358.70364262162013 257.76340198389073 346.2865207739838 227.3616114660535 312.3391619974707 218.24107431070234 276.6298319322828 213.51190689681655 245.71428571428572 226.39315516295432 214.3711611235612 239.48444067832847 163.61094263669577 206.41637261569858 132.61285673462174 161.09401469581402 100.67453329586463 144.4367407875652 41.296357378379895 142.2365980161093" />
	<path id="line3" style="stroke:#2ca02c"  d="M 329.3763948378719 308.5596851915044 L 329.3763948378719 308.5596851915044 312.9440345818061 266.99059449575105 311.80309640445654 221.28125336248604 294.0457028259834 183.41720517208879 267.3871432653782 161.094014695814 226.6132613399281 126.88066541050284 199.99999999999997 104.503490616998 159.6276527466526 93.59089471498382 114.41461737820595 100.40463374236995 70.62360516212809 91.44031480849564" />
	<path id="line4" style="stroke:#d62728"  d="M 284.44444444444446 346.2620681947052 L 284.44444444444446 346.2620681947052 271.96681474412327 288.16803097431387 250.0165705923547 259.60742769268063 245.71428571428572 226.39315516295432 241.3801092434327 192.70357027571907 185.6288388764388 160.51555932167153 173.38673866007187 126.88066541050284 162.52855783405764 92.53505161073701 147.65168514368492 60.68719414971014 115.55555555555549 53.737931805294835" />
	<path id="line5" style="stroke:#9467bd"  d="M 229.32724778374825 366.32308717539513 L 229.32724778374825 366.32308717539513 201.54353935703938 348.8153937885114 156.54057403257386 323.91679867189987 128.03318525587673 288.16803097431387 117.29759690158127 247.74825469150102 105.95429717401655 183.41720517208879 102.21807265290401 141.7632521976908 116.77945687259687 98.42029779483306 150.55259023109 59.631351045463276 170.67275221625175 33.67691282460487" />
	<path id="line6" style="stroke:#8c564b"  d="M 170.67275221625178 366.32308717539513 L 170.67275221625178 366.32308717539513 198.45646064296062 348.8153937885114 201.54353935703938 313.80000701474404 200.0 277.811970608372 181.94601857669952 249.60290629177138 163.61094263669577 206.41637261569858 161.41578840018352 154.01712720850355 173.38673866007187 126.88066541050284 199.99999999999997 104.503490616998 229.3272477837482 33.67691282460484" />
	<path id="line7" style="stroke:#e377c2"  d="M 115.55555555555559 346.2620681947052 L 115.55555555555559 346.2620681947052 105.52572848931713 314.9913734360201 125.66834576148582 286.18369502677695 149.9834294076453 259.60742769268063 181.94601857669952 249.60290629177138 214.3711611235612 239.48444067832847 241.3801092434327 192.70357027571907 233.9303862385627 159.56334030208376 226.6132613399281 126.88066541050284 284.44444444444434 53.73793180529472" />
	<path id="line8" style="stroke:#7f7f7f"  d="M 70.62360516212814 308.55968519150446 L 70.62360516212814 308.55968519150446 103.16088899492622 313.00703748848326 153.6396689451688 322.86095556765304 198.45646064296062 313.80000701474404 232.66172982627546 289.7373651780192 250.0165705923547 259.60742769268063 276.6298319322828 213.51190689681655 294.0457028259834 183.41720517208879 328.10614181651613 124.25555881080706 329.37639483787177 91.44031480849553" />
	<path id="line9" style="stroke:#bcbd22"  d="M 41.29635737837992 257.76340198389073 L 41.29635737837992 257.76340198389073 53.713479226016204 227.36161146605352 105.95429717401655 183.41720517208879 132.61285673462174 161.09401469581402 161.41578840018352 154.01712720850355 185.6288388764388 160.51555932167153 233.9303862385627 159.56334030208376 267.3871432653782 161.094014695814 329.64968117355556 126.92904740068147 358.70364262162013 142.2365980161093" />

	<text text-anchor='middle' dominant-baseline='middle' x='373.1111111111111' y='200.0'>1</text>
	<text text-anchor='middle' dominant-baseline='middle' x='362.67123368716057' y='259.207487033488'>2</text>
	<text text-anchor='middle' dominant-baseline='middle' x='332.6108047088186' y='311.273677321292'>3</text>
	<text text-anchor='middle' dominant-baseline='middle' x='286.55555555555554' y='349.91861989957283'>4</text>
	<text text-anchor='middle' dominant-baseline='middle' x='230.06042897834195' y='370.48116435478'>5</text>
	<text text-anchor='middle' dominant-baseline='middle' x='169.93957102165808' y='370.48116435478'>6</text>
	<text text-anchor='middle' dominant-baseline='middle' x='113.44444444444449' y='349.91861989957283'>7</text>
	<text text-anchor='middle' dominant-baseline='middle' x='67.38919529118138' y='311.27367732129204'>8</text>
	<text text-anchor='middle' dominant-baseline='middle' x='37.328766312839434' y='259.207487033488'>9</text>

	</svg>