<?xml version="1.0" encoding="UTF-8" standalone="no"?>
<!-- Created with LineOrder (https://github.com/zegalur/line-order) -->

<svg
    width="800.0px"
    height="800.0px"
    viewBox="0px 0px 800.0px 800.0px"
    version="1.1"
    id="svg1=-body"
    xml:space="preserve"
    xmlns="http://www.w3.org/2000/svg"
    xmlns:svg="http://www.w3.org/2000/svg">

    <style>
path { fill: none; stroke-width:1.5px }
    </style>

    <rect width="100%" height="100%" fill="white"/>
    
    
    <text x='20' y='30'>(33 pseudolines)</text>
    <text x='20' y='45'>Generated by LineOrder</text>

    	<path id="line1" style="stroke:#1f77b4"  d="M 724.2105263157895 400.0 L 724.2105263157895 400.0 715.08404688507 414.8087309568621 653.968381126934 436.312735466282 641.1922406429542 458.30644833353165 626.6088351969283 478.21807539743423 610.4962494237178 495.91016776896527 593.141679862289 511.2790624862552 574.8375546197069 524.255309092045 555.8776601393321 534.803667078256 536.3465736478022 542.9961709978368 516.9344238819818 548.6942159271531 497.7206937031861 552.0563674703874 478.9677649213437 553.1760939950423 460.9216801082509 552.1750001287538 443.8092288816574 549.200531747839 427.83532626225804 544.4233867362573 413.1807125012801 538.0346662709771 386.81928749871986 538.0346662709771 372.16467373774196 544.4233867362573 356.1907711183426 549.200531747839 339.07831989174906 552.1750001287538 321.0322350786563 553.1760939950423 302.279306296814 552.0563674703874 283.0655761180182 548.6942159271532 263.6534263521978 542.9961709978368 244.12233986066792 534.803667078256 225.16244538029304 524.255309092045 206.85832013771096 511.27906248625527 189.50375057628224 495.91016776896527 173.39116480307175 478.2180753974343 158.80775935704582 458.30644833353176 146.031618873066 436.31273546628205 84.91595311492995 414.8087309568622 75.78947368421052 400.00000000000006" />
	<path id="line2" style="stroke:#ff7f0e"  d="M 722.7424759500107 430.8181698291455 L 722.7424759500107 430.8181698291455 715.0649812959041 415.2089669286692 647.8681505457662 411.60684318240544 631.0451108717742 411.20660721059835 614.2602023761142 410.00589929517713 597.3573126558285 409.40128750797913 580.5450238881303 408.6004194872034 563.7310295444582 407.79947021983037 546.9147448559071 406.9984118498839 530.0952832373624 406.1972021441097 513.2712327199381 405.39577384214 496.440199095523 404.5940128937857 479.5977719807546 403.79170920659345 462.73483658335033 402.9884285894929 445.8290202313436 402.18310530076593 417.77415975577765 387.3430781350589 401.91895667298047 379.903776528196 400.0 371.1605219363703 396.4463765315176 362.7847713485111 391.31696596097123 354.9481413924331 366.5025450756499 370.9742900804117 337.83329981147824 391.0617779035974 321.123077768323 388.6592106859553 304.4331782816203 386.2595654108096 287.75456910405796 383.86154343705084 271.0828797933881 381.46451638994847 254.41573782381903 379.0681431517918 237.7517440134735 376.6722225505975 221.09001980628923 374.27662826907385 204.42998572911858 371.8812769915601 187.66110560645106 369.67268111613055 171.066335019667 366.88190311029723 87.75033744632685 355.3076813183406 77.2575240499894 369.1818301708545" />
	<path id="line3" style="stroke:#2ca02c"  d="M 718.3516197441197 461.35724554000666 L 718.3516197441197 461.35724554000666 706.5874969251338 474.1711658476989 658.404387308601 489.22262297641123 641.1017800623872 509.887245282864 622.2800206031077 528.1020913567058 602.2448241367422 543.7719373644862 581.305653955717 556.8371491448281 559.771759509325 567.2734771750067 537.9482924857846 575.0914242563103 516.1325458898996 580.3351993596618 494.6103592086117 583.0812757183975 473.4334786881538 583.4279620812885 453.29411196376805 581.5030770229398 434.2071154932902 577.4833685609728 427.83532626225804 544.4233867362573 424.6486127559528 527.8891470150286 400.599220371677 520.8624076401982 365.67879528025026 516.8872889373573 351.59363957442883 520.9132428866839 336.4611461469823 523.248181834972 320.481825123901 523.7326953107828 303.87668072087916 522.2307436768982 286.8845315240734 518.6320890942663 269.7590560624184 512.854420340979 252.76559864104314 504.84514257985916 236.17777316828654 494.58280676053374 220.27390518568603 482.0781573156607 205.1867169147445 467.21352781845735 191.50538749813552 450.3740895764481 179.33520825977405 431.52440220035203 168.93582353905984 410.8063712387913 160.5529020858128 388.39315681759456 87.80736155289685 354.91106994547226 81.64838025588028 338.64275445999345" />
	<path id="line4" style="stroke:#d62728"  d="M 711.0777219718582 491.340660533853 L 711.0777219718582 491.340660533853 706.4930307202992 474.56056084761894 657.5410547134991 462.2726277120735 641.0977744381196 458.69584333345176 624.8434265724093 454.3402689549898 608.4001462970299 450.7634845763681 592.0116035519313 446.5815109990442 575.6547000137613 442.6133691368911 559.2961370976168 438.64482471399714 542.9353458739067 434.67573970953697 526.5714637719603 430.70590486613014 510.2031170681173 426.7349869220226 493.82797640486626 422.76242078119645 477.44175086047574 418.7871654773033 461.0355725300342 414.8070696798894 444.5876747378497 410.8168528505686 428.02653840664834 406.7991646489288 400.0 405.69396325405836 380.01784636797515 402.872999959558 371.19318728315545 401.3722376176243 362.6578353670534 398.2211734586352 366.5025450756499 370.9742900804117 355.69891264586994 356.5891134393213 332.8574266793303 361.23521721922714 310.91277004526603 349.71169946642556 292.8372132532511 362.91059890048507 276.9204434386861 357.401751307186 261.0080150546877 351.89440629761503 245.098592276466 346.3881015383174 229.1913363303161 340.88254672689123 213.2856939825174 335.37755038728426 197.36888168934595 329.65668308124526 101.85117255180802 297.0216925498677 88.92227802814182 308.6593394661471" />
	<path id="line5" style="stroke:#9467bd"  d="M 700.9866561778426 520.4968803614536 L 700.9866561778426 520.4968803614536 687.0100760203914 530.8528615537122 651.4183613439262 544.9251202271565 629.6520936537775 563.2885656369275 606.733647772102 578.8706312114002 582.9901977754362 591.6242744101456 558.7469054292202 601.5390120694403 534.3229780510987 608.640064300037 510.02787521706455 612.987084546001 486.15770683630825 614.6724967377792 473.4334786881538 583.4279620812885 467.17789670688273 567.8022737037874 460.9216801082509 552.1750001287538 454.6646113091629 536.5455978598908 448.40636042557117 520.9132428866839 442.1464020865853 505.27662289609106 401.37712826659964 499.47377039101775 351.89735005362724 493.30612354212286 338.69150641966223 495.3978781323755 324.694677273768 495.7585075992638 310.1221744537629 494.26115058763435 295.2058436658074 490.80465336526674 280.1910789683887 485.3155464481006 265.3336144140545 477.74967396883955 250.89613278596954 468.0934545548913 237.14473308655417 456.36475589232106 224.34529998623876 442.61336913689115 212.75981967028574 426.92107369511757 202.6426873441715 409.4012875079792 194.1608502554648 389.99410070482287 187.71812971302106 369.2760697432622 183.42544666769763 347.25342573436103 101.98222535432768 296.64304034431444 99.01334382215742 279.5031196385465" />
	<path id="line6" style="stroke:#8c564b"  d="M 688.1698086165436 548.5618617810973 L 688.1698086165436 548.5618617810973 686.8436234546602 531.2173418318894 656.4045453817218 516.8757840398134 640.935327496656 510.2517255610412 625.7990147430525 502.89870652591463 610.3297968579866 496.2746480471425 595.1934841043831 488.9216290120159 579.726094814314 482.07815731566075 564.415757617038 475.08616059792115 549.1038672140305 468.09345455489137 533.789891077612 461.09979598932875 518.4730218271075 454.1048161828338 503.15197363403394 447.1079279172143 487.8245661805296 440.10813547466597 472.48678309158544 433.10360463818125 457.1303238588496 426.090544692611 441.7348145072765 419.0596511553165 400.0 417.1499984740083 364.67160876480807 412.2272750877522 355.4123252621503 410.8168528505686 346.2018940676254 407.7349998911177 337.26516341664967 402.9884285894929 328.83022740544294 396.6097658858694 321.123077768323 388.6592106859553 314.36335486857445 379.2247746838286 311.90543924741104 347.9923459732017 308.4638919016549 334.81743250085526 295.1062048862948 324.56984417000024 274.04174227227446 311.04115318105767 258.04398100626827 318.04165422088147 243.46612299699768 309.625123975021 228.8897437347673 301.2094474841621 126.72788310045968 242.45760812000557 111.83019138345622 251.43813821890288" />
	<path id="line7" style="stroke:#e377c2"  d="M 672.7432506442146 575.281443975078 L 672.7432506442146 575.281443975078 657.0593631708127 582.8051939093689 632.161641588487 600.9041132779723 606.2086360415474 615.9750716452845 579.5455183726556 627.9865998825703 552.5134102122979 636.9449292404122 533.9858963265884 608.8566935704964 525.2277619704992 594.4876318298495 515.7954641653893 580.5518286301212 506.82041013810556 566.215802628586 497.7206937031861 552.0563674703874 488.62005411866244 537.8954958633661 479.51817487609907 523.7326953107828 470.4145761078676 509.5672191240328 461.3084935803378 495.39787813237547 452.19863141909315 481.22265591585915 402.10526315789474 476.57487780830826 345.5274422910022 469.267491891531 333.3731771494199 469.8762007617028 320.66465929287887 468.74446404770487 307.6273508870293 465.7782656589689 294.4991111108292 460.91096659990757 281.52697817289265 454.1048161828338 268.96378523674264 445.3520748709354 257.0646541260934 434.675739709537 246.08341121278164 422.1298645533521 236.26897045554176 407.7994702198304 227.86172888714853 391.8000435044402 221.09001980628923 374.27662826907385 216.1666684512065 355.4025163212855 213.2856939825174 335.37755038728426 212.62435112101542 314.20816008828166 126.92822800919129 242.11060055904477 127.25674935578542 224.71855602492215" />
	<path id="line8" style="stroke:#7f7f7f"  d="M 654.8466875587143 600.4136502694173 L 654.8466875587143 600.4136502694173 656.8269402735984 583.1315861989058 643.3557284122951 573.0468797731482 629.4196707565632 563.6149579264644 615.9484588952598 553.5302515007069 602.0124012395279 544.0983296540231 588.5411893782245 534.0136232282656 574.6051317224926 524.5817013815818 560.9448167383347 514.6082851743363 547.2344013589568 504.84514257985916 533.5225950829923 495.08100953240637 519.8089210316114 485.3155464481006 506.09265619497523 475.54823847396636 492.3726491129707 465.77826565896885 478.6469473097534 456.0042376513533 464.911954119294 446.22359327683466 451.16023643179915 436.43103944189045 403.30969724102226 433.83607082470684 352.9303726494469 427.17566202149726 342.8696761411504 426.090544692611 332.66824258704594 423.3037478143042 322.55824913952426 418.78716547730335 312.7763135110027 412.54087283934047 303.559800904477 404.5940128937857 295.1432017106859 395.0050550718476 287.75456910405796 383.86154343705084 281.61203604088195 371.2793907071111 276.9204434386861 357.401751307186 273.86811615578665 342.3974987305992 274.7369061061686 310.0649321715642 276.12003012530397 292.65739506028984 263.39845182360625 281.6340847121361 161.48135995741677 193.58751620538467 145.15331244128572 199.5863497305827" />
	<path id="line9" style="stroke:#bcbd22"  d="M 634.6421934066964 623.7308795120953 L 634.6421934066964 623.7308795120953 617.817855174603 628.1504702628539 605.9186431819272 616.2515792784304 594.5994169084918 603.799673027715 582.700204915816 591.9007820432915 571.3809786423806 579.4488757925762 559.4817666497047 567.5499848081527 548.1625403762692 555.0980785574374 536.3465736478022 542.9961709978368 524.731610220272 530.8147479376065 513.1154684759266 518.6320890942663 501.49774442042917 506.4477707707499 489.8778255462371 494.26115058763435 478.2547363783749 482.0712054962088 466.6268228505801 469.8762007617028 454.99103799868453 457.6729408200657 402.7573083534538 454.09575900641005 346.1524836829495 446.65913849391734 335.088045880706 446.22359327683466 323.6852980597608 444.0603137083232 312.1754338194704 440.10813547466597 300.797877411581 434.3341884464081 289.7968829318827 426.7349869220226 279.4180384274363 417.33706872147064 269.9047167626376 406.1972021441097 261.49451663416164 393.4021706465741 254.41573782381903 379.0681431517918 248.88393480739597 363.3396392578028 245.098592276466 346.3881015383174 243.2399650214493 328.4100907824699 243.46612299699768 309.625123975021 245.9102402708906 290.27317882383 161.74375598536503 193.28469504638883 165.35780659330348 176.26912048790481" />
	<path id="line10" style="stroke:#17becf"  d="M 612.312743215945 645.0219672643279 L 612.312743215945 645.0219672643279 617.5278623149829 628.4269778959998 631.8992455605387 601.2069344369681 643.1233055150808 573.373272062685 651.2180164351947 545.2721277881174 656.2380928159907 517.2402643179905 658.2733345060813 489.60127518196447 657.4465885086645 462.66202271199353 653.911357020364 436.70934683915027 647.8490849566001 412.00707915421253 639.4661635033531 388.79339278940154 628.9906890869029 367.2785144831654 616.6690195371369 347.64282073428103 602.7621711131736 330.0353352867984 587.5421014447156 314.5726403664587 571.1102562652327 301.20944748416207 554.0897597291093 290.2731788238299 536.6015481763936 281.634084712136 518.9237081922771 275.2764044053863 501.32657587827555 271.1527773206486 484.0692945828392 269.18562419448244 467.396569979808 269.26889283933326 441.43760145347744 258.8764895197131 429.4284450944382 247.31072785435444 415.58127213103813 236.82553591270226 399.99999999999994 227.66653352221275 382.8186437419188 220.06869682221975 364.2001722509375 214.2528555483576 344.33497009587086 210.42231800311905 323.2210254961461 208.75444407151576 301.53526178927507 209.4422720747016 279.3198460698006 212.58858440524438 204.8555219197677 152.17770925758217 187.68725678405502 154.978032735672" />
	<path id="line11" style="stroke:#1f77b4" stroke-dasharray='6,2' d="M 588.0605559451885 664.0940981384247 L 588.0605559451885 664.0940981384247 570.703842373497 665.2497941807874 540.8629072339702 672.798702201208 511.16765972285333 677.1443388958992 481.950242203917 678.3857767495319 453.52502513826926 676.6555827581944 434.2071154932902 577.4833685609728 443.8092288816574 549.200531747839 454.6646113091629 536.5455978598908 463.5388538530177 523.2481818349719 470.4145761078676 509.5672191240328 475.305322726232 495.7585075992638 478.2547363783749 482.0712054962088 479.33534070712113 468.74446404770487 478.6469473097534 456.0042376513533 476.3147019402392 444.0603137083232 472.48678309158544 433.10360463818125 467.33175741295406 423.30374781430413 461.0355725300342 414.8070696798894 453.7981059323746 407.73499989111764 445.8290202313436 402.18310530076593 422.36728718828397 376.5418643243982 408.6830340390288 354.9481413924331 405.97008742705043 337.47841586549856 400.0 328.7495247839737 392.4251710277086 320.6728020849841 383.32306160757963 313.4718271188001 352.24296097936076 309.5305966884722 329.9009711906433 310.86183366685816 309.08034913298195 284.3862589883174 298.67342412172445 271.1527773206487 267.25136075007424 231.52047269697215 205.1704853908165 151.93001924623024 211.9394440548115 135.9059018615754" />
	<path id="line12" style="stroke:#ff7f0e" stroke-dasharray='6,2' d="M 562.1052631578948 680.774551963797 L 562.1052631578948 680.774551963797 570.3667606489867 665.4664234512467 561.6086262928975 651.0973617105998 552.1763284877876 637.1615585108716 558.4319419581714 601.7867020807922 571.0909857827604 579.725383425722 581.0432579277688 557.1399703038239 588.3087664810104 534.3400155178025 592.9413349535575 511.626070047216 595.027031538652 489.2861092901931 594.6822302827359 467.59218002401053 592.0116035519313 446.5815109990442 587.2401803297142 426.9210736951175 580.5450238881303 408.6004194872034 572.1382711128515 391.80004350444017 562.2482559865265 376.67222255059744 551.116065192604 363.3396392578027 538.9919849453123 351.8944062976149 526.1318838442132 342.39749873059907 505.5889589475993 325.54606517949367 484.06675923936825 311.83332035553167 470.0990288093567 310.8618336668581 441.7647177427574 295.6767785033443 423.05495244845577 280.37954783508104 412.3803656321321 270.34694534319976 399.99999999999994 261.3374590071945 386.0190299539993 253.5846575625706 370.57155490556187 247.31072785435438 349.0769102065108 226.57188292550245 344.33497009587086 210.42231800311905 334.6383400772954 178.10974623685752 310.7160490528736 177.5185229924558 255.28271376391658 119.72484559189121 237.89473684210512 119.22544803620309" />
	<path id="line13" style="stroke:#2ca02c" stroke-dasharray='6,2' d="M 534.6819200048221 694.9122679675702 L 534.6819200048221 694.9122679675702 517.4201479444896 692.7622994354292 510.79567214523456 677.2932602574157 504.91517150121706 661.5263783563692 485.7857192586894 614.8214180992957 494.25421189493545 583.2648824197452 506.82041013810556 566.215802628586 516.9344238819818 548.6942159271531 524.731610220272 530.8147479376065 530.2409439375816 512.854420340979 533.5225950829923 495.08100953240637 534.6663855859455 477.74967396883955 533.789891077612 461.09979598932875 531.0362147632575 445.3520748709353 526.5714637719603 430.70590486613014 520.5819615725637 417.33706872147064 513.2712327199381 405.39577384214 504.8567982893141 395.00505507184755 495.56682171837963 386.25956541080956 485.63664513142555 379.22477468382857 467.1425733206697 361.23521721922714 435.5261031583043 331.0889738100822 416.6769383924204 313.4718271188001 409.17761887077626 303.8876268739807 400.0 295.0242998483879 389.2206754789367 287.11380642381687 376.94504755154423 280.37954783508104 348.3278190814701 272.5414022841595 332.6034300201919 269.2688928393333 309.463097482277 224.38290986343486 301.89140910295134 209.2586653733539 293.82650378504866 194.48936766089986 255.63886107759282 119.54123889054347 265.31807999517787 105.08773203242981" />
	<path id="line14" style="stroke:#d62728" stroke-dasharray='6,2' d="M 506.03887652817457 706.3792128043347 L 506.03887652817457 706.3792128043347 517.0481603668709 692.9112207969456 540.5067599202939 672.9823089025557 561.2715445683871 651.3139909810591 579.2305549016069 628.2342898939222 594.3094240488716 604.0761806608609 606.4712517441537 579.173452370396 615.7160359980455 553.8566437902438 622.0796756943761 528.4490989176667 625.6325621773213 503.26318680409184 626.4777823944086 478.59672760298747 624.7489603675748 454.72966395490994 620.607767633656 431.9210135732203 614.2411367869482 410.4061352669842 605.8582153337012 390.3943366766299 595.5700142708814 371.88127699155996 583.8333315487935 355.4025163212854 570.8086636696839 340.8825467268911 556.7600349785506 328.41009078246975 541.9560189937316 318.04165422088136 523.879969874696 292.65739506028984 518.9237081922771 275.2764044053863 532.4336757788769 231.2727826856202 520.343072205689 212.37195513478494 505.817348901275 194.30576095955215 488.91196336950753 177.36960163093931 469.71679579573913 161.85528087397205 448.3559075863354 148.04710842940983 424.98686860139617 136.21802293825186 399.7996550912684 126.62578085517674 373.0151253748412 119.50925803372218 344.8830852879089 115.08490983041821 310.94036538984915 97.4018562563013 293.9611234718253 93.6207871956654" />
	<path id="line15" style="stroke:#9467bd" stroke-dasharray='6,2' d="M 476.4355285651617 715.0715400459483 L 476.4355285651617 715.0715400459483 459.89258343355704 709.6936124037436 453.1315763078013 676.731413804752 453.29411196376805 581.5030770229398 467.17789670688273 567.8022737037874 478.9677649213437 553.1760939950423 488.62005411866244 537.8954958633661 496.1233192791209 522.2307436768982 501.49774442042917 506.4477707707499 504.7941563341926 490.80465336526674 506.09265619497523 475.54823847396636 505.5008888891708 460.91096659990757 503.15197363403394 447.1079279172143 499.202122588419 434.3341884464081 493.82797640486626 422.76242078119645 487.2236864889973 412.54087283934047 479.5977719807546 403.79170920659345 471.16977259455706 396.60976588586936 461.0355725300342 385.1929303201106 441.25378614105614 353.6835176015019 435.5261031583043 331.0889738100822 445.99239986933037 308.62086197702257 441.7647177427574 295.6767785033443 450.5595869627801 272.09598685452113 441.43760145347744 258.8764895197131 450.9230897934892 226.57188292550248 435.79982774906244 214.2528555483576 421.788607479762 169.71172872459195 399.7996550912684 160.27183859607806 376.2133864964754 153.00296382006226 351.2506435831967 148.12293947596726 320.41955526482764 129.68501224852372 311.32482445430384 97.2889688895271 323.5644714348384 84.92845995405168" />
	<path id="line16" style="stroke:#8c564b" stroke-dasharray='6,2' d="M 446.1399686191283 720.9105306308709 L 446.1399686191283 720.9105306308709 459.49913460308903 709.769443450301 481.56578313946227 678.4986641163061 504.54318392359824 661.6752997178857 509.6717279033883 613.1706912473487 524.8906802459888 594.7042611003088 537.6333290147359 575.3391142676622 547.8725475166491 555.3745861905832 555.6152641113838 535.1064882372518 560.9448167383347 514.6082851743363 563.8222268317135 494.5828067605337 564.415757617038 475.08616059792115 562.8552669134458 456.364755892321 559.2961370976168 438.64482471399714 553.9165887872184 422.1298645533521 546.9147448559071 406.9984118498839 538.5054833658384 393.40217064657406 528.9171202066118 381.46451638994836 518.3879639591181 371.279390707111 507.1627867467489 362.910598900485 491.53610809834504 334.81743250085515 484.06675923936825 311.83332035553167 490.919650867018 284.38625898831737 484.0692945828392 269.18562419448244 490.536902517723 224.3829098634348 476.40698692623494 208.60552270999932 464.97720085824994 177.99685887008332 470.1012548601939 161.9681682407462 479.1959856707177 129.57212488174952 454.72346588162316 115.00907878386079 428.1851297230303 102.72431715191186 399.7996550912684 92.97972311427543 369.8168642532071 86.01555224738212 353.86003138087176 79.08946936912918" />
	<path id="line17" style="stroke:#e377c2" stroke-dasharray='6,2' d="M 415.42655797232914 723.8433057561753 L 415.42655797232914 723.8433057561753 400.20034490873155 715.43179132095 386.81928749871986 538.0346662709771 375.3513872440473 527.8891470150286 365.67879528025026 516.8872889373573 357.8535979134147 505.27662289609106 351.89735005362724 493.30612354212286 347.80136858090685 481.22265591585915 345.5274422910022 469.267491891531 345.00896200131547 457.6729408200657 346.1524836829495 446.65913849391734 348.83976356820085 436.43103944189045 352.9303726494469 427.17566202149726 358.2651854927235 419.0596511553165 364.67160876480807 412.2272750877522 371.97346159335166 406.7991646489288 380.01784636797515 402.872999959558 388.45660795008047 389.99759385046633 396.4463765315176 362.7847713485111 394.02991257294957 337.47841586549856 392.4251710277086 320.6728020849841 390.82238112922374 303.8876268739807 389.2206754789367 287.11380642381687 387.61963436786783 270.34694534319976 386.0190299539993 253.5846575625706 384.4187278689618 236.82553591270226 382.8186437419188 220.06869682221975 377.81251705729244 169.74981671323224 376.61226195942083 152.96487583142192 374.6142559356583 136.2561109268923 373.41400083778666 119.47117004508192 371.41599481402415 102.76240514055218 370.2157397161525 85.9774642587418 384.57344202767075 76.15669424382475" />
	<path id="line18" style="stroke:#7f7f7f" stroke-dasharray='6,2' d="M 384.5734420276709 723.8433057561753 L 384.5734420276709 723.8433057561753 399.79965509126845 715.43179132095 413.1807125012801 538.0346662709771 424.6486127559528 527.8891470150286 434.3212047197498 516.8872889373573 442.1464020865853 505.27662289609106 448.1026499463728 493.30612354212286 452.19863141909315 481.22265591585915 454.4725577089978 469.267491891531 454.99103799868453 457.6729408200657 453.8475163170505 446.65913849391734 451.16023643179915 436.43103944189045 447.06962735055316 427.17566202149726 441.7348145072765 419.0596511553165 435.32839123519193 412.22727508775216 428.02653840664834 406.7991646489288 419.98215363202485 402.872999959558 401.91895667298047 379.903776528196 403.5536234684824 362.7847713485111 405.97008742705043 337.47841586549856 407.5748289722914 320.6728020849841 409.17761887077626 303.8876268739807 410.7793245210632 287.11380642381687 412.3803656321321 270.34694534319976 413.98097004600066 253.58465756257058 415.58127213103813 236.82553591270226 417.18135625808105 220.0686968222197 422.18748294270745 169.74981671323224 423.3877380405791 152.96487583142192 425.3857440643416 136.2561109268923 426.5859991622132 119.47117004508186 428.58400518597574 102.76240514055218 429.78426028384735 85.9774642587418 415.42655797232914 76.15669424382475" />
	<path id="line19" style="stroke:#bcbd22" stroke-dasharray='6,2' d="M 353.8600313808718 720.9105306308709 L 353.8600313808718 720.9105306308709 340.500865396911 709.769443450301 318.43421686053773 678.4986641163061 295.4568160764017 661.6752997178857 290.3282720966118 613.1706912473487 275.1093197540112 594.7042611003088 262.36667098526414 575.3391142676622 252.12745248335088 555.3745861905832 244.38473588861618 535.1064882372518 239.05518326166532 514.6082851743363 236.17777316828654 494.58280676053374 235.58424238296203 475.08616059792115 237.14473308655417 456.36475589232106 240.7038629023832 438.6448247139972 246.08341121278164 422.1298645533521 253.08525514409288 406.9984118498839 261.49451663416164 393.4021706465741 271.0828797933881 381.46451638994847 281.61203604088195 371.2793907071111 292.8372132532511 362.91059890048507 308.4638919016549 334.81743250085526 315.9332407606317 311.83332035553167 309.08034913298195 284.3862589883174 315.93070541716077 269.18562419448244 309.463097482277 224.38290986343486 323.59301307376495 208.60552270999938 335.0227991417501 177.99685887008332 329.8987451398061 161.96816824074625 320.8040143292824 129.57212488174952 345.27653411837684 115.00907878386079 371.8148702769696 102.72431715191186 400.2003449087315 92.97972311427543 430.1831357467928 86.01555224738212 446.1399686191281 79.08946936912912" />
	<path id="line20" style="stroke:#17becf" stroke-dasharray='6,2' d="M 323.5644714348384 715.0715400459483 L 323.5644714348384 715.0715400459483 340.1074165664431 709.6936124037436 346.8684236921988 676.731413804752 346.705888036232 581.5030770229398 332.82210329311727 567.8022737037874 321.0322350786563 553.1760939950423 311.37994588133756 537.8954958633661 303.87668072087916 522.2307436768982 298.50225557957083 506.4477707707499 295.2058436658074 490.80465336526674 293.9073438050248 475.54823847396636 294.4991111108292 460.91096659990757 296.84802636596606 447.1079279172143 300.797877411581 434.3341884464081 306.17202359513374 422.7624207811965 312.7763135110027 412.54087283934047 320.4022280192454 403.79170920659345 328.83022740544294 396.6097658858694 337.83329981147824 391.0617779035974 358.7462138589439 353.6835176015019 364.4738968416957 331.0889738100822 354.00760013066963 308.62086197702257 358.2352822572426 295.6767785033443 349.4404130372199 272.09598685452113 358.56239854652256 258.8764895197131 349.0769102065108 226.57188292550245 364.2001722509375 214.2528555483576 378.2113925202379 169.711728724592 400.2003449087315 160.27183859607806 423.7866135035245 153.0029638200622 448.7493564168034 148.12293947596726 479.58044473517236 129.68501224852372 488.6751755456962 97.2889688895271 476.43552856516175 84.92845995405173" />
	<path id="line21" style="stroke:#1f77b4" stroke-dasharray='6,2,2,2' d="M 293.9611234718254 706.3792128043347 L 293.9611234718254 706.3792128043347 282.95183963312917 692.9112207969456 259.4932400797061 672.9823089025557 238.72845543161296 651.3139909810591 220.76944509839316 628.2342898939222 205.69057595112838 604.0761806608609 193.52874825584627 579.173452370396 184.28396400195447 553.8566437902438 177.92032430562392 528.4490989176668 174.36743782267865 503.26318680409184 173.52221760559144 478.5967276029876 175.25103963242526 454.72966395491 179.3922323663441 431.92101357322036 185.75886321305177 410.4061352669842 194.1417846662988 390.39433667662996 204.42998572911858 371.8812769915601 216.1666684512065 355.4025163212855 229.1913363303161 340.88254672689123 243.2399650214493 328.4100907824699 258.04398100626827 318.04165422088147 276.12003012530397 292.65739506028984 281.0762918077229 275.2764044053863 267.56632422112307 231.27278268562026 279.6569277943109 212.37195513478494 294.18265109872493 194.30576095955215 311.0880366304924 177.36960163093931 330.28320420426087 161.85528087397205 351.6440924136646 148.04710842940983 375.0131313986037 136.21802293825186 400.2003449087315 126.62578085517674 426.9848746251587 119.50925803372218 455.11691471209116 115.08490983041821 489.0596346101509 97.40185625630124 506.03887652817457 93.62078719566534" />
	<path id="line22" style="stroke:#ff7f0e" stroke-dasharray='6,2,2,2' d="M 265.3180799951778 694.9122679675702 L 265.3180799951778 694.9122679675702 282.57985205551034 692.7622994354292 289.20432785476544 677.2932602574157 295.08482849878294 661.5263783563692 314.2142807413105 614.8214180992957 305.7457881050646 583.2648824197452 293.17958986189444 566.215802628586 283.0655761180182 548.6942159271532 275.26838977972795 530.8147479376065 269.7590560624184 512.854420340979 266.4774049170077 495.08100953240637 265.3336144140545 477.74967396883955 266.21010892238803 461.0997959893288 268.96378523674264 445.3520748709354 273.42853622803966 430.7059048661302 279.4180384274363 417.33706872147064 286.72876728006196 405.39577384214 295.1432017106859 395.0050550718476 304.4331782816203 386.2595654108096 314.36335486857445 379.2247746838286 332.8574266793303 361.23521721922714 364.4738968416957 331.0889738100822 383.32306160757963 313.4718271188001 390.82238112922374 303.8876268739807 400.0 295.0242998483879 410.7793245210632 287.11380642381687 423.05495244845577 280.37954783508104 451.6721809185299 272.5414022841595 467.396569979808 269.26889283933326 490.536902517723 224.3829098634348 498.1085908970486 209.25866537335386 506.1734962149513 194.48936766089986 544.361138922407 119.54123889054341 534.681920004822 105.0877320324297" />
	<path id="line23" style="stroke:#2ca02c" stroke-dasharray='6,2,2,2' d="M 237.89473684210532 680.774551963797 L 237.89473684210532 680.774551963797 229.63323935101337 665.4664234512468 238.39137370710264 651.0973617105998 247.8236715122125 637.1615585108716 241.56805804182864 601.7867020807922 228.90901421723962 579.725383425722 218.95674207223118 557.1399703038239 211.6912335189897 534.3400155178025 207.05866504644254 511.62607004721605 204.97296846134807 489.2861092901931 205.3177697172642 467.5921800240106 207.9883964480687 446.5815109990443 212.75981967028574 426.92107369511757 219.4549761118697 408.6004194872034 227.86172888714853 391.8000435044402 237.7517440134735 376.6722225505975 248.88393480739597 363.3396392578028 261.0080150546877 351.89440629761503 273.86811615578665 342.3974987305992 294.4110410524007 325.5460651794938 315.9332407606317 311.83332035553167 329.9009711906433 310.86183366685816 358.2352822572426 295.6767785033443 376.94504755154423 280.37954783508104 387.61963436786783 270.34694534319976 400.0 261.3374590071945 413.98097004600066 253.58465756257058 429.4284450944382 247.31072785435444 450.9230897934892 226.57188292550248 455.665029904129 210.42231800311896 465.36165992270463 178.10974623685746 489.2839509471263 177.51852299245573 544.7172862360833 119.7248455918911 562.1052631578948 119.22544803620303" />
	<path id="line24" style="stroke:#d62728" stroke-dasharray='6,2,2,2' d="M 211.9394440548116 664.0940981384247 L 211.9394440548116 664.0940981384247 229.29615762650306 665.2497941807874 259.1370927660298 672.798702201208 288.8323402771466 677.1443388958992 318.04975779608304 678.3857767495319 346.47497486173086 676.6555827581947 365.7928845067099 577.4833685609728 356.1907711183426 549.200531747839 345.3353886908371 536.5455978598908 336.4611461469823 523.248181834972 329.58542389213244 509.5672191240328 324.694677273768 495.7585075992638 321.74526362162504 482.0712054962088 320.66465929287887 468.74446404770487 321.35305269024667 456.0042376513534 323.6852980597608 444.0603137083232 327.51321690841456 433.10360463818125 332.66824258704594 423.3037478143042 338.9644274699658 414.8070696798894 346.2018940676254 407.7349998911177 354.1709797686564 402.18310530076593 362.6578353670534 398.2211734586352 391.31696596097123 354.9481413924331 394.02991257294957 337.47841586549856 400.0 328.7495247839737 407.5748289722914 320.6728020849841 416.6769383924204 313.4718271188001 447.7570390206393 309.5305966884722 470.0990288093567 310.8618336668581 490.919650867018 284.38625898831737 501.32657587827555 271.1527773206486 532.7486392499256 231.52047269697212 594.8295146091834 151.93001924623016 588.0605559451884 135.90590186157533" />
	<path id="line25" style="stroke:#9467bd" stroke-dasharray='6,2,2,2' d="M 187.68725678405494 645.0219672643279 L 187.68725678405494 645.0219672643279 182.47213768501715 628.4269778959998 168.10075443946124 601.2069344369681 156.8766944849192 573.3732720626851 148.78198356480533 545.2721277881174 143.76190718400932 517.2402643179906 141.7266654939187 489.6012751819645 142.5534114913355 462.66202271199364 146.08864297963603 436.7093468391504 152.15091504339983 412.0070791542126 160.5338364966468 388.79339278940165 171.009310913097 367.27851448316557 183.33098046286307 347.64282073428114 197.2378288868263 330.0353352867985 212.45789855528426 314.5726403664588 228.8897437347673 301.2094474841621 245.9102402708906 290.27317882383 263.39845182360625 281.6340847121361 281.0762918077229 275.2764044053863 298.67342412172445 271.1527773206487 315.93070541716077 269.18562419448244 332.6034300201919 269.2688928393333 358.56239854652256 258.8764895197131 370.57155490556187 247.31072785435438 384.4187278689618 236.82553591270226 399.99999999999994 227.66653352221275 417.18135625808105 220.0686968222197 435.79982774906244 214.2528555483576 455.665029904129 210.42231800311896 476.77897450385376 208.75444407151576 498.4647382107249 209.44227207470158 520.6801539301994 212.58858440524432 595.1444780802321 152.17770925758208 612.3127432159449 154.97803273567186" />
	<path id="line26" style="stroke:#8c564b" stroke-dasharray='6,2,2,2' d="M 165.35780659330356 623.7308795120953 L 165.35780659330356 623.7308795120953 182.18214482539702 628.1504702628539 194.08135681807275 616.2515792784304 205.40058309150822 603.799673027715 217.299795084184 591.9007820432915 228.61902135761952 579.4488757925762 240.51823335029525 567.5499848081527 251.83745962373072 555.0980785574374 263.6534263521978 542.9961709978368 275.26838977972795 530.8147479376065 286.8845315240734 518.6320890942663 298.50225557957083 506.4477707707499 310.1221744537629 494.26115058763435 321.74526362162504 482.0712054962088 333.3731771494199 469.8762007617028 345.00896200131547 457.6729408200657 397.2426916465462 454.09575900641005 453.8475163170505 446.65913849391734 464.911954119294 446.22359327683466 476.3147019402392 444.0603137083232 487.8245661805296 440.10813547466597 499.202122588419 434.3341884464081 510.2031170681173 426.7349869220226 520.5819615725637 417.33706872147064 530.0952832373624 406.1972021441097 538.5054833658384 393.40217064657406 545.584262176181 379.06814315179173 551.116065192604 363.3396392578027 554.9014077235339 346.3881015383173 556.7600349785506 328.41009078246975 556.5338770030022 309.6251239750208 554.0897597291093 290.2731788238299 638.2562440146348 193.28469504638878 634.6421934066964 176.26912048790473" />
	<path id="line27" style="stroke:#e377c2" stroke-dasharray='6,2,2,2' d="M 145.15331244128572 600.4136502694173 L 145.15331244128572 600.4136502694173 143.17305972640156 583.1315861989058 156.64427158770494 573.0468797731482 170.58032924343684 563.6149579264645 184.05154110474018 553.5302515007069 197.98759876047205 544.0983296540231 211.45881062177543 534.0136232282656 225.39486827750736 524.5817013815818 239.05518326166532 514.6082851743363 252.76559864104314 504.84514257985916 266.4774049170077 495.08100953240637 280.1910789683887 485.3155464481006 293.9073438050248 475.54823847396636 307.6273508870293 465.7782656589689 321.35305269024667 456.0042376513534 335.088045880706 446.22359327683466 348.83976356820085 436.43103944189045 396.69030275897774 433.83607082470684 447.06962735055316 427.17566202149726 457.1303238588496 426.090544692611 467.33175741295406 423.30374781430413 477.44175086047574 418.7871654773033 487.2236864889973 412.54087283934047 496.440199095523 404.5940128937857 504.8567982893141 395.00505507184755 512.245430895942 383.8615434370507 518.3879639591181 371.279390707111 523.0795565613139 357.4017513071859 526.1318838442132 342.39749873059907 525.2630938938314 310.0649321715641 523.879969874696 292.65739506028984 536.6015481763936 281.634084712136 638.5186400425832 193.5875162053846 654.8466875587142 199.58634973058258" />
	<path id="line28" style="stroke:#7f7f7f" stroke-dasharray='6,2,2,2' d="M 127.25674935578547 575.281443975078 L 127.25674935578547 575.281443975078 142.94063682918727 582.8051939093689 167.838358411513 600.9041132779723 193.79136395845265 615.9750716452845 220.45448162734436 627.9865998825703 247.4865897877022 636.9449292404122 266.0141036734116 608.8566935704964 274.7722380295009 594.4876318298495 284.20453583461074 580.5518286301212 293.17958986189444 566.215802628586 302.279306296814 552.0563674703874 311.37994588133756 537.8954958633661 320.481825123901 523.7326953107828 329.58542389213244 509.5672191240328 338.69150641966223 495.3978781323755 347.80136858090685 481.22265591585915 397.89473684210526 476.57487780830826 454.4725577089978 469.267491891531 466.6268228505801 469.8762007617028 479.33534070712113 468.74446404770487 492.3726491129707 465.77826565896885 505.5008888891708 460.91096659990757 518.4730218271075 454.1048161828338 531.0362147632575 445.3520748709353 542.9353458739067 434.67573970953697 553.9165887872184 422.1298645533521 563.7310295444582 407.79947021983037 572.1382711128515 391.80004350444017 578.9099801937107 374.27662826907374 583.8333315487935 355.4025163212854 586.7143060174826 335.37755038728415 587.3756488789845 314.2081600882815 673.0717719908085 242.1106005590445 672.7432506442144 224.7185560249218" />
	<path id="line29" style="stroke:#bcbd22" stroke-dasharray='6,2,2,2' d="M 111.83019138345645 548.5618617810974 L 111.83019138345645 548.5618617810974 113.15637654533987 531.2173418318894 143.59545461827815 516.8757840398134 159.06467250334398 510.2517255610412 174.20098525694755 502.8987065259147 189.6702031420134 496.2746480471425 204.80651589561694 488.9216290120159 220.27390518568603 482.0781573156607 235.58424238296203 475.08616059792115 250.89613278596954 468.0934545548913 266.21010892238803 461.0997959893288 281.52697817289265 454.1048161828338 296.84802636596606 447.1079279172143 312.1754338194704 440.10813547466597 327.51321690841456 433.10360463818125 342.8696761411504 426.090544692611 358.2651854927235 419.0596511553165 400.0 417.1499984740083 435.32839123519193 412.22727508775216 444.5876747378497 410.8168528505686 453.7981059323746 407.73499989111764 462.73483658335033 402.9884285894929 471.16977259455706 396.60976588586936 478.876922231677 388.65921068595526 485.63664513142555 379.22477468382857 488.09456075258896 347.9923459732016 491.53610809834504 334.81743250085515 504.89379511370515 324.5698441700002 525.9582577277255 311.0411531810576 541.9560189937316 318.04165422088136 556.5338770030022 309.6251239750208 571.1102562652327 301.20944748416207 673.2721168995402 242.4576081200053 688.1698086165436 251.43813821890265" />
	<path id="line30" style="stroke:#17becf" stroke-dasharray='6,2,2,2' d="M 99.01334382215748 520.4968803614536 L 99.01334382215748 520.4968803614536 112.9899239796087 530.8528615537122 148.58163865607378 544.9251202271566 170.34790634622254 563.2885656369276 193.26635222789795 578.8706312114002 217.00980222456386 591.6242744101456 241.2530945707799 601.5390120694403 265.67702194890126 608.640064300037 289.9721247829355 612.987084546001 313.84229316369175 614.6724967377792 326.5665213118462 583.4279620812885 332.82210329311727 567.8022737037874 339.07831989174906 552.1750001287538 345.3353886908371 536.5455978598908 351.59363957442883 520.9132428866839 357.8535979134147 505.27662289609106 398.6228717334003 499.47377039101775 448.1026499463728 493.30612354212286 461.3084935803378 495.39787813237547 475.305322726232 495.7585075992638 489.8778255462371 494.26115058763435 504.7941563341926 490.80465336526674 519.8089210316114 485.3155464481006 534.6663855859455 477.74967396883955 549.1038672140305 468.09345455489137 562.8552669134458 456.364755892321 575.6547000137613 442.6133691368911 587.2401803297142 426.9210736951175 597.3573126558285 409.40128750797913 605.8391497445352 389.9941007048228 612.2818702869789 369.27606974326204 616.5745533323023 347.2534257343609 698.0177746456723 296.6430403443143 700.9866561778424 279.50311963854625" />
	<path id="line31" style="stroke:#1f77b4" stroke-dasharray='2,2' d="M 88.92227802814187 491.3406605338531 L 88.92227802814187 491.3406605338531 93.50696927970085 474.56056084761906 142.45894528650098 462.27262771207353 158.90222556188036 458.6958433334518 175.15657342759067 454.34026895498994 191.5998537029701 450.76348457636817 207.9883964480687 446.5815109990443 224.34529998623876 442.61336913689115 240.7038629023832 438.6448247139972 257.0646541260934 434.675739709537 273.42853622803966 430.7059048661302 289.7968829318827 426.7349869220226 306.17202359513374 422.7624207811965 322.55824913952426 418.78716547730335 338.9644274699658 414.8070696798894 355.4123252621503 410.8168528505686 371.97346159335166 406.7991646489288 400.0 405.69396325405836 419.98215363202485 402.872999959558 417.77415975577765 387.3430781350589 422.36728718828397 376.5418643243982 432.51859445065895 365.895479671625 444.3010873541301 356.58911343932124 467.1425733206697 361.23521721922714 489.0872299547339 349.71169946642556 507.1627867467489 362.910598900485 523.0795565613139 357.4017513071859 538.9919849453123 351.8944062976149 554.9014077235339 346.3881015383173 570.8086636696839 340.8825467268911 586.7143060174826 335.37755038728415 602.631118310654 329.65668308124515 698.1488274481919 297.0216925498675 711.0777219718582 308.65933946614695" />
	<path id="line32" style="stroke:#ff7f0e" stroke-dasharray='2,2' d="M 81.64838025588034 461.3572455400068 L 81.64838025588034 461.3572455400068 93.41250307486632 474.171165847699 141.59561269139903 489.22262297641123 158.89821993761288 509.88724528286406 177.7199793968924 528.102091356706 197.7551758632578 543.7719373644862 218.69434604428292 556.8371491448281 240.2282404906751 567.2734771750067 262.0517075142154 575.0914242563103 283.8674541101004 580.3351993596619 305.38964079138833 583.0812757183976 326.5665213118462 583.4279620812885 346.705888036232 581.5030770229398 365.7928845067099 577.4833685609728 372.16467373774196 544.4233867362573 375.3513872440473 527.8891470150286 399.40077962832305 520.8624076401982 434.3212047197498 516.8872889373573 448.40636042557117 520.9132428866839 463.5388538530177 523.2481818349719 479.51817487609907 523.7326953107828 496.1233192791209 522.2307436768982 513.1154684759266 518.6320890942663 530.2409439375816 512.854420340979 547.2344013589568 504.84514257985916 563.8222268317135 494.5828067605337 579.726094814314 482.07815731566075 594.8132830852555 467.2135278184573 608.4946125018645 450.37408957644806 620.664791740226 431.524402200352 631.0641764609402 410.8063712387913 639.4470979141872 388.39315681759444 712.192638447103 354.91106994547204 718.3516197441197 338.64275445999317" />
	<path id="line33" style="stroke:#2ca02c" stroke-dasharray='2,2' d="M 77.2575240499894 430.81816982914563 L 77.2575240499894 430.81816982914563 84.93501870409591 415.20896692866927 152.13184945423384 411.6068431824055 168.95488912822577 411.2066072105984 185.7397976238858 410.0058992951772 202.6426873441715 409.4012875079792 219.4549761118697 408.6004194872034 236.26897045554176 407.7994702198304 253.08525514409288 406.9984118498839 269.9047167626376 406.1972021441097 286.72876728006196 405.39577384214 303.559800904477 404.5940128937857 320.4022280192454 403.79170920659345 337.26516341664967 402.9884285894929 354.1709797686564 402.18310530076593 371.19318728315545 401.3722376176243 388.45660795008047 389.99759385046633 400.0 371.1605219363703 403.5536234684824 362.7847713485111 408.6830340390288 354.9481413924331 432.51859445065895 365.895479671625 461.0355725300342 385.1929303201106 478.876922231677 388.65921068595526 495.56682171837963 386.25956541080956 512.245430895942 383.8615434370507 528.9171202066118 381.46451638994836 545.584262176181 379.06814315179173 562.2482559865265 376.67222255059744 578.9099801937107 374.27662826907374 595.5700142708814 371.88127699155996 612.3388943935489 369.6726811161304 628.9336649803329 366.88190311029706 712.249662553673 355.30768131834037 722.7424759500107 369.1818301708542" />

	<text text-anchor='middle' dominant-baseline='middle' x='732.3157894736842' y='400.0'>1</text>
	<text text-anchor='middle' dominant-baseline='middle' x='730.8110378487609' y='431.5886240748742'>2</text>
	<text text-anchor='middle' dominant-baseline='middle' x='726.3104102377226' y='462.89117667850684'>3</text>
	<text text-anchor='middle' dominant-baseline='middle' x='718.8546650211545' y='493.62417704719934'>4</text>
	<text text-anchor='middle' dominant-baseline='middle' x='708.5113225822886' y='523.5093023704899'>5</text>
	<text text-anchor='middle' dominant-baseline='middle' x='695.3740538319572' y='552.2759083256246'>6</text>
	<text text-anchor='middle' dominant-baseline='middle' x='679.5618319103198' y='579.6634800744549'>7</text>
	<text text-anchor='middle' dominant-baseline='middle' x='661.2178547476822' y='605.4239915261527'>8</text>
	<text text-anchor='middle' dominant-baseline='middle' x='640.5082482418638' y='629.3241514998977'>9</text>
	<text text-anchor='middle' dominant-baseline='middle' x='617.6205617963437' y='651.1475164459362'>10</text>
	<text text-anchor='middle' dominant-baseline='middle' x='592.7620698438182' y='670.6964505918852'>11</text>
	<text text-anchor='middle' dominant-baseline='middle' x='566.1578947368422' y='687.7939157628919'>12</text>
	<text text-anchor='middle' dominant-baseline='middle' x='538.0489680049427' y='702.2850746667594'>13</text>
	<text text-anchor='middle' dominant-baseline='middle' x='508.6898484413789' y='714.038693124443'>14</text>
	<text text-anchor='middle' dominant-baseline='middle' x='478.34641677929073' y='722.9483285470969'>15</text>
	<text text-anchor='middle' dominant-baseline='middle' x='447.29346783460653' y='728.9332938966426'>16</text>
	<text text-anchor='middle' dominant-baseline='middle' x='415.81222192163733' y='731.9393884000796'>17</text>
	<text text-anchor='middle' dominant-baseline='middle' x='384.1877780783627' y='731.9393884000796'>18</text>
	<text text-anchor='middle' dominant-baseline='middle' x='352.7065321653936' y='728.9332938966427'>19</text>
	<text text-anchor='middle' dominant-baseline='middle' x='321.6535832207094' y='722.9483285470969'>20</text>
	<text text-anchor='middle' dominant-baseline='middle' x='291.31015155862104' y='714.038693124443'>21</text>
	<text text-anchor='middle' dominant-baseline='middle' x='261.9510319950573' y='702.2850746667594'>22</text>
	<text text-anchor='middle' dominant-baseline='middle' x='233.84210526315798' y='687.7939157628919'>23</text>
	<text text-anchor='middle' dominant-baseline='middle' x='207.2379301561819' y='670.6964505918852'>24</text>
	<text text-anchor='middle' dominant-baseline='middle' x='182.37943820365632' y='651.1475164459362'>25</text>
	<text text-anchor='middle' dominant-baseline='middle' x='159.4917517581362' y='629.3241514998977'>26</text>
	<text text-anchor='middle' dominant-baseline='middle' x='138.7821452523179' y='605.4239915261527'>27</text>
	<text text-anchor='middle' dominant-baseline='middle' x='120.43816808968018' y='579.6634800744549'>28</text>
	<text text-anchor='middle' dominant-baseline='middle' x='104.62594616804284' y='552.2759083256248'>29</text>
	<text text-anchor='middle' dominant-baseline='middle' x='91.48867741771147' y='523.5093023704899'>30</text>
	<text text-anchor='middle' dominant-baseline='middle' x='81.14533497884548' y='493.62417704719945'>31</text>
	<text text-anchor='middle' dominant-baseline='middle' x='73.68958976227742' y='462.89117667850695'>32</text>
	<text text-anchor='middle' dominant-baseline='middle' x='69.1889621512392' y='431.58862407487425'>33</text>

	</svg>