<?xml version="1.0" encoding="UTF-8" standalone="no"?>

<svg
    width="400.0px"
    height="400.0px"
    viewBox="0px 0px 400.0px 400.0px"
    version="1.1"
    id="svg1=-body"
    xml:space="preserve"
    xmlns="http://www.w3.org/2000/svg"
    xmlns:svg="http://www.w3.org/2000/svg">

    <style>
path { fill: none; stroke-width:1.5px }
    </style>

    <rect width="100%" height="100%" fill="white"/>
    
    
    <text x='20' y='30'>(7 pseudolines)</text>
    <text x='20' y='45'>Generated by LineOrder</text>

    	<path id="line1" style="stroke:#1f77b4"  d="M 371.42857142857144 200.0 L 371.42857142857144 200.0 341.7807223704516 229.75202782520398 297.40871104809355 274.42811253766286 242.97197388266912 289.23222322031 157.0280261173309 289.23222322031 102.59128895190649 274.42811253766286 58.2192776295484 229.752027825204 28.571428571428555 200.00000000000003" />
	<path id="line2" style="stroke:#ff7f0e"  d="M 354.45180592612905 274.38006956300995 L 354.45180592612905 274.38006956300995 340.6489380036221 234.71069912940465 296.55714884583716 222.03853912978073 252.14086037675207 211.9008111300816 158.18627648655124 233.34533179206184 140.60724787266065 179.13514614263494 122.56717867879858 138.24938557025587 45.548194073870974 125.61993043699006" />
	<path id="line3" style="stroke:#2ca02c"  d="M 306.88396603292574 334.0282541373765 L 306.88396603292574 334.0282541373765 294.23752172187994 278.40465817595395 296.55714884583716 222.03853912978073 274.4869433953601 182.9988412427406 233.14980842377327 131.16371351576083 199.99999999999991 100.9597041593068 144.53093164646884 90.67853193465946 93.1160339670742 65.97174586262346" />
	<path id="line4" style="stroke:#d62728"  d="M 238.14644582108247 367.1304992311698 L 238.14644582108247 367.1304992311698 242.97197388266912 289.23222322031 207.1255977355284 262.5465185974424 158.18627648655124 233.34533179206184 176.79513410335866 151.8145994610326 199.99999999999991 100.9597041593068 197.45690361192774 55.1535673329862 161.8535541789175 32.86950076883022" />
	<path id="line5" style="stroke:#9467bd"  d="M 161.85355417891753 367.1304992311698 L 161.85355417891753 367.1304992311698 139.44473887032456 331.60553462949656 105.76247827812004 278.40465817595395 103.44285115416284 222.03853912978073 122.56717867879858 138.24938557025587 149.11343299392507 88.47171559507323 202.54309638807206 55.15356733298617 238.1464458210823 32.86950076883019" />
	<path id="line6" style="stroke:#8c564b"  d="M 93.11603396707426 334.02825413737656 L 93.11603396707426 334.02825413737656 134.86223752286833 329.39871828991033 157.0280261173309 289.23222322031 192.87440226447163 262.5465185974424 252.14086037675207 211.9008111300816 274.4869433953601 182.9988412427406 311.6599065191503 107.70145357735366 306.8839660329257 65.97174586262344" />
	<path id="line7" style="stroke:#e377c2"  d="M 45.548194073871 274.38006956301 L 45.548194073871 274.38006956301 59.351061996377894 234.71069912940467 103.44285115416284 222.03853912978073 137.4360585464471 193.02903438932736 176.79513410335866 151.8145994610326 233.14980842377327 131.16371351576083 314.83109584536385 111.67799921564476 354.45180592612905 125.61993043699015" />

	<text text-anchor='middle' dominant-baseline='middle' x='375.71428571428567' y='200.0'>1</text>
	<text text-anchor='middle' dominant-baseline='middle' x='358.31310107428226' y='276.2395713020852'>2</text>
	<text text-anchor='middle' dominant-baseline='middle' x='309.5560651837489' y='337.3789604908109'>3</text>
	<text text-anchor='middle' dominant-baseline='middle' x='239.10010696660953' y='371.308761711949'>4</text>
	<text text-anchor='middle' dominant-baseline='middle' x='160.89989303339047' y='371.308761711949'>5</text>
	<text text-anchor='middle' dominant-baseline='middle' x='90.44393481625112' y='337.378960490811'>6</text>
	<text text-anchor='middle' dominant-baseline='middle' x='41.6868989257178' y='276.2395713020852'>7</text>

	</svg>