<?xml version="1.0" encoding="UTF-8" standalone="no"?>
<!-- Created with LineOrder (https://github.com/zegalur/line-order) -->

<svg
    width="400.0px"
    height="400.0px"
    viewBox="0 0 400.0 400.0"
    version="1.1"
    xmlns="http://www.w3.org/2000/svg">

    <style>
path { fill: none; stroke-width:1.5px }
    </style>

    <rect width="100%" height="100%" fill="white"/>
    
    
    <text x='20' y='30'>(11 pseudolines)</text>
    <text x='20' y='45'>by Honma</text>

    	<path id="line1" style="stroke:#1f77b4"  d="M 366.66666666666663 200.0 L 366.66666666666663 200.0 350.36281806506315 179.33961249829514 326.4463869204752 143.29689133458865 295.3752128921292 118.61230437503798 246.10418602233966 128.26048622792962 220.2810855009153 130.92896591871084 179.71891449908463 130.9289659187109 153.89581397766028 128.26048622792968 125.52675649823811 135.46856716324274 97.56356649880047 154.26186965854902 49.63718193493685 179.33961249829522 33.33333333333334 200.00000000000009" />
	<path id="line2" style="stroke:#ff7f0e"  d="M 359.9154956024163 246.95542614023827 L 359.9154956024163 246.95542614023827 338.45136363011306 262.1855978273915 289.6371594319627 240.9359190761187 265.4816911434792 229.90448633807372 241.1599201473298 218.79710569821776 213.0748501654594 220.3448639795578 175.53655435549322 238.06586445048632 155.67068839180843 238.41156716473648 121.57351991807622 208.4781133789572 102.46079420230056 185.9759793927822 49.90722877750687 177.46139545268568 40.08450439758374 153.04457385976175" />
	<path id="line3" style="stroke:#2ca02c"  d="M 340.2089221385302 290.10680290926626 L 340.2089221385302 290.10680290926626 337.6631006915577 263.9116528981526 310.9029117502032 216.90395341048577 297.5392057976994 185.97597939278216 277.57061873919844 164.5746854148973 246.10418602233966 128.26048622792962 227.76255259680855 105.44942890205755 199.05123441151142 87.82023658682762 163.76677550347708 79.96858046350951 124.28254531055327 83.93623152371987 84.67659688418459 101.3270991509066 59.79107786146977 109.89319709073374" />
	<path id="line4" style="stroke:#d62728"  d="M 309.1434556575475 325.95826239237635 L 309.1434556575475 325.95826239237635 282.85262633576116 327.1663122743387 238.91911807080623 260.5593298075919 215.18654505694815 251.72062270326492 213.0748501654594 220.3448639795578 176.06217173157654 203.44174011037856 165.80310247368075 170.3682196157747 145.59584484449215 152.85853120691434 125.52675649823811 135.46856716324274 104.62478710787082 118.61230437503801 85.91921554342389 99.89304077158219 90.85654434245245 74.04173760762365" />
	<path id="line5" style="stroke:#9467bd"  d="M 269.2358355003144 351.6053325590864 L 269.2358355003144 351.6053325590864 281.25632152947185 328.19219508100707 264.447999184217 255.84450918565534 265.4816911434792 229.90448633807372 258.0590510700592 208.34763131382013 231.42646826551734 172.7688102355212 199.99999999999997 146.0958817567693 179.71891449908463 130.9289659187109 172.23744740319142 105.44942890205755 165.5874433350011 79.4339841533334 156.3303774864748 54.64253463370349 130.76416449968548 48.39466744091368" />
	<path id="line6" style="stroke:#8c564b"  d="M 223.7191397122142 364.97024031348883 L 223.7191397122142 364.97024031348883 200.94876558848858 351.77262108840966 161.8692443265 333.22903876156965 133.01402176315713 305.9871074848901 115.84150087895324 274.1791513922207 110.36284056803733 240.93591907611872 102.46079420230056 185.9759793927822 98.35182943735592 152.5358145877879 105.8674057671101 117.1782459957136 125.87885011684259 82.91034871705146 158.15104531799878 54.10793832352741 176.2808602877858 35.0297596865112" />
	<path id="line7" style="stroke:#e377c2"  d="M 176.28086028778583 364.97024031348883 L 176.28086028778583 364.97024031348883 199.05123441151144 351.77262108840966 200.94876558848858 325.37738263825145 175.97471409891568 281.82260960398867 161.08088192919377 260.5593298075919 155.67068839180843 238.41156716473648 146.64454795716506 175.6333815023103 145.59584484449215 152.85853120691434 153.89581397766028 128.26048622792968 172.23744740319142 105.44942890205755 200.94876558848856 87.8202365868276 223.71913971221414 35.0297596865112" />
	<path id="line8" style="stroke:#7f7f7f"  d="M 130.76416449968562 351.6053325590864 L 130.76416449968562 351.6053325590864 118.7436784705282 328.19219508100707 131.41771695686782 304.96122467822164 146.72405170751858 282.8989936921702 161.08088192919377 260.5593298075919 175.53655435549322 238.06586445048632 176.06217173157654 203.44174011037856 182.87558804884526 173.35389488465958 199.99999999999997 146.0958817567693 220.2810855009153 130.92896591871084 227.76255259680855 105.44942890205755 269.23583550031435 48.394667440913565" />
	<path id="line9" style="stroke:#bcbd22"  d="M 90.8565443424525 325.95826239237635 L 90.8565443424525 325.95826239237635 117.14737366423886 327.1663122743387 160.048576494976 332.69444245139357 199.05123441151144 325.37738263825145 200.0 271.98701395497693 215.18654505694815 251.72062270326492 241.1599201473298 218.79710569821776 258.0590510700592 208.34763131382013 271.25428994961806 189.75517975122074 277.57061873919844 164.5746854148973 294.13259423288986 117.17824599571355 309.1434556575474 74.04173760762355" />
	<path id="line10" style="stroke:#17becf"  d="M 59.79107786146983 290.1068029092663 L 59.79107786146983 290.1068029092663 114.59888221971393 272.7450930128963 146.72405170751858 282.8989936921702 175.97471409891568 281.82260960398867 200.0 271.98701395497693 238.91911807080623 260.5593298075919 264.447999184217 255.84450918565534 289.6371594319627 240.9359190761187 311.17295859277317 215.02573636487625 323.9661982409665 181.21782954390468 325.65812398191974 141.57083626382754 340.2089221385302 109.89319709073375" />
	<path id="line11" style="stroke:#1f77b4" stroke-dasharray='6,2' d="M 40.08450439758374 246.95542614023827 L 40.08450439758374 246.95542614023827 110.36284056803733 240.93591907611872 122.36178285663163 213.96060254093737 146.64454795716506 175.6333815023103 165.80310247368075 170.3682196157747 182.87558804884526 173.35389488465958 231.42646826551734 172.7688102355212 271.25428994961806 189.75517975122074 297.5392057976994 185.97597939278216 324.2362450835365 183.0960465895142 350.0927712224931 177.46139545268562 359.9154956024163 153.0445738597617" />

	<text text-anchor='middle' dominant-baseline='middle' x='370.8333333333333' y='200.0'>1</text>
	<text text-anchor='middle' dominant-baseline='middle' x='363.9133829924766' y='248.12931179374425'>2</text>
	<text text-anchor='middle' dominant-baseline='middle' x='343.71414519199345' y='292.3594729819979'>3</text>
	<text text-anchor='middle' dominant-baseline='middle' x='311.87204204898615' y='329.1072189521858'>4</text>
	<text text-anchor='middle' dominant-baseline='middle' x='270.9667313878223' y='355.3954658730636'>5</text>
	<text text-anchor='middle' dominant-baseline='middle' x='224.31211820501954' y='369.094496321326'>6</text>
	<text text-anchor='middle' dominant-baseline='middle' x='175.68788179498048' y='369.094496321326'>7</text>
	<text text-anchor='middle' dominant-baseline='middle' x='129.03326861217778' y='355.3954658730636'>8</text>
	<text text-anchor='middle' dominant-baseline='middle' x='88.12795795101383' y='329.1072189521858'>9</text>
	<text text-anchor='middle' dominant-baseline='middle' x='56.285854808006576' y='292.35947298199795'>10</text>
	<text text-anchor='middle' dominant-baseline='middle' x='36.08661700752336' y='248.12931179374425'>11</text>

	</svg>