<?xml version="1.0" encoding="UTF-8" standalone="no"?>
<!-- Created with LineOrder (https://github.com/zegalur/line-order) -->

<svg
    width="400.0px"
    height="400.0px"
    viewBox="0 0 400.0 400.0"
    version="1.1"
    xmlns="http://www.w3.org/2000/svg">

    <style>
path { fill: none; stroke-width:1.5px }
    </style>

    <rect width="100%" height="100%" fill="white"/>
    
    
    <text x='20' y='30'>(13 pseudolines)</text>
    <text x='20' y='45'>by Kabanovitch</text>

    	<path id="line1" style="stroke:#1f77b4"  d="M 365.71428571428567 200.0 L 365.71428571428567 200.0 352.12710643736386 182.22226493863857 311.62811570410673 158.40169127085244 289.09232565755434 139.3409391736866 263.72667941711757 128.06744891584498 239.36723770767748 124.99199536729294 217.54368863869018 128.82245722645652 182.45631136130982 128.82245722645652 160.63276229232247 124.99199536729296 136.27332058288235 128.06744891584503 110.90767434244565 139.34093917368665 88.37188429589327 158.4016912708525 47.872893562636136 182.22226493863857 34.285714285714306 199.99999999999994" />
	<path id="line2" style="stroke:#ff7f0e"  d="M 360.8989297448886 239.65802436765244 L 360.8989297448886 239.65802436765244 343.4520787283226 253.66754592339885 279.08948417838684 254.59152926419398 256.1738877824963 263.4072116964033 234.06780186241323 264.9107732398426 214.80960729240076 260.0849387049393 200.0 250.4233078906948 190.6911039876338 237.7676757573904 159.27446814825782 211.97346938363907 138.5680472490581 192.54081046376442 115.90648245648843 189.78919832373086 92.92299224666016 187.6923372652113 48.03894032020153 180.85474685699538 39.10107025511138 160.3419756323476" />
	<path id="line3" style="stroke:#2ca02c"  d="M 346.73271282253194 277.0112685101102 L 346.73271282253194 277.0112685101102 342.96358848962063 254.9555888248629 295.4002089779333 211.5836825739188 284.09351754351155 189.78919832373086 268.54392035984966 174.00471988930488 250.9288345088097 164.84636373139023 233.43683796577156 162.25761208547422 200.0 152.5071114826456 171.2414659603005 145.20519142091206 160.63276229232247 124.99199536729296 138.7575387529042 84.79437108420893 105.44333321715321 94.30628029797592 73.55986236931851 113.5616059100395 53.267287177468035 122.98873148988986" />
	<path id="line4" style="stroke:#d62728"  d="M 324.0389239826396 309.8888976513318 L 324.0389239826396 309.8888976513318 271.98680115595096 280.2176078597192 256.1738877824963 263.4072116964033 241.0361193216288 246.32020334964525 238.42337716205708 218.043752413246 225.45917041937275 190.34461024459895 200.0 181.81149280253817 167.9875897373196 177.90342863115958 149.0711654911903 164.84636373139023 130.28408431682936 151.87857790785864 111.69021878520056 138.20722782398937 92.23376835588208 126.45127254186308 74.34240681207342 112.4278945603422 75.96107601736037 90.11110234866825" />
	<path id="line5" style="stroke:#9467bd"  d="M 294.1364437440201 336.38018349094875 L 294.1364437440201 336.38018349094875 255.97006333981756 305.15991400962497 226.46216567270437 304.4830988213522 200.0 296.1008926857948 179.7272931286247 282.24960498276135 165.9321981375868 264.9107732398426 158.9638806783712 246.32020334964525 138.5680472490581 192.54081046376442 131.45607964015028 174.0047198893049 130.28408431682936 151.87857790785864 136.27332058288235 128.06744891584503 139.9773093796963 84.1541860739703 128.21274293834773 64.70294127187665 105.86355625597989 63.61981650905125" />
	<path id="line6" style="stroke:#8c564b"  d="M 258.76309556704877 354.9455487878688 L 258.76309556704877 354.9455487878688 237.32254435379826 348.54538720497436 200.6887810300304 341.81555344257913 169.44517759696134 326.84391519266404 145.2497072869746 305.8000990198636 129.04431885227734 281.1311004748784 120.91051582161322 254.59152926419404 104.59979102206673 211.58368257391874 93.0890390042256 186.32481918356814 88.86037453459522 157.11364836938844 93.01631279863699 125.31756119216577 106.47445322538147 93.39278768281673 129.43251356513983 64.06275626163804 141.2369044329512 45.05445121213128" />
	<path id="line7" style="stroke:#e377c2"  d="M 219.9746498708821 364.5060419933918 L 219.9746498708821 364.5060419933918 235.98501174358563 348.87505938447515 231.89235501325132 326.51424301316325 225.1246330624917 304.812771000853 220.27270687137528 282.24960498276135 214.80960729240076 260.0849387049393 218.07679282495397 234.44245110685526 225.45917041937275 190.34461024459895 232.01241026268036 177.90342863115956 233.43683796577156 162.25761208547422 228.75853403969944 145.20519142091206 217.54368863869018 128.82245722645652 199.31121896996956 46.839202282014526 180.0253501291178 35.49395800660821" />
	<path id="line8" style="stroke:#7f7f7f"  d="M 180.02535012911792 364.5060419933918 L 180.02535012911792 364.5060419933918 164.0149882564144 348.87505938447515 168.1076449867487 326.51424301316325 174.8753669375083 304.812771000853 179.7272931286247 282.24960498276135 185.19039270759922 260.0849387049393 190.6911039876338 237.7676757573904 185.03115203179829 210.33224973454395 167.9875897373196 177.90342863115958 166.56316203422838 162.25761208547425 171.2414659603005 145.20519142091206 182.45631136130982 128.82245722645652 200.68878103003038 46.839202282014526 219.97464987088213 35.49395800660821" />
	<path id="line9" style="stroke:#bcbd22"  d="M 141.23690443295126 354.9455487878688 L 141.23690443295126 354.9455487878688 162.67745564620174 348.54538720497436 199.3112189699696 341.81555344257913 230.55482240303866 326.84391519266404 254.75029271302543 305.8000990198636 270.95568114772266 281.1311004748784 279.08948417838684 254.59152926419398 295.4002089779333 211.5836825739188 306.9109609957744 186.32481918356814 311.1396254654047 157.1136483693884 306.98368720136295 125.31756119216573 293.5255467746184 93.39278768281665 270.5674864348601 64.06275626163801 258.76309556704877 45.05445121213123" />
	<path id="line10" style="stroke:#17becf"  d="M 105.86355625597992 336.38018349094875 L 105.86355625597992 336.38018349094875 144.02993666018247 305.15991400962497 173.53783432729566 304.4830988213522 200.0 296.1008926857948 220.27270687137528 282.24960498276135 234.06780186241323 264.9107732398426 241.0361193216288 246.32020334964525 261.4319527509419 192.54081046376444 268.54392035984966 174.00471988930488 269.7159156831706 151.8785779078586 263.72667941711757 128.06744891584498 260.0226906203036 84.15418607397025 271.78725706165216 64.70294127187663 294.13644374401997 63.619816509051105" />
	<path id="line11" style="stroke:#1f77b4" stroke-dasharray='6,2' d="M 75.96107601736037 309.8888976513318 L 75.96107601736037 309.8888976513318 128.01319884404904 280.2176078597192 143.8261122175037 263.4072116964033 158.9638806783712 246.32020334964525 161.57662283794292 218.043752413246 185.03115203179829 210.33224973454395 200.0 181.81149280253817 232.01241026268036 177.90342863115956 250.9288345088097 164.84636373139023 269.7159156831706 151.8785779078586 288.3097812147994 138.2072278239893 307.76623164411785 126.451272541863 325.6575931879265 112.42789456034212 324.0389239826396 90.11110234866817" />
	<path id="line12" style="stroke:#ff7f0e" stroke-dasharray='6,2' d="M 53.26728717746815 277.0112685101103 L 53.26728717746815 277.0112685101103 57.03641151037937 254.95558882486296 104.59979102206673 211.58368257391874 115.90648245648843 189.78919832373086 131.45607964015028 174.0047198893049 149.0711654911903 164.84636373139023 166.56316203422838 162.25761208547425 200.0 152.5071114826456 228.75853403969944 145.20519142091206 239.36723770767748 124.99199536729294 261.2424612470957 84.79437108420886 294.5566667828467 94.30628029797585 326.4401376306814 113.56160591003943 346.732712822532 122.9887314898898" />
	<path id="line13" style="stroke:#2ca02c" stroke-dasharray='6,2' d="M 39.10107025511138 239.65802436765242 L 39.10107025511138 239.65802436765242 56.54792127167741 253.6675459233989 120.91051582161322 254.59152926419404 143.8261122175037 263.4072116964033 165.9321981375868 264.9107732398426 185.19039270759922 260.0849387049393 200.0 250.4233078906948 218.07679282495397 234.44245110685526 240.72553185174218 211.97346938363907 261.4319527509419 192.54081046376444 284.09351754351155 189.78919832373086 307.0770077533398 187.6923372652113 351.9610596797985 180.85474685699538 360.8989297448886 160.34197563234756" />

	<text text-anchor='middle' dominant-baseline='middle' x='369.85714285714283' y='200.0'>1</text>
	<text text-anchor='middle' dominant-baseline='middle' x='364.92140298851086' y='240.64947497684375'>2</text>
	<text text-anchor='middle' dominant-baseline='middle' x='350.4010306430952' y='278.93655022286293'>3</text>
	<text text-anchor='middle' dominant-baseline='middle' x='327.13989708220555' y='312.63612009261504'>4</text>
	<text text-anchor='middle' dominant-baseline='middle' x='296.4898548376206' y='339.78968807822247'>5</text>
	<text text-anchor='middle' dominant-baseline='middle' x='260.232172956225' y='358.81918750756546'>6</text>
	<text text-anchor='middle' dominant-baseline='middle' x='220.47401611765414' y='368.6186930432266'>7</text>
	<text text-anchor='middle' dominant-baseline='middle' x='179.52598388234588' y='368.6186930432266'>8</text>
	<text text-anchor='middle' dominant-baseline='middle' x='139.76782704377507' y='358.81918750756546'>9</text>
	<text text-anchor='middle' dominant-baseline='middle' x='103.51014516237943' y='339.7896880782225'>10</text>
	<text text-anchor='middle' dominant-baseline='middle' x='72.86010291779439' y='312.63612009261504'>11</text>
	<text text-anchor='middle' dominant-baseline='middle' x='49.59896935690486' y='278.93655022286305'>12</text>
	<text text-anchor='middle' dominant-baseline='middle' x='35.078597011489165' y='240.64947497684372'>13</text>

	</svg>