<?xml version="1.0" encoding="UTF-8" standalone="no"?>
<!-- Created with LineOrder (https://github.com/zegalur/line-order) -->

<svg
    width="700.0px"
    height="700.0px"
    viewBox="0 0 700.0 700.0"
    version="1.1"
    xmlns="http://www.w3.org/2000/svg">

    <style>
path { fill: none; stroke-width:1.5px }
    </style>

    <rect width="100%" height="100%" fill="white"/>
    
    
    <text x='20' y='30'>(29 pseudolines)</text>
    <text x='20' y='45'>Generated by LineOrder</text>

    	<path id="line1" style="stroke:#1f77b4"  d="M 634.0 350.0 L 634.0 350.0 625.2027621729928 364.7041865056561 561.3668993726708 361.67685398978574 545.4372438868186 360.3794257686984 472.0598820870883 370.0107019541656 461.47516762689844 380.95092793734364 450.04491956603977 389.8615392499901 438.0804751842602 396.69731250016537 419.06439542446026 408.6638262345095 400.64497848223357 416.62232985192304 389.0162507560402 414.84551319337356 378.41193172463943 411.4113840126695 369.0449726168915 406.5234644751023 361.09602096827285 400.4097314661855 354.71100156665125 393.31694406674876 344.41927506719776 401.31391835599464 331.1783122740571 405.86077853402816 315.1148816769523 407.97951767878106 289.79726564695426 379.79680393364805 266.43612370019827 354.5307017244318 250.45263317885434 355.3973013997232 234.47752524071296 356.2634465845594 218.50775167370037 357.1293025481969 202.54158241150463 357.99496309210554 186.5779625356427 358.8604854123035 170.53930794179888 359.9469496950027 154.56275611318148 360.3794257686984 138.63310062732916 361.67685398978574 74.79723782700711 364.70418650565614 66.0 350.00000000000006" />
	<path id="line2" style="stroke:#ff7f0e"  d="M 632.3351798318381 380.7058012323995 L 632.3351798318381 380.7058012323995 625.1793140016105 365.1366625793518 569.3668993726708 338.3231460102142 558.9354371665198 315.9662202282677 469.18082437530154 316.90960699786297 457.4753114701488 307.1779220258727 445.14866146447866 299.5553722992041 432.5152760743118 294.05325462725034 419.88371812417336 290.64023479157254 407.5512363571602 289.2438984617461 395.7985690580964 289.75301271763897 371.35233481514535 286.62852855383363 350.0 275.208937238958 340.9518858799238 266.80396457021277 339.2212284155019 250.8908319752789 337.4914785988915 234.98604506414995 334.0335244200522 203.19068146026245 316.5358097782247 197.9706511337262 297.7424531853586 194.9051279646583 277.6884521698656 194.21689562413954 257.15084720507923 196.10355225831609 236.22170664760537 200.68505487731298 215.25136746863146 208.06249682240457 194.6067719742999 218.29193573450613 174.66574614051336 231.38206504473007 155.81097797075316 247.292604050132 138.42378513964772 265.9334431294767 122.87776545758456 287.16456967890343 78.00029042181785 305.627357551949 67.66482016816184 319.2941987676007" />
	<path id="line3" style="stroke:#2ca02c"  d="M 627.3602378216647 411.05160501993083 L 627.3602378216647 411.05160501993083 615.6077090802733 423.52086972803664 538.5208904664486 402.5673152738563 523.2425701894147 397.87581515138044 479.75998829742866 401.70110475406875 466.34561601650535 411.6825417640102 443.68203636163537 428.7251701669876 420.01390442214733 442.1017161902761 405.52189099357497 442.2781006677719 391.86024607430204 440.4794391119997 379.2772094576438 436.8916612272535 367.99014737486414 431.73006348826 361.09602096827285 400.4097314661855 357.63218373479083 384.67336026774666 350.0 377.06724176113903 331.69607989222806 380.42135186849623 310.25358763997315 365.8364181130624 283.2260645052987 339.05296893095647 267.4158337466327 336.46101316196336 251.61973503780683 333.87137422494254 235.83192063405966 331.283093430802 220.0493780608171 328.69567690940346 204.27039753521282 326.108844356074 188.49393650671857 323.52242485332965 172.66676864508835 320.70824587927893 156.83063093639566 318.5509358973476 141.1346324392572 315.5388145411195 125.29849473056456 313.3815045591881 78.07036002759497 305.1999518648006 72.63976217833539 288.94839498006917" />
	<path id="line4" style="stroke:#d62728"  d="M 619.1335006159159 440.6816345586183 L 619.1335006159159 440.6816345586183 615.4918395421641 423.93819408773646 550.982333509285 383.1688276243407 545.413795715436 360.81190184239415 465.52247475928704 356.2634465845594 456.45599449756867 344.8762021407675 438.34926328690835 325.4699477962419 427.7429123786337 319.02439257653833 416.86270889493437 314.5516352478502 406.0058434893519 312.0270959008486 395.4597115878461 311.38617293512397 385.49663669022044 312.526656254028 333.5187736969208 301.0854634350076 328.3943587959634 285.87674198202683 323.27873739976957 270.69411872115745 318.1676886260527 255.52506652018616 313.0593203551673 240.36396976812054 307.95265785881094 225.2079355744495 302.84714791281203 210.05532202834232 297.7424531853586 194.9051279646583 287.3034639672033 164.60152873647547 264.27170663323034 165.21707539593444 240.67731910808445 168.72433557666943 216.884533045298 175.24743802476053 193.27725904135212 184.86471259870763 170.2533550522395 197.60595694975112 148.21854227054166 213.45041588679751 127.58005643733645 232.32551671033542 93.8982989591575 248.19286796876682 80.86649938408414 259.3183654413817" />
	<path id="line5" style="stroke:#9467bd"  d="M 607.7514191865519 469.24850484311514 L 607.7514191865519 469.24850484311514 593.5931347127262 478.899798794512 508.69749713846244 434.38119579758927 494.59740297603696 426.6606912526167 467.74993173682606 449.1686247638621 439.36909962147456 467.56304004828286 422.01285139543427 469.6862900654838 405.29325433279996 469.5144106374511 391.86024607430204 440.4794391119997 385.1390954530924 425.9519101214894 378.41193172463943 411.4113840126695 371.6732043284108 396.845863445562 364.90749504070584 382.2220224757834 358.0500473219812 367.39989213692303 317.018158384822 336.858833214289 302.0494764210105 330.89476521154324 287.14049009813147 324.95448212605663 272.2570876213663 319.02439257653833 257.3869887445803 313.0996036657235 242.52468852985118 307.1779220258727 227.66735110006726 301.25821774027185 212.81336690335442 295.33984950483983 197.9617545056431 289.4224262805029 182.94927132013794 283.67401829018655 168.26775359935525 277.35814295091944 153.2656138664778 271.84696818304667 138.58409614569507 265.53109284377956 123.58195641281762 260.01991807590673 94.05860996520491 247.79051768306965 92.2485808134482 230.75149515688486" />
	<path id="line6" style="stroke:#8c564b"  d="M 593.3474380315954 496.4172954382742 L 593.3474380315954 496.4172954382742 593.3902617387126 479.282457816979 524.3113320372297 419.68509452229557 523.1267006513054 398.2931395110803 476.885443324816 385.2295699234873 461.47516762689844 380.95092793734364 446.059744446493 376.6708567597224 430.63623236503537 372.38853970977925 415.1989215700179 368.102391465875 405.4094939134989 346.99578453346135 388.4967111819319 329.5903354457319 379.3857820777464 330.0759453800749 331.69607989222806 319.57864813150377 323.38891615100846 305.77203459118624 315.1148816769523 292.02048232121894 306.8550454602518 278.2925277385446 298.60259233737634 264.5768439532626 290.35446723501894 250.8683533940381 282.1090963275367 237.16444034230489 273.86558636253767 223.46362020103862 265.6233926739292 209.76498772815157 257.5219617037296 195.88026007315955 248.91408315658185 182.41394391749276 241.04843360673482 168.50104339151292 224.2037910110897 141.34511889502286 197.54735944299065 149.8098211722081 171.3031506140728 161.66692837501068 145.89993813017912 176.9199781649961 121.77133840056993 195.5187667288649 106.65256196840468 203.5827045617258" />
	<path id="line7" style="stroke:#e377c2"  d="M 576.0904306604028 521.8694771150293 L 576.0904306604028 521.8694771150293 560.1884161003359 528.2515165311927 468.26805121090905 474.5391650098227 449.0440599142572 480.29023265941487 439.36909962147456 467.56304004828286 429.6925942398122 454.83381490748883 420.01390442214733 442.1017161902761 410.33198163919894 429.3653645799636 400.64497848223357 416.62232985192304 390.9493088048862 403.8678945112875 381.2369727421888 391.0915349156616 371.4857484470082 378.26401872505824 361.60230416138444 365.2625701115315 320.6142179222536 330.07594538007487 307.27759374850723 321.0334898218012 293.9941565106481 312.0270959008486 280.7335136738836 303.0361569673194 267.4847239256882 294.05325462725034 254.24288253975752 285.07506339369235 241.0054628389044 276.0998701370051 227.77103076310362 267.1267025403656 214.53871188551065 258.1549677276623 201.3560064523329 248.9552327705957 187.88934807549924 240.3478896236964 174.90880258236118 231.02358361266312 161.44214420552754 222.4162404657638 148.46159871238945 213.09193445473053 134.99494033555578 204.4845913078312 122.01439484241772 195.16028529679795 123.90956933959708 178.13052288497076" />
	<path id="line8" style="stroke:#7f7f7f"  d="M 556.1827197061691 545.3066463143722 L 556.1827197061691 545.3066463143722 559.9080258052059 528.5816175058313 492.0321925801742 446.56185493992115 494.59740297603696 426.6606912526167 480.4726373571423 419.1722144623031 466.34561601650535 411.6825417640102 452.21540555202614 404.19117829926347 438.0804751842602 396.69731250016537 423.9381278256153 389.199514461372 409.7831279531178 381.6950084842751 395.60379632321167 374.1776026258253 381.3676905926853 366.6300970442184 366.93855292005003 358.98025240387796 325.58432396968965 324.2246841958923 314.50336330977956 312.526656254028 303.4665939187026 300.8752804674653 292.4487636428398 289.2438984617461 281.44078170688846 277.62291322206545 270.4385729357127 266.0080226383386 259.44003799666694 254.39701047203678 248.4439853766279 242.78861885804918 237.44968854320342 231.18208080545463 226.2384216822711 219.66138893425307 215.56580429719665 207.76464643730768 204.26431325499178 196.4636047105561 193.59169586991732 184.56686221361076 182.29020482771242 173.26582048685916 171.61758744263798 161.3690779899138 160.31609640043308 150.06803626316218 143.81728029383075 154.69335368562784" />
	<path id="line9" style="stroke:#bcbd22"  d="M 533.857704878039 566.4540236562488 L 533.857704878039 566.4540236562488 516.9555207587399 569.2683914672062 446.9675348191694 510.74125191209566 425.6657342142932 513.0330594329117 405.04453810636704 512.6881507154924 385.18250550915786 509.83573391717357 366.830757733848 504.75626170855526 350.00000000000006 497.6749956917122 334.89787497776376 488.8617464082631 321.69153669277574 478.6066453567331 294.7067456672001 469.514410637451 277.98714860456573 469.6862900654838 260.63090037852544 467.56304004828286 242.94665125171605 463.01484621801086 225.2629864967639 455.9525742633794 207.72475097797812 446.2033735078542 191.0996298875241 433.99853677512226 175.5283569567229 419.2827442365984 161.36323999544229 402.1499909141565 148.94759688493795 382.7414219371924 138.60965245594662 361.24437791609 130.6565487987117 337.8906699365186 125.36856433634165 312.95409887203976 122.99363499569367 286.7472453192036 123.74226741886503 259.6175677902096 127.7829294113499 231.9428576878684 135.23799677740357 204.12610987576423 146.1803284253092 176.58987719035747 160.63053322899833 149.77018587806535 166.14229512196096 133.54597634375122" />
	<path id="line10" style="stroke:#17becf"  d="M 509.3771265629166 585.0636754765569 L 509.3771265629166 585.0636754765569 516.6107238810621 569.5304992393233 458.9439999518178 492.955540909549 449.0440599142572 480.29023265941487 466.912048171283 450.1550575556646 480.4726373571423 419.1722144623031 479.75998829742866 401.70110475406875 476.885443324816 385.2295699234873 472.0598820870883 370.0107019541656 465.52247475928704 356.2634465845594 464.16807936594034 331.2830934308019 469.18082437530154 316.90960699786297 472.33264889993274 301.2582177402719 473.40945698893603 284.57244677174634 472.2289692368964 267.12670254036556 468.6448516715763 249.222154638373 462.55031145679663 231.18208080545463 453.7649096735632 213.14175553147217 442.47803829627037 195.88026007315952 428.62683945701247 179.5351268085539 412.2860967655538 164.4632356456657 393.5781614944095 151.01504240375894 372.67232976871253 139.52843295975984 349.78344436565817 130.32264895275273 325.1697306383125 123.69238103385709 299.1298877763727 119.90212428287623 266.898136163391 104.04067394172301 237.43821555995976 107.21743493952442 207.7302629140949 113.96590221337624 190.62287343708337 114.93632452344312" />
	<path id="line11" style="stroke:#1f77b4" stroke-dasharray='6,2' d="M 483.0279971587404 600.9174206226705 L 483.0279971587404 600.9174206226705 465.915970824199 600.0325201175268 430.55119786113244 588.3892192089329 402.58735356395516 587.8993817773668 373.96658574113474 568.3661792205723 350.2165556343417 561.6890837364383 328.1913538518401 552.5301272946696 308.13907984591833 541.1834515359981 290.2645692099227 527.9666575049903 274.72734692714636 513.2149181343948 277.98714860456573 469.6862900654838 270.3074057601878 454.83381490748883 264.93893512020907 439.79787441431085 235.09551953421874 395.7821294469932 223.11455667518402 385.2295699234873 212.15951887165247 372.5977998496685 202.54158241150463 357.99496309210554 194.5595028269422 341.57226112797997 188.49393650671857 323.52242485332965 184.5703942562661 303.84394837030777 183.10958232618532 283.2716680044894 184.2447724781834 261.87703236746154 188.13240451734703 239.98940819162942 194.88716226942995 217.96183475986751 204.578750083557 196.16575432545923 217.2293299229758 174.9853302526435 224.57490550974006 141.1218267098663 215.9670269625923 127.65551055419954 208.10137741274528 113.7426100282197 216.97200284125944 99.08257937732958" />
	<path id="line12" style="stroke:#ff7f0e" stroke-dasharray='6,2' d="M 455.1192361165357 613.8293884279688 L 455.1192361165357 613.8293884279688 465.5228896827595 600.2143788190099 452.4992252875637 571.0326998893217 415.2472020082732 542.9685781128686 392.2839055219875 541.0903454159088 370.5118512589238 536.6004202382899 350.2165556343417 529.7360144932023 331.64608833405106 520.7643683123871 314.81749449084214 509.83573391717357 321.69153669277574 478.6066453567331 311.54144577863565 466.1676201094191 302.72813676514545 428.5664478690729 299.35502151776643 416.62232985192304 266.43612370019827 354.5307017244318 258.4430572715216 345.0359268062747 251.61973503780683 333.87137422494254 246.23175754236863 321.188889302769 242.52468852985118 307.1779220258727 240.71901341903197 292.06288771691646 241.0054628389044 276.0998701370051 243.54077745499308 259.5727213123567 248.4439853766279 242.78861885804918 255.79325680927184 226.07314866705224 265.6233926739292 209.76498772815157 278.0815333113051 194.03503692265645 287.7139032344461 164.46323564566572 277.1008000652971 134.32110133909927 267.3085754306337 103.90238085091332 261.7968042124379 88.90046024303484 244.88076388346428 86.17061157203125" />
	<path id="line13" style="stroke:#2ca02c" stroke-dasharray='6,2' d="M 425.9780481422987 623.6481978754593 L 425.9780481422987 623.6481978754593 409.4563189252669 619.1054060183387 379.1486874644511 616.0148176939958 350.2165556343417 609.6186876012922 324.73661936962924 584.2958862769519 301.27011448460655 572.38947577697 280.0619053080165 558.2470849023664 261.3106013905111 542.2147383625999 245.1668156309836 524.6541524380755 231.73221012470628 505.93645710794215 242.94665125171605 463.01484621801086 237.44772179263984 445.60276681603 219.52736264285775 419.17221446230315 205.38730984114287 407.61896206042525 192.30342140585103 393.7842395211204 180.47973309076906 377.5719905990329 170.51585977041634 359.5144736213069 162.56275611318145 339.62057423130165 156.90070054217279 318.12353021019925 153.78201462597985 295.29559684475566 153.42592487252514 271.4446178973495 156.01385094476666 246.90994502766497 161.68520064737532 222.0577590336968 170.53374534736957 197.27585597511248 182.60464165627764 172.96797010176226 197.89215632066842 149.54771340009108 216.33814146124266 127.43221836904303 237.83129670139925 107.03557623804139 262.20724347968064 88.76216715222517 274.02195185770114 76.35180212454071" />
	<path id="line14" style="stroke:#d62728" stroke-dasharray='6,2' d="M 395.94608702098515 630.2587324017934 L 395.94608702098515 630.2587324017934 409.03333355736106 619.198512138428 406.021836244611 603.5023938978528 402.1643681960493 587.9924878974559 395.7183882026434 556.6933575363948 391.86092015408167 541.1834515359981 388.8494228413316 525.4873332954228 385.18250550915786 509.83573391717357 381.7457588320085 494.22243635692456 367.99014737486414 431.73006348826 369.0449726168915 406.5234644751023 371.6732043284108 396.845863445562 372.4639019504474 387.33529547497267 371.4857484470082 378.26401872505824 370.6296246073063 367.52296108303534 366.93855292005003 358.98025240387796 333.4252797694508 328.1963284120979 331.69607989222806 319.57864813150377 331.70443790458825 310.4547905979022 333.5187736969208 301.0854634350076 337.17793132555136 291.74875475018564 350.0 275.208937238958 359.04811412007615 266.80396457021277 360.77877158449803 250.8908319752789 370.94496252760706 155.41131245090105 373.1029021205819 139.57526052499824 376.1270642509234 107.76267397747745 349.78344436565817 98.36957970951678 319.9876289149961 76.04374256043349 304.0539129790148 69.7412675982066" />
	<path id="line15" style="stroke:#9467bd" stroke-dasharray='6,2' d="M 365.3754500382586 633.5834895337191 L 365.3754500382586 633.5834895337191 350.2165556343417 625.5952222229103 349.7834443656584 609.6186876012922 350.2165556343417 577.6656183580562 349.78344436565834 561.6890837364383 350.2165556343417 545.7125491148203 349.78344436565834 529.7360144932023 350.0 513.66206197755 350.00000000000006 497.6749956917122 350.00000000000006 481.6853762751543 344.41927506719776 401.31391835599464 336.25039045994424 390.807386916092 331.69607989222806 380.42135186849623 308.0158459587006 338.3431570106108 302.0494764210105 330.89476521154324 297.3022798042888 322.061436965713 293.9941565106481 312.0270959008486 292.320854658278 301.00689235189606 292.4487636428398 289.2438984617461 294.5107192281615 277.00509946658866 298.60259233737634 264.5768439532626 304.7805983765255 252.25986515679045 313.0593203551673 240.36396976812054 323.41045666588985 229.2024868091407 334.0335244200522 203.19068146026245 326.89709787941797 139.57526052499827 325.6003029901819 123.64555346861869 323.44236339720703 107.8095015427159 320.4182012668655 75.99691499519508 334.6245499617413 66.41651046628084" />
	<path id="line16" style="stroke:#8c564b" stroke-dasharray='6,2' d="M 334.6245499617415 633.5834895337192 L 334.6245499617415 633.5834895337192 349.7834443656584 625.5952222229103 378.7181151125817 616.0616452592343 405.59885087670517 603.595500017942 430.14075859388964 588.5275122997427 452.1061441461242 571.2145585908049 432.37410698261084 527.5329695470143 425.2726530728537 513.2149181343948 418.71991616325386 498.53566458348917 405.29325433279996 469.5144106374511 405.52189099357497 442.2781006677719 410.33198163919894 429.3653645799636 419.06439542446026 408.6638262345095 423.9381278256153 389.199514461372 420.303399232353 378.01143446427875 415.1989215700179 368.102391465875 412.85950990186853 324.95448212605663 416.86270889493437 314.5516352478502 419.2664863261164 303.0361569673194 419.88371812417336 290.64023479157254 418.55921829311154 277.6229132220655 415.17343695592484 264.26580986732324 409.64553276498106 250.86835339403808 401.935789174072 237.74263137469018 407.1847648146007 179.6034493443538 412.69653603279653 164.60152873647542 432.69142456936606 103.90238085091323 407.31609221703303 88.60299392181497 379.5817987331343 75.99691499519508 365.37545003825835 66.41651046628078" />
	<path id="line17" style="stroke:#e377c2" stroke-dasharray='6,2' d="M 304.0539129790148 630.2587324017934 L 304.0539129790148 630.2587324017934 290.9666664426389 619.198512138428 269.85924140611036 588.5275122997427 247.89385585387583 571.2145585908049 260.9175202490716 542.0328796611168 268.0189741588287 527.7148282484974 274.33426578570686 513.0330594329117 294.7067456672001 469.514410637451 310.31494000204754 465.75436219703704 323.5920197722739 428.3760923309068 315.1148816769523 407.97951767878106 304.04201390840376 376.4860479410205 283.2260645052987 339.05296893095647 277.08015350721683 329.7539042815872 272.2570876213663 319.02439257653833 268.9895295128041 307.05096676406197 267.4847239256882 294.05325462725034 267.91996518861123 280.28059002175166 270.4385729357127 266.0080226383386 275.1464247652618 251.5318057320551 282.1090963275367 237.16444034230489 291.34965522556575 223.2293572881323 302.84714791281203 210.05532202834232 316.5358097782247 197.9706511337262 327.3276702312873 139.5284329597599 350.21655563434155 130.32264895275273 376.5576366027928 107.8095015427159 377.8544314920288 91.87979448633627 380.0123710850037 76.04374256043349 395.9460870209851 69.74126759820655" />
	<path id="line18" style="stroke:#7f7f7f" stroke-dasharray='6,2' d="M 274.0219518577013 623.6481978754593 L 274.0219518577013 623.6481978754593 290.54368107473306 619.1054060183387 297.83563180395066 587.9924878974559 300.8471291167007 572.2963696568808 304.70459716526244 556.786463656484 307.7160944780125 541.0903454159088 311.5735625265742 525.580439415512 314.81749449084214 509.83573391717357 334.89787497776376 488.8617464082631 350.00000000000006 481.6853762751543 354.71100156665125 393.31694406674876 357.63218373479083 384.67336026774666 358.7451404873481 375.9546520548939 358.0500473219812 367.39989213692303 325.80206725707137 337.1710679944601 320.6142179222536 330.07594538007487 316.7907951062813 321.79184711169773 314.50336330977956 312.526656254028 313.9039426090263 302.51644854190215 315.1148816769523 292.02048232121894 318.2234974132322 281.3162152489881 323.27873739976957 270.69411872115745 330.28905591971403 260.4522782650369 339.2212284155019 250.8908319752789 349.99999999999994 242.30632218020475 371.37553487947645 155.45814001613948 394.00114686231535 151.10814852384817 433.1018638366088 104.04067394172296 437.79275652031913 88.76216715222506 425.9780481422985 76.35180212454065" />
	<path id="line19" style="stroke:#bcbd22" stroke-dasharray='6,2' d="M 244.88076388346437 613.8293884279688 L 244.88076388346437 613.8293884279688 234.47711031724054 600.21437881901 212.2197594369941 579.4125858013687 193.05786292009157 556.811690813047 231.38741324702852 505.6743493358251 260.63090037852544 467.56304004828286 270.3074057601878 454.83381490748883 279.98609557785267 442.1017161902761 264.4684031507119 409.2847546542186 243.7250224173839 367.4228982137967 234.47752524071296 356.2634465845594 226.49210071818158 343.30359627825914 220.0493780608171 328.69567690940346 215.41079761617735 312.6314919025867 212.81336690335442 295.33984950483983 212.4647412474569 277.0834206522731 214.53871188551065 258.1549677276623 219.24057919149038 238.64781354462252 226.55285851083633 219.36353854915617 236.56650352528317 200.42294710519596 249.2851976552322 182.19065173233625 264.66478777466983 165.03521669445144 277.5112393325399 134.18280824828952 299.5528731442786 119.809018162787 323.8729357490764 107.7626739774775 350.2165556343415 98.36957970951678 378.28500384389827 91.92662205157467 407.73907758493885 88.69610004190423 438.2031957875619 88.90046024303484 455.1192361165356 86.17061157203119" />
	<path id="line20" style="stroke:#17becf" stroke-dasharray='6,2' d="M 216.97200284125964 600.9174206226705 L 216.97200284125964 600.9174206226705 234.08402917580105 600.0325201175268 241.1854830855582 585.7144687049074 247.50077471243634 571.0326998893219 279.65146604077376 558.1087918115568 304.2816117973566 556.6933575363948 327.76078149997073 552.4832997294311 349.78344436565834 545.7125491148203 370.0812789070544 536.6472478035282 388.4264374734258 525.580439415512 404.63409883912425 512.8264438063021 418.71991616325386 498.53566458348917 422.01285139543427 469.6862900654838 429.6925942398122 454.83381490748883 442.8441527960923 429.7116029587901 452.21540555202614 404.19117829926347 450.04491956603977 389.8615392499901 446.059744446493 376.6708567597224 440.48352128629807 364.83402036167496 438.34926328690835 325.4699477962419 442.6130112554197 313.09960366572346 445.14866146447866 299.5553722992041 445.7571174602425 285.07506339369235 444.27129131120154 269.92524341385155 440.55996200333306 254.39701047203678 434.53107317580077 238.8012749016994 434.3766073260707 209.76498772815148 442.8491527949207 196.10355225831606 491.89862258725464 113.74261002821967 483.02799715874045 99.0825793773295" />
	<path id="line21" style="stroke:#1f77b4" stroke-dasharray='6,2,2,2' d="M 190.62287343708343 585.0636754765569 L 190.62287343708343 585.0636754765569 183.38927611893791 569.5304992393233 192.71306604241386 556.54958304093 244.7957011323332 524.4308602529189 267.6258930173892 527.5329695470143 289.8541299426799 527.8283644141804 311.1505771586684 525.4873332954228 331.21551598218167 520.7175407471487 350.0 513.66206197755 366.830757733848 504.75626170855526 381.7457588320085 494.22243635692456 379.2772094576438 436.8916612272535 385.1390954530924 425.9519101214894 389.0162507560402 414.84551319337356 390.9493088048862 403.8678945112875 394.9267380336893 388.1611152474991 395.60379632321167 374.1776026258253 390.4777147095366 366.12779560064536 388.4967111819319 329.5903354457319 392.72240625149277 321.0334898218012 395.4597115878461 311.38617293512397 396.5334060812974 300.8752804674653 395.7985690580964 289.75301271763897 393.1449545397482 278.29252773854455 388.5002263225186 266.78312456254207 386.94067964483264 240.3639697681205 407.59520408184346 179.74174243516356 429.01992059845196 179.716985510037 492.26973708590504 113.96590221337618 509.3771265629166 114.93632452344303" />
	<path id="line22" style="stroke:#ff7f0e" stroke-dasharray='6,2,2,2' d="M 166.14229512196096 566.4540236562488 L 166.14229512196096 566.4540236562488 183.04447924126015 569.2683914672062 211.8486449383437 579.1892936162121 240.7924019441187 585.5326100034243 269.44880213886756 588.3892192089329 297.41264643604484 587.8993817773668 324.30604701775985 584.2490587117135 349.7834443656584 577.6656183580562 373.53601338926535 568.4130067858107 395.29540283473756 556.786463656484 414.83676274103044 543.1068712036783 431.98102584117134 527.7148282484973 446.59642032051903 510.96454409725214 458.59920307414 493.21764868166593 467.9536143823438 474.83701539491955 492.27524902202197 446.20337350785417 508.9003701124759 433.99853677512226 524.4716430432771 419.28274423659843 538.6367600045577 402.1499909141565 551.052403115062 382.74142193719234 561.3903475440534 361.24437791608995 569.3434512012883 337.89066993651846 574.6314356636583 312.9540988720396 577.0063650043063 286.74724531920356 576.257732581135 259.61756779020953 572.2170705886501 231.94285768786835 564.7620032225964 204.12610987576423 553.8196715746908 176.58987719035747 539.3694667710017 149.77018587806535 533.8577048780392 133.5459763437513" />
	<path id="line23" style="stroke:#2ca02c" stroke-dasharray='6,2,2,2' d="M 143.81728029383092 545.3066463143723 L 143.81728029383092 545.3066463143723 140.09197419479418 528.5816175058314 207.96780741982587 446.5618549399212 205.402597023963 426.66069125261663 205.38730984114287 407.61896206042525 207.70775900597448 389.5072462397136 212.15951887165247 372.5977998496685 218.50775167370037 357.1293025481969 226.49210071818158 343.30359627825914 235.83192063405966 331.283093430802 246.23175754236863 321.188889302769 257.3869887445803 313.0996036657235 268.9895295128041 307.05096676406197 280.7335136738836 303.0361569673194 292.320854658278 301.00689235189606 303.4665939187026 300.8752804674653 313.9039426090263 302.51644854190215 323.38891615100846 305.77203459118624 331.70443790458825 310.4547905979022 385.49663669022044 312.526656254028 396.5334060812974 300.8752804674653 407.5512363571602 289.2438984617461 418.55921829311154 277.6229132220655 429.5614270642873 266.0080226383386 440.55996200333306 254.39701047203678 451.5560146233721 242.78861885804923 462.55031145679663 231.18208080545463 528.382412557362 161.36907798991385 539.683903599567 150.06803626316218 556.1827197061691 154.69335368562778" />
	<path id="line24" style="stroke:#d62728" stroke-dasharray='6,2,2,2' d="M 123.90956933959723 521.8694771150294 L 123.90956933959723 521.8694771150294 139.81158389966416 528.2515165311928 225.2629864967639 455.9525742633794 237.44772179263984 445.60276681603 236.01319604390955 428.0668199435445 235.09551953421874 395.7821294469932 238.5248323731016 380.9509279373437 243.7250224173839 367.4228982137967 250.45263317885434 355.3973013997232 258.4430572715216 345.0359268062747 267.4158337466327 336.46101316196336 277.08015350721683 329.7539042815872 287.14049009813147 324.95448212605663 297.3022798042888 322.061436965713 307.27759374850723 321.0334898218012 316.7907951062813 321.79184711169773 325.58432396968965 324.2246841958923 333.4252797694508 328.1963284120979 379.3857820777464 330.0759453800749 392.72240625149277 321.0334898218012 406.0058434893519 312.0270959008486 419.2664863261164 303.0361569673194 432.5152760743118 294.05325462725034 445.7571174602425 285.07506339369235 458.99453716109565 276.0998701370051 472.2289692368964 267.12670254036556 551.5384012876106 213.09193445473053 565.0050596644442 204.48459130783124 577.9856051575823 195.16028529679795 576.090430660403 178.13052288497076" />
	<path id="line25" style="stroke:#9467bd" stroke-dasharray='6,2,2,2' d="M 106.65256196840463 496.4172954382741 L 106.65256196840463 496.4172954382741 106.60973826128733 479.282457816979 175.6886679627703 419.6850945222955 176.87329934869456 398.2931395110803 180.54980269654615 377.99939628618125 186.5779625356427 358.8604854123035 194.5595028269422 341.57226112797997 204.27039753521282 326.108844356074 215.41079761617735 312.6314919025867 227.66735110006726 301.25821774027185 240.71901341903197 292.06288771691646 254.24288253975752 285.07506339369235 267.91996518861123 280.28059002175166 281.44078170688846 277.62291322206545 294.5107192281615 277.00509946658866 306.8550454602518 278.2925277385446 318.2234974132322 281.3162152489881 328.3943587959634 285.87674198202683 337.17793132555136 291.74875475018564 371.35233481514535 286.62852855383363 393.1449545397482 278.29252773854455 401.39740766262366 264.57684395326254 409.64553276498106 250.86835339403808 417.8909036724633 237.16444034230483 434.3766073260707 209.76498772815148 454.10970655124095 213.4038633035892 528.6968493859273 161.66692837501068 554.1000618698208 176.91997816499608 578.2286615994301 195.5187667288649 593.3474380315954 203.58270456172582" />
	<path id="line26" style="stroke:#8c564b" stroke-dasharray='6,2,2,2' d="M 92.2485808134482 469.2485048431151 L 92.2485808134482 469.2485048431151 106.40686528727386 478.899798794512 191.30250286153756 434.38119579758927 205.402597023963 426.66069125261663 219.52736264285775 419.17221446230315 235.2868763329182 426.99557851437186 264.93893512020907 439.79787441431085 279.98609557785267 442.1017161902761 289.66801836080106 429.3653645799636 299.35502151776643 416.62232985192304 291.5525173855047 383.1075599262756 302.2867621698533 373.17529194839295 310.25358763997315 365.8364181130624 308.0158459587006 338.3431570106108 317.018158384822 336.858833214289 325.80206725707137 337.1710679944601 361.60230416138444 365.2625701115315 370.6296246073063 367.52296108303534 381.3676905926853 366.6300970442184 390.4777147095366 366.12779560064536 405.4094939134989 346.99578453346135 412.85950990186853 324.95448212605663 427.7429123786337 319.02439257653833 442.6130112554197 313.09960366572346 457.4753114701488 307.1779220258727 472.33264889993274 301.2582177402719 561.4159038543048 265.5310928437795 576.4180435871824 260.01991807590673 605.9413900347951 247.79051768306965 607.7514191865519 230.75149515688474" />
	<path id="line27" style="stroke:#e377c2" stroke-dasharray='6,2,2,2' d="M 80.86649938408414 440.68163455861827 L 80.86649938408414 440.68163455861827 84.50816045783586 423.93819408773646 149.01766649071502 383.16882762434074 154.58620428456402 360.8119018423942 162.53930794179894 340.05305030499744 172.59669903931126 321.13565156642727 184.45452471815696 304.2612727300076 197.9617545056431 289.4224262805029 212.4647412474569 277.0834206522731 227.77103076310362 267.1267025403656 243.54077745499308 259.5727213123567 259.44003799666694 254.39701047203678 275.1464247652618 251.5318057320551 290.35446723501894 250.8683533940381 304.7805983765255 252.25986515679045 318.1676886260527 255.52506652018616 330.28905591971403 260.4522782650369 340.9518858799238 266.80396457021277 359.04811412007615 266.80396457021277 369.71094408028586 260.45227826503685 386.94067964483264 240.3639697681205 401.935789174072 237.74263137469018 417.8909036724633 237.16444034230483 434.53107317580077 238.8012749016994 451.5560146233721 242.78861885804923 468.6448516715763 249.222154638373 551.7814577294583 213.45041588679751 572.4199435626635 232.32551671033536 606.1017010408425 248.1928679687668 619.1335006159159 259.31836544138173" />
	<path id="line28" style="stroke:#7f7f7f" stroke-dasharray='6,2,2,2' d="M 72.63976217833539 411.0516050199309 L 72.63976217833539 411.0516050199309 84.39229091972675 423.52086972803664 161.47910953355142 402.5673152738563 176.7574298105854 397.87581515138044 192.30342140585103 393.7842395211204 207.70775900597448 389.5072462397136 223.11455667518402 385.2295699234873 238.5248323731016 380.9509279373437 263.26733560510803 407.51331255425197 289.66801836080106 429.3653645799636 302.72813676514545 428.5664478690729 323.5920197722739 428.3760923309068 331.1783122740571 405.86077853402816 336.25039045994424 390.807386916092 350.0 377.06724176113903 358.7451404873481 375.9546520548939 364.90749504070584 382.2220224757834 372.4639019504474 387.33529547497267 381.2369727421888 391.0915349156616 394.9267380336893 388.1611152474991 409.7831279531178 381.6950084842751 420.303399232353 378.01143446427875 430.63623236503537 372.38853970977925 440.48352128629807 364.83402036167496 456.38592489179155 343.5838443062276 464.16807936594034 331.2830934308019 558.8653675607428 315.53881454111934 574.7015052694354 313.38150455918793 621.9296399724051 305.19995186480037 627.3602378216647 288.9483949800691" />
	<path id="line29" style="stroke:#bcbd22" stroke-dasharray='6,2,2,2' d="M 67.66482016816195 380.7058012323995 L 67.66482016816195 380.7058012323995 74.82068599838959 365.1366625793519 130.6331006273291 338.3231460102144 141.06456283348015 315.96622022826784 153.66614508787075 295.7129212044555 168.1074425933079 277.76049323661664 184.04189950416992 262.2596913899286 201.11295001048512 249.31371420266265 218.96018889636034 238.97791451926116 237.44968854320342 231.18208080545463 255.79325680927184 226.07314866705224 273.86558636253767 223.46362020103862 291.34965522556575 223.2293572881323 307.95265785881094 225.2079355744495 323.41045666588985 229.2024868091407 337.4914785988915 234.98604506414995 349.99999999999994 242.30632218020475 360.77877158449803 250.8908319752789 369.71094408028586 260.45227826503685 388.5002263225186 266.78312456254207 401.39740766262366 264.57684395326254 415.17343695592484 264.26580986732324 429.5614270642873 266.0080226383386 444.27129131120154 269.92524341385155 458.99453716109565 276.0998701370051 473.40945698893603 284.57244677174634 561.5762148603523 265.93344312947664 577.1222345424154 287.1645696789034 621.9997095781821 305.62735755194876 632.3351798318381 319.29419876760034" />

	<text text-anchor='middle' dominant-baseline='middle' x='641.0999999999999' y='350.0'>1</text>
	<text text-anchor='middle' dominant-baseline='middle' x='639.393559327634' y='381.47344626320944'>2</text>
	<text text-anchor='middle' dominant-baseline='middle' x='634.2942437672061' y='412.5778951454291'>3</text>
	<text text-anchor='middle' dominant-baseline='middle' x='625.8618381313138' y='442.94867542258373'>4</text>
	<text text-anchor='middle' dominant-baseline='middle' x='614.1952046662155' y='472.229717464193'>5</text>
	<text text-anchor='middle' dominant-baseline='middle' x='599.4311239823852' y='500.07772782423103'>6</text>
	<text text-anchor='middle' dominant-baseline='middle' x='581.7426914269129' y='526.166214042905'>7</text>
	<text text-anchor='middle' dominant-baseline='middle' x='561.3372876988234' y='550.1893124722314'>8</text>
	<text text-anchor='middle' dominant-baseline='middle' x='538.4541474999901' y='571.8653742476549'>9</text>
	<text text-anchor='middle' dominant-baseline='middle' x='513.3615547269894' y='590.9402673634709'>10</text>
	<text text-anchor='middle' dominant-baseline='middle' x='486.3536970877089' y='607.1903561382372'>11</text>
	<text text-anchor='middle' dominant-baseline='middle' x='457.7472170194491' y='620.4251231386679'>12</text>
	<text text-anchor='middle' dominant-baseline='middle' x='427.87749934585617' y='630.4894028223458'>13</text>
	<text text-anchor='middle' dominant-baseline='middle' x='397.09473919650975' y='637.2652007118381'>14</text>
	<text text-anchor='middle' dominant-baseline='middle' x='365.75983628921506' y='640.6730767720621'>15</text>
	<text text-anchor='middle' dominant-baseline='middle' x='334.24016371078505' y='640.6730767720621'>16</text>
	<text text-anchor='middle' dominant-baseline='middle' x='302.9052608034902' y='637.2652007118381'>17</text>
	<text text-anchor='middle' dominant-baseline='middle' x='272.12250065414383' y='630.4894028223457'>18</text>
	<text text-anchor='middle' dominant-baseline='middle' x='242.252782980551' y='620.425123138668'>19</text>
	<text text-anchor='middle' dominant-baseline='middle' x='213.64630291229116' y='607.1903561382372'>20</text>
	<text text-anchor='middle' dominant-baseline='middle' x='186.63844527301055' y='590.9402673634709'>21</text>
	<text text-anchor='middle' dominant-baseline='middle' x='161.54585250001003' y='571.8653742476549'>22</text>
	<text text-anchor='middle' dominant-baseline='middle' x='138.66271230117673' y='550.1893124722316'>23</text>
	<text text-anchor='middle' dominant-baseline='middle' x='118.25730857308719' y='526.1662140429052'>24</text>
	<text text-anchor='middle' dominant-baseline='middle' x='100.56887601761477' y='500.077727824231'>25</text>
	<text text-anchor='middle' dominant-baseline='middle' x='85.8047953337844' y='472.22971746419296'>26</text>
	<text text-anchor='middle' dominant-baseline='middle' x='74.13816186868627' y='442.94867542258373'>27</text>
	<text text-anchor='middle' dominant-baseline='middle' x='65.70575623279382' y='412.5778951454291'>28</text>
	<text text-anchor='middle' dominant-baseline='middle' x='60.606440672366034' y='381.4734462632095'>29</text>

	</svg>