<?xml version="1.0" encoding="UTF-8" standalone="no"?>
<!-- Created with LineOrder (https://github.com/zegalur/line-order) -->

<svg
    width="600.0px"
    height="600.0px"
    viewBox="0 0 600.0 600.0"
    version="1.1"
    xmlns="http://www.w3.org/2000/svg">

    <style>
path { fill: none; stroke-width:1.5px }
    </style>

    <rect width="100%" height="100%" fill="white"/>
    
    
    <text x='20' y='30'>(27 pseudolines)</text>
    <text x='20' y='45'>by Pavlo Savchuk (2025)</text>

    	<path id="line1" style="stroke:#1f77b4"  d="M 543.2432432432432 300.0 L 543.2432432432432 300.0 535.9672893363565 286.44536786429745 488.158222634832 267.01411564771576 476.85306366103885 247.2505158984341 463.58748541860825 229.6406209344933 448.70518179070854 214.36277417755633 432.5636567828458 201.54511241512068 415.5272769302402 191.26489414081084 397.9603683827471 183.54875406123506 380.22047873242406 178.37386275689624 362.6519192005047 175.6699552613727 331.9236577154769 164.48578273007402 316.727322076584 155.26424365456947 299.8114221765065 147.8254591175688 281.3945502631632 142.44457419303035 261.73592921461096 139.36890439294731 241.13176951282512 138.8122306833402 219.91085291981432 140.94957991870808 198.4294081317379 145.912592770182 177.06535687964498 153.78557242025605 156.2120209532422 164.60229681900267 136.27139123707366 178.34366530200484 117.64706887820569 194.93623704362903 100.73699598683189 214.25170436857957 85.92609866914142 236.10732859764934 73.57896859782554 260.2673501043448 64.0327106636434 286.44536786429745 56.756756756756744 300.00000000000006" />
	<path id="line2" style="stroke:#ff7f0e"  d="M 541.5985194507429 328.23881694938035 L 541.5985194507429 328.23881694938035 532.7981661967315 340.85711081955037 468.96132586036464 329.9839273858439 456.2725486620466 327.3635797328086 392.3585039211715 316.2852961391711 382.77587459218887 324.19358964440835 364.36960741599 337.1638101692524 354.4149955207755 340.51046321337697 338.8998008127595 346.3589773698053 324.61726288896125 349.0170004837619 316.5368423481141 345.43460094052443 309.64937674970986 340.713921901254 304.10051510407203 335.082148799118 300.0 328.78005501322576 283.1800139040163 312.5220156956682 258.2290173679027 297.5671173089765 245.24140091926745 296.8106747915994 232.2760712427448 296.05553033088023 219.3223306877207 295.30106085962314 206.37538375564407 294.54698707184383 193.43276003817033 293.7931650826413 180.4930574116445 293.0395132276122 167.55542092261842 292.2859817113888 154.53650636652085 291.71661369484843 89.91286765788931 287.5749205422727 76.96182433548304 287.1984029829476 64.05464031421005 286.0688503049724 58.401480549257116 271.7611830506197" />
	<path id="line3" style="stroke:#2ca02c"  d="M 536.6865901410382 356.0957523427557 L 536.6865901410382 356.0957523427557 532.7326738059354 341.22853662479537 477.7643481625116 310.54249166110196 471.3217209771584 290.21054345754817 411.5087569791124 280.33799755931915 402.2633115776863 269.3843742847124 392.06585443757353 260.2866669266738 381.218705281931 253.1083586422442 370.0249538317858 247.86835340015926 358.78226040235666 244.54179757063895 347.77687341107605 243.0617394694313 337.27797531654255 243.3215920866894 320.69815168933957 243.1322956090931 306.36785874985304 245.51948657078145 287.52146104812454 247.34890413065398 272.46753492681967 245.1783547221084 255.59176467745695 232.48055842763435 243.88496293525128 233.12470297952845 231.78451213254363 235.6420064646009 219.57431747075998 240.1252977726041 196.32855611503325 240.14526396573723 185.10524618653662 233.66548295732116 162.51073465298666 220.83828655553222 148.30435411291157 234.77025978979808 98.33304455908129 239.8217243645776 86.03426812793248 235.74601744332534 73.5191527792015 232.39293283072107 63.313409858961705 243.9042476572443" />
	<path id="line4" style="stroke:#d62728"  d="M 528.5738807317075 383.19408891705456 L 528.5738807317075 383.19408891705456 517.100763310448 393.4427539143775 445.60034240090954 363.01123117241383 433.8578865898086 357.535281927245 386.832901499576 350.13299905529647 375.225746158815 356.0034930316591 355.8636395794563 365.6995355183003 336.2694339897363 372.21838071274254 325.4215433612313 369.84511635266955 315.6446811248131 366.01010013468624 307.12194728601986 360.9321531774155 300.0 354.85139896638316 294.3868504353147 348.0235636894593 290.35062325029014 340.713921901254 262.7832787462197 327.70682240887345 249.63456198415093 321.7255292695255 237.70941197775284 326.8695368611195 225.7949213233157 332.00894645710093 213.88667925451094 337.1456606763439 201.98241355838127 342.28065965584426 178.18115601857647 352.54751998116944 166.57124695375072 339.749098917317 92.71037298149676 336.35926712396974 83.42638117140285 312.42507945772735 76.98375398604969 286.8218854236225 73.64446098862163 259.89592429909976 73.62732223799256 232.03162167639707 71.42611926829252 216.80591108294556" />
	<path id="line5" style="stroke:#9467bd"  d="M 517.3701017002895 409.16736815686914 L 517.3701017002895 409.16736815686914 516.9513795900291 393.78906430424166 458.134475367338 347.5392016054975 456.2070562712505 327.7350055380536 400.0963639110165 305.82994930567855 393.62461624435593 294.54698707184383 385.9732246377325 284.84060087785804 377.41934235322486 276.8221704143676 368.24881818089693 270.5603335260777 358.75003851459405 266.0806494486982 349.20781891591656 263.3661361371854 339.8974618115543 262.35868613391784 331.07909745124545 262.9613739578927 322.9924295309025 265.04170924507696 289.5202626259097 271.2071582028723 269.56539772067333 271.2864336534373 260.1025381884457 262.35868613391784 250.65591693941366 253.4462586444619 241.21773959764334 244.54179757063895 231.78451213254363 235.6420064646009 222.35443458896168 226.74518715624413 212.92648537072944 217.85037581929367 175.05248903092058 182.37736170020816 157.04802589046065 193.81129671074876 128.86298532190094 201.41174942160484 117.83564670169915 194.60961067215766 95.21523599081524 181.98521228767748 82.6298982997105 190.83263184313086" />
	<path id="line6" style="stroke:#8c564b"  d="M 503.22676493828186 433.6643460172231 L 503.22676493828186 433.6643460172231 489.6994020796601 440.99087395892514 416.7559590577981 387.15668932004803 406.41690920027486 379.2244535569812 372.28799992262145 385.27332596332917 347.9083432653859 395.39335447681606 334.29299104447625 394.219218540258 321.62791340452213 391.25534219246595 310.13485338068176 386.7092122170793 300.0 380.8143944771379 291.3710899549093 373.8250435598831 284.355318875187 366.01010013468624 279.01810416357705 357.64728502792104 266.2892950486769 351.25463682112775 251.32321101382874 345.9241818658976 235.63039258400997 337.1638101692524 225.7949213233157 332.00894645710093 214.97512193443197 314.4203087456228 206.37538375564407 294.54698707184383 201.25726769718068 282.5889921461397 185.31958123352862 265.66693642460893 172.90445673720114 261.9500921436616 160.47594346757185 258.032392044895 147.96082811884085 254.67930743229067 98.4412140178724 239.46041321025362 100.88637970725082 213.90539397871535 95.40381381430868 181.65858591620608 96.77323506171814 166.3356539827769" />
	<path id="line7" style="stroke:#e377c2"  d="M 486.3351348127244 456.35374289672575 L 486.3351348127244 456.35374289672575 489.47418034465267 441.2933992506518 431.69272930167233 376.25058362695125 433.7085028693896 357.8815923171092 386.1133207454891 337.1456606763439 382.4528290221828 325.2726369938415 364.1099026369696 319.1932449037301 351.83645603588127 315.5188162002352 342.6031726911185 318.3772148469012 322.396855013407 326.69153242503944 312.91646509605994 325.71879655012197 313.69465105429356 304.0999093859894 312.4659807920322 290.7194211547536 309.9897098950432 288.0947273436084 296.70330015433433 286.09012959802374 275.07574123623283 285.60997249338715 263.76396225883076 279.0791138557705 252.49729506199665 272.5743005168084 241.24996148540592 266.08064944869824 230.01268139134174 259.5928027614311 218.78129471806898 253.10835864224424 196.32855611503325 240.14526396573723 198.7804978424736 224.644872624068 175.31130893984033 182.10302862381945 165.63225499208139 173.48982925960541 156.47084086216188 164.327963742614 127.95131883672454 137.93969949719448 113.66486518727561 143.64625710327422" />
	<path id="line8" style="stroke:#7f7f7f"  d="M 466.923641643746 476.9287236258767 L 466.923641643746 476.9287236258767 452.07129698089767 480.9381394942196 419.3623528147937 481.1384655520799 394.6201703132531 487.9840662001792 352.2239634723076 442.93279572448483 333.784003008738 441.7282032957562 316.35016642959715 438.2602439674547 300.0 432.6690340853577 285.3502964657939 425.3362239147977 272.3930958627992 416.48268775609745 261.2734151133451 406.4004175086771 252.0916567346141 395.39335447681606 244.90293384299875 383.7710193205529 239.71726787473946 371.84216258167373 224.77425384118501 356.0034930316591 213.167098500424 350.1329990552965 201.98241355838127 342.28065965584426 189.81154198910127 318.857326821199 180.4930574116445 293.0395132276122 175.72762964452863 278.0874281497356 172.90445673720114 261.9500921436616 172.23741689637035 244.68322711054316 162.69931247648006 220.51166018406082 151.2948182092914 214.36277417755645 129.05156314539437 201.08512305013346 136.49661297208107 178.04114001027813 128.21013874564426 137.6653664208058 133.07635835625396 123.0712763741233" />
	<path id="line9" style="stroke:#bcbd22"  d="M 445.2547925763534 495.11104688636203 L 445.2547925763534 495.11104688636203 451.78237899333243 481.18057047102604 435.421780489159 461.09601840023356 376.6621265431177 416.21592557865137 359.5417537354957 418.55737921885503 343.15934129315497 418.57931564147856 327.60690413720084 416.4826877560974 321.62791340452213 391.25534219246595 318.6370819508682 378.6360320149935 315.6446811248131 366.01010013468624 312.64960313407346 353.3728724083666 309.64937674970986 340.713921901254 306.6371374468904 328.00428490562444 301.8042266457917 315.4361454716119 284.694876493063 297.30129378265167 272.42900913346693 291.74578718460384 267.567710368582 286.0100758491692 263.76396225883076 279.0791138557705 261.2169486470109 271.12708803701133 260.1025381884457 262.35868613391784 260.5669346248295 253.00550267213828 255.59176467745695 232.48055842763435 248.4652441548738 221.6452103768966 241.34110330355617 210.81348044054266 205.54611251035055 156.73301609908677 198.744517077801 145.7053423560326 169.96259061728725 102.63089945456301 154.7452074236466 104.88895311363797" />
	<path id="line10" style="stroke:#17becf"  d="M 421.6216216216216 510.6548279475662 L 421.6216216216216 510.6548279475662 406.244988899707 511.13098309528897 378.8010315317767 515.9526900931849 351.70427411534206 517.3397725409422 325.3712996585557 515.4409713255144 300.1885778234934 510.4541522842133 276.5068280016971 502.6213018639753 254.63613895457013 492.2228942038155 234.84191287631916 479.57173773727334 217.34168686983065 465.00641645024507 202.30286926710738 448.884445979515 189.84141223601418 431.57526773606094 180.02142595925994 413.4532051558792 172.85572361550834 394.89050502442 168.30727069832773 376.2505836269513 166.2914971306104 357.88159231710927 166.67941641254177 340.11041007164096 161.00106320244066 307.9068687458265 154.55843601708753 291.34009613552337 150.1700785233066 273.38945538584153 148.06899757763193 254.3179962779667 148.4537378333305 234.4239493999339 151.48339603278484 214.03614780608507 157.27324762546812 193.50877141902205 165.8910749010011 173.21549618321671 177.35427486721022 153.54314144344957 170.2776995633503 102.42364904041358 178.37837837837827 89.3451720524339" />
	<path id="line11" style="stroke:#1f77b4" stroke-dasharray='6,2' d="M 396.3437268743895 523.3498638357423 L 396.3437268743895 523.3498638357423 405.9079503030772 511.3002502404646 400.43257960648003 499.55752464773406 394.2831317166233 488.1533333453549 365.5581238471182 430.11677396240475 359.5417537354957 418.55737921885503 353.7255129265844 406.9762915963182 347.9083432653859 395.39335447681606 342.0898603992298 383.80780255125956 336.2694339897363 372.21838071274254 330.4459534407127 360.6228775824304 324.61726288896125 349.0170004837619 318.7785531011948 337.39117344594655 312.91646509605994 325.71879655012197 324.92425876376717 285.6099724933871 328.3317745273459 278.9077753517128 330.43460227932667 271.2864336534373 331.07909745124545 262.9613739578927 330.1413361917713 254.1723247246387 320.69815168933957 243.1322956090931 307.87559250147166 232.6199999255035 299.99999999999994 225.67237966149526 279.5643259446993 216.21719496048544 267.924228204089 211.8725412791552 245.56128085606997 150.9822130781235 241.4861798911864 138.68323585490168 218.98421279660084 77.96231870942356 203.65627312561048 76.65013616425767" />
	<path id="line12" style="stroke:#ff7f0e" stroke-dasharray='6,2' d="M 369.76294849729226 533.0244759686325 L 369.76294849729226 533.0244759686325 354.6909859664427 529.9417007484732 351.33728474763126 517.4267506188775 348.71756226424134 504.7378443334112 319.35721083925 463.9871530868079 300.1885778234934 458.65005326040693 300.0 432.6690340853577 300.0 419.7094720685255 288.3598280916665 399.58803530072214 278.3720865954779 391.25534219246595 270.14181242701625 382.0346961426135 263.7305660102638 372.21838071274254 266.2892950486769 351.25463682112775 260.64208291599414 337.1322796691108 249.63456198415093 321.7255292695255 240.40204749790098 310.50872702110166 232.2760712427448 296.05553033088023 226.80158322769262 287.0931441778992 222.58065764677508 276.8221704143676 219.84019278753237 265.4224343827614 218.78129471806898 253.10835864224424 219.57431747075998 240.1252977726041 222.35443458896168 226.74518715624413 227.21782790754253 213.2615849320038 205.86122145641366 156.5257656849374 220.2478915164441 140.7803127735324 219.33862317496215 77.833323880985 230.2370515027077 66.9755240313676" />
	<path id="line13" style="stroke:#2ca02c" stroke-dasharray='6,2' d="M 342.23874591898306 539.5478318137802 L 342.23874591898306 539.5478318137802 354.3239965987319 530.0286788264085 378.4466211534154 516.0816849216233 400.09554100985025 499.72679179290975 419.0472438687307 481.34571596622925 435.13286250159376 461.33844937704 401.13810596306166 395.67814027467375 406.41690920027486 379.2244535569812 385.6249185715343 363.7453900481569 375.225746158815 356.0034930316591 364.8231001185674 348.2590099952811 354.4149955207755 340.51046321337697 343.997579265996 332.75498415969304 342.6031726911185 318.3772148469012 340.0839790290365 287.99964444530866 344.3962009176744 280.84934827352936 347.5027049380033 272.57430051680836 349.20781891591656 263.3661361371854 349.34408306058634 253.44625864446186 347.77687341107605 243.0617394694313 344.408235322543 232.48055842763435 328.96564698595796 218.77090121718288 310.8875745866741 206.85084629199702 299.99999999999994 199.73400188940707 282.8980724679896 155.30802875270697 281.7691557185895 142.40078909489287 272.37341703420464 65.26384683497076 257.76125408101694 60.452168186219694" />
	<path id="line14" style="stroke:#d62728" stroke-dasharray='6,2' d="M 314.1433367620076 542.8317141740922 L 314.1433367620076 542.8317141740922 300.1885778234934 536.3562017961165 299.81142217650654 510.4541522842133 300.1885778234934 497.5031275282617 279.51387241134995 476.8943927446221 260.60956265677146 467.0190377887535 272.3930958627992 416.48268775609745 275.382253833352 403.87043855904346 278.3720865954779 391.25534219246595 281.3629180491318 378.6360320149935 284.355318875187 366.01010013468624 287.35039686592654 353.3728724083666 290.35062325029014 340.713921901254 280.30453624358614 323.4721396895153 258.2290173679027 297.5671173089765 252.38406020064045 291.6040251015829 247.45293505437223 284.26844145771554 243.67023379806355 275.7017106853991 241.24996148540592 266.08064944869824 240.38009186419384 255.61462291403916 241.21773959764334 244.54179757063895 243.88496293525128 233.12470297952845 248.4652441548738 221.6452103768966 255.0007022459848 210.39903137376857 245.91569123443125 150.85321824968497 262.10291858232176 139.28192631501202 272.748022489631 65.22006173683326 285.8566632379923 57.16828582590773" />
	<path id="line15" style="stroke:#9467bd" stroke-dasharray='6,2' d="M 285.8566632379924 542.8317141740922 L 285.8566632379924 542.8317141740922 299.81142217650654 536.3562017961165 324.9966942031293 515.4847564236518 348.3505728965306 504.82482241134653 336.7707148598387 454.3301315032872 333.4170136410272 441.81518137369153 330.5955848161532 429.09292310153717 327.60690413720084 416.4826877560974 334.29299104447625 394.219218540258 342.0898603992298 383.80780255125956 355.0007927369083 366.42354998564485 364.8231001185674 348.2590099952811 364.36960741599 337.1638101692524 364.1099026369696 319.1932449037301 361.2431700245035 303.5670084567638 360.4149612115934 289.34721229994074 364.9887641853994 280.5436412208519 368.24881818089693 270.5603335260777 369.98731860865826 259.592802761431 370.0249538317858 247.86835340015926 368.2154878674564 235.6420064646009 364.4497412583431 223.19178931360233 358.6588966964438 210.81348044054266 337.70486658812354 194.76009269657771 315.40193478114867 168.22802646184945 317.10192753201034 155.30802875270697 327.25197751036893 65.2200617368332 314.14333676200744 57.168285825907674" />
	<path id="line16" style="stroke:#8c564b" stroke-dasharray='6,2' d="M 257.761254081017 539.5478318137804 L 257.761254081017 539.5478318137804 245.67600340126813 530.0286788264086 254.26914958685936 492.13591612588016 257.6228508056708 479.62096599628455 260.2425732890607 466.9320597108182 285.3502964657939 425.3362239147977 300.0 419.7094720685255 300.0 393.7832827155115 300.0 380.8143944771379 300.0 367.8387011026035 300.0 354.85139896638316 300.0 341.84177228845897 300.0 328.78005501322576 289.6020487913721 309.8099610159868 284.694876493063 297.30129378265167 285.7297925621761 293.84443337363444 296.70330015433433 286.09012959802374 297.5656093489558 279.172456901743 289.5202626259097 271.2071582028723 294.6135485626618 253.9159627442253 287.52146104812454 247.34890413065398 284.5668863492017 234.88257323037232 280.66033114619773 215.95743695597412 289.11242541332587 206.85084629199702 283.2726779234159 155.26424365456947 300.18857782349335 147.8254591175688 327.62658296579525 65.2638468349707 342.23874591898317 60.452168186219694" />
	<path id="line17" style="stroke:#e377c2" stroke-dasharray='6,2' d="M 230.2370515027078 533.0244759686325 L 230.2370515027078 533.0244759686325 245.30901403355733 529.9417007484733 276.1322225462708 502.5775167658378 299.81142217650654 497.5031275282617 300.1885778234934 471.60107801635854 299.81142217650654 458.65005326040693 315.97556097417083 438.3040290655922 330.5955848161532 429.09292310153717 343.15934129315497 418.57931564147856 353.7255129265844 406.9762915963182 371.4251530800734 385.9973404306737 385.6249185715343 363.7453900481569 386.832901499576 350.13299905529647 386.1133207454891 337.1456606763439 392.3585039211715 316.2852961391711 400.0963639110165 305.82994930567855 406.5672399618297 293.7931650826413 411.5087569791124 280.33799755931915 414.68041876647135 265.66693642460893 415.86920569173253 250.01890346113427 414.89475381346335 233.66548295732105 411.5618003944513 216.7102185321379 405.8482229824812 199.87809350502488 397.67145039518186 183.30632308442864 415.4888916794243 124.06449569822308 397.18933636323675 106.05993743086768 380.6613768250378 77.83332388098495 369.76294849729226 66.97552403136754" />
	<path id="line18" style="stroke:#7f7f7f" stroke-dasharray='6,2' d="M 203.65627312561048 523.3498638357423 L 203.65627312561048 523.3498638357423 194.09204969692286 511.3002502404647 217.0046482732009 464.8371493050694 223.15409616305766 453.43295800269016 252.0916567346141 395.39335447681606 257.91013960077026 383.80780255125956 263.7305660102638 372.21838071274254 279.01810416357705 357.64728502792104 287.35039686592654 353.3728724083666 294.3868504353147 348.0235636894593 300.0 341.84177228845897 304.10051510407203 335.082148799118 306.6371374468904 328.00428490562444 305.3154136118938 314.60397887374 312.4659807920322 290.7194211547536 320.9338534196427 280.2499279097717 330.43460227932667 271.2864336534373 339.8974618115543 262.35868613391784 349.34408306058634 253.44625864446186 358.78226040235666 244.54179757063895 368.2154878674564 235.6420064646009 387.07351462927056 217.85037581929367 381.11302906231646 203.33325620878583 372.90282534188583 189.15663906975618 362.31488060387494 175.50068811619707 371.8023541385481 102.17328867055164 381.01578720339904 77.9623187094235 396.3437268743894 76.65013616425762" />
	<path id="line19" style="stroke:#bcbd22" stroke-dasharray='6,2' d="M 178.37837837837841 510.6548279475662 L 178.37837837837841 510.6548279475662 193.75501110029307 511.13098309528897 234.48750249795788 479.4427429088348 257.25586143796 479.5339879183492 279.13926695592363 476.85060764648455 299.81142217650654 471.60107801635854 318.9826053838237 464.0309381849454 336.4037254921279 454.41710958122246 351.8695530939463 443.0617905529234 365.22108525048844 430.28604110758033 376.3470175970546 416.42317599280074 401.39692587198135 395.40380719828505 416.98118079280556 386.8541640283213 431.88130712516573 375.9239572554799 445.7497261213284 362.66492078254964 458.24264482612904 347.1778904511735 469.0268182511607 329.6125015805989 477.78627781307824 310.1659741017769 484.2289049984314 289.08099077957297 488.0927302440359 266.64268984247076 489.1518400921877 243.1748089771818 487.22178076122924 219.03503283401983 482.16435329830085 194.60961067215754 473.89170435461233 170.30732430590606 462.3696272155165 146.55289886140852 447.61999987039775 123.77995980247042 429.72230043664956 102.42364904041358 421.6216216216216 89.34517205243381" />
	<path id="line20" style="stroke:#17becf" stroke-dasharray='6,2' d="M 154.7452074236467 495.11104688636203 L 154.7452074236467 495.11104688636203 148.2176210066676 481.18057047102616 189.55249424844897 431.3328367592545 198.1661704818835 421.6542071890679 239.71726787473946 371.84216258167373 237.65979946311188 359.5892153951063 235.63039258400997 337.1638101692524 237.70941197775284 326.8695368611195 240.40204749790098 310.50872702110166 245.24140091926745 296.8106747915994 252.38406020064045 291.6040251015829 259.9160209709635 287.99964444530866 267.567710368582 286.0100758491692 275.07574123623283 285.60997249338715 297.5656093489558 279.172456901743 322.9924295309025 265.04170924507696 330.1413361917713 254.1723247246387 337.27797531654255 243.3215920866894 344.408235322543 232.48055842763435 351.5347558451262 221.6452103768966 358.6588966964438 210.81348044054266 365.78142966177114 199.9841951760696 372.90282534188583 189.15663906975618 379.90536978636095 178.16661234274687 415.80400062548733 124.27174611237245 422.60559605803695 113.24407236931836 430.0374093827127 102.63089945456295 445.25479257635334 104.88895311363794" />
	<path id="line21" style="stroke:#1f77b4" stroke-dasharray='6,2,2,2' d="M 133.07635835625402 476.9287236258767 L 133.07635835625402 476.9287236258767 147.92870301910236 480.9381394942196 201.98776032104433 448.67719556536565 222.81705756642788 453.26369085751446 261.2734151133451 406.4004175086771 275.382253833352 403.87043855904346 288.3598280916665 399.58803530072214 300.0 393.7832827155115 310.13485338068176 386.7092122170793 318.6370819508682 378.6360320149935 325.4215433612313 369.84511635266955 330.4459534407127 360.6228775824304 338.8998008127595 346.3589773698053 343.997579265996 332.75498415969304 351.83645603588127 315.5188162002352 361.2431700245035 303.5670084567638 380.6776693122793 295.30106085962314 385.9732246377325 284.84060087785804 389.84340127197845 273.1026513429332 392.06585443757353 260.2866669266738 403.6714438849667 240.1452639657372 414.89475381346335 233.66548295732105 437.30068752351985 220.51166018406076 432.33843504783835 201.24258712339395 452.9493931766773 155.4404313020112 462.6284471244362 146.82723193779717 471.78986125435574 137.66536642080575 466.923641643746 123.0712763741233" />
	<path id="line22" style="stroke:#ff7f0e" stroke-dasharray='6,2,2,2' d="M 113.66486518727558 456.35374289672575 L 113.66486518727558 456.35374289672575 110.52581965534733 441.2933992506518 172.6305018805009 394.58797973269327 183.24404094220185 387.15668932004803 213.167098500424 350.1329990552965 213.88667925451094 337.1456606763439 215.17071343458576 315.52956326451687 219.3223306877207 295.30106085962314 226.80158322769262 287.0931441778992 235.01123581460058 280.5436412208519 243.67023379806355 275.7017106853991 252.49729506199665 272.5743005168084 261.2169486470109 271.12708803701133 269.56539772067333 271.2864336534373 294.6135485626618 253.9159627442253 306.36785874985304 245.51948657078145 307.87559250147166 232.6199999255035 309.3819785581168 219.732043547618 310.8875745866741 206.85084629199702 312.3926678700844 193.97395029599892 315.40193478114867 168.22802646184945 332.29064708318765 164.57276080800935 372.1567645169094 102.30228349899016 397.52637495986653 106.22920457604337 422.9207050041 113.4513227834677 447.908917857963 124.02239077927689 472.04868116327543 137.93969949719443 486.3351348127243 143.64625710327414" />
	<path id="line23" style="stroke:#2ca02c" stroke-dasharray='6,2,2,2' d="M 96.7732350617182 433.6643460172231 L 96.7732350617182 433.6643460172231 110.3005979203399 440.99087395892514 179.7626060503402 413.1788720794905 197.87725249431827 421.41177621226143 244.90293384299875 383.7710193205529 257.91013960077026 383.80780255125956 270.14181242701625 382.0346961426135 281.3629180491318 378.6360320149935 291.3710899549093 373.8250435598831 300.0 367.8387011026035 307.12194728601986 360.9321531774155 312.64960313407346 353.3728724083666 316.5368423481141 345.43460094052443 318.7785531011948 337.39117344594655 322.396855013407 326.69153242503944 340.0839790290365 287.99964444530866 352.54706494562777 284.26844145771554 364.9887641853994 280.5436412208519 377.41934235322486 276.8221704143676 389.84340127197845 273.1026513429332 402.2633115776863 269.3843742847124 414.68041876647135 265.66693642460893 464.33794831230796 250.60360051103837 463.43810169818937 229.29431054462913 470.9484368546056 201.08512305013335 482.35293112179426 194.93623704362892 504.5961861856913 181.65858591620594 503.22676493828175 166.33565398277676" />
	<path id="line24" style="stroke:#d62728" stroke-dasharray='6,2,2,2' d="M 82.62989829971056 409.1673681568692 L 82.62989829971056 409.1673681568692 83.04862040997094 393.7890643042417 166.14211341019148 357.535281927245 178.18115601857647 352.54751998116944 190.00713348925507 319.9665813400931 193.43276003817033 293.7931650826413 201.25726769718068 282.5889921461397 210.1565987280215 273.1026513429332 219.84019278753237 265.4224343827614 230.01268139134174 259.5928027614311 240.38009186419384 255.61462291403916 250.65591693941366 253.4462586444619 260.5669346248295 253.00550267213828 272.46753492681967 245.1783547221084 284.5668863492017 234.88257323037232 299.99999999999994 225.67237966149526 309.3819785581168 219.732043547618 330.0240853286598 219.15614126873237 351.5347558451262 221.6452103768966 364.4497412583431 223.19178931360233 387.07351462927056 217.85037581929367 396.49995844664556 208.95698475480123 406.10704289140097 200.15242658141358 415.2684570213205 190.99056106442217 453.20821308559704 155.7147643783999 474.11692608961977 170.60984959763277 504.78476400918476 181.98521228767737 517.3701017002894 190.83263184313074" />
	<path id="line25" style="stroke:#9467bd" stroke-dasharray='6,2,2,2' d="M 71.42611926829258 383.1940889170546 L 71.42611926829258 383.1940889170546 82.89923668955205 393.4427539143775 168.1186928748343 375.92395725547993 183.01881920719444 386.8541640283213 224.77425384118501 356.0034930316591 236.88683983161948 358.7699260501844 251.32321101382874 345.9241818658976 260.64208291599414 337.1322796691108 262.7832787462197 327.70682240887345 280.30453624358614 323.4721396895153 283.1800139040163 312.5220156956682 289.6020487913721 309.8099610159868 301.8042266457917 315.4361454716119 305.3154136118938 314.60397887374 313.69465105429356 304.0999093859894 324.92425876376717 285.6099724933871 336.2360377411692 279.0791138557705 347.5027049380033 272.57430051680836 358.75003851459405 266.0806494486982 369.98731860865826 259.592802761431 381.218705281931 253.1083586422442 403.6714438849667 240.1452639657372 415.86920569173253 250.01890346113427 464.446117771099 250.96491166536237 476.7448942022478 246.8892047441101 489.2600095509788 243.5361201315058 526.3726777620074 232.03162167639698 528.5738807317074 216.80591108294527" />
	<path id="line26" style="stroke:#8c564b" stroke-dasharray='6,2,2,2' d="M 63.31340985896179 356.09575234275576 L 63.31340985896179 356.09575234275576 67.26732619406457 341.22853662479537 83.4483108219695 312.8015970170524 89.89093800732266 287.9514381015978 150.10458613251055 273.7608811910866 160.36777400878074 258.393703199219 172.08803317595147 245.02953750040734 185.10524618653662 233.66548295732116 198.7804978424736 224.644872624068 212.92648537072944 217.85037581929367 227.21782790754253 213.2615849320038 241.34110330355617 210.81348044054266 255.0007022459848 210.39903137376857 267.924228204089 211.8725412791552 289.11242541332587 206.85084629199702 299.99999999999994 199.73400188940707 312.3926678700844 193.97395029599892 338.76330493082537 195.14533274812726 365.78142966177114 199.9841951760696 381.11302906231646 203.33325620878583 396.49995844664556 208.95698475480123 411.78702212945876 217.01274382386458 437.4892653470133 220.83828655553214 448.51660396721513 214.03614780608495 471.13701467809904 201.41174942160475 487.3711644816481 219.38134322388402 526.4808472207984 232.39293283072095 536.6865901410383 243.9042476572444" />
	<path id="line27" style="stroke:#e377c2" stroke-dasharray='6,2,2,2' d="M 58.401480549257116 328.23881694938024 L 58.401480549257116 328.23881694938024 67.20183380326847 340.85711081955037 92.77586537229286 336.7306929292148 161.0229928530073 308.28338630515157 167.55542092261842 292.2859817113888 175.72762964452863 278.0874281497356 185.31958123352862 265.66693642460893 210.1565987280215 273.1026513429332 222.58065764677508 276.8221704143676 235.01123581460058 280.5436412208519 247.45293505437223 284.26844145771554 259.9160209709635 287.99964444530866 272.42900913346693 291.74578718460384 285.7297925621761 293.84443337363444 309.9897098950432 288.0947273436084 320.9338534196427 280.2499279097717 328.3317745273459 278.9077753517128 336.2360377411692 279.0791138557705 344.3962009176744 280.84934827352936 352.54706494562777 284.26844145771554 360.4149612115934 289.34721229994074 380.6776693122793 295.30106085962314 393.62461624435593 294.54698707184383 406.5672399618297 293.7931650826413 471.2997913265918 289.8340258982231 484.2508346489981 289.45750833889804 535.94535968579 286.0688503049724 541.5985194507429 271.7611830506197" />

	<text text-anchor='middle' dominant-baseline='middle' x='549.3243243243244' y='300.0'>1</text>
	<text text-anchor='middle' dominant-baseline='middle' x='547.6384824370115' y='328.9447873731148'>2</text>
	<text text-anchor='middle' dominant-baseline='middle' x='542.6037548945642' y='357.4981461513246'>3</text>
	<text text-anchor='middle' dominant-baseline='middle' x='534.2882277500001' y='385.27394113998093'>4</text>
	<text text-anchor='middle' dominant-baseline='middle' x='522.8043542427968' y='411.8965523607909'>5</text>
	<text text-anchor='middle' dominant-baseline='middle' x='508.3074340617389' y='437.00595466765367'>6</text>
	<text text-anchor='middle' dominant-baseline='middle' x='490.99351318304247' y='460.2625864691439'>7</text>
	<text text-anchor='middle' dominant-baseline='middle' x='471.0967326848397' y='481.35194171652364'>8</text>
	<text text-anchor='middle' dominant-baseline='middle' x='448.88616239076225' y='499.988823058521'>9</text>
	<text text-anchor='middle' dominant-baseline='middle' x='424.6621621621622' y='515.9211986462553'>10</text>
	<text text-anchor='middle' dominant-baseline='middle' x='398.7523200462492' y='528.9336104316359'>11</text>
	<text text-anchor='middle' dominant-baseline='middle' x='371.50702220972454' y='538.8500878678483'>12</text>
	<text text-anchor='middle' dominant-baseline='middle' x='343.2947145669576' y='545.5365276091247'>13</text>
	<text text-anchor='middle' dominant-baseline='middle' x='314.49692018105776' y='548.9025070284446'>14</text>
	<text text-anchor='middle' dominant-baseline='middle' x='285.5030798189422' y='548.9025070284446'>15</text>
	<text text-anchor='middle' dominant-baseline='middle' x='256.70528543304243' y='545.5365276091248'>16</text>
	<text text-anchor='middle' dominant-baseline='middle' x='228.49297779027552' y='538.8500878678483'>17</text>
	<text text-anchor='middle' dominant-baseline='middle' x='201.24767995375078' y='528.9336104316359'>18</text>
	<text text-anchor='middle' dominant-baseline='middle' x='175.33783783783787' y='515.9211986462553'>19</text>
	<text text-anchor='middle' dominant-baseline='middle' x='151.11383760923786' y='499.9888230585211'>20</text>
	<text text-anchor='middle' dominant-baseline='middle' x='128.9032673151604' y='481.35194171652364'>21</text>
	<text text-anchor='middle' dominant-baseline='middle' x='109.00648681695748' y='460.26258646914386'>22</text>
	<text text-anchor='middle' dominant-baseline='middle' x='91.69256593826117' y='437.00595466765367'>23</text>
	<text text-anchor='middle' dominant-baseline='middle' x='77.19564575720335' y='411.89655236079096'>24</text>
	<text text-anchor='middle' dominant-baseline='middle' x='65.71177224999991' y='385.27394113998093'>25</text>
	<text text-anchor='middle' dominant-baseline='middle' x='57.39624510543587' y='357.49814615132465'>26</text>
	<text text-anchor='middle' dominant-baseline='middle' x='52.36151756298855' y='328.94478737311476'>27</text>

	</svg>