<?xml version="1.0" encoding="UTF-8" standalone="no"?>

<svg
    width="400.0px"
    height="400.0px"
    viewBox="0px 0px 400.0px 400.0px"
    version="1.1"
    id="svg1=-body"
    xml:space="preserve"
    xmlns="http://www.w3.org/2000/svg"
    xmlns:svg="http://www.w3.org/2000/svg">

    <style>
path { fill: none; stroke-width:1.5px }
    </style>

    <rect width="100%" height="100%" fill="white"/>
    
    
    <text x='20' y='30'>(14 pseudolines)</text>
    <text x='20' y='45'>by Johannes Bader</text>

    	<path id="line1" style="stroke:#1f77b4"  d="M 365.71428571428567 200.0 L 365.71428571428567 200.0 352.4232163335069 183.4698734775309 334.20393870395856 153.71784565232696 310.9244155541563 131.05718462938992 284.7716818613466 116.13312774213502 257.9420095465449 108.98837350970246 231.7721925790378 109.20029030852737 209.49422651546936 115.73640908024218 191.78384243853606 127.0795847809788 156.71296055427254 159.38201843304319 130.7361188891972 175.76351976342627 109.2002903085274 168.22780742096216 55.07665112413153 149.96696180619057 38.44051740986919 163.1251023729537" />
	<path id="line2" style="stroke:#ff7f0e"  d="M 361.55948259013076 236.87489762704638 L 361.55948259013076 236.87489762704638 344.92334887586844 250.0330381938095 301.3084135520395 262.9006808507456 276.7412745223366 275.83646491885486 251.18043358002893 281.4531934296957 228.00659938448524 280.0382626169277 208.21615756146392 272.9204152190212 171.99340061551482 280.0382626169277 148.8195664199711 281.4531934296957 123.25872547766346 275.8364649188549 98.69158644796055 262.90068085074563 76.51547146795146 242.53127050153662 47.57678366649307 216.53012652246906 34.285714285714306 200.00000000000003" />
	<path id="line3" style="stroke:#2ca02c"  d="M 349.303412395258 271.90073391090965 L 349.303412395258 271.90073391090965 344.50072576570045 251.2408256518737 302.0457081882286 235.02950280926382 280.0382626169277 228.0065993844852 258.46951002859976 220.45936643347136 243.61240153933838 198.14548278944488 220.71588978239265 167.0308502784565 216.67059487171736 152.3581770137335 206.93571742201496 138.4438053345925 191.78384243853606 127.0795847809788 171.9934006155148 119.9617373830723 148.81956641997107 118.54680657030434 91.13709612162313 92.04190572510481 70.43935433386937 96.67883283483837" />
	<path id="line4" style="stroke:#d62728"  d="M 329.56064566613065 303.32116716516157 L 329.56064566613065 303.32116716516157 308.86290387837687 307.9580942748952 276.0684131061385 319.8596324966481 243.7390579596009 323.0619054218805 228.00659938448524 280.0382626169277 220.45936643347136 258.46951002859976 194.6320557419367 247.6418229862665 156.19777815085416 243.8022218491459 137.86583321709114 239.04148458989386 119.9617373830723 228.00659938448524 104.40685063724953 210.77076117301152 92.86126216103864 187.28451805963923 55.49927423429955 148.75917434812632 50.69658760474198 128.09926608909038" />
	<path id="line5" style="stroke:#9467bd"  d="M 303.32116716516157 329.56064566613065 L 303.32116716516157 329.56064566613065 307.9580942748952 308.86290387837687 292.8020892003567 291.897279596875 275.83646491885486 276.74127452233654 259.9603747979419 259.9603747979419 243.8022218491459 243.8022218491459 227.53282516232025 227.53282516232025 197.82845695164394 219.2729776136242 163.24773655345157 212.86017318675343 149.84310064300132 205.65132530682703 138.44380533459253 193.06428257798504 130.7361188891972 175.76351976342627 128.2005183841942 154.88539558501154 92.04190572510481 91.1370961216231 96.67883283483843 70.43935433386937" />
	<path id="line6" style="stroke:#8c564b"  d="M 271.90073391090965 349.303412395258 L 271.90073391090965 349.303412395258 251.24082565187373 344.50072576570045 242.53127050153665 323.48452853204856 251.18043358002893 281.4531934296957 259.9603747979419 259.9603747979419 262.1341667829089 239.04148458989386 258.46951002859976 220.45936643347136 252.45092001154646 167.0429026189208 251.88878588283433 148.11121411716564 245.11460441498843 128.20051838419417 231.7721925790378 109.20029030852737 211.44393374632466 92.71799308779191 186.01296986560308 81.57595980571392 148.75917434812624 55.49927423429958 128.09926608909035 50.69658760474198" />
	<path id="line7" style="stroke:#e377c2"  d="M 236.87489762704638 361.55948259013076 L 236.87489762704638 361.55948259013076 250.0330381938095 344.92334887586844 274.98494989047464 320.54041755627316 291.897279596875 292.8020892003567 300.6276284924144 263.98414406640944 301.6230850780606 236.23729026732806 295.59314936275047 210.77076117301152 290.7997096914726 168.22780742096216 291.01162649029754 142.05799045345512 283.86687225786494 115.22831813865334 268.9428153706101 89.07558444584362 246.28215434767299 65.79606129604147 216.53012652246898 47.57678366649307 199.99999999999997 34.285714285714306" />
	<path id="line8" style="stroke:#7f7f7f"  d="M 200.0 365.71428571428567 L 200.0 365.71428571428567 183.46987347753094 352.4232163335069 153.71784565232696 334.20393870395856 131.0571846293899 310.9244155541563 124.16353508114516 276.7412745223366 118.54680657030434 251.18043358002893 119.9617373830723 228.00659938448524 127.0795847809788 208.21615756146392 138.44380533459253 193.06428257798504 159.38201843304316 156.71296055427254 171.9934006155148 119.9617373830723 163.7627097326719 98.37691492193939 149.9669618061905 55.07665112413156 163.12510237295356 38.440517409869244" />
	<path id="line9" style="stroke:#bcbd22"  d="M 163.12510237295362 361.55948259013076 L 163.12510237295362 361.55948259013076 182.19832528349485 352.2799472602602 186.0129698656031 329.85261162285747 171.99340061551482 280.0382626169277 160.95851541010617 262.1341667829089 156.19777815085416 243.8022218491459 157.26221332392512 226.8539311993979 163.24773655345157 212.86017318675343 180.40816326530611 180.40816326530611 206.93571742201496 138.4438053345925 209.49422651546936 115.73640908024218 212.71548194036075 92.86126216103861 213.98703013439683 70.14738837714248 217.80167471650506 47.72005273973983 236.8748976270462 38.44051740986919" />
	<path id="line10" style="stroke:#17becf"  d="M 128.09926608909038 349.303412395258 L 128.09926608909038 349.303412395258 152.51005819426268 333.7813155937905 184.74142167156702 329.70934254961077 208.21615756146392 272.9204152190212 220.45936643347136 258.46951002859976 226.8539311993979 242.7377866760749 227.53282516232025 227.53282516232025 223.07840480508045 214.50112284767485 220.71588978239265 167.0308502784565 232.9570973810792 147.54907998845354 245.11460441498843 128.20051838419417 256.85854633088104 108.30758845007735 270.026278586274 89.75636950546874 281.0270844103391 69.84358044160993 271.9007339109096 50.69658760474195" />
	<path id="line11" style="stroke:#1f77b4" stroke-dasharray='6,2' d="M 96.67883283483845 329.56064566613065 L 96.67883283483845 329.56064566613065 92.04190572510483 308.8629038783769 80.14036750335191 276.0684131061385 76.93809457811949 243.73905795960087 81.57595980571392 213.9870301343969 92.71799308779192 188.55606625367528 109.2002903085274 168.22780742096216 128.2005183841942 154.88539558501154 148.81956641997107 118.54680657030434 164.97049719073618 97.95429181177138 187.28451805963914 81.43269073246722 215.25857832843292 70.2906574503892 247.48994180573723 66.21868440620952 282.110547626003 70.52436550123502 303.32116716516157 70.43935433386932" />
	<path id="line12" style="stroke:#ff7f0e" stroke-dasharray='6,2' d="M 70.4393543338694 303.3211671651616 L 70.4393543338694 303.3211671651616 91.13709612162314 307.95809427489525 129.97372141372605 310.24363049453126 148.8195664199711 281.4531934296957 160.95851541010617 262.1341667829089 194.6320557419367 247.6418229862665 226.8539311993979 242.7377866760749 243.8022218491459 243.8022218491459 262.1341667829089 239.04148458989386 280.0382626169277 228.0065993844852 295.59314936275047 210.77076117301152 329.70934254961077 184.741421671567 333.7813155937905 152.5100581942627 329.475634498765 117.88945237399703 329.56064566613065 96.67883283483843" />
	<path id="line13" style="stroke:#2ca02c" stroke-dasharray='6,2' d="M 50.69658760474198 271.90073391090965 L 50.69658760474198 271.90073391090965 79.45958244372684 274.98494989047464 99.37237150758563 263.98414406640944 118.54680657030434 251.18043358002893 137.86583321709114 239.04148458989386 157.26221332392512 226.8539311993979 197.82845695164394 219.2729776136242 223.07840480508045 214.50112284767485 242.93161647971328 192.10334826958038 252.45092001154646 167.0429026189208 271.7994816158058 154.88539558501157 291.69241154992267 143.141453669119 310.24363049453126 129.97372141372608 330.1564195583901 118.97291558966089 349.3034123952581 128.09926608909046" />
	<path id="line14" style="stroke:#d62728" stroke-dasharray='6,2' d="M 38.44051740986919 236.87489762704632 L 38.44051740986919 236.87489762704632 47.72005273973983 217.80167471650515 81.4326907324672 212.7154819403608 104.40685063724953 210.77076117301152 127.0795847809788 208.21615756146392 149.84310064300132 205.65132530682703 180.40816326530611 180.40816326530611 216.67059487171736 152.3581770137335 232.9570973810792 147.54907998845354 251.88878588283433 148.11121411716564 271.7994816158058 154.88539558501157 290.7997096914726 168.22780742096216 329.85261162285747 186.01296986560308 352.2799472602602 182.19832528349482 361.55948259013076 163.12510237295356" />

	<text text-anchor='middle' dominant-baseline='middle' x='369.85714285714283' y='200.0'>1</text>
	<text text-anchor='middle' dominant-baseline='middle' x='365.598469654884' y='237.79677006772255'>2</text>
	<text text-anchor='middle' dominant-baseline='middle' x='353.0359977051395' y='273.6982522586824'>3</text>
	<text text-anchor='middle' dominant-baseline='middle' x='332.7996618077839' y='305.9041963442906'>4</text>
	<text text-anchor='middle' dominant-baseline='middle' x='305.9041963442906' y='332.7996618077839'>5</text>
	<text text-anchor='middle' dominant-baseline='middle' x='273.6982522586824' y='353.0359977051395'>6</text>
	<text text-anchor='middle' dominant-baseline='middle' x='237.79677006772255' y='365.598469654884'>7</text>
	<text text-anchor='middle' dominant-baseline='middle' x='200.0' y='369.85714285714283'>8</text>
	<text text-anchor='middle' dominant-baseline='middle' x='162.20322993227745' y='365.598469654884'>9</text>
	<text text-anchor='middle' dominant-baseline='middle' x='126.30174774131764' y='353.0359977051395'>10</text>
	<text text-anchor='middle' dominant-baseline='middle' x='94.09580365570942' y='332.79966180778393'>11</text>
	<text text-anchor='middle' dominant-baseline='middle' x='67.20033819221615' y='305.90419634429065'>12</text>
	<text text-anchor='middle' dominant-baseline='middle' x='46.964002294860535' y='273.6982522586824'>13</text>
	<text text-anchor='middle' dominant-baseline='middle' x='34.40153034511593' y='237.7967700677225'>14</text>

	</svg>