<?xml version="1.0" encoding="UTF-8" standalone="no"?>

<svg
    width="600.0px"
    height="600.0px"
    viewBox="0px 0px 600.0px 600.0px"
    version="1.1"
    id="svg1=-body"
    xml:space="preserve"
    xmlns="http://www.w3.org/2000/svg"
    xmlns:svg="http://www.w3.org/2000/svg">

    <style>
path { fill: none; stroke-width:1.5px }
    </style>

    <rect width="100%" height="100%" fill="white"/>
    
    
    <text x='20' y='30'>(15 pseudolines)</text>
    <text x='20' y='45'>by Toshitaka Suzuki</text>

    	<path id="line1" style="stroke:#1f77b4"  d="M 548.0 300.0 L 548.0 300.0 529.5525312821862 276.713890628411 504.5612588770167 234.41327974852777 472.67435905482546 201.27200490003935 436.54912481957456 178.17587113791188 398.8834933595796 165.32122305523424 361.31497220525915 162.284317636073 328.02378630613384 168.15845116257248 299.9999999999999 181.18778423333697 251.67471820266977 191.45963997391237 220.77420832203498 190.95505269943345 187.97197131280632 199.12950989533635 127.32564094517454 201.27200490003935 95.43874112298329 234.41327974852777 70.44746871781376 276.71389062841104 52.00000000000003 300.0000000000001" />
	<path id="line2" style="stroke:#ff7f0e"  d="M 542.5806049819838 351.56209932280433 L 542.5806049819838 351.56209932280433 519.694803344028 370.50390692262073 458.89385943868507 390.77181993701447 424.72394401370406 411.17668823992915 369.83606821983585 396.1211016945735 341.81995540153576 393.92915771488356 318.04561996985893 384.8979670544041 300.0 370.7215570039661 247.44364086279802 347.3219583207064 224.83363845741604 343.3973190706156 202.2140203670042 331.77259079819015 181.838649982834 312.4192583315142 133.92301113542507 281.70377120803727 102.09783032955463 280.0404776814952 70.62228791194329 275.05059710186896 57.41939501801616 248.43790067719576" />
	<path id="line3" style="stroke:#2ca02c"  d="M 526.559273495365 400.8706874827984 L 526.559273495365 400.8706874827984 519.1779861992984 372.0945065406851 459.160625475983 350.83516023802684 428.19002372056593 341.65146356737534 397.7859796329958 331.77259079819015 367.26019763116113 321.85416298288214 335.30508603726867 331.7888422522399 307.9400727867379 337.3551055039378 266.92680092126307 319.0948203910708 252.75257274466153 295.034095290057 238.75333503937605 264.6392214980169 210.95677171109287 248.5908681778862 183.27106207504613 232.60651626680874 128.16186865131576 199.82361602630598 99.76464171289376 185.359654574147 73.44072650463494 199.12931251720153" />
	<path id="line4" style="stroke:#d62728"  d="M 500.63621460498695 445.77074256853336 L 500.63621460498695 445.77074256853336 472.02466723718584 453.7664507285649 426.9426279121921 473.2988624470498 381.665631459995 481.36806755791633 331.34239257922866 447.45436383133347 300.0 434.78696746638246 275.2975513301487 416.2158837900287 230.16393178016423 396.1211016945735 199.83376258556802 390.19008527005224 169.4478983734069 375.37429101738496 140.839374524017 350.83516023802684 117.92301113542507 318.2962287919629 102.27264952368421 278.3771841549531 95.95555826771292 232.82268013046343 100.600869419035 183.9112657004136 99.36378539501305 154.22925743146666" />
	<path id="line5" style="stroke:#9467bd"  d="M 465.9443903769968 484.2999167183938 L 465.9443903769968 484.2999167183938 470.90557613305714 455.0093273140443 448.37430562544495 432.4715694842471 423.60485290957536 412.41956482540854 402.8943971338482 359.4061078833315 397.7859796329958 331.77259079819015 386.3191680320206 309.0725101447749 370.33413691497975 292.6075843264797 341.56908822609273 242.78505851513484 335.30255975454315 220.70915257834505 321.3771190412175 199.42856210478283 299.9999999999999 181.18778423333697 264.4442274335923 136.74527493656458 224.80650449500456 133.16858780272037 163.70432723693693 113.8277757188556 134.05560962300308 115.70008328160625" />
	<path id="line6" style="stroke:#8c564b"  d="M 424.00000000000006 514.7743001385408 L 424.00000000000006 514.7743001385408 394.60990336999413 510.44137827918985 380.1377674149945 482.0483164580021 354.8227986776435 423.1340218783347 341.81995540153576 393.92915771488356 328.765048688887 364.6073571583855 335.30508603726867 331.7888422522399 337.9804339340891 303.99190446370096 315.533126291999 265.1120271344719 290.12259807129846 253.5304774828101 258.4309117739072 242.78505851513484 239.56494096360362 216.81827737969604 220.77420832203498 190.95505269943345 201.11650664042043 165.32122305523424 165.05737208780778 112.84473109239923 175.9999999999999 85.22569986145925" />
	<path id="line7" style="stroke:#e377c2"  d="M 376.63621460498695 535.8620160411981 L 376.63621460498695 535.8620160411981 393.08203932499373 511.12162717927555 425.58958306132126 474.2819070735061 447.25521452131625 433.7144460697265 458.0576317325439 392.22020881074786 458.64380833125335 352.4257598560912 449.922765529299 315.7575176198723 434.0485903556085 285.91092542223186 412.9971320203507 263.2850061887581 388.2946833504993 220.49911002121326 379.225791677965 190.95505269943345 361.31497220525915 162.284317636073 340.5365916398308 105.26829731736478 299.16377229385864 85.18327060045294 251.21077278902902 74.48676576333494 223.363785395013 64.1379839588019" />
	<path id="line8" style="stroke:#7f7f7f"  d="M 325.92305889037806 546.6414300513318 L 325.92305889037806 546.6414300513318 300.83622770614124 530.7290797254394 262.7717720213099 479.1670753893278 232.80650449500462 452.97500573672863 230.16393178016423 396.1211016945735 223.59113940822175 368.798847097027 224.83363845741604 343.3973190706156 232.73980236883887 321.85416298288214 238.75333503937605 264.6392214980169 235.49901378616119 241.92305115186034 239.56494096360362 216.81827737969604 251.67471820266977 191.45963997391237 266.08013568245065 136.39755190397966 257.82750011131066 105.61602034994976 252.84668103788735 74.13904273074999 274.07694110962177 53.35856994866822" />
	<path id="line9" style="stroke:#bcbd22"  d="M 274.076941109622 546.6414300513318 L 274.076941109622 546.6414300513318 299.1637722938588 530.7290797254394 300.83622770614124 467.07967842186997 300.0 434.78696746638246 300.0 402.81826364422767 300.0 370.7215570039661 280.6768860039142 343.4004246215519 266.92680092126307 319.0948203910708 271.61956606591093 274.44614250681855 290.12259807129846 253.5304774828101 314.7038384939591 230.82387869641147 321.3771190412175 199.42856210478283 328.02378630613384 168.15845116257248 342.17249988868923 105.61602034994974 347.15331896211245 74.13904273074999 325.92305889037794 53.35856994866816" />
	<path id="line10" style="stroke:#17becf"  d="M 223.36378539501305 535.8620160411981 L 223.36378539501305 535.8620160411981 206.91796067500633 511.1216271792756 174.4104169386788 474.28190707350615 152.7447854786838 433.7144460697265 169.4478983734069 375.37429101738496 171.8099762794341 341.65146356737534 181.838649982834 312.4192583315142 187.0028679796493 263.2850061887581 183.27106207504613 232.60651626680874 187.97197131280632 199.12950989533635 202.46955149129127 164.33817842877787 226.334368540005 132.48833890263464 259.463408360169 105.26829731736484 300.8362277061411 85.18327060045294 348.7892272109708 74.48676576333494 376.6362146049869 64.1379839588019" />
	<path id="line11" style="stroke:#1f77b4" stroke-dasharray='6,2' d="M 176.00000000000006 514.7743001385408 L 176.00000000000006 514.7743001385408 205.39009663000593 510.44137827918985 219.86223258500547 482.0483164580021 231.27864045000422 452.29475683664293 275.2975513301487 416.2158837900287 300.0 402.81826364422767 318.04561996985893 384.8979670544041 328.765048688887 364.6073571583855 367.26019763116113 321.85416298288214 386.3191680320206 309.0725101447749 402.2550144379321 289.25256490542046 412.9971320203507 263.2850061887581 444.27713211640344 215.73596635219832 435.4300337154458 176.9329945524325 434.94262791219217 112.84473109239923 424.00000000000006 85.22569986145922" />
	<path id="line12" style="stroke:#ff7f0e" stroke-dasharray='6,2' d="M 134.05560962300322 484.2999167183939 L 134.05560962300322 484.2999167183939 129.09442386694292 455.00932731404436 151.62569437455508 432.4715694842471 199.83376258556802 390.19008527005224 223.59113940822175 368.798847097027 247.44364086279802 347.3219583207064 280.6768860039142 343.4004246215519 307.9400727867379 337.3551055039378 337.9804339340891 303.99190446370096 341.1428571428571 276.2461603533411 341.56908822609273 242.78505851513484 360.4350590363964 216.81827737969604 379.225791677965 190.95505269943345 397.5304485087087 164.33817842877787 436.29567276306307 113.82777571885558 465.9443903769969 115.70008328160625" />
	<path id="line13" style="stroke:#2ca02c" stroke-dasharray='6,2' d="M 99.36378539501305 445.77074256853336 L 99.36378539501305 445.77074256853336 127.97533276281422 453.766450728565 173.05737208780792 473.2988624470498 218.33436854000507 481.36806755791645 261.13586377245156 478.81935235674285 299.16377229385876 467.07967842186997 331.34239257922866 447.45436383133347 354.8227986776435 423.1340218783347 369.83606821983585 396.1211016945735 402.8943971338482 359.4061078833315 428.19002372056593 341.65146356737534 449.922765529299 315.7575176198723 497.7273504763158 278.37718415495306 504.04444173228717 232.82268013046343 499.399130580965 183.9112657004136 500.63621460498695 154.2292574314666" />
	<path id="line14" style="stroke:#d62728" stroke-dasharray='6,2' d="M 73.44072650463494 400.8706874827984 L 73.44072650463494 400.8706874827984 80.82201380070163 372.0945065406851 118.09783032955463 319.9595223185049 133.74819194129552 283.36706473457934 187.0028679796493 263.2850061887581 210.95677171109287 248.5908681778862 235.49901378616119 241.92305115186034 258.4309117739072 242.78505851513484 314.7038384939591 230.82387869641147 335.30255975454315 220.70915257834505 360.4350590363964 216.81827737969604 388.2946833504993 220.49911002121326 445.1133598225447 217.1843552259317 471.8381313486842 199.82361602630596 500.23535828710624 185.359654574147 526.559273495365 199.12931251720156" />
	<path id="line15" style="stroke:#9467bd" stroke-dasharray='6,2' d="M 57.41939501801616 351.56209932280433 L 57.41939501801616 351.56209932280433 80.30519665597203 370.50390692262073 141.35619166874665 352.4257598560912 171.8099762794341 341.65146356737534 202.2140203670042 331.77259079819015 232.73980236883887 321.85416298288214 252.75257274466153 295.034095290057 271.61956606591093 274.44614250681855 315.533126291999 265.1120271344719 341.1428571428571 276.2461603533411 370.33413691497975 292.6075843264797 402.2550144379321 289.25256490542046 434.0485903556085 285.91092542223186 497.90216967044535 280.04047768149513 529.3777120880567 275.0505971018689 542.5806049819838 248.43790067719578" />

	<text text-anchor='middle' dominant-baseline='middle' x='554.1999999999999' y='300.0'>1</text>
	<text text-anchor='middle' dominant-baseline='middle' x='548.6451201065335' y='352.8511518058744'>2</text>
	<text text-anchor='middle' dominant-baseline='middle' x='532.2232553327492' y='403.3924546698684'>3</text>
	<text text-anchor='middle' dominant-baseline='middle' x='505.6521199701116' y='449.41501113274666'>4</text>
	<text text-anchor='middle' dominant-baseline='middle' x='470.0930001364218' y='488.90741463635356'>5</text>
	<text text-anchor='middle' dominant-baseline='middle' x='427.1' y='520.1436576420043'>6</text>
	<text text-anchor='middle' dominant-baseline='middle' x='378.5521199701116' y='541.758566442228'>7</text>
	<text text-anchor='middle' dominant-baseline='middle' x='326.5711353626375' y='552.8074658026151'>8</text>
	<text text-anchor='middle' dominant-baseline='middle' x='273.42886463736255' y='552.8074658026151'>9</text>
	<text text-anchor='middle' dominant-baseline='middle' x='221.44788002988838' y='541.758566442228'>10</text>
	<text text-anchor='middle' dominant-baseline='middle' x='172.9000000000001' y='520.1436576420043'>11</text>
	<text text-anchor='middle' dominant-baseline='middle' x='129.90699986357833' y='488.9074146363537'>12</text>
	<text text-anchor='middle' dominant-baseline='middle' x='94.34788002988842' y='449.4150111327467'>13</text>
	<text text-anchor='middle' dominant-baseline='middle' x='67.77674466725082' y='403.39245466986836'>14</text>
	<text text-anchor='middle' dominant-baseline='middle' x='51.354879893466574' y='352.8511518058744'>15</text>

	</svg>