<?xml version="1.0" encoding="UTF-8" standalone="no"?>

<svg
    width="600.0px"
    height="600.0px"
    viewBox="0px 0px 600.0px 600.0px"
    version="1.1"
    id="svg1=-body"
    xml:space="preserve"
    xmlns="http://www.w3.org/2000/svg"
    xmlns:svg="http://www.w3.org/2000/svg">

    <style>
path { fill: none; stroke-width:1.5px }
    </style>

    <rect width="100%" height="100%" fill="white"/>
    
    
    <text x='20' y='30'>(22 pseudolines)</text>
    <text x='20' y='45'>by Pavlo Savchuk</text>

    	<path id="line1" style="stroke:#1f77b4"  d="M 543.8709677419355 300.0 L 543.8709677419355 300.0 534.9470061539148 283.47311555536044 492.474897403613 258.4122591633245 477.36190540208077 234.14216425904112 459.4064482979055 213.27213246377792 439.2593105454613 196.09674213570958 417.5944492205599 182.7960882261843 395.0899035946952 173.43556754298172 372.4091674689592 167.96872812247946 331.7388981114304 152.7995019240228 311.017922963093 142.07833998341164 287.88028474059763 134.4152062398173 262.7969990347155 130.27970278252658 236.32331953781352 130.0664272968702 209.08652613508946 134.0806211253369 181.77135670077155 142.52582998455387 155.10341578009397 155.49395322683839 129.83095189611075 172.9580024311764 106.70544470495184 194.7678260678267 86.46148229529308 220.64898548788028 69.79643649002381 250.20489022562046 58.61128707677898 265.29354266625694" />
	<path id="line2" style="stroke:#ff7f0e"  d="M 541.388712923221 334.70645733374306 L 541.388712923221 334.70645733374306 530.2035635099761 349.7951097743796 513.5385177047069 379.3510145121197 493.2945552950482 405.2321739321733 470.1690481038892 427.0419975688236 444.896584219906 444.50604677316164 418.22864329922845 457.47417001544613 390.91347386491054 465.9193788746631 363.6766804621864 469.93357270312987 337.2030009652845 469.72029721747344 312.11971525940237 465.5847937601827 264.43847282225636 462.1745639962008 239.0219552920458 462.6982502426047 212.7873874142798 459.1417574752346 186.39910464167824 451.2922225037605 160.5638427799632 439.0456197732924 136.01289940779634 422.414249627917 113.48306610438038 401.5313126529831 93.6968047558183 376.65237875788756 77.34216971129649 348.15363598683876 65.0529938460852 316.5268844446396 56.12903225806451 300.0000000000001" />
	<path id="line3" style="stroke:#2ca02c"  d="M 533.9924800169549 368.7063912813293 L 533.9924800169549 368.7063912813293 530.0861629876545 350.3347912656111 515.1120970674308 346.51216219929796 469.72029721747344 337.20300096528445 454.7462312972498 333.3803718989713 439.5373643323828 330.6371058151211 388.411701653279 306.32332970055774 380.69321976291343 294.2287070193322 371.4858936752144 284.4491956969816 361.28743731268423 277.1409677288567 343.79386135015346 276.0867425036937 333.7197137001031 274.75773850414555 275.7314355561369 275.7314355561369 266.2802862998969 274.7577385041456 228.99634724408224 261.22907231324484 215.41528493513215 253.81325123570556 201.841345249656 246.40131940483073 188.2719381427542 238.99186254910603 160.92641590037994 224.37471630134877 144.34406197949485 242.23807152173782 84.88790293256906 253.48783780070212 69.91383701234554 249.66520873438893 66.00751998304511 231.29360871867078" />
	<path id="line4" style="stroke:#d62728"  d="M 521.8328349961341 401.3076612352987 L 521.8328349961341 401.3076612352987 513.3455074662812 379.86849498757954 514.9946965451092 347.0518436905295 480.98986298764794 313.22150755571164 473.32672924405364 287.88028474059763 462.2919645185225 264.97815431348783 448.42061555997986 244.93670727596992 404.94381521695766 242.6963414835056 389.5316536175152 232.97744361445552 373.6146454797181 226.38535452028185 357.7542943025149 222.84929505416406 306.87518392897005 203.87236802061662 292.57310378043354 196.15842224449324 269.3628941848788 160.46263566761715 247.1178625547423 159.00771713897106 223.88997125185048 161.19110672305092 200.2823484643981 167.25362003129615 176.9451237795708 177.3356612263152 154.55874194285306 191.46899419480297 120.26068750380887 202.1695486262072 106.97013552762283 194.28308101832846 93.1502019060948 187.36610350944613 78.16716500386588 198.69233876470122" />
	<path id="line5" style="stroke:#9467bd"  d="M 505.1573131678623 431.8465993536877 L 505.1573131678623 431.8465993536877 493.0298644723772 405.71691898167154 479.73931249619113 397.8304513737928 438.8088932769491 376.1100287481495 425.518341300763 368.2235611402707 370.9580062210866 353.1184981043197 357.2044733319631 357.2044733319631 339.19974726415035 352.36473186368954 327.6330975512873 350.6062397823996 317.4373387196542 346.7513143603168 297.17737922476454 339.4653952392285 283.5517276480433 330.12276177523785 257.9861748341856 296.99511191915644 220.94946149142953 282.80360794004844 205.82924939851756 279.51440713149043 190.7169671401894 276.226931352857 175.60973114023295 272.94055332053904 160.46263566761712 269.3628941848789 145.25376870275016 266.61962810102875 85.00530345489076 252.9481563094706 86.65449253371878 220.13150501242046 93.41489272876578 186.88135845994793 94.8426868321377 168.15340064631235" />
	<path id="line6" style="stroke:#8c564b"  d="M 484.3053800683288 459.70152092343085 L 484.3053800683288 459.70152092343085 469.83806503881726 427.4841391810417 479.4746216735201 398.315196423291 455.4629277820794 358.27940895372205 454.62883077492813 333.92005339020284 450.1797245327174 311.01792296309304 442.51659078912303 290.0838693332162 401.72766268678663 277.870501530931 390.29682430735477 266.32102578718224 377.79530649778815 257.52054879538133 364.7632596462298 251.51883109526372 346.25302870477435 253.74697129522556 281.07241233500076 249.2531735928576 253.7469712952256 253.7469712952256 242.79552666803696 242.79552666803696 231.85387104163237 231.8538710416324 220.91795379499777 220.9179537949978 187.86597777930916 188.25651522605364 177.33566122631518 176.9451237795708 166.0242697798324 166.4148072265768 155.49395322683836 155.10341578009402 133.26170778061714 133.65224522736162 115.69461993167116 140.29847907656918" />
	<path id="line7" style="stroke:#e377c2"  d="M 459.70152092343085 484.3053800683288 L 459.70152092343085 484.3053800683288 444.50604677316164 444.896584219906 433.97573022016763 433.58519277342316 400.822630774208 401.2131682209524 390.0143117554195 390.01431175541956 362.388898166297 383.3418108982795 346.18674876429446 384.58471506486785 328.2714221871944 375.7986162531214 296.4332533602477 368.8320684942025 268.65152798803547 357.41044008927685 260.0587955530015 339.94120444699854 237.38436265706628 313.6211981492839 219.3067802370866 305.7712929806678 188.44605042180308 307.9784959387916 180.73494791639777 291.46999512534734 175.60973114023295 272.94055332053904 173.48521869024466 252.81242624028283 161.19110672305092 223.8899712518505 147.37117310152294 216.97299374296824 120.52537832647985 201.684803576709 130.16193496118274 172.5158608189583 133.65224522736156 133.2617077806172 140.29847907656915 115.69461993167124" />
	<path id="line8" style="stroke:#7f7f7f"  d="M 431.8465993536877 505.15731316786224 L 431.8465993536877 505.15731316786224 417.78650168701034 457.80515308051804 433.58519277342316 433.97573022016763 420.3824849453327 390.4621556537886 425.253650478092 368.7083061897689 371.00365275591776 338.7709276867551 367.1497783595614 325.0455724342001 357.5122584492037 304.1133579062214 349.7702236579648 296.4403633503853 339.4653952392285 285.28016861327893 343.79386135015346 276.0867425036937 346.1585414205856 265.44614870789707 346.25302870477435 253.74697129522556 322.8145029890615 234.96098257088389 294.22870701933226 219.30678023708657 268.82650439816786 218.77518094968605 253.81325123570554 215.41528493513215 231.291693810231 174.74634952190803 224.3747163013487 160.92641590037994 216.48824869346993 147.63586392419393 209.57127118458766 133.81593030266592 186.88135845994782 93.41489272876584 168.15340064631235 94.8426868321377" />
	<path id="line9" style="stroke:#bcbd22"  d="M 401.3076612352988 521.8328349961341 L 401.3076612352988 521.8328349961341 390.4287288154123 466.18406969733405 383.51175130653 452.3641360758061 352.8821374452576 440.992282861029 330.6371058151211 439.5373643323828 291.3763107972187 432.1090316334319 255.51339847568755 419.2731945007794 242.69634148350565 404.94381521695766 232.97744361445552 389.5316536175152 210.4683463824848 367.02255638554453 195.0561847830424 357.30365851649447 180.7268054992206 344.48660152431256 168.05746481660424 328.7023416564283 157.48340921087694 309.9161306667838 149.82027546728264 288.982077036907 145.37116922507184 266.0799466097972 144.53707221792052 241.72059104627797 147.6358639241939 216.48824869346998 154.88972500792502 191.02685258258484 166.41480722657676 166.0242697798324 182.21349831298969 142.1948469194819 187.36610350944608 93.15020190609482 198.69233876470105 78.1671650038659" />
	<path id="line10" style="stroke:#17becf"  d="M 368.70639128132933 533.9924800169549 L 368.70639128132933 533.9924800169549 363.1591999867266 470.1265829415556 383.02700625703176 452.6288268984771 368.70830618976896 425.25365047809197 361.00813745089397 411.7280618572458 353.5986805951693 398.158654750344 346.18674876429446 384.58471506486785 335.060791066013 364.2090448366912 327.6330975512873 350.6062397823996 320.18651606831054 336.9688439968828 312.68866724293804 323.2375590837549 301.1347990802467 284.13343563117724 275.7314355561369 275.7314355561369 264.7172409239221 264.7172409239221 253.7469712952256 253.7469712952256 256.1581774019371 241.43418146824195 270.3684114143574 218.20007936626766 279.51440713149043 205.82924939851756 269.90257567611036 160.34523514529545 266.07994660979716 145.37116922507187 263.33668052594703 130.1623022602049 249.66520873438887 69.91383701234554 231.29360871867067 66.00751998304511" />
	<path id="line11" style="stroke:#1f77b4" stroke-dasharray='6,2' d="M 334.70645733374306 541.388712923221 L 334.70645733374306 541.388712923221 336.66331947405297 469.8376977397951 333.92005339020284 454.62883077492813 330.09742432388964 439.6547648547046 327.05944667946096 424.39026885976705 323.7730686471431 409.28303285981053 294.36333145840837 397.7733583363034 253.81325123570556 384.58471506486785 239.0652438557026 362.09841826833195 228.99634724408224 338.77092768675516 231.45483984765576 325.56602293483127 219.3067802370866 305.7712929806678 211.588298346721 293.6766702994423 205.82924939851756 279.51440713149043 202.45713423588217 263.61839205405494 201.841345249656 246.40131940483073 204.27952239970728 228.34454801176813 188.25651522605358 187.8659777793092 200.72449007661623 166.92263696622422 216.97299374296819 147.37117310152294 236.84080001327334 129.87341705844446 250.20489022562037 69.79643649002386 265.2935426662569 58.61128707677898" />
	<path id="line12" style="stroke:#ff7f0e" stroke-dasharray='6,2' d="M 300.00000000000006 543.8709677419355 L 300.00000000000006 543.8709677419355 311.5688191112477 465.62419463032097 333.3803718989713 454.7462312972498 352.3646569697978 441.1852930994547 368.2235611402707 425.518341300763 380.91947828099615 408.0957679186163 390.0143117554195 390.01431175541956 368.1461289583676 368.1461289583676 357.2044733319631 357.2044733319631 352.36473186368954 339.19974726415035 357.5122584492037 304.1133579062214 365.24499908102945 295.33358556857235 371.4858936752144 284.4491956969816 375.7986162531214 271.7285778128056 377.79530649778815 257.52054879538133 377.1507049458359 242.24570569748508 373.6146454797181 226.38535452028185 367.0225563855445 210.4683463824848 340.2063858356382 189.84795072556398 309.9161306667837 157.48340921087694 311.56881911124765 142.11774085354998 316.5268844446395 65.0529938460852 299.99999999999994 56.12903225806451" />
	<path id="line13" style="stroke:#2ca02c" stroke-dasharray='6,2' d="M 265.29354266625694 541.388712923221 L 265.29354266625694 541.388712923221 264.9781543134879 462.2919645185225 244.93670727597 448.42061555998 255.51339847568755 419.2731945007794 260.9163097662924 404.78742873864115 291.66469570417615 397.5803480978776 295.398292409328 383.3027134152529 293.7346176060155 368.6390582557768 296.13614578323325 354.02374103858835 297.17737922476454 339.4653952392285 298.22578122699485 324.8068198646579 275.6981754508254 290.9358880714323 269.87723822476215 283.5517276480433 228.99634724408224 261.22907231324484 229.04199377891342 246.88150189568026 231.85387104163237 231.8538710416324 237.611101833703 216.65818910172044 231.77643885972924 174.48165869923702 247.63534303020214 158.8147069005453 266.6196281010287 145.2537687027502 288.4311808887523 134.375805369679 317.07778059279417 65.09239471622354 334.706457333743 58.61128707677898" />
	<path id="line14" style="stroke:#d62728" stroke-dasharray='6,2' d="M 231.2936087186707 533.9924800169549 L 231.2936087186707 533.9924800169549 239.5394357675056 462.8912604810304 244.41922680051016 448.22760532155417 289.73483700967785 431.9916311111102 327.05944667946096 424.39026885976705 341.7853278074662 412.0307993887776 353.5986805951693 398.158654750344 362.388898166297 383.3418108982795 368.1461289583676 368.1461289583676 370.9580062210866 353.1184981043197 371.00365275591776 338.7709276867551 379.05053850857047 317.19639205995156 388.411701653279 306.32332970055774 396.1276319793834 293.12481607102995 401.72766268678663 277.870501530931 404.78742873864115 260.91630976629233 404.94381521695766 242.6963414835056 401.9084680714227 223.71227636808442 395.4794663977128 204.5205336022871 385.3922661006638 185.4684795012809 371.92442241946094 167.70403729980848 382.0496502663518 79.2261598347678 368.7063912813292 66.00751998304511" />
	<path id="line15" style="stroke:#9467bd" stroke-dasharray='6,2' d="M 198.69233876470128 521.8328349961341 L 198.69233876470128 521.8328349961341 213.27213246377804 459.4064482979056 196.09674213570963 439.2593105454614 232.97744361445552 389.5316536175152 228.36670695025657 372.796955173778 237.9015817316681 360.93475614429747 249.32271992157143 350.67728007842857 260.0587955530015 339.94120444699854 261.4648649132694 321.0417757095244 257.9861748341856 296.99511191915644 266.46340790545497 292.704560944263 269.87723822476215 283.5517276480433 266.2802862998969 274.7577385041456 264.7172409239221 264.7172409239221 281.07241233500076 249.2531735928576 325.3494477656239 235.90646808951254 327.88439254218633 221.36808264039928 306.87518392897005 203.87236802061662 307.97849593879147 188.44605042180308 310.4670268149384 157.52281008101525 332.2785796026619 152.9169024463445 382.5671307418117 79.41917007319353 401.30766123529867 78.16716500386582" />
	<path id="line16" style="stroke:#8c564b" stroke-dasharray='6,2' d="M 168.15340064631243 505.1573131678623 L 168.15340064631243 505.1573131678623 186.84124625389637 451.62320556883253 195.65460052349152 438.9283274803894 242.69634148350565 404.94381521695766 260.9163097662924 404.78742873864115 323.7730686471431 409.28303285981053 341.7853278074662 412.0307993887776 361.00813745089397 411.7280618572458 380.91947828099615 408.0957679186163 401.2131682209524 400.822630774208 420.71346801040465 390.02001404157045 439.07358409962006 375.62528369865123 455.6559380205051 357.7619284782622 469.8376977397951 336.66331947405297 481.0292638577863 312.670611407557 488.69239760138055 286.2275962961337 492.3574968812913 257.87257767209303 491.6395400847055 228.22741227511693 486.25224307294866 197.98394229751864 476.02001255050277 167.88811287805157 460.8873277727691 138.72213478048627 440.9252413915435 111.28510936105403 431.8465993536878 94.84268683213776" />
	<path id="line17" style="stroke:#e377c2" stroke-dasharray='6,2' d="M 140.29847907656918 484.3053800683288 L 140.29847907656918 484.3053800683288 160.95438022670763 439.4361572200369 148.70777749623946 413.60089535832185 195.0561847830424 357.30365851649447 195.21257126135885 339.0836902337076 231.45483984765576 325.56602293483127 237.38436265706628 313.6211981492839 261.4648649132694 321.0417757095244 283.5517276480433 330.12276177523785 298.22578122699485 324.8068198646579 306.4767258101573 317.36477390526056 301.1347990802467 284.13343563117724 333.7197137001031 274.75773850414555 346.1585414205856 265.44614870789707 364.7632596462298 251.51883109526372 377.1507049458359 242.24570569748508 389.5316536175152 232.97744361445552 401.9084680714227 223.71227636808442 426.5644324570182 204.91009640530473 417.20391177381555 182.40555077943992 431.6697455097302 123.64900438442521 441.36738300376163 111.61609242612599 459.70152092343073 115.6946199316711" />
	<path id="line18" style="stroke:#7f7f7f" stroke-dasharray='6,2' d="M 115.69461993167124 459.70152092343085 L 115.69461993167124 459.70152092343085 136.34388247286836 422.8563912401351 148.37679443116753 413.1587537461037 210.4683463824848 367.02255638554453 227.20304482622208 371.6332930497435 253.81325123570556 384.58471506486785 292.69965665509585 383.1097031768272 328.2714221871944 375.7986162531214 335.060791066013 364.2090448366912 339.19974726415035 352.36473186368954 352.36473186368954 339.19974726415035 367.1497783595614 325.0455724342001 379.05053850857047 317.19639205995156 439.6547648547046 330.09742432388964 450.21912540285575 310.4670268149384 457.88225914645 288.4311808887523 462.17456399620073 264.43847282225636 462.6982502426046 239.02195529204567 459.14175747523456 212.7873874142797 463.65611752713164 177.14360875986483 476.3509956155748 168.3302544902697 488.3839075738739 158.63261699623826 484.3053800683287 140.29847907656904" />
	<path id="line19" style="stroke:#bcbd22" stroke-dasharray='6,2' d="M 94.84268683213776 431.8465993536877 L 94.84268683213776 431.8465993536877 113.74775692705134 402.01605770248136 108.36045991529448 371.772587724883 168.05746481660424 328.7023416564283 173.0248839433164 309.0814395332161 180.73494791639777 291.46999512534734 190.7169671401894 276.226931352857 202.45713423588217 263.61839205405494 215.41528493513215 253.81325123570556 229.04199377891342 246.88150189568026 242.79552666803696 242.79552666803696 256.1581774019371 241.43418146824195 294.22870701933226 219.30678023708657 330.4193373187487 222.31356815902797 357.7542943025149 222.84929505416406 367.0225563855445 210.4683463824848 376.2877236319155 198.09153192857718 385.83440771288195 185.79946256635287 394.6477619824771 173.10458447790978 432.11188712194837 123.97998744949712 461.2778652195135 139.1126722272307 488.7148906389459 159.07475860845645 505.1573131678623 168.15340064631235" />
	<path id="line20" style="stroke:#17becf" stroke-dasharray='6,2' d="M 78.16716500386588 401.30766123529884 L 78.16716500386588 401.30766123529884 93.88981499424403 377.16985923334744 108.16744967686876 371.2551072494232 180.7268054992206 344.48660152431256 195.21257126135885 339.0836902337076 228.99634724408224 338.77092768675516 249.32271992157143 350.67728007842857 268.65152798803547 357.41044008927685 296.13614578323325 354.02374103858835 317.4373387196542 346.7513143603168 320.18651606831054 336.9688439968828 326.5056484723544 314.4731790594612 339.4653952392285 285.28016861327893 361.28743731268423 277.1409677288567 375.7986162531214 271.7285778128056 390.29682430735477 266.32102578718224 404.78742873864115 260.91630976629233 448.22760532155417 244.4192268005101 462.8912604810304 239.53943576750555 477.16889516365507 233.6246837835813 491.8325503231312 228.74489275057675 520.5808299268064 217.43286925818813 521.8328349961341 198.69233876470105" />
	<path id="line21" style="stroke:#1f77b4" stroke-dasharray='6,2,2,2' d="M 66.00751998304511 368.7063912813293 L 66.00751998304511 368.7063912813293 77.45957023361814 348.6933174780703 80.49746394368884 315.97598829648496 149.78087459714428 289.5329731850617 160.34523514529545 269.9025756761104 173.48521869024466 252.81242624028283 188.2719381427542 238.99186254910603 204.27952239970728 228.34454801176813 220.91795379499777 220.9179537949978 237.611101833703 216.65818910172044 253.81325123570554 215.41528493513215 279.51440713149043 205.82924939851756 292.57310378043354 196.15842224449324 307.97849593879147 188.44605042180308 341.7482928518278 190.42305230898236 376.2877236319155 198.09153192857718 395.4794663977128 204.5205336022871 426.89541552209016 205.35223801752286 438.9283274803894 195.65460052349144 463.98710059220355 177.585750372083 486.5169338956196 198.4686873470169 520.7738401652321 217.95034973364795 533.9924800169549 231.29360871867067" />
	<path id="line22" style="stroke:#ff7f0e" stroke-dasharray='6,2,2,2' d="M 58.61128707677898 334.70645733374306 L 58.61128707677898 334.70645733374306 65.09239471622354 317.0777805927943 80.4580630735505 315.42509214833035 157.52281008101525 310.46702681493844 173.0248839433164 309.0814395332161 188.44605042180308 307.9784959387916 211.588298346721 293.6766702994423 220.94946149142953 282.80360794004844 266.46340790545497 292.704560944263 275.6981754508254 290.9358880714323 306.4767258101573 317.36477390526056 312.68866724293804 323.2375590837549 326.5056484723544 314.4731790594612 349.7702236579648 296.4403633503853 365.24499908102945 295.33358556857235 380.69321976291343 294.2287070193322 396.1276319793834 293.12481607102995 442.4771899189848 289.5329731850616 457.92166001658836 288.98207703690696 473.28732837391533 287.32938859244297 488.7317984715189 286.7784924442883 534.9076052837764 282.9222194072058 541.388712923221 265.2935426662569" />

	<text text-anchor='middle' dominant-baseline='middle' x='549.9677419354839' y='300.0'>1</text>
	<text text-anchor='middle' dominant-baseline='middle' x='547.4234307463015' y='335.57411876708665'>2</text>
	<text text-anchor='middle' dominant-baseline='middle' x='539.8422920173787' y='370.4240510633625'>3</text>
	<text text-anchor='middle' dominant-baseline='middle' x='527.3786558710375' y='403.84035276618124'>4</text>
	<text text-anchor='middle' dominant-baseline='middle' x='510.2862459970588' y='435.1427643375298'>5</text>
	<text text-anchor='middle' dominant-baseline='middle' x='488.91301457003703' y='463.6940589465166'>6</text>
	<text text-anchor='middle' dominant-baseline='middle' x='463.6940589465166' y='488.91301457003703'>7</text>
	<text text-anchor='middle' dominant-baseline='middle' x='435.14276433752985' y='510.2862459970588'>8</text>
	<text text-anchor='middle' dominant-baseline='middle' x='403.84035276618124' y='527.3786558710375'>9</text>
	<text text-anchor='middle' dominant-baseline='middle' x='370.4240510633625' y='539.8422920173787'>10</text>
	<text text-anchor='middle' dominant-baseline='middle' x='335.57411876708665' y='547.4234307463015'>11</text>
	<text text-anchor='middle' dominant-baseline='middle' x='300.00000000000006' y='549.9677419354839'>12</text>
	<text text-anchor='middle' dominant-baseline='middle' x='264.42588123291335' y='547.4234307463015'>13</text>
	<text text-anchor='middle' dominant-baseline='middle' x='229.57594893663747' y='539.8422920173787'>14</text>
	<text text-anchor='middle' dominant-baseline='middle' x='196.15964723381882' y='527.3786558710375'>15</text>
	<text text-anchor='middle' dominant-baseline='middle' x='164.85723566247026' y='510.28624599705887'>16</text>
	<text text-anchor='middle' dominant-baseline='middle' x='136.30594105348342' y='488.91301457003703'>17</text>
	<text text-anchor='middle' dominant-baseline='middle' x='111.08698542996305' y='463.69405894651663'>18</text>
	<text text-anchor='middle' dominant-baseline='middle' x='89.71375400294122' y='435.1427643375299'>19</text>
	<text text-anchor='middle' dominant-baseline='middle' x='72.62134412896253' y='403.8403527661813'>20</text>
	<text text-anchor='middle' dominant-baseline='middle' x='60.157707982621275' y='370.4240510633625'>21</text>
	<text text-anchor='middle' dominant-baseline='middle' x='52.576569253698466' y='335.57411876708665'>22</text>

	</svg>