<?xml version="1.0" encoding="UTF-8" standalone="no"?>
<!-- Created with LineOrder (https://github.com/zegalur/line-order) -->

<svg
    width="600.0px"
    height="600.0px"
    viewBox="0 0 600.0 600.0"
    version="1.1"
    xmlns="http://www.w3.org/2000/svg">

    <style>
path { fill: none; stroke-width:1.5px }
    </style>

    <rect width="100%" height="100%" fill="white"/>
    
    
    <text x='20' y='30'>(17 pseudolines)</text>
    <text x='20' y='45'>by Johannes Bader</text>

    	<path id="line1" style="stroke:#1f77b4"  d="M 546.6666666666666 300.0 L 546.6666666666666 300.0 531.4036179641755 320.82494535254466 485.32805137946343 352.0908406257913 460.71622650763976 379.3400096268384 410.99356560287623 383.81844997944785 384.7353823326263 392.95028658485035 359.2022395570331 395.61489987587584 335.8102003266869 392.4367825187212 300.0 399.13086910670563 279.3356414380018 410.54455451112585 254.56412552535025 417.2835116543925 226.78029896054773 418.25387749198933 197.33510198539773 412.6180283839636 167.19380152578069 399.51977227442876 115.51458195724067 391.17566068103196 89.13267756602653 359.357389745841 68.59638203582443 320.82494535254466 53.33333333333334 300.00000000000006" />
	<path id="line2" style="stroke:#ff7f0e"  d="M 542.4666979220291 345.3248810614207 L 542.4666979220291 345.3248810614207 531.2901052954015 322.04994213798847 478.52433530593817 315.92495821076943 451.7405502366812 314.0608326677028 425.2404062958254 311.60523270420447 398.70799429537647 309.14664266464706 372.10811271577825 306.68180064787526 356.75393567668914 294.7409733816124 335.08815693219685 273.50265386360246 285.2173586798318 261.8416041156208 248.97831061023524 274.59421743812953 230.34744257860882 280.182138763501 204.6533880631623 272.8715499518147 179.02450553126795 265.5795041681859 153.42679220889855 258.29632678928033 127.77825661632195 250.35915294509633 76.36304203877143 237.00933569413428 57.53330207797089 254.67511893857937" />
	<path id="line3" style="stroke:#2ca02c"  d="M 530.0098165864079 389.1062776594977 L 530.0098165864079 389.1062776594977 508.25460957787897 403.0113117352253 475.1855598862266 431.5231804483998 439.09108147479594 451.6625913836567 387.88740361499197 440.7745563393591 355.04984211711195 442.1000228160466 335.8102003266869 392.4367825187212 315.2263998411855 381.4540447603119 286.69340547144054 371.1839934351947 254.83931726098118 372.93700695659766 233.2159653319153 373.2585962416894 210.25546995104338 367.77192319193864 187.40909272838084 356.06361025670583 166.2228659049471 338.06287634311724 121.47566469406183 315.92495821076943 108.36935669827648 281.625048218343 76.69971450730176 235.82605470499703 69.99018341359218 210.89372234050234" />
	<path id="line4" style="stroke:#d62728"  d="M 509.72022681330486 429.8532668430811 L 509.72022681330486 429.8532668430811 507.7062422867141 404.11258171316 484.4854180427594 391.1756606810319 460.1678592164749 380.4412796047731 433.77713409505293 338.0628763431172 425.2404062958254 311.60523270420447 411.97965739391447 289.6235566409466 395.34661193683775 272.8715499518147 366.1276803722172 250.06269381986618 338.1226542602107 238.4297993223526 313.30659452855946 228.81600656480532 300.0 214.2136709653509 258.9209426458685 199.01314362745046 233.78696891647604 193.06228303355994 205.1234431039693 147.93757353640567 169.85320888253676 158.1488277558553 114.21959976077159 160.4759675081075 90.27977318669517 170.14673315691888" />
	<path id="line5" style="stroke:#9467bd"  d="M 482.2888662477626 466.1782587661508 L 482.2888662477626 466.1782587661508 456.97966218946146 471.2854296626807 438.18191960251994 452.4914019412146 402.6648980146023 412.6180283839635 384.7353823326263 392.95028658485035 366.7840346680847 373.2585962416894 348.7870383127242 353.51683167006536 330.6661383679981 333.63915133546965 300.0 325.5365512729677 256.2183924779827 304.0569633913276 248.97831061023524 274.59421743812953 242.20996171089917 256.3589888536759 220.89185869758637 240.26030474192078 199.62782823471957 224.2024543248055 178.38965855684864 208.1641330659962 156.5989611727789 192.47937568207848 114.96098788416464 159.49421096964613 117.7111337522374 133.8217412338492" />
	<path id="line6" style="stroke:#8c564b"  d="M 448.6498769735499 496.8442493957924 L 448.6498769735499 496.8442493957924 456.07050031718546 472.11424022023857 474.44417176283355 432.50493698686114 483.9370507515944 392.2769306589666 484.9913789109331 353.2741216149285 478.4108226371642 317.14995499621324 465.30451464137883 285.3000385746744 446.5732077911015 258.29632678928033 424.50528899348365 238.00373257327237 393.7020894577719 197.2137042527316 380.22332461713904 170.43488205225515 359.3765276017035 145.028714283284 332.32917268948876 123.70658780415246 299.38487760357805 107.49139258295997 261.58244511264763 97.83184709872916 220.2922674043034 95.9534250413256 177.16682997981474 102.78609303946428 151.3501230264499 103.15575060420773" />
	<path id="line7" style="stroke:#e377c2"  d="M 409.94879442487945 520.8069452009154 L 409.94879442487945 520.8069452009154 384.5037415680207 516.4265011888604 335.9780125571165 489.11775410481846 300.615122396422 479.2321517331062 279.3356414380018 410.54455451112585 264.1897996733131 392.4367825187212 254.83931726098118 372.93700695659766 251.2129616872758 353.51683167006536 235.17493217694653 332.27904832961855 217.48850890081354 307.6458156221174 204.6533880631623 272.8715499518147 199.33048291008168 249.87253671165126 199.62782823471957 224.2024543248055 206.29791054222807 197.2137042527317 206.16941830798743 147.28993310924017 191.14513654189201 125.36183328793496 178.21280518383284 102.1384526122988 190.0512055751204 79.1930547990847" />
	<path id="line8" style="stroke:#7f7f7f"  d="M 367.5035375511138 537.2503253159621 L 367.5035375511138 537.2503253159621 383.3565724633243 516.8709168676453 365.3197056787241 466.9067962681168 355.04984211711195 442.1000228160466 359.2022395570331 395.61489987587584 366.7840346680847 373.2585962416894 374.1776868820426 336.936099263027 372.10811271577825 306.68180064787526 369.6525574213912 280.182138763501 366.1276803722172 250.06269381986618 352.1856778317551 215.7172364057094 340.6250171773339 195.13474252077845 323.11145365486647 176.3646429809777 300.00000000000006 160.91332140640785 266.4615297731194 123.9326446916339 262.7917426500395 97.60579021124775 256.7033604521758 71.73104950582444 232.49646244888618 62.74967468403793" />
	<path id="line9" style="stroke:#bcbd22"  d="M 322.7595286676145 545.6144301527752 L 322.7595286676145 545.6144301527752 300.615122396422 532.3379744688414 260.3522003198036 515.4446085852046 226.23544548132406 492.1110644072736 199.18026502694897 463.99793701499533 179.7066611121456 432.8685636621907 167.93518964917374 400.5015288128901 163.585509450618 367.9263451805886 166.2228659049471 338.06287634311724 161.50664065699735 287.1667003429697 153.42679220889855 258.29632678928033 151.71673655108498 225.47654592232362 157.34034929617192 191.49761914361716 170.76237075481276 157.32001719829745 192.19111174591012 124.71419286076951 221.43943650899976 95.50900936254055 257.91265798956766 71.50499261834301 277.24047133238554 54.38556984722476" />
	<path id="line10" style="stroke:#17becf"  d="M 277.24047133238554 545.6144301527752 L 277.24047133238554 545.6144301527752 299.384877603578 532.3379744688414 300.615122396422 505.7850631009738 299.384877603578 479.2321517331062 300.0 399.13086910670563 315.2263998411855 381.4540447603119 331.0629034712828 350.16831166326824 330.6661383679981 333.63915133546965 327.551712270473 313.71912258341 335.08815693219685 273.50265386360246 320.58971839533507 246.85181026443632 313.30659452855946 228.81600656480532 318.2152493990947 202.5570223198224 323.11145365486647 176.3646429809777 328.0017032687947 150.20411816245988 333.5384702268806 123.9326446916339 342.08734201043234 71.50499261834307 322.75952866761463 54.385569847224815" />
	<path id="line11" style="stroke:#1f77b4" stroke-dasharray='6,2' d="M 232.49646244888623 537.2503253159621 L 232.49646244888623 537.2503253159621 216.64342753667577 516.8709168676453 225.08827637662768 491.6666487284886 235.82746342597233 467.3512119469019 226.78029896054773 418.25387749198933 215.26461766737373 392.95028658485035 210.25546995104338 367.77192319193864 211.26168493555352 344.1864306023223 217.48850890081354 307.6458156221174 230.34744257860882 280.182138763501 242.20996171089917 256.3589888536759 242.20612384492668 236.60313786776877 262.3233844919748 197.6950306340185 276.8885463451336 176.36464298097766 267.6708273105113 123.70658780415246 300.61512239642207 107.49139258295997 343.2966395478242 71.73104950582444 367.50353755111377 62.74967468403793" />
	<path id="line12" style="stroke:#ff7f0e" stroke-dasharray='6,2' d="M 190.05120557512066 520.8069452009154 L 190.05120557512066 520.8069452009154 215.4962584319794 516.4265011888604 259.14290278241174 515.2185516977231 299.384877603578 505.7850631009738 334.7687150197246 489.3438109922999 364.17253657402773 467.35121194690186 386.84142841097383 441.4221967665246 402.6648980146023 412.6180283839635 410.99356560287623 383.81844997944785 433.77713409505293 338.0628763431172 451.7405502366812 314.0608326677028 465.1910019726048 284.07504178923057 472.221743383678 250.3591529450963 472.0524549840346 213.6408948681301 463.8493314098316 175.49591505663156 447.12620995985264 137.69717891927334 421.7871948161669 102.13845261229866 409.94879442487934 79.19305479908456" />
	<path id="line13" style="stroke:#2ca02c" stroke-dasharray='6,2' d="M 151.35012302645012 496.8442493957924 L 151.35012302645012 496.8442493957924 143.9294996828145 472.11424022023857 178.79749923986958 432.0397531046328 197.33510198539773 412.6180283839636 215.26461766737373 392.95028658485035 233.2159653319153 373.2585962416894 251.2129616872758 353.51683167006536 254.51535212493002 334.3484116582931 256.2183924779827 304.0569633913276 285.2173586798318 261.8416041156208 320.58971839533507 246.85181026443632 338.1226542602107 238.4297993223526 352.1856778317551 215.7172364057094 366.2130310835238 193.06228303355982 380.22332461713904 170.43488205225515 407.80888825408965 124.71419286076934 422.833170020185 102.78609303946413 448.6498769735499 103.1557506042075" />
	<path id="line14" style="stroke:#d62728" stroke-dasharray='6,2' d="M 117.71113375223737 466.17825876615075 L 117.71113375223737 466.17825876615075 143.02033781053848 471.2854296626807 198.13428982293084 463.3502965878298 234.68029432127594 466.90679626811686 254.56412552535025 417.2835116543925 264.1897996733131 392.4367825187212 286.69340547144054 371.1839934351947 331.0629034712828 350.16831166326824 348.7870383127242 353.51683167006536 374.1776868820426 336.936099263027 398.70799429537647 309.14664266464706 411.97965739391447 289.6235566409466 420.97549446873205 265.5795041681859 424.50528899348365 238.00373257327237 442.659650703828 191.49761914361704 464.59071953322467 176.4776715950929 485.03901211583525 159.49421096964602 482.2888662477625 133.82174123384908" />
	<path id="line15" style="stroke:#9467bd" stroke-dasharray='6,2' d="M 90.27977318669522 429.8532668430812 L 90.27977318669522 429.8532668430812 92.293757713286 404.1125817131601 89.46935003455681 360.5406707349782 95.14953603371714 319.59994856710085 108.25584402950247 282.8500450037868 127.44158414779164 251.54243393423354 151.16836925991998 226.5778159002583 178.38965855684864 208.1641330659962 206.29791054222807 197.2137042527317 233.78696891647604 193.06228303355994 276.8885463451336 176.36464298097766 300.00000000000006 160.91332140640785 328.0017032687947 150.20411816245988 360.5236967063999 145.47312996206904 408.85486345810773 125.36183328793481 448.03537183212865 138.52598947683123 485.7804002392283 160.47596750810737 509.72022681330475 170.1467331569188" />
	<path id="line16" style="stroke:#8c564b" stroke-dasharray='6,2' d="M 69.99018341359226 389.10627765949783 L 69.99018341359226 389.10627765949783 91.74539042212103 403.01131173522543 116.0629492484056 392.27693065896665 163.585509450618 367.9263451805886 187.40909272838084 356.06361025670583 211.26168493555352 344.1864306023223 235.17493217694653 332.27904832961855 254.51535212493002 334.3484116582931 300.0 325.5365512729677 327.551712270473 313.71912258341 356.75393567668914 294.7409733816124 369.6525574213912 280.182138763501 395.34661193683775 272.8715499518147 420.97549446873205 265.5795041681859 446.5732077911015 258.29632678928033 472.5584158522083 251.54243393423354 523.3002854926982 235.82605470499703 530.0098165864079 210.89372234050225" />
	<path id="line17" style="stroke:#e377c2" stroke-dasharray='6,2' d="M 57.53330207797089 345.3248810614207 L 57.53330207797089 345.3248810614207 68.70989470459844 322.04994213798847 95.03602336494313 318.37495178165705 121.58917736283581 317.14995499621324 161.50664065699735 287.1667003429697 179.02450553126795 265.5795041681859 199.33048291008168 249.87253671165126 220.89185869758637 240.26030474192078 242.20612384492668 236.60313786776877 300.0 214.2136709653509 318.2152493990947 202.5570223198224 340.6250171773339 195.13474252077845 366.2130310835238 193.06228303355982 393.7020894577719 197.2137042527316 443.40103882722104 192.4793756820784 472.60082227519956 214.74216484606478 523.6369579612285 237.00933569413425 542.4666979220291 254.67511893857937" />

	<text text-anchor='middle' dominant-baseline='middle' x='552.8333333333333' y='300.0'>1</text>
	<text text-anchor='middle' dominant-baseline='middle' x='548.5283653700799' y='346.4580030879562'>2</text>
	<text text-anchor='middle' dominant-baseline='middle' x='535.760062001068' y='391.3339346009852'>3</text>
	<text text-anchor='middle' dominant-baseline='middle' x='514.9632324836375' y='433.0995985141581'>4</text>
	<text text-anchor='middle' dominant-baseline='middle' x='486.84608790395663' y='470.3327152353046'>5</text>
	<text text-anchor='middle' dominant-baseline='middle' x='452.36612389788866' y='501.7653556306872'>6</text>
	<text text-anchor='middle' dominant-baseline='middle' x='412.6975142855014' y='526.3271188309383'>7</text>
	<text text-anchor='middle' dominant-baseline='middle' x='369.19112598989165' y='543.1815834488611'>8</text>
	<text text-anchor='middle' dominant-baseline='middle' x='323.32851688430486' y='551.7547909065945'>9</text>
	<text text-anchor='middle' dominant-baseline='middle' x='276.6714831156952' y='551.7547909065946'>10</text>
	<text text-anchor='middle' dominant-baseline='middle' x='230.80887401010838' y='543.1815834488611'>11</text>
	<text text-anchor='middle' dominant-baseline='middle' x='187.3024857144987' y='526.3271188309383'>12</text>
	<text text-anchor='middle' dominant-baseline='middle' x='147.63387610211137' y='501.7653556306872'>13</text>
	<text text-anchor='middle' dominant-baseline='middle' x='113.15391209604331' y='470.3327152353045'>14</text>
	<text text-anchor='middle' dominant-baseline='middle' x='85.03676751636263' y='433.0995985141582'>15</text>
	<text text-anchor='middle' dominant-baseline='middle' x='64.2399379989321' y='391.33393460098523'>16</text>
	<text text-anchor='middle' dominant-baseline='middle' x='51.471634629920175' y='346.45800308795623'>17</text>

	</svg>