<?xml version="1.0" encoding="UTF-8" standalone="no"?>
<!-- Created with LineOrder (https://github.com/zegalur/line-order) -->

<svg
    width="600.0px"
    height="600.0px"
    viewBox="0 0 600.0 600.0"
    version="1.1"
    xmlns="http://www.w3.org/2000/svg">

    <style>
path { fill: none; stroke-width:1.5px }
    </style>

    <rect width="100%" height="100%" fill="white"/>
    
    
    <text x='20' y='30'>(18 pseudolines)</text>
    <text x='20' y='45'>by Johannes Bader</text>

    	<path id="line1" style="stroke:#1f77b4"  d="M 547.0588235294117 300.0 L 547.0588235294117 300.0 531.2253462225552 280.38797052232314 510.72221195282793 244.17407299372294 485.0805526924995 214.37433776551748 455.8795299778508 191.6030193464117 424.7437346596601 176.12631357633353 392.5921009587457 167.7647755757027 362.26703580895696 166.46791078807516 334.4843211561614 171.30276138068325 310.38283913524066 181.32360563304167 269.16695990743216 184.92952782272855 243.69153221103883 179.2461011432833 215.49133642654158 179.3091205651255 185.8521753634813 185.85217536348142 155.6409630591145 199.6697554147873 127.66569218682056 220.3180093654633 75.69307952624416 240.53406131612817 56.694555138160325 257.098685517582" />
	<path id="line2" style="stroke:#ff7f0e"  d="M 543.3054448618396 342.90131448241806 L 543.3054448618396 342.90131448241806 524.3069204737558 359.46593868387185 497.82679757181967 391.56933383442845 467.40002301481604 416.46371672196386 434.68843150299324 433.8183832669995 401.3381571241766 443.6532889832469 368.2230131472051 446.3047238321959 338.133455670041 442.3159940287683 311.6123858749403 432.7301779104139 289.61716086475934 418.67639436695833 249.65360527104656 407.96819191894673 223.5782898785472 409.1415129817765 195.8174616412727 404.18253835872736 167.7647755757027 392.5921009587457 140.4119370661407 373.7383190345908 116.44720508902788 348.54590365108743 68.77465377744474 319.61202947767686 52.94117647058823 300.00000000000006" />
	<path id="line3" style="stroke:#2ca02c"  d="M 532.1593533706362 384.4990942334005 L 532.1593533706362 384.4990942334005 523.9884607168642 360.65444667675706 497.13750343190003 352.18591532868226 469.6496266331527 346.0943999663778 442.3159940287683 338.1334556700409 415.0704721772715 330.8330400925679 393.4642808889212 341.56728486452624 367.41249097403494 331.43496079649725 342.37356575510773 319.7591182149411 312.9776940951921 327.8307547993955 280.6398334358986 327.6491832887167 261.7013187919273 326.81702528538307 239.62351768476498 316.1778296781992 198.27391597148664 289.2661842145635 184.92952782272852 269.16695990743216 157.6840059712317 261.8665443299591 130.03191360995572 255.09410802650743 76.01153928313573 239.34555332324297 67.84064662936379 215.50090576659952" />
	<path id="line4" style="stroke:#d62728"  d="M 513.9592174055672 423.52941176470586 L 513.9592174055672 423.52941176470586 490.4410090887466 432.59718885871507 466.6942750571775 417.47162926092767 444.35903694088546 400.3302445852127 420.69087943487455 384.50866357345836 397.58535278370607 368.3299996380048 391.9200692896749 344.8788573258411 390.52878801069255 307.9202426736772 371.8469674184383 280.7486631016043 351.20219127540133 264.1478396961086 316.1778296781992 239.62351768476498 293.517229129717 225.90158988584793 261.59473735419573 217.63964847208553 226.38915366864344 228.9728624012395 202.41464721629393 231.67000036199516 179.30912056512545 215.49133642654164 156.34671101675306 198.66184287582348 132.59997698518393 183.53628327803614 86.04078259443281 176.4705882352941" />
	<path id="line5" style="stroke:#9467bd"  d="M 489.2580388882181 458.80635062843913 L 489.2580388882181 458.80635062843913 489.73526113110813 433.6051013976788 497.3067936871034 392.6844857638944 496.8190436750085 353.37442332156746 489.0868838270888 317.16052579296723 475.1837155492694 285.2909778917424 455.9288282402157 258.21899639630294 433.5320892119248 237.732964191043 409.1415129817765 223.57828987854725 384.2374320847036 215.76256791529636 350.34639472895344 192.03180808105327 334.4843211561614 171.30276138068325 312.84120977705027 153.22430061758465 285.9305005921014 139.18488589404922 253.9056000336222 130.35037336684726 219.20285743599743 128.1856960715368 182.52837073907227 133.3057249428225 145.4221748103406 146.2922230463344 110.74196111178179 141.19364937156095" />
	<path id="line6" style="stroke:#8c564b"  d="M 458.8063506284392 489.2580388882181 L 458.8063506284392 489.2580388882181 433.6051013976788 489.7352611311081 400.33024458521277 444.35903694088546 384.50866357345836 420.69087943487455 368.32999963800484 397.58535278370607 344.8788573258411 391.9200692896749 305.44778596602134 362.2684785258732 287.89915966386553 345.16095094873265 280.6398334358986 327.6491832887167 269.4090122896318 297.32363536928193 266.9398893874018 266.9398893874018 247.40436947995744 247.40436947995747 228.97286240123947 226.38915366864347 231.6700003619951 202.414647216294 215.49133642654158 179.3091205651255 198.6618428758234 156.34671101675312 183.53628327803605 132.599976985184 166.3948986023211 110.26473886889192 141.1936493715608 110.74196111178193" />
	<path id="line7" style="stroke:#e377c2"  d="M 423.5294117647059 513.9592174055672 L 423.5294117647059 513.9592174055672 432.59718885871507 490.4410090887466 433.8183832669995 434.68843150299324 443.6532889832469 401.3381571241765 446.3047238321959 368.22301314720505 442.3159940287683 338.1334556700409 432.7301779104139 311.61238587494023 418.67639436695833 289.61716086475934 407.96819191894673 249.65360527104656 409.1415129817765 223.57828987854725 404.1825383587273 195.81746164127262 392.5921009587457 167.7647755757027 373.73831903459075 140.41193706614067 348.54590365108743 116.44720508902785 317.1605257929672 96.79546911408767 280.38797052232314 82.89230083626825 239.34555332324294 76.01153928313573 215.50090576659954 67.84064662936379" />
	<path id="line8" style="stroke:#7f7f7f"  d="M 384.49909423340057 532.1593533706362 L 384.49909423340057 532.1593533706362 360.6544466767571 523.9884607168642 317.16052579296723 489.0868838270888 285.2909778917424 475.1837155492694 258.218996396303 455.9288282402157 237.73296419104307 433.5320892119248 223.5782898785472 409.1415129817765 215.76256791529642 384.23743208470364 192.0318080810533 350.3463947289535 171.30276138068322 334.4843211561614 153.22430061758465 312.8412097770503 139.18488589404922 285.9305005921014 130.35037336684726 253.90560003362222 128.1856960715368 219.20285743599743 133.30572494282245 182.52837073907233 146.2922230463343 145.42217481034072 167.4028111412849 109.55899091125337 176.47058823529403 86.04078259443284" />
	<path id="line9" style="stroke:#bcbd22"  d="M 342.9013144824181 543.3054448618396 L 342.9013144824181 543.3054448618396 359.4659386838719 524.3069204737558 346.09439996637786 469.6496266331527 338.133455670041 442.3159940287683 330.83304009256784 415.0704721772715 341.56728486452624 393.4642808889212 344.1986526370358 344.1986526370358 342.37356575510773 319.7591182149411 333.6249784039715 302.9418044216515 317.61329361517613 274.8456098313226 295.925115452965 253.42385649967582 293.517229129717 225.90158988584793 289.2661842145635 198.27391597148664 269.16695990743216 184.92952782272855 261.8665443299591 157.68400597123173 255.0941080265074 130.03191360995572 246.62557667843257 103.18095632499148 240.53406131612815 75.69307952624416 257.09868551758194 56.694555138160354" />
	<path id="line10" style="stroke:#17becf"  d="M 300.0 547.0588235294117 L 300.0 547.0588235294117 282.83947420703277 503.20453088591233 284.0652260493876 475.0764761587673 287.15879022294973 446.7756993824154 289.61716086475934 418.67639436695833 275.29411764705884 399.26243171640755 247.8764746351117 374.4401088542373 239.07027989624802 342.66344931765485 239.62351768476498 316.1778296781992 243.35002275857735 273.5836817780182 247.40436947995744 247.40436947995747 261.59473735419573 217.63964847208553 292.9061958921583 197.95545621459513 310.38283913524066 181.32360563304167 312.84120977705027 153.22430061758465 314.70902210825756 124.81628445073062 318.38627763532196 96.90270850458973 319.6120294776768 68.77465377744474 299.99999999999994 52.94117647058823" />
	<path id="line11" style="stroke:#1f77b4" stroke-dasharray='6,2' d="M 257.09868551758194 543.3054448618396 L 257.09868551758194 543.3054448618396 244.17407299372297 510.72221195282793 214.37433776551748 485.0805526924995 191.6030193464117 455.8795299778508 176.12631357633356 424.7437346596601 167.7647755757027 392.5921009587457 166.4679107880752 362.2670358089571 171.30276138068322 334.4843211561614 181.32360563304167 310.38283913524066 184.92952782272852 269.16695990743216 179.24610114328328 243.69153221103886 179.30912056512545 215.49133642654164 185.8521753634813 185.85217536348142 199.66975541478723 155.64096305911457 220.3180093654633 127.66569218682059 247.81408467131777 102.86249656809997 281.6137223646779 82.78506144576622 320.8377813200316 68.88189316794677 342.901314482418 56.694555138160325" />
	<path id="line12" style="stroke:#ff7f0e" stroke-dasharray='6,2' d="M 215.50090576659954 532.1593533706362 L 215.50090576659954 532.1593533706362 202.48699456562568 510.5730424511397 213.2591858360516 484.5605488077833 226.26168096540925 459.5880629338593 237.73296419104307 433.5320892119248 249.65360527104656 407.96819191894673 271.7647058823529 398.31672868429774 280.7486631016043 371.8469674184383 287.89915966386553 345.16095094873265 312.9776940951921 327.8307547993955 333.6249784039715 302.9418044216515 345.16095094873265 287.89915966386553 351.20219127540133 264.1478396961086 357.16568645956374 215.17373481816674 350.34639472895344 192.03180808105327 362.26703580895696 166.46791078807516 374.8534709640566 140.93194095085687 397.51300543437435 89.4269575488602 384.49909423340057 67.84064662936385" />
	<path id="line13" style="stroke:#2ca02c" stroke-dasharray='6,2' d="M 176.4705882352942 513.9592174055672 L 176.4705882352942 513.9592174055672 201.3718426361598 510.05303856642354 242.98556500083777 510.40375219593636 281.613722364678 503.0972914954103 315.93477395061245 489.19412321759086 344.9058919734926 469.9680863900443 368.2230131472051 446.3047238321959 384.50866357345836 420.69087943487455 394.21291746315535 394.21291746315535 397.58535278370607 368.3299996380048 415.0704721772715 330.8330400925679 432.7301779104139 311.61238587494023 446.7756993824154 287.1587902229497 455.9288282402157 258.21899639630294 459.06805904914313 225.1465290359434 455.17378202021223 190.5951068074479 463.6524737969987 135.47747796700756 458.80635062843913 110.74196111178185" />
	<path id="line14" style="stroke:#d62728" stroke-dasharray='6,2' d="M 141.19364937156084 489.2580388882181 L 141.19364937156084 489.2580388882181 136.34752620300128 464.52252203299247 121.78523190585724 425.5383653293033 115.43945119221675 386.74081416394847 116.76566484591939 349.73441164397263 124.92352384123268 315.93477395061245 139.18488589404922 285.9305005921014 157.6840059712317 261.8665443299591 179.24610114328328 243.69153221103886 202.41464721629393 231.67000036199516 231.6700003619951 202.414647216294 243.69153221103883 179.2461011432833 261.8665443299591 157.68400597123173 285.9305005921014 139.18488589404922 315.9347739506124 124.92352384123265 349.73441164397263 116.76566484591936 398.62815736384016 89.94696143357649 423.52941176470574 86.0407825944327" />
	<path id="line15" style="stroke:#9467bd" stroke-dasharray='6,2' d="M 110.74196111178193 458.8063506284392 L 110.74196111178193 458.8063506284392 135.47747796700764 463.6524737969987 156.23691988966743 444.6331283463263 175.2562653403399 423.8736864236664 195.8174616412727 404.18253835872736 215.76256791529642 384.23743208470364 217.26953489651524 360.1587991639871 239.07027989624802 342.66344931765485 261.7013187919273 326.81702528538307 269.4090122896318 297.32363536928193 285.73518816012984 269.4090122896318 295.925115452965 253.42385649967582 316.1778296781992 239.62351768476498 360.1587991639871 217.26953489651524 384.2374320847036 215.76256791529636 404.1825383587273 195.81746164127262 423.8736864236664 175.2562653403398 464.52252203299236 136.34752620300125 489.25803888821804 141.1936493715608" />
	<path id="line16" style="stroke:#8c564b" stroke-dasharray='6,2' d="M 86.04078259443284 423.52941176470597 L 86.04078259443284 423.52941176470597 89.94696143357655 398.6281573638403 114.91944730750049 385.6256622344826 140.93194095085693 374.85347096405667 166.4679107880752 362.2670358089571 192.0318080810533 350.3463947289535 215.17373481816674 357.16568645956374 247.8764746351117 374.4401088542373 280.7486631016043 371.8469674184383 305.44778596602134 362.2684785258732 344.1986526370358 344.1986526370358 367.41249097403494 331.43496079649725 390.52878801069255 307.9202426736772 398.31672868429774 271.764705882353 407.96819191894673 249.65360527104656 433.5320892119248 237.732964191043 459.5880629338593 226.26168096540925 484.56054880778333 213.25918583605159 513.9592174055672 176.4705882352942" />
	<path id="line17" style="stroke:#e377c2" stroke-dasharray='6,2' d="M 67.84064662936385 384.49909423340057 L 67.84064662936385 384.49909423340057 89.42695754886029 397.5130054343744 121.0794839482187 424.5304527903395 155.36687165367374 443.76308011033257 190.5951068074479 455.17378202021223 225.1465290359434 459.0680590491431 258.218996396303 455.9288282402157 287.15879022294973 446.7756993824154 311.6123858749403 432.7301779104139 330.83304009256784 415.0704721772715 368.32999963800484 397.58535278370607 394.21291746315535 394.21291746315535 420.69087943487455 384.50866357345836 446.3047238321959 368.22301314720505 469.9680863900443 344.9058919734926 489.19412321759086 315.93477395061245 503.0972914954103 281.613722364678 510.40375219593636 242.98556500083774 532.1593533706362 215.50090576659952" />
	<path id="line18" style="stroke:#7f7f7f" stroke-dasharray='6,2' d="M 56.694555138160354 342.90131448241806 L 56.694555138160354 342.90131448241806 68.88189316794683 320.83778132003164 124.81628445073062 314.7090221082576 153.22430061758465 312.8412097770503 181.32360563304167 310.38283913524066 197.95545621459513 292.90619589215834 243.35002275857735 273.5836817780182 266.9398893874018 266.9398893874018 285.73518816012984 269.4090122896318 317.61329361517613 274.8456098313226 345.16095094873265 287.89915966386553 371.8469674184383 280.7486631016043 399.26243171640755 275.29411764705884 418.67639436695833 289.61716086475934 446.7756993824154 287.1587902229497 475.0764761587673 284.06522604938755 503.20453088591233 282.83947420703277 531.1181068320532 279.16221867996836 543.3054448618396 257.0986855175819" />

	<text text-anchor='middle' dominant-baseline='middle' x='553.2352941176471' y='300.0'>1</text>
	<text text-anchor='middle' dominant-baseline='middle' x='549.3880809833856' y='343.97384734447854'>2</text>
	<text text-anchor='middle' dominant-baseline='middle' x='537.9633372049021' y='386.6115715892355'>3</text>
	<text text-anchor='middle' dominant-baseline='middle' x='519.3081978407064' y='426.61764705882354'>4</text>
	<text text-anchor='middle' dominant-baseline='middle' x='493.98948986042353' y='462.7765093941501'>5</text>
	<text text-anchor='middle' dominant-baseline='middle' x='462.77650939415014' y='493.98948986042353'>6</text>
	<text text-anchor='middle' dominant-baseline='middle' x='426.61764705882354' y='519.3081978407064'>7</text>
	<text text-anchor='middle' dominant-baseline='middle' x='386.61157158923555' y='537.963337204902'>8</text>
	<text text-anchor='middle' dominant-baseline='middle' x='343.97384734447854' y='549.3880809833856'>9</text>
	<text text-anchor='middle' dominant-baseline='middle' x='300.0' y='553.2352941176471'>10</text>
	<text text-anchor='middle' dominant-baseline='middle' x='256.02615265552146' y='549.3880809833856'>11</text>
	<text text-anchor='middle' dominant-baseline='middle' x='213.38842841076453' y='537.9633372049021'>12</text>
	<text text-anchor='middle' dominant-baseline='middle' x='173.38235294117655' y='519.3081978407064'>13</text>
	<text text-anchor='middle' dominant-baseline='middle' x='137.2234906058499' y='493.98948986042353'>14</text>
	<text text-anchor='middle' dominant-baseline='middle' x='106.0105101395765' y='462.77650939415014'>15</text>
	<text text-anchor='middle' dominant-baseline='middle' x='80.6918021592937' y='426.6176470588236'>16</text>
	<text text-anchor='middle' dominant-baseline='middle' x='62.03666279509795' y='386.61157158923555'>17</text>
	<text text-anchor='middle' dominant-baseline='middle' x='50.611919016614394' y='343.9738473444785'>18</text>

	</svg>