<?xml version="1.0" encoding="UTF-8" standalone="no"?>
<!-- Created with LineOrder (https://github.com/zegalur/line-order) -->

<svg
    width="600.0px"
    height="600.0px"
    viewBox="0px 0px 600.0px 600.0px"
    version="1.1"
    id="svg1=-body"
    xml:space="preserve"
    xmlns="http://www.w3.org/2000/svg"
    xmlns:svg="http://www.w3.org/2000/svg">

    <style>
path { fill: none; stroke-width:1.5px }
    </style>

    <rect width="100%" height="100%" fill="white"/>
    
    
    <text x='20' y='30'>(25 pseudolines)</text>
    <text x='20' y='45'>Generated by LineOrder</text>

    	<path id="line1" style="stroke:#1f77b4"  d="M 544.2857142857142 300.0 L 544.2857142857142 300.0 534.8018440092467 314.5028455981552 489.1177186074123 335.802179526882 475.0034389220707 356.57911338859304 458.7918848765595 374.42438180748235 440.9890992600055 389.1556854668198 422.1118208001832 400.67043300117166 402.39578959691045 409.04044082536416 382.8894060898522 414.0874799406656 363.81164813933 416.07295706331655 345.60804533420816 415.1927732334521 328.68079118439437 411.7043065391553 313.38061924181 405.91850768519515 286.61938075818995 405.9185076851951 271.31920881560563 411.7043065391553 254.39195466579187 415.1927732334521 236.18835186067002 416.07295706331655 217.11059391014788 414.0874799406657 197.60421040308952 409.04044082536416 177.88817919981682 400.67043300117166 159.01090073999455 389.1556854668198 141.2081151234405 374.42438180748235 124.9965610779293 356.5791133885931 110.88228139258769 335.80217952688207 65.19815599075326 314.50284559815526 55.71428571428572 300.00000000000006" />
	<path id="line2" style="stroke:#ff7f0e"  d="M 542.3594484639652 330.6171184849943 L 542.3594484639652 330.6171184849943 534.7680498720231 315.0399880277165 483.5760374040173 311.2799910207874 466.46697439838385 310.7428485912261 449.2866363923829 309.39231905404336 432.1956299489792 308.31704407062665 415.0999605203921 307.2414757170487 397.9971952447868 306.1654609306167 380.88285253457275 305.08871775373865 363.7476704420633 304.0106634740577 346.5689150956631 302.92986779760713 324.7834608702748 284.27193747179336 303.67599429720053 270.90150887769363 300.0 261.9799341551135 294.1518272544537 253.70694594178534 286.25358529031985 246.46124952857053 276.4865188499194 240.61172579964244 248.0422166456646 259.3850339819492 220.3927183669715 284.8140988576131 203.5482790649104 281.60085021009354 186.71523461439813 278.3897752467597 169.88917410515776 275.1800325414752 153.06770304303888 271.9711653200515 136.1921033676527 268.4780177956334 68.86732719737819 256.183039314636 57.64055153603471 269.3828815150057" />
	<path id="line3" style="stroke:#2ca02c"  d="M 536.6110293614228 360.75138672170027 L 536.6110293614228 360.75138672170027 523.8184012739334 372.44005612758104 489.7533105782529 388.99372283810624 469.88036225004225 407.49063849072024 448.4772886024065 422.48184485639155 426.0994868056866 433.889204694526 403.2961700755818 441.7171568928509 380.59861045421275 446.0497393152629 358.5090533077947 447.04599124357344 337.19948143884875 444.88241454105196 328.68079118439437 411.7043065391553 324.4190969376927 395.1061033219182 300.80306277679597 388.405852565582 267.00914634555016 383.32538471988937 252.69614779236625 386.0453877360673 237.2478437425649 386.3709333433157 221.05287100794973 384.0701534807032 204.5388234747088 378.9723532688997 188.16285294179318 370.9740117054208 172.40139710817266 360.0433448534803 157.7392525745716 346.2233188393365 144.49424474875528 329.3903546000965 133.4992314643925 310.2057061616648 124.9953911674113 288.7200089792126 68.9681766553175 255.65436794206224 63.388970638577206 239.24861327829979" />
	<path id="line4" style="stroke:#d62728"  d="M 527.1311129812728 389.9275692986856 L 527.1311129812728 389.9275692986856 523.6520869514746 372.95191897980885 491.2750930393583 361.86609430158904 474.83712459961197 357.09097624082085 458.73178480478316 351.29213247559704 442.26074742542846 346.22331883933646 425.9740963919037 340.9314651328722 409.6830018276421 335.6381676357508 393.38514536878085 330.3426730658901 377.0762563450464 325.04359379840207 360.7475087045402 319.73806207518504 344.37723850169334 314.41903885362547 327.8942642010644 309.06339585085027 300.0 307.5728479409419 279.83282198629945 303.8470949560714 275.2165391297252 284.2719374717933 282.8229439650385 256.61570878220635 276.4865188499194 240.61172579964244 270.16616583401424 224.64833630593733 247.38665221163035 228.95019132910386 210.70835209026765 244.28492375980682 195.64852819058888 250.89592467456396 180.14931986441263 243.60255084919788 164.65433907545457 236.31116635184418 87.025620145477 200.07927138892586 72.86888701872712 210.07243070131437" />
	<path id="line5" style="stroke:#9467bd"  d="M 514.0692032678581 417.68554038770475 L 514.0692032678581 417.68554038770475 498.77162524007895 425.82559151462056 474.84275640462977 444.2932567116115 449.5233602428883 458.83309638660273 423.40904067091356 469.40014834904184 397.0832862235397 476.03525322328636 380.12697829672453 446.30902128796583 372.0615826487719 431.0795322265026 363.81164813933 416.07295706331655 355.55946277810176 401.0622876159309 347.3038522076337 386.0453877360673 339.0426531378795 371.0183224137397 301.82476839242173 365.9231138225243 257.4080387392974 358.6228054366396 244.5224050171538 359.0776382180766 230.9475843275104 357.1251262874807 217.09463663728582 352.61334345988803 203.4003518107166 345.4563440155465 190.3169981723579 335.6381676357508 178.30151198628982 323.21522818318925 167.8043700510208 308.31704407062665 159.258389933107 291.14528843389854 153.06770304303888 271.9711653200515 149.5703565763194 250.83949512867315 87.25477645623869 199.59228943999568 85.93079673214186 182.31445961229525" />
	<path id="line6" style="stroke:#8c564b"  d="M 497.6312943401657 443.58754020287563 L 497.6312943401657 443.58754020287563 498.4832408729265 426.28001256400955 484.3259937450606 416.6581150026704 469.59197788288975 407.9450595401092 455.4347307550239 398.32316197877003 440.70071489285294 389.6101065162088 426.29609249930354 380.14993750447877 411.8371470582068 370.97401170542076 397.37425674419796 361.79558241388645 382.9053633627142 352.61334345988803 368.42667550271864 343.4248887408167 353.93035758140195 334.225245644614 339.3971768045956 325.00220866895506 300.00000000000006 322.3918191349514 265.5984158870073 316.1881567006932 255.62276149830663 314.41903885362547 245.70375150157545 310.357563343269 236.25232955793672 304.01066347405776 227.68121420438197 295.45008765548073 220.3927183669715 284.8140988576131 214.76752605230323 272.3062904557353 211.56895719798268 242.92882710304679 211.13860851843253 226.4874637472218 197.9401246365549 215.5687283023746 118.56587664481432 150.25389032458364 102.36870565983415 156.4124597971245" />
	<path id="line7" style="stroke:#e377c2"  d="M 478.07662184151627 467.2250787340082 L 478.07662184151627 467.2250787340082 461.2352969614892 471.3050422326411 449.1310260814338 459.20152268737604 437.81142352428753 446.3611505405644 425.70715264423205 434.2576309952992 414.38755008708574 421.41725884848756 402.39578959691045 409.04044082536416 390.67305846658735 396.55700009836164 378.9471289920503 384.0701534807032 367.2163324719702 371.5781239859594 355.4775949828462 359.0776382180766 343.72456374944323 346.5619311585433 302.73181709892293 342.9285949546511 257.40962893487006 335.23381915073986 246.06964241859805 334.225245644614 234.43462792582574 330.85272218249764 222.92374365495368 325.04359379840207 211.96866740051348 316.792874808248 202.00280475521325 306.16546093061675 193.45032226112278 293.29646247907493 186.71523461439813 278.3897752467597 182.1707805299866 261.7149658024428 180.14931986441263 243.60255084919788 180.93297676833333 224.43776935604694 118.90894107461517 149.8391966661427 121.92337815848364 132.77492126599182" />
	<path id="line8" style="stroke:#7f7f7f"  d="M 455.7135746386085 488.2253778780856 L 455.7135746386085 488.2253778780856 460.8429628000347 471.6734685334144 474.4996919748289 444.70795037005246 484.0376093779081 417.11253605205934 489.52415426749127 389.48070478703636 491.1087787168995 362.37795715381685 489.016869149473 336.3308508994558 483.54224326679366 311.8171334503487 475.0384029698124 289.2571514087739 463.9087460902866 269.0066891682071 450.59595774613933 251.3513579809009 435.3456609245454 236.31116635184412 419.0670232316666 224.43776935604686 402.059875363445 215.56872830237447 384.81057623814417 209.68590939075648 359.68589502687325 191.43175998819095 348.76067519601975 176.8445926720696 335.0702181915072 163.41051827779606 318.74757091572275 151.59769527623754 299.73089777344575 141.7414759206598 278.82580215955096 134.53605919409597 256.12721497033544 130.20886347097715 232.0435658729765 129.09264858664002 207.0378827187921 131.46112525371947 161.5063063825877 109.83760805881491 144.28642536139154 111.77462212191426" />
	<path id="line9" style="stroke:#bcbd22"  d="M 430.8948313448692 506.25725037263516 L 430.8948313448692 506.25725037263516 413.56796199286657 506.02076713130975 383.70206882573825 510.6762850296708 354.5098916502504 511.21993153667665 337.19948143884875 444.88241454105196 345.60804533420816 415.1927732334521 355.55946277810176 401.0622876159309 362.7521562574351 386.3709333433157 367.2163324719702 371.5781239859594 369.0524156724896 357.1251262874807 368.42667550271864 343.4248887408167 365.56537207417426 330.85272218249764 360.7475087045402 319.73806207518504 354.2962484984246 310.357563343269 346.5689150956631 302.92986779760713 317.1770560349615 256.6157087822063 313.74641470968015 246.46124952857053 310.1573526633173 219.59627453046926 300.0 210.3812733656246 287.69341039632855 202.58331232967 273.4497818750177 196.5937276608962 257.5451034790211 192.77117158268777 240.31410497312677 191.43175998819095 191.6756122755853 151.36209524310132 161.94172293160062 109.52125941855965 169.10516865513088 93.74274962736479" />
	<path id="line10" style="stroke:#17becf"  d="M 404.0117983680392 521.0363228166991 L 404.0117983680392 521.0363228166991 413.0963298353783 506.28004910401273 405.3256241082031 491.0280101772981 396.6116540660514 476.29453519598917 402.8607535265688 442.03350553310617 413.9952159256312 421.78568514926087 421.76875637038233 401.08512665961257 426.29609249930354 380.14993750447877 427.59860289182734 360.0433448534803 425.9740963919037 340.9314651328722 421.6984880137102 323.2152281831892 415.0999605203921 307.2414757170487 406.5496777388772 293.2964624790749 396.4517209350896 281.6008502100935 385.23247394769675 272.3062904557352 351.31396492041387 228.00613441537237 336.14650052574507 208.70436108951245 326.5502181249822 196.5937276608962 314.4543726377577 185.58185898204226 300.0 176.1070268158008 283.3987354319974 168.58745944764874 264.92978180849275 163.4105182777961 238.34181975246236 145.00022203316433 232.543975718077 128.8945223130866 225.7453119934906 113.18507514011566 195.98820163196092 78.96367718330089" />
	<path id="line11" style="stroke:#1f77b4" stroke-dasharray='6,2' d="M 375.4884371973086 532.3295204092447 L 375.4884371973086 532.3295204092447 358.7647342984847 527.7914495397381 353.98859587972515 511.35377754139176 358.0086434626942 447.2441175171269 372.0615826487719 431.0795322265026 382.8894060898522 414.0874799406656 390.67305846658735 396.55700009836164 395.46117652529125 378.9723532688997 397.37425674419796 361.79558241388645 396.5996481892834 345.4563440155465 393.38514536878085 330.3426730658901 388.0313325994865 316.792874808248 380.88285253457275 305.08871775373865 372.31878579561806 295.4500876554807 349.6314810562058 256.5730175592299 329.8338341659857 224.64833630593733 336.14650052574507 208.70436108951245 342.4548965209789 192.77117158268777 348.76067519601975 176.8445926720696 361.15777040243705 144.8020957596109 343.3514892591392 130.07501746626198 322.78456729690754 117.49448446832383 299.73089777344575 107.52341666026189 274.5371421461503 100.58781955140523 247.61752967386678 97.06582746485412 224.51156280269137 67.67047959075535" />
	<path id="line12" style="stroke:#ff7f0e" stroke-dasharray='6,2' d="M 345.7745782773699 539.9587426780082 L 345.7745782773699 539.9587426780082 358.2434385279595 527.9252955444533 383.2016589806377 510.8744113032243 404.8539919507149 491.28729215000095 422.97362412190057 469.71649698929707 437.41908936283295 446.7295768413377 448.1342241726056 422.8965385148325 455.14634638787135 398.77758302815903 458.5627285657979 374.91136375641247 458.5654704823244 351.80399532782485 455.4049057933054 329.9190259726702 449.2866363923829 309.39231905404336 440.741610066893 291.14528843389843 430.11082589484226 275.1800325414751 417.8292194700134 261.7149658024428 404.35147180941107 250.8959246745639 388.8613914815674 226.4874637472217 384.81057623814417 209.68590939075648 407.8889711754017 151.0457466028461 392.4904851237196 131.2018432810166 373.7542781614088 112.98694886656222 351.8611745556079 96.93198146013893 327.0732273103082 83.54624482563307 299.73089777344575 73.30535739986396 270.24848213274964 66.6395799087145 254.22542172263013 60.04125732199171" />
	<path id="line13" style="stroke:#2ca02c" stroke-dasharray='6,2' d="M 315.33882691358946 543.8036722303349 L 315.33882691358946 543.8036722303349 300.2691022265542 535.2491574152355 286.61938075818995 405.9185076851951 275.5809030623073 395.1061033219182 267.00914634555016 383.32538471988937 260.9573468621205 371.0183224137398 257.4080387392974 358.6228054366396 256.27543625055677 346.5619311585433 257.40962893487006 335.23381915073986 260.6028231954044 325.00220866895506 265.5984158870073 316.1881567006932 272.1057357989356 309.06339585085027 279.83282198629945 303.8470949560714 292.7059840315983 271.59168342332316 294.1518272544537 253.70694594178534 289.84264733668266 219.59627453046932 287.69341039632855 202.58331232967 285.54562736224227 185.58185898204232 283.3987354319974 168.58745944764874 281.25242908427714 151.5976952762376 279.35976270979273 134.4686042896692 276.68147215285063 117.56193937275063 275.0711026963921 100.52036464697846 272.39281213945 83.61369973005989 270.7824426829914 66.57212500428773 284.6611730864106 56.19632776966509" />
	<path id="line14" style="stroke:#d62728" stroke-dasharray='6,2' d="M 284.6611730864106 543.8036722303349 L 284.6611730864106 543.8036722303349 299.7308977734458 535.2491574152355 313.38061924181 405.91850768519515 324.4190969376927 395.1061033219182 332.9908536544499 383.3253847198894 339.0426531378795 371.0183224137397 342.59196126070253 358.6228054366396 343.72456374944323 346.5619311585433 342.59037106512994 335.23381915073986 339.3971768045956 325.00220866895506 334.4015841129927 316.1881567006932 327.8942642010644 309.06339585085027 320.16717801370055 303.8470949560714 303.67599429720053 270.90150887769363 305.8481727455463 253.70694594178534 310.1573526633173 219.59627453046926 312.3065896036714 202.58331232967004 314.4543726377577 185.58185898204226 316.6012645680024 168.58745944764874 318.74757091572275 151.59769527623754 320.6402372902072 134.4686042896692 323.3185278471493 117.56193937275063 324.92889730360787 100.52036464697846 327.6071878605499 83.61369973005989 329.21755731700847 66.57212500428773 315.3388269135893 56.19632776966509" />
	<path id="line15" style="stroke:#9467bd" stroke-dasharray='6,2' d="M 254.22542172263013 539.9587426780083 L 254.22542172263013 539.9587426780083 241.7565614720406 527.9252955444533 216.79834101936228 510.8744113032243 195.14600804928506 491.2872921500009 177.02637587809937 469.71649698929707 162.58091063716708 446.7295768413377 151.8657758273944 422.8965385148325 144.85365361212865 398.77758302815903 141.43727143420213 374.91136375641247 141.43452951767563 351.8039953278249 144.59509420669463 329.9190259726703 150.71336360761708 309.39231905404336 159.258389933107 291.14528843389854 169.88917410515776 275.1800325414752 182.1707805299866 261.7149658024428 195.64852819058888 250.89592467456396 211.13860851843253 226.4874637472218 215.18942376185578 209.68590939075654 192.1110288245983 151.0457466028461 207.50951487628038 131.2018432810166 226.24572183859112 112.98694886656224 248.13882544439204 96.93198146013896 272.92677268969175 83.54624482563307 300.26910222655414 73.30535739986396 329.75151786725024 66.6395799087145 345.77457827736976 60.04125732199171" />
	<path id="line16" style="stroke:#8c564b" stroke-dasharray='6,2' d="M 224.51156280269146 532.3295204092447 L 224.51156280269146 532.3295204092447 241.23526570151535 527.7914495397381 246.01140412027493 511.3537775413918 241.99135653730585 447.2441175171269 227.93841735122808 431.07953222650247 217.11059391014788 414.0874799406657 209.32694153341265 396.5570000983617 204.5388234747088 378.9723532688997 202.62574325580204 361.79558241388645 203.4003518107166 345.4563440155465 206.6148546312192 330.3426730658901 211.96866740051348 316.792874808248 219.11714746542725 305.0887177537387 227.68121420438197 295.45008765548073 250.36851894379416 256.5730175592299 270.16616583401424 224.64833630593733 263.85349947425493 208.70436108951247 257.5451034790211 192.77117158268777 251.23932480398025 176.8445926720696 238.8422295975629 144.80209575961092 256.64851074086073 130.07501746626198 277.2154327030924 117.49448446832383 300.26910222655414 107.52341666026189 325.46285785384964 100.58781955140523 352.38247032613316 97.06582746485412 375.48843719730854 67.67047959075529" />
	<path id="line17" style="stroke:#e377c2" stroke-dasharray='6,2' d="M 195.9882016319608 521.0363228166991 L 195.9882016319608 521.0363228166991 186.90367016462164 506.2800491040126 194.67437589179684 491.02801017729803 203.38834593394853 476.29453519598917 197.13924647343114 442.03350553310617 186.00478407436879 421.78568514926087 178.23124362961772 401.08512665961257 173.70390750069646 380.14993750447877 172.40139710817266 360.0433448534803 174.02590360809629 340.9314651328723 178.30151198628982 323.21522818318925 184.90003947960793 307.24147571704873 193.45032226112278 293.29646247907493 203.5482790649104 281.60085021009354 214.76752605230323 272.3062904557353 248.68603507958608 228.0061344153724 263.85349947425493 208.70436108951247 273.4497818750177 196.5937276608962 285.54562736224227 185.58185898204232 300.0 176.1070268158008 316.6012645680024 168.58745944764874 335.0702181915072 163.41051827779606 361.6581802475376 145.00022203316433 367.4560242819229 128.89452231308655 374.25468800650935 113.18507514011566 404.01179836803897 78.96367718330083" />
	<path id="line18" style="stroke:#7f7f7f" stroke-dasharray='6,2' d="M 169.10516865513077 506.2572503726351 L 169.10516865513077 506.2572503726351 186.43203800713337 506.02076713130975 216.29793117426175 510.6762850296708 245.49010834974968 511.21993153667665 262.80051856115125 444.882414541052 254.39195466579187 415.1927732334521 244.44053722189818 401.06228761593087 237.2478437425649 386.3709333433157 232.7836675280298 371.57812398595945 230.9475843275104 357.1251262874807 231.57332449728136 343.4248887408167 234.43462792582574 330.85272218249764 239.25249129545978 319.7380620751851 245.70375150157545 310.357563343269 253.43108490433687 302.92986779760713 282.8229439650385 256.61570878220635 286.25358529031985 246.46124952857053 289.84264733668266 219.59627453046932 300.0 210.3812733656246 312.3065896036714 202.58331232967004 326.5502181249822 196.5937276608962 342.4548965209789 192.77117158268777 359.68589502687325 191.43175998819095 408.3243877244147 151.36209524310132 438.0582770683994 109.52125941855968 430.8948313448692 93.7427496273649" />
	<path id="line19" style="stroke:#bcbd22" stroke-dasharray='6,2' d="M 144.28642536139148 488.2253778780856 L 144.28642536139148 488.2253778780856 139.15703719996532 471.6734685334144 125.50030802517111 444.70795037005246 115.9623906220919 417.1125360520594 110.47584573250873 389.4807047870364 108.89122128310052 362.3779571538169 110.98313085052703 336.33085089945587 116.45775673320637 311.8171334503487 124.96159703018759 289.25715140877395 136.09125390971334 269.0066891682072 149.40404225386064 251.35135798090096 164.65433907545457 236.31116635184418 180.93297676833333 224.43776935604694 197.9401246365549 215.5687283023746 215.18942376185578 209.68590939075654 240.31410497312677 191.43175998819095 251.23932480398025 176.8445926720696 264.92978180849275 163.4105182777961 281.25242908427714 151.5976952762376 300.2691022265542 141.7414759206598 321.174197840449 134.53605919409597 343.8727850296645 130.20886347097712 367.95643412702344 129.09264858664 392.9621172812079 131.4611252537195 438.49369361741236 109.83760805881491 455.7135746386084 111.77462212191423" />
	<path id="line20" style="stroke:#17becf" stroke-dasharray='6,2' d="M 121.92337815848379 467.2250787340083 L 121.92337815848379 467.2250787340083 138.7647030385108 471.3050422326412 150.8689739185662 459.20152268737604 162.18857647571258 446.3611505405644 174.29284735576795 434.2576309952993 185.61244991291431 421.41725884848756 197.60421040308952 409.04044082536416 209.32694153341265 396.5570000983617 221.05287100794973 384.0701534807032 232.7836675280298 371.57812398595945 244.5224050171538 359.0776382180766 256.27543625055677 346.5619311585433 297.26818290107707 342.9285949546511 342.59037106512994 335.23381915073986 353.93035758140195 334.225245644614 365.56537207417426 330.85272218249764 377.0762563450464 325.04359379840207 388.0313325994865 316.792874808248 397.9971952447868 306.1654609306167 406.5496777388772 293.2964624790749 413.2847653856018 278.3897752467596 417.8292194700134 261.7149658024428 419.8506801355873 243.60255084919783 419.0670232316666 224.43776935604686 481.0910589253847 149.83919666614256 478.07662184151616 132.77492126599168" />
	<path id="line21" style="stroke:#1f77b4" stroke-dasharray='6,2,2,2' d="M 102.36870565983426 443.58754020287563 L 102.36870565983426 443.58754020287563 101.51675912707353 426.28001256400955 115.6740062549394 416.6581150026704 130.40802211711028 407.9450595401092 144.56526924497618 398.32316197877003 159.29928510714706 389.6101065162088 173.70390750069646 380.14993750447877 188.16285294179318 370.9740117054208 202.62574325580204 361.79558241388645 217.09463663728582 352.61334345988803 231.57332449728136 343.4248887408167 246.06964241859805 334.225245644614 260.6028231954044 325.00220866895506 300.00000000000006 322.3918191349514 334.4015841129927 316.1881567006932 344.37723850169334 314.41903885362547 354.2962484984246 310.357563343269 363.7476704420633 304.0106634740577 372.31878579561806 295.4500876554807 379.6072816330285 284.8140988576131 385.23247394769675 272.3062904557352 388.43104280201726 242.92882710304676 388.8613914815674 226.4874637472217 402.059875363445 215.56872830237447 481.43412335518553 150.25389032458347 497.6312943401657 156.41245979712437" />
	<path id="line22" style="stroke:#ff7f0e" stroke-dasharray='6,2,2,2' d="M 85.93079673214186 417.6855403877047 L 85.93079673214186 417.6855403877047 101.22837475992102 425.82559151462056 125.15724359537023 444.29325671161155 150.47663975711168 458.83309638660273 176.5909593290864 469.40014834904184 202.91671377646028 476.0352532232863 219.87302170327547 446.3090212879657 227.93841735122808 431.07953222650247 236.18835186067002 416.07295706331655 244.44053722189818 401.06228761593087 252.69614779236625 386.0453877360673 260.9573468621205 371.0183224137398 298.17523160757827 365.9231138225243 342.59196126070253 358.6228054366396 355.4775949828462 359.0776382180766 369.0524156724896 357.1251262874807 382.9053633627142 352.61334345988803 396.5996481892834 345.4563440155465 409.6830018276421 335.6381676357508 421.6984880137102 323.2152281831892 432.1956299489792 308.31704407062665 440.741610066893 291.14528843389843 446.9322969569611 271.97116532005145 450.4296434236806 250.8394951286731 512.7452235437613 199.59228943999562 514.069203267858 182.31445961229505" />
	<path id="line23" style="stroke:#2ca02c" stroke-dasharray='6,2,2,2' d="M 72.86888701872715 389.9275692986857 L 72.86888701872715 389.9275692986857 76.34791304852536 372.9519189798089 108.72490696064176 361.8660943015891 125.16287540038809 357.0909762408209 141.26821519521687 351.2921324755971 157.7392525745716 346.2233188393365 174.02590360809629 340.9314651328723 190.3169981723579 335.6381676357508 206.6148546312192 330.3426730658901 222.92374365495368 325.04359379840207 239.25249129545978 319.7380620751851 255.62276149830663 314.41903885362547 272.1057357989356 309.06339585085027 300.0 307.5728479409419 320.16717801370055 303.8470949560714 324.7834608702748 284.27193747179336 317.1770560349615 256.6157087822063 323.5134811500806 240.61172579964244 329.8338341659857 224.64833630593733 352.6133477883696 228.9501913291038 389.2916479097323 244.2849237598068 404.35147180941107 250.8959246745639 419.8506801355873 243.60255084919783 435.3456609245454 236.31116635184412 512.9743798545229 200.0792713889258 527.1311129812728 210.0724307013144" />
	<path id="line24" style="stroke:#d62728" stroke-dasharray='6,2,2,2' d="M 63.388970638577234 360.7513867217004 L 63.388970638577234 360.7513867217004 76.1815987260666 372.4400561275811 110.24668942174708 388.99372283810624 130.11963774995775 407.49063849072024 151.52271139759353 422.4818448563916 173.90051319431342 433.88920469452603 196.7038299244182 441.7171568928509 219.4013895457872 446.04973931526285 241.4909466922053 447.04599124357344 262.80051856115125 444.882414541052 271.31920881560563 411.7043065391553 275.5809030623073 395.1061033219182 299.19693722320403 388.405852565582 332.9908536544499 383.3253847198894 347.3038522076337 386.0453877360673 362.7521562574351 386.3709333433157 378.9471289920503 384.0701534807032 395.46117652529125 378.9723532688997 411.8371470582068 370.97401170542076 427.59860289182734 360.0433448534803 442.26074742542846 346.22331883933646 455.50575525124475 329.39035460009643 466.5007685356075 310.2057061616648 475.0046088325887 288.7200089792126 531.0318233446824 255.6543679420621 536.6110293614228 239.24861327829962" />
	<path id="line25" style="stroke:#9467bd" stroke-dasharray='6,2,2,2' d="M 57.64055153603471 330.6171184849944 L 57.64055153603471 330.6171184849944 65.23195012797694 315.03998802771656 116.42396259598269 311.2799910207874 133.53302560161617 310.7428485912261 150.71336360761708 309.39231905404336 167.8043700510208 308.31704407062665 184.90003947960793 307.24147571704873 202.00280475521325 306.16546093061675 219.11714746542725 305.0887177537387 236.25232955793672 304.01066347405776 253.43108490433687 302.92986779760713 275.2165391297252 284.2719374717933 292.7059840315983 271.59168342332316 300.0 261.9799341551135 305.8481727455463 253.70694594178534 313.74641470968015 246.46124952857053 323.5134811500806 240.61172579964244 351.9577833543354 259.38503398194916 379.6072816330285 284.8140988576131 396.4517209350896 281.6008502100935 413.2847653856018 278.3897752467596 430.11082589484226 275.1800325414751 446.9322969569611 271.97116532005145 463.8078966323473 268.4780177956333 531.1326728026218 256.1830393146359 542.3594484639652 269.3828815150056" />

	<text text-anchor='middle' dominant-baseline='middle' x='550.3928571428571' y='300.0'>1</text>
	<text text-anchor='middle' dominant-baseline='middle' x='548.4184346755644' y='331.3825464471192'>2</text>
	<text text-anchor='middle' dominant-baseline='middle' x='542.5263050954583' y='362.27017138974276'>3</text>
	<text text-anchor='middle' dominant-baseline='middle' x='532.8093908058047' y='392.1757585311527'>4</text>
	<text text-anchor='middle' dominant-baseline='middle' x='519.4209333495546' y='420.62767889739735'>5</text>
	<text text-anchor='middle' dominant-baseline='middle' x='502.5720766986699' y='447.1772287079475'>6</text>
	<text text-anchor='middle' dominant-baseline='middle' x='482.52853738755414' y='471.40570570235843'>7</text>
	<text text-anchor='middle' dominant-baseline='middle' x='459.6064140045737' y='492.9310123250378'>8</text>
	<text text-anchor='middle' dominant-baseline='middle' x='434.1672021284909' y='511.413681631951'>9</text>
	<text text-anchor='middle' dominant-baseline='middle' x='406.61209332724013' y='526.5622308871166'>10</text>
	<text text-anchor='middle' dominant-baseline='middle' x='377.37564812724133' y='538.1377584194757'>11</text>
	<text text-anchor='middle' dominant-baseline='middle' x='346.91894273430415' y='545.9577112449584'>12</text>
	<text text-anchor='middle' dominant-baseline='middle' x='315.7222975864292' y='549.8987640360933'>13</text>
	<text text-anchor='middle' dominant-baseline='middle' x='284.27770241357086' y='549.8987640360933'>14</text>
	<text text-anchor='middle' dominant-baseline='middle' x='253.0810572656959' y='545.9577112449584'>15</text>
	<text text-anchor='middle' dominant-baseline='middle' x='222.62435187275878' y='538.1377584194759'>16</text>
	<text text-anchor='middle' dominant-baseline='middle' x='193.3879066727598' y='526.5622308871166'>17</text>
	<text text-anchor='middle' dominant-baseline='middle' x='165.83279787150906' y='511.41368163195096'>18</text>
	<text text-anchor='middle' dominant-baseline='middle' x='140.3935859954263' y='492.9310123250378'>19</text>
	<text text-anchor='middle' dominant-baseline='middle' x='117.47146261244589' y='471.40570570235843'>20</text>
	<text text-anchor='middle' dominant-baseline='middle' x='97.42792330133014' y='447.1772287079475'>21</text>
	<text text-anchor='middle' dominant-baseline='middle' x='80.57906665044544' y='420.62767889739735'>22</text>
	<text text-anchor='middle' dominant-baseline='middle' x='67.19060919419536' y='392.1757585311528'>23</text>
	<text text-anchor='middle' dominant-baseline='middle' x='57.4736949045417' y='362.27017138974287'>24</text>
	<text text-anchor='middle' dominant-baseline='middle' x='51.58156532443559' y='331.38254644711924'>25</text>

	</svg>