<?xml version="1.0" encoding="UTF-8" standalone="no"?>
<!-- Created with LineOrder (https://github.com/zegalur/line-order) -->

<svg
    width="600.0px"
    height="600.0px"
    viewBox="0 0 600.0 600.0"
    version="1.1"
    xmlns="http://www.w3.org/2000/svg">

    <style>
path { fill: none; stroke-width:1.5px }
    </style>

    <rect width="100%" height="100%" fill="white"/>
    
    
    <text x='20' y='30'>(28 pseudolines)</text>
    <text x='20' y='45'>by Pavlo Savchuk (2025)</text>

    	<path id="line1" style="stroke:#1f77b4"  d="M 542.9268292682927 300.0 L 542.9268292682927 300.0 536.3370392070137 286.89196377327124 493.0502524049866 267.3659033910121 482.5665005030281 247.5742805762232 470.1491750483203 229.69953396524008 456.0929586785079 213.91797597627985 440.70684576123335 200.36439058722914 424.308593750623 189.13113914011723 407.2191644587584 180.26798078089718 389.75724479878403 173.78259744417892 372.2339340507445 169.64180230976817 341.10006097095606 156.7457298309172 325.7812247931321 147.28286229118547 308.84792445304186 139.52127902307058 290.49667373562164 133.7044270627199 270.9582502662867 130.0522201394378 250.49479334839134 128.75642749751967 229.3963007637891 129.97642825628253 207.97657118994738 133.83540776367573 186.56864842477154 140.41706640454714 165.5198323764114 149.76290415968145 145.18632962816125 161.8701359752871 125.92762319913484 176.69028381078482 108.10064677539964 194.12848121697175 92.05385308589774 214.04351560179887 78.12126916302648 236.24862212340275 66.61663289884132 260.51303157515656 58.60064364544641 272.80082482953793" />
	<path id="line2" style="stroke:#ff7f0e"  d="M 541.3993563545536 327.1991751704621 L 541.3993563545536 327.1991751704621 533.3833671011587 339.4869684248435 521.8787308369735 363.75137787659736 507.94614691410226 385.95648439820116 491.89935322460036 405.87151878302825 474.0723768008652 423.3097161892152 454.8136703718387 438.1298640247129 434.4801676235886 450.2370958403186 413.4313515752284 459.58293359545286 392.0234288100526 466.16459223632427 370.6036992362109 470.0235717437175 349.50520665160866 471.24357250248033 329.04174973371323 469.9477798605622 309.5033262643783 466.2955729372801 271.93723195426617 464.18590633253757 252.11274455593718 465.62753959763097 231.63287481570933 464.62400433432003 210.8036418698486 461.0493930154539 189.95066367854935 454.81642916121973 169.41426139995855 445.87922775157347 149.5441977169064 434.2354350011658 130.694127633368 419.9277009354375 113.21584599627002 403.04444810312714 97.45342049529518 383.71991034628104 83.73730206787582 362.1334266690515 72.37850642686584 338.5079867368641 63.66296079298627 313.10803622672876 57.07317073170728 300.00000000000006" />
	<path id="line3" style="stroke:#2ca02c"  d="M 536.8361464714869 354.0563049318266 L 536.8361464714869 354.0563049318266 533.3283886688326 339.81054830148645 521.8596200451095 337.52900504888476 475.70965338858673 330.02073142169263 464.2408847648637 327.73918816909094 406.5167971126707 318.09793174534855 394.9836120983447 316.13836479578134 360.36248457930515 310.2559986359745 348.80645811973767 308.29255076876655 343.0219890092502 302.416063078934 331.4284010619523 294.66009988374884 324.96014624377483 292.80910574424087 313.8256765154936 305.72678272170066 296.06754635162446 307.1152390993573 279.9934105766811 298.876454037709 251.19354188026233 291.70744923123345 239.63751542069483 289.7440013640255 228.09181837025318 287.7823085340174 216.55217649067842 285.8216445189193 205.01638790165532 283.8616352042187 193.4832028873293 281.9020682546515 181.95185942583777 279.94281419749564 170.42186643642486 277.9837895947748 158.86158777956072 275.8531587061837 147.28286229118547 274.2187752068679 89.71910544326568 264.10537845043115 78.14037995489042 262.47099495111536 66.67161133116736 260.1894516985136 63.16385352851307 245.94369506817353" />
	<path id="line4" style="stroke:#d62728"  d="M 529.2945846310083 380.23364529447474 L 529.2945846310083 380.23364529447474 521.7878686461244 364.0667675195208 521.8046416127835 337.8525849255277 483.8013386826842 310.48642898138297 477.9844867223335 290.1689728299534 423.8132823231329 278.96327721644303 415.06018634325477 266.8517313575982 405.22233926005237 256.4154800138634 394.5620612723059 247.73739607966513 383.3457346785905 240.86304756251448 371.8387951599193 235.8009276118285 360.3008364936335 232.5233328194306 348.98091057195387 230.9678668145549 330.26698891506373 228.2101415193375 312.2176914659827 228.09181837025318 287.9359530930717 228.99610547634606 269.8476683370762 227.2058319621977 253.39616818587186 215.67671587413724 240.86304756251448 216.65426532140953 228.00569048361456 219.43833046752297 215.0774423731723 224.10856261805526 192.80661139013532 223.9422347372644 183.31560631264517 217.00678570877142 164.0596586729998 203.7464058410069 149.02224054236248 216.745046656181 102.85298790469258 218.5166637056392 92.17945639050052 213.74028240034798 81.2547182671029 209.57036749795856 70.70541536899168 219.76635470552532" />
	<path id="line5" style="stroke:#9467bd"  d="M 518.8695103489779 405.4020010148995 L 518.8695103489779 405.4020010148995 507.8205436094995 386.25971759965205 497.14701209530745 381.4833362943608 453.82486951552517 363.8939770804503 443.15133800133316 359.1175957751591 389.01105062764236 336.86958437104767 378.20063144644547 332.3917621312577 348.45978209245595 326.78277486222146 340.3750963840923 328.6476586202352 328.7127255816853 332.1295547554626 318.26722593166903 333.0520565040854 312.1994948286555 329.4521858694405 280.5834176591645 317.35171883736797 262.2952737791297 302.1174520058562 250.57195554238848 302.77581943624847 238.86875453985877 303.4330571070004 227.17601449911902 304.0897073027393 215.48940674632513 304.7460131165742 203.80670135858767 305.40209977828823 192.12663270399648 306.0580383642449 180.448429055777 306.7138722136903 168.77159307889676 307.3696292563608 157.045448056592 308.19252264170547 87.0039817868583 311.79723260405586 81.18712982650763 287.54736558460775 78.19535838721652 262.1474150744724 78.21213135387563 235.93323248047926 81.38032157170568 209.26713429650763 81.13048965102206 194.5979989851005" />
	<path id="line6" style="stroke:#8c564b"  d="M 505.69202498326126 429.24486541689646 L 505.69202498326126 429.24486541689646 491.740588340676 406.15878220955835 497.02140879070464 381.7865694958117 465.62753959763097 347.8872554440628 464.18590633253757 328.0627680457339 413.7126663804026 306.3859663668678 407.8733672960035 293.9419616357551 400.75047426145846 282.8818059130462 392.5794515223649 273.32831948772986 383.6062050487343 265.3691759702683 374.0821956126051 259.05621773936264 364.2595412615131 254.40542398610717 354.3861937475389 251.39752578613138 344.70127227028047 249.9792532422301 335.43063599195756 250.06519164136736 285.1657188109503 253.62316383950667 259.2012197533154 254.34614383219414 251.39752578613138 245.6138062524611 243.59792448655833 236.8860483698985 235.80092761182857 228.1612048400807 228.00569048361456 219.43833046752297 220.21169805415565 210.71684891351492 212.41861840378374 201.99638875977672 181.09754847060003 167.19437651466188 162.61780198314167 177.44785206947574 135.4606320676011 183.45431431834032 126.11755310184779 176.42260266343825 106.86160546220242 163.16222279567367 94.30797501673874 170.75513458310365" />
	<path id="line7" style="stroke:#e377c2"  d="M 489.9278430580872 451.4624006466582 L 489.9278430580872 451.4624006466582 473.88244689815224 423.5773973365617 464.53936793239893 416.5456856816596 426.217402555821 389.7572447987841 407.1933886098647 376.05776526273553 369.0321331854451 348.98091057195387 359.4859753392293 342.2075503671465 344.1391278351994 349.39170684457764 329.6169309322978 353.5878013614989 321.188596281349 351.15379651008084 302.67153579888117 347.57110225284146 287.91929765032467 341.93304568954176 265.7471627702019 324.3036840927606 252.42889774715854 313.7049984639174 241.165369568245 316.94996503143216 218.66435103321646 323.4323967989391 210.78389375961933 315.158426136455 203.80670135858767 305.40209977828823 197.96639394107336 294.2699155923157 193.4832028873293 281.9020682546515 190.5593587772949 268.4706944170563 178.5697284819957 249.70193465459528 167.6477968174617 245.35555232868128 156.97426530326965 240.57917102339002 146.049527179872 236.4092561210006 102.97859120929539 218.2134305041883 108.25941165932397 193.84121779044165 107.05153536491537 162.8945416483272 110.0721569419128 148.53759935334173" />
	<path id="line8" style="stroke:#7f7f7f"  d="M 471.77520830775643 471.77520830775643 L 471.77520830775643 471.77520830775643 454.5949639290637 438.3745966471357 464.349438029686 416.8133668290062 440.5885961319725 377.8880754105468 443.02573469673035 359.42082897661 398.2003467933656 328.29103254337224 394.9836120983447 316.13836479578134 366.9785819824156 303.7614364824526 361.13124546014126 296.56694289299963 354.58617026549604 290.7254366401953 347.57110225284146 286.2950015360826 340.3167699901675 283.30024707899605 333.0520565040854 281.732774068331 323.7701895749733 278.7576598715609 325.16400292138167 271.8414677342624 292.9482000561508 271.5246527139544 259.6249036159078 271.3523413797648 250.06519164136736 264.56936400804244 240.51402466077073 257.79244963285345 230.9678668145549 251.01908942804613 221.42489659930868 244.24799096802712 211.88408018877163 237.47842071394615 192.80661139013532 223.9422347372644 197.69945313587755 208.3585516354302 181.3422810930229 166.97567007188678 173.30869042350568 158.47864033717167 165.76456499883423 149.54419771690638 142.15325823512836 123.61569562721081 128.22479169224354 128.22479169224357" />
	<path id="line9" style="stroke:#bcbd22"  d="M 451.46240064665824 489.9278430580872 L 451.46240064665824 489.9278430580872 434.23543500116574 450.45580228309365 426.6913095764943 441.5213596628284 386.3752295450063 421.45089812158795 369.4068633708433 425.24299846936145 357.9204724662676 404.7992035495389 352.26260392033487 394.5620612723059 336.8695843710477 389.01105062764236 305.6975150690867 387.0030789297402 276.5676032010608 381.33564896678354 269.84766833707624 372.7941680378023 251.01908942804616 369.0321331854451 232.97580229599936 359.2389818378512 215.67671587413722 346.60383181412817 205.58470701282215 339.10809485071843 196.17928359683924 329.9102331340899 187.7173363769568 319.0775918683162 180.448429055777 306.7138722136903 174.60986396315215 292.9582410037806 170.42186643642486 277.9837895947748 168.06865783146503 261.820451801212 167.77340012206446 245.05231912723036 169.64180230976817 227.7660659492555 164.24958857571275 203.4787246936604 154.52664980453355 196.9823753334514 135.65056197031404 183.1866331709938 145.40503607093635 161.6254033528642 142.39799085755124 123.39698918443577 148.53759935334176 110.07215694191277" />
	<path id="line10" style="stroke:#17becf"  d="M 429.24486541689646 505.69202498326126 L 429.24486541689646 505.69202498326126 413.1636704278819 459.7728634981658 426.4465769540714 441.74006610560343 395.535877388117 406.65841495286753 387.58138159621626 398.0036112402233 379.78830194584435 389.2831510864851 348.98091057195387 369.0321331854451 338.1131010179267 368.96046357025216 329.6169309322978 353.5878013614989 323.9469516415157 343.32874634149005 318.26722593166903 333.0520565040854 312.56475857733847 322.73421875942375 313.8256765154936 305.72678272170066 299.69855206895335 294.6322222753916 281.48719745349456 292.33174610770226 270.5478141305595 287.8005051713445 254.26248782628065 281.05490214844093 251.54021790754405 273.21722513777854 250.06519164136736 264.56936400804244 249.9792532422301 255.29872772971947 251.39752578613138 245.6138062524611 254.40542398610714 235.7404587384869 253.39616818587186 215.67671587413724 247.73739607966513 205.43793872769407 242.0795275337324 195.2007964504611 213.6307125497497 144.06580620541644 208.26383461647748 133.67664287975143 185.36000575073814 92.91381399671295 170.75513458310357 94.30797501673877" />
	<path id="line11" style="stroke:#1f77b4" stroke-dasharray='6,2' d="M 405.4020010148995 518.8695103489779 L 405.4020010148995 518.8695103489779 391.7361653835225 466.3233571202486 386.3692874502503 455.93419379458356 361.6574030285302 448.4253021061278 343.03340182142546 448.7794408830829 325.1258229817957 446.90028574846383 292.56178386623753 441.1933906527654 262.13584144413545 432.0222043593841 249.70193465459525 421.4302715180043 239.25085329700775 409.9173041880048 230.70993138601654 397.6552127989224 224.10856261805526 384.92255762682765 207.1142725636624 365.90593827874625 195.2007964504611 357.9204724662676 183.97208636550653 348.0603354412614 173.70166000649925 336.3859249341411 164.56848287525918 322.844279729194 157.02704476847467 307.86482173603724 151.21019280812394 291.47977645262637 147.33784072351156 273.89519533022496 145.60452621206773 255.34864697102884 146.1751304844748 236.10602291954967 149.18100542628676 216.4577832296509 154.71657970724652 196.71469418610485 162.83650842591672 177.20311944705287 173.55342304592858 158.25993389439657 186.83632957211807 140.2271365018342 185.64726917726819 92.75504911278861 194.59799898510047 81.13048965102212" />
	<path id="line12" style="stroke:#ff7f0e" stroke-dasharray='6,2' d="M 380.2336452944748 529.2945846310083 L 380.2336452944748 529.2945846310083 370.30046603476 470.1491750483202 386.08202402372024 456.0929586785079 375.06100473064566 435.47339691110216 369.1195999443133 425.4017633532858 372.6740021974571 402.42442086584646 379.78830194584435 389.2831510864851 358.75051793715625 352.5026727618951 359.4859753392293 342.2075503671465 349.9348083586326 335.43063599195756 340.3750963840923 328.6476586202352 334.4507566285439 314.2699706295577 331.4284010619523 294.66009988374884 336.2882126159496 289.5455460435502 340.3167699901675 283.30024707899605 343.32874634149005 276.0530483584844 345.1563577979979 267.9598554905264 345.6538561678059 259.2012197533154 344.70127227028047 249.9792532422301 342.2075503671465 240.51402466077073 329.3611026441593 227.83491113996126 314.17835548108064 216.55217649067845 305.07407853937883 209.64766066888214 282.59993234577655 200.51736601302258 270.08976686591006 196.17928359683924 253.73069576348294 139.9884933072184 250.8101829913148 128.66556530667057 234.31528127293336 72.59609844902627 219.7663547055252 70.70541536899171" />
	<path id="line13" style="stroke:#2ca02c" stroke-dasharray='6,2' d="M 354.0563049318266 536.8361464714869 L 354.0563049318266 536.8361464714869 349.18981700868517 471.3344346933294 346.26930423651703 460.0115066927816 342.71801217850197 448.87030307393206 339.7974994063338 437.5473750733843 329.91023313408994 403.82071640316076 306.32829435493363 398.23514473943885 304.0795638615409 387.0939411205893 305.0667357832398 375.7710131200415 281.42873396556126 364.4622907339229 270.75551915831943 352.9139036670115 259.23411755650886 336.4306198639804 248.84620348991913 321.188596281349 241.165369568245 316.94996503143216 233.86371254789174 311.23700720115465 227.17601449911902 304.0897073027393 221.33211442806066 295.5821063087692 216.55217649067842 285.8216445189193 213.0420711507199 274.94785227025864 210.9889493723576 263.13041562895233 210.55708790935273 250.5666498257284 211.88408018877163 237.47842071394615 215.0774423731723 224.10856261805526 220.21169805415565 210.71684891351492 227.32599780254287 197.57557913415354 213.9179759762798 143.90704132149216 229.69953396524 129.85082495167975 234.6306709158568 72.50523625817718 245.94369506817333 63.16385352851307" />
	<path id="line14" style="stroke:#d62728" stroke-dasharray='6,2' d="M 327.19917517046207 541.3993563545536 L 327.19917517046207 541.3993563545536 328.7181698570703 470.0027582928883 345.9539145935936 460.10236888363073 361.35416982707926 448.5509054107306 374.77374130411556 435.63216179502643 386.1075483976598 421.6408280243009 395.29114476569407 406.8771213956426 402.30054686412245 391.6414483645698 407.1933886098647 376.05776526273553 379.2030847102506 343.773997624276 378.20063144644547 332.3917621312577 353.20452225646744 315.3279588083286 348.80645811973767 308.29255076876655 349.4280444576115 297.22418056375153 354.58617026549604 290.7254366401953 358.834630431755 283.0500349685678 361.9776433078661 274.32801957795976 363.837686276462 264.71815791483357 364.2595412615131 254.40542398610717 363.1139516301015 243.5979244865583 360.3008364936335 232.5233328194306 355.7520090319729 221.42489659930862 338.19489398626644 206.5082522746722 318.0979317453485 193.4832028873293 306.3859663668678 186.2873336195974 291.1520755469581 145.37493755965593 290.82437464128986 133.68602377460257 286.564262867603 63.68136408110354 272.8008248295379 58.60064364544641" />
	<path id="line15" style="stroke:#9467bd" stroke-dasharray='6,2' d="M 300.0 542.9268292682927 L 300.0 542.9268292682927 309.1756253587101 466.3139762253974 291.5910442363087 458.47901123683914 291.58280217825813 441.13841222043925 293.2089436195234 429.66964359671624 268.4706944170563 409.4406412227051 258.6536040131514 399.8190299466983 269.84766833707624 372.7941680378023 265.16184755005617 363.03489033204715 270.75551915831943 352.9139036670115 276.3541951697214 342.7838622163216 265.7471627702019 324.3036840927606 256.97801099074974 307.30972993691273 250.57195554238848 302.77581943624847 244.71863448819767 296.89546510419586 239.63751542069483 289.7440013640255 235.53770926607712 281.42873396556126 232.61339873072012 272.0875558320363 231.0395364297479 261.8868989820733 230.9678668145549 251.01908942804613 232.52333281943066 239.69916350636646 235.80092761182857 228.1612048400807 240.86304756251448 216.65426532140953 247.73739607966513 205.43793872769407 256.4154800138633 194.77766073994763 254.04608540640643 139.89763111636927 271.28183014292966 129.99724170711173 286.89196377327124 63.66296079298627 299.99999999999994 57.07317073170728" />
	<path id="line16" style="stroke:#8c564b" stroke-dasharray='6,2' d="M 272.800824829538 541.3993563545536 L 272.800824829538 541.3993563545536 272.2608118309091 464.2408847648637 290.6120625483293 458.424032804513 324.80224310515274 446.95526418079 339.4821097634104 437.6382372642334 343.5845199861367 405.22233926005237 352.26260392033487 394.5620612723059 343.7739976242759 379.2030847102506 338.1131010179267 368.96046357025216 344.1391278351994 349.39170684457764 349.9348083586326 335.43063599195756 348.45978209245595 326.78277486222146 353.20452225646744 315.3279588083286 360.36248457930515 310.2559986359745 366.9785819824156 303.7614364824526 372.823985500881 295.9102926972606 377.6785912667018 286.80187650279646 381.33564896678354 276.5676032010608 383.6062050487343 265.3691759702683 384.32328412586276 253.3961681858719 383.3457346785905 240.86304756251448 380.561669532477 228.00569048361456 375.8914373819447 215.0774423731723 369.29006861398346 202.34478720107765 347.0286853283735 185.18159340938314 323.8232614171733 158.80660934723463 326.104804669775 147.33784072351156 339.4869684248434 66.61663289884126 327.19917517046207 58.60064364544641" />
	<path id="line17" style="stroke:#e377c2" stroke-dasharray='6,2' d="M 245.94369506817338 536.8361464714869 L 245.94369506817338 536.8361464714869 252.42813419886065 465.71840178848015 236.40925612100057 453.95047282012797 249.70193465459525 421.4302715180043 254.17750722895255 410.62528350960577 258.6536040131514 399.8190299466983 276.5676032010608 381.33564896678354 303.448784575694 375.86187531089064 304.12056685446936 358.9229144054935 302.67153579888117 347.57110225284146 302.03790230812086 336.2882126159496 280.5834176591645 317.35171883736797 274.065532229031 301.45644846963654 279.9934105766811 298.876454037709 275.03985375622517 292.8091057442409 270.5478141305595 287.8005051713445 266.9479434959146 281.732774068331 297.251265425186 270.79353250140997 295.972558197632 263.0674744670541 287.88658041624643 252.83929711464245 295.56404350260715 235.46105268965715 287.9359530930717 228.99610547634606 285.49994362148044 217.58560988890093 283.56660277101116 200.35312210173 293.9419616357551 192.12663270399645 291.4797764526263 145.3565342715386 309.1756253587101 139.53968231118793 339.8105483014863 66.67161133116736 354.0563049318264 63.163853528513016" />
	<path id="line18" style="stroke:#7f7f7f" stroke-dasharray='6,2' d="M 219.76635470552523 529.2945846310083 L 219.76635470552523 529.2945846310083 231.93610801716022 464.74960763892284 236.10602291954967 453.82486951552517 261.82045180121196 431.9313421685349 292.22996193154404 429.6146651643901 294.5032631260952 406.62214948461786 304.71034314738785 398.32600693028803 336.8695843710477 389.01105062764236 343.7739976242759 379.2030847102506 348.98091057195387 369.0321331854451 358.75051793715625 352.5026727618951 369.0321331854451 348.98091057195387 379.2030847102506 343.773997624276 389.01105062764236 336.86958437104767 398.2003467933656 328.29103254337224 406.5167971126707 318.09793174534855 413.7126663804026 306.3859663668678 419.551570944223 293.2861277863097 423.8132823231329 278.96327721644303 426.29833999350075 263.61407506585886 426.8270324685381 247.28889317915053 425.24299846936145 230.59313662915667 421.4508981215879 213.62477045499367 415.37415113035775 196.67526456478868 406.97443183633555 180.04927433812207 423.3097161892151 125.92762319913481 405.87151878302825 108.10064677539964 390.42963250204144 81.2547182671029 380.2336452944747 70.70541536899168" />
	<path id="line19" style="stroke:#bcbd22" stroke-dasharray='6,2' d="M 194.5979989851005 518.8695103489779 L 194.5979989851005 518.8695103489779 211.09090529637865 461.2081578993782 196.9823753334514 445.4733501954665 230.70993138601654 397.6552127989224 237.47842071394615 388.1159198112284 233.62917126391025 359.9701020503957 225.9178043873949 340.9437822606374 248.84620348991913 321.188596281349 252.42889774715854 313.7049984639174 256.97801099074974 307.30972993691273 262.2952737791297 302.1174520058562 274.065532229031 301.45644846963654 296.06754635162446 307.1152390993573 299.69855206895335 294.6322222753916 320.9180572239215 285.1578468903531 323.7701895749733 278.7576598715609 336.9137061634879 267.01189532995346 345.6538561678059 259.2012197533154 354.3861937475389 251.39752578613138 363.1139516301015 243.5979244865583 371.8387951599193 235.8009276118285 380.561669532477 228.00569048361456 398.00361124022317 212.4186184037837 391.3967157421469 197.4807466931025 382.725533143882 183.12567640993223 371.9466706242144 169.4830374258439 381.48333629436075 102.85298790469258 390.73286570349234 81.38032157170568 405.40200101489944 81.13048965102206" />
	<path id="line20" style="stroke:#17becf" stroke-dasharray='6,2' d="M 170.75513458310365 505.69202498326126 L 170.75513458310365 505.69202498326126 190.21834482589585 455.0063590639327 196.71469418610488 445.2834202927536 239.25085329700775 409.9173041880048 254.17750722895255 410.62528350960577 268.4706944170563 409.4406412227051 293.5242814381158 406.56717105229177 329.91023313408994 403.82071640316076 343.5845199861367 405.22233926005237 357.9204724662676 404.7992035495389 372.6740021974571 402.42442086584646 387.58138159621626 398.0036112402233 402.5192533068975 391.39671574214697 426.407332458534 389.48956365143755 440.7473610158968 377.60081198401673 453.95047282012797 363.59074387899943 465.71840178848015 347.5718658011393 475.7646318209129 329.6971515450497 483.81974197080154 310.15872807571475 489.6365939311522 289.1858701129488 492.9952739726605 267.0423235143692 493.70770412187767 244.02298851820814 491.6218413813072 220.45000455610852 486.62538911980573 196.66828847034282 478.6489513323853 173.04058740966045 467.6685681952989 149.9421162822227 453.70758011890155 127.75485727318082 436.83777720432624 106.86160546220239 429.24486541689635 94.30797501673874" />
	<path id="line21" style="stroke:#1f77b4" stroke-dasharray='6,2,2,2' d="M 148.53759935334182 489.9278430580873 L 148.53759935334182 489.9278430580873 169.65899402238145 446.09793419434857 158.47864033717167 426.6913095764943 207.1142725636624 365.90593827874625 205.43793872769407 352.26260392033487 205.58470701282215 339.10809485071843 207.4205484776351 326.67168051227014 210.78389375961933 315.158426136455 215.48940674632513 304.7460131165742 221.33211442806066 295.5821063087692 228.09181837025318 287.7823085340174 235.53770926607712 281.42873396556126 243.43310333012224 276.5692242179792 251.54021790754405 273.21722513777854 259.6249036159078 271.3523413797648 299.86698722117916 262.8487680242791 335.43063599195756 250.06519164136736 342.2075503671465 240.51402466077073 348.98091057195387 230.9678668145549 355.7520090319729 221.42489659930862 362.5215792860538 211.8840801887716 369.29006861398346 202.34478720107765 376.0577652627355 192.8066113901353 382.9932142912285 183.31560631264514 389.4895636514375 173.59266754146603 423.5773973365617 126.11755310184776 430.07374669677074 116.39461433066859 437.1054583516727 107.05153536491531 451.4624006466581 110.07215694191271" />
	<path id="line22" style="stroke:#ff7f0e" stroke-dasharray='6,2,2,2' d="M 128.22479169224357 471.77520830775643 L 128.22479169224357 471.77520830775643 149.76290415968148 434.4801676235886 158.2599338943966 426.4465769540715 224.10856261805526 384.92255762682765 237.47842071394615 388.1159198112284 251.01908942804616 369.0321331854451 265.16184755005617 363.03489033204715 281.42873396556126 364.4622907339229 302.5026156469236 359.01377659634267 321.188596281349 351.15379651008084 323.9469516415157 343.32874634149005 328.7127255816853 332.1295547554626 334.4507566285439 314.2699706295577 343.0219890092502 302.416063078934 349.4280444576115 297.22418056375153 361.13124546014126 296.56694289299963 372.823985500881 295.9102926972606 396.19329864141235 294.59790022171177 400.75047426145846 282.8818059130462 403.82071640316076 270.08976686591006 405.22233926005237 256.4154800138634 415.03514692268436 236.42232159866737 425.4017633532858 230.88040005568675 445.70379535284286 219.28485390955206 440.5169158585204 200.0967094398826 458.95283201780876 157.730974329317 467.887274638074 150.18684890464556 476.3843043727892 142.15325823512836 471.77520830775643 128.22479169224354" />
	<path id="line23" style="stroke:#2ca02c" stroke-dasharray='6,2,2,2' d="M 110.0721569419128 451.4624006466583 L 110.0721569419128 451.4624006466583 130.88405753608095 420.195382082784 123.60500932193503 397.6775701698549 183.97208636550653 348.0603354412614 184.93981365674523 333.1482686424017 187.7173363769568 319.0775918683162 192.12663270399648 306.0580383642449 197.96639394107336 294.2699155923157 205.01638790165532 283.8616352042187 213.0420711507199 274.94785227025864 221.79936855355453 267.6082378687424 231.0395364297479 261.8868989820733 240.51402466077073 257.79244963285345 249.9792532422301 255.29872772971947 259.2012197533154 254.34614383219414 297.18199471015294 235.37019049880797 312.2176914659827 228.09181837025318 314.17835548108064 216.55217649067845 316.13836479578123 205.01638790165532 318.0979317453485 193.4832028873293 320.0571858025043 181.95185942583777 324.14684129381624 158.8615877795607 341.41545061387956 156.8365920217664 381.7865694958117 102.97859120929536 406.1587822095583 108.25941165932397 430.3414278441172 116.58454423338156 453.95231274132436 127.97356371595586 476.60301081556423 142.39799085755124 489.9278430580872 148.53759935334176" />
	<path id="line24" style="stroke:#d62728" stroke-dasharray='6,2,2,2' d="M 94.30797501673877 429.24486541689646 L 94.30797501673877 429.24486541689646 113.37461088019433 403.33171152965724 123.44624443801075 397.39030674332486 195.2007964504611 357.9204724662676 205.43793872769407 352.26260392033487 215.67671587413722 346.60383181412817 225.9178043873949 340.9437822606374 259.23411755650886 336.4306198639804 276.3541951697214 342.7838622163216 287.91929765032467 341.93304568954176 302.03790230812086 336.2882126159496 312.1994948286555 329.4521858694405 312.56475857733847 322.73421875942375 324.96014624377483 292.80910574424087 336.2882126159496 289.5455460435502 347.57110225284146 286.2950015360826 358.834630431755 283.0500349685678 370.0880906525198 279.8079689298284 381.33564896678354 276.5676032010608 392.5794515223649 273.32831948772986 403.82071640316076 270.08976686591006 415.06018634325477 266.8517313575982 426.29833999350075 263.61407506585886 471.2435725024803 250.49479334839134 470.0235717437175 229.39630076378918 476.39499067806497 202.32242983014513 486.78415400373 196.95555189687292 507.08618600328714 185.3600057507382 505.69202498326115 170.75513458310354" />
	<path id="line25" style="stroke:#9467bd" stroke-dasharray='6,2,2,2' d="M 81.13048965102212 405.4020010148995 L 81.13048965102212 405.4020010148995 97.57902379989795 384.02314354773193 95.06023006842364 359.2129138968834 164.6234613075853 323.16785960583695 168.77159307889676 307.3696292563608 174.60986396315215 292.9582410037806 181.95185942583777 279.94281419749564 190.5593587772949 268.4706944170563 200.18097005330168 258.6536040131515 210.55708790935273 250.5666498257284 221.42489659930868 244.24799096802712 232.52333281943066 239.69916350636646 243.59792448655833 236.8860483698985 254.40542398610714 235.7404587384869 269.8476683370762 227.2058319621977 286.4666140467151 217.42136597760836 305.07407853937883 209.64766066888214 316.13836479578123 205.01638790165532 339.10078025717087 206.8834826540484 362.5215792860538 211.8840801887716 375.8914373819447 215.0774423731723 398.00361124022317 212.4186184037837 406.65841495286753 204.464122611883 415.5928575731328 196.91999718721158 424.0898873078479 188.88640651769435 459.1715384605838 157.9757069517399 478.83888123509826 173.30826855700695 507.2449508872114 185.6472691772683 518.869510348978 194.59799898510067" />
	<path id="line26" style="stroke:#8c564b" stroke-dasharray='6,2,2,2' d="M 70.70541536899168 380.23364529447474 L 70.70541536899168 380.23364529447474 83.82816425872497 362.448816311975 94.96936787757448 358.89752425395994 173.70166000649925 336.3859249341411 184.93981365674523 333.1482686424017 196.17928359683924 329.9102331340899 207.4205484776351 326.67168051227014 218.66435103321646 323.4323967989391 233.86371254789174 311.23700720115465 238.86875453985877 303.4330571070004 244.71863448819767 296.89546510419586 251.19354188026233 291.70744923123345 275.03985375622517 292.8091057442409 281.48719745349456 292.33174610770226 320.9180572239215 285.1578468903531 333.0520565040854 281.732774068331 343.32874634149005 276.0530483584844 353.5878013614989 270.3830690677022 363.837686276462 264.71815791483357 374.0821956126051 259.05621773936264 384.32328412586276 253.3961681858719 394.5620612723059 247.73739607966513 415.03514692268436 236.42232159866737 426.95263577314086 247.59212638060143 471.3344346933294 250.8101829913148 482.475638312179 247.25889093329974 493.7985663127268 244.3383781611316 527.4039015509736 234.3152812729333 529.2945846310083 219.7663547055252" />
	<path id="line27" style="stroke:#e377c2" stroke-dasharray='6,2,2,2' d="M 63.16385352851307 354.05630493182656 L 63.16385352851307 354.05630493182656 72.43348485919199 338.83156661350705 75.35187457803963 312.78033532106053 81.1687265383903 287.87506649027597 89.66412701093964 264.4289583270741 145.51366402121857 255.6640366139523 156.84866199866684 240.88240422484094 169.4830374258439 228.0533293757856 183.12567640993223 217.27446685611795 197.4807466931025 208.60328425785303 212.41861840378374 201.99638875977672 227.32599780254287 197.57557913415354 242.0795275337324 195.2007964504611 256.4154800138633 194.77766073994763 270.08976686591006 196.17928359683924 293.9419616357551 192.12663270399645 306.3859663668678 186.2873336195974 320.0571858025043 181.95185942583777 347.934571599278 185.55682378875935 376.0577652627355 192.8066113901353 391.6414483645698 197.69945313587755 406.8771213956426 204.70885523430587 421.64082802430084 213.8924516023402 445.8625602367672 219.57211733608216 455.93419379458356 213.63071254974975 476.5537555619893 202.60969325667523 491.74744468590995 220.75323775755942 527.4947637418228 234.6306709158568 536.8361464714869 245.94369506817333" />
	<path id="line28" style="stroke:#7f7f7f" stroke-dasharray='6,2,2,2' d="M 58.60064364544641 327.1991751704621 L 58.60064364544641 327.1991751704621 63.68136408110354 313.435737132397 75.33347128992227 312.4526344153923 87.02238507497566 312.1249335097241 151.19178952000664 291.8074773582946 158.80660934723463 276.17673858282666 167.97779564061594 262.1358414441355 178.5697284819957 249.70193465459528 200.18097005330168 258.6536040131515 210.9889493723576 263.13041562895233 221.79936855355453 267.6082378687424 232.61339873072012 272.0875558320363 243.43310333012224 276.5692242179792 254.26248782628065 281.05490214844093 266.9479434959146 281.732774068331 325.16400292138167 271.8414677342624 336.9137061634879 267.01189532995346 345.1563577979979 267.9598554905264 353.5878013614989 270.3830690677022 361.9776433078661 274.32801957795976 370.0880906525198 279.8079689298284 377.6785912667018 286.80187650279646 396.19329864141235 294.59790022171177 407.8733672960035 293.9419616357551 419.551570944223 293.2861277863097 477.9660834342162 289.8412719242852 489.6549972192696 289.513571018617 536.3186359188965 286.564262867603 541.3993563545536 272.8008248295378" />

	<text text-anchor='middle' dominant-baseline='middle' x='549.0' y='300.0'>1</text>
	<text text-anchor='middle' dominant-baseline='middle' x='547.4343402634174' y='327.87915454972364'>2</text>
	<text text-anchor='middle' dominant-baseline='middle' x='542.7570501332741' y='355.40771255512226'>3</text>
	<text text-anchor='middle' dominant-baseline='middle' x='535.0269492467835' y='382.2394864268366'>4</text>
	<text text-anchor='middle' dominant-baseline='middle' x='524.3412481077023' y='408.037051040272'>5</text>
	<text text-anchor='middle' dominant-baseline='middle' x='510.83432560784274' y='432.4759870523188'>6</text>
	<text text-anchor='middle' dominant-baseline='middle' x='494.6760391345394' y='455.24896066282463'>7</text>
	<text text-anchor='middle' dominant-baseline='middle' x='476.0695885154504' y='476.0695885154504'>8</text>
	<text text-anchor='middle' dominant-baseline='middle' x='455.24896066282463' y='494.6760391345394'>9</text>
	<text text-anchor='middle' dominant-baseline='middle' x='432.4759870523188' y='510.83432560784274'>10</text>
	<text text-anchor='middle' dominant-baseline='middle' x='408.037051040272' y='524.3412481077023'>11</text>
	<text text-anchor='middle' dominant-baseline='middle' x='382.23948642683666' y='535.0269492467835'>12</text>
	<text text-anchor='middle' dominant-baseline='middle' x='355.4077125551223' y='542.7570501332741'>13</text>
	<text text-anchor='middle' dominant-baseline='middle' x='327.87915454972364' y='547.4343402634174'>14</text>
	<text text-anchor='middle' dominant-baseline='middle' x='300.0' y='549.0'>15</text>
	<text text-anchor='middle' dominant-baseline='middle' x='272.1208454502764' y='547.4343402634174'>16</text>
	<text text-anchor='middle' dominant-baseline='middle' x='244.59228744487774' y='542.7570501332741'>17</text>
	<text text-anchor='middle' dominant-baseline='middle' x='217.7605135731634' y='535.0269492467835'>18</text>
	<text text-anchor='middle' dominant-baseline='middle' x='191.96294895972804' y='524.3412481077023'>19</text>
	<text text-anchor='middle' dominant-baseline='middle' x='167.52401294768126' y='510.83432560784274'>20</text>
	<text text-anchor='middle' dominant-baseline='middle' x='144.75103933717537' y='494.67603913453945'>21</text>
	<text text-anchor='middle' dominant-baseline='middle' x='123.9304114845497' y='476.0695885154504'>22</text>
	<text text-anchor='middle' dominant-baseline='middle' x='105.32396086546066' y='455.24896066282474'>23</text>
	<text text-anchor='middle' dominant-baseline='middle' x='89.16567439215726' y='432.4759870523188'>24</text>
	<text text-anchor='middle' dominant-baseline='middle' x='75.65875189229769' y='408.037051040272'>25</text>
	<text text-anchor='middle' dominant-baseline='middle' x='64.97305075321648' y='382.2394864268366'>26</text>
	<text text-anchor='middle' dominant-baseline='middle' x='57.24294986672592' y='355.4077125551222'>27</text>
	<text text-anchor='middle' dominant-baseline='middle' x='52.5656597365826' y='327.8791545497237'>28</text>

	</svg>