<?xml version="1.0" encoding="UTF-8" standalone="no"?>
<!-- Created with LineOrder (https://github.com/zegalur/line-order) -->

<svg
    width="600.0px"
    height="600.0px"
    viewBox="0 0 600.0 600.0"
    version="1.1"
    xmlns="http://www.w3.org/2000/svg">

    <style>
path { fill: none; stroke-width:1.5px }
    </style>

    <rect width="100%" height="100%" fill="white"/>
    
    
    <text x='20' y='30'>(21 pseudolines)</text>
    <text x='20' y='45'>by Pavlo Savchuk (2025)</text>

    	<path id="line1" style="stroke:#1f77b4"  d="M 544.8 300.0 L 544.8 300.0 533.9133111811348 282.8303309365046 519.4085489399247 250.28935968154073 500.6375502092854 221.64090589422193 478.4271809015477 197.3992152963727 453.6578481467156 177.92075532117858 427.23524962517985 163.4003859729074 400.06226992951645 153.87237391194012 373.0118275882978 149.21610722365742 346.9014353161428 149.16623845506888 322.4701744660675 153.326862947391 277.52982553393247 153.326862947391 253.0985646838572 149.16623845506888 226.98817241170212 149.21610722365745 199.93773007048344 153.8723739119402 172.76475037482015 163.4003859729074 146.3421518532844 177.9207553211786 121.57281909845227 197.39921529637274 99.36244979071458 221.6409058942221 80.59145106007526 250.28935968154096 66.08668881886518 282.83033093650477 55.19999999999999 300.00000000000006" />
	<path id="line2" style="stroke:#ff7f0e"  d="M 542.0657862599115 336.4855467599275 L 542.0657862599115 336.4855467599275 528.7416863735789 351.8408680332771 491.2494981408553 344.0193791335319 435.16957662533514 330.8515738008121 416.47755517200306 326.5852418809284 397.77572549542384 322.31667129809307 379.0571641438935 318.04428181963465 360.3064264943803 313.76454831113153 341.4806108162404 309.46767873252435 322.3995298407698 305.11254651556317 300.0 277.5376609033308 279.8807983440332 283.9554720738077 263.02822673429705 285.48964826088707 236.96945710651784 277.1461960108971 222.7088422650499 282.3587976189379 194.82884377475227 277.09093857459294 180.8610781858099 291.07177208698243 161.7419673906945 289.6389928065115 104.32585271650703 284.9765395694417 85.17946475062638 284.261136691796 66.14030085298452 282.1149280588591 57.93421374008847 263.5144532400726" />
	<path id="line3" style="stroke:#2ca02c"  d="M 533.9242228564473 372.1560666957894 L 533.9242228564473 372.1560666957894 528.5820478754717 352.5402899928038 505.2205352493736 315.73886330820403 495.72775931761237 285.6919424470872 444.743449470692 267.3311814000846 429.0616556605564 249.34703276988338 411.769525647556 235.46983428018666 393.40774686671926 225.50980755832757 361.6869476877324 233.51728177439725 345.67977359086797 233.00007766013493 323.9017756230975 222.51234659041467 298.9318995170097 211.08657440901766 270.43894152434376 204.16540219846257 252.32347190969145 200.99866930619234 221.89808825699282 185.4455350798284 198.8103505096405 191.4708670014952 176.28053225928414 201.79581700120184 154.7352058290458 216.54552820225143 117.18524985812476 228.63583946409528 99.62454869255646 220.97308878363015 81.5396497233044 214.64597232434886 66.07577714355273 227.8439333042107" />
	<path id="line4" style="stroke:#d62728"  d="M 520.5571788625122 406.21473933597827 L 520.5571788625122 406.21473933597827 503.29897094949297 416.9605193830362 431.20406284221576 404.17294841880397 407.70104952406456 415.5467532556517 383.88401678275073 422.39848692602425 360.1561208662984 424.91547211366014 338.0412005030162 423.3265430294532 317.8065255539202 418.13857791768135 300.0 409.88318711199923 285.05251975785086 399.17005167082533 256.48570848900414 390.3583573792689 238.10059665585274 390.7897498373534 218.73772757936052 387.579900809194 199.0965697427415 380.4678004771152 179.92928942371302 369.3228570730089 161.74225002665023 353.87682661122165 108.59086336103755 343.31995717400525 94.72585271650703 315.02346043055843 85.23307678474578 283.5457338141504 80.7510895581824 249.58993772201424 81.80174862514627 213.9781552137569 79.44282113748781 193.7852606640218" />
	<path id="line5" style="stroke:#9467bd"  d="M 502.2632519525556 437.9007502139747 L 502.2632519525556 437.9007502139747 502.9402665002781 417.58181371397734 436.9741974883058 378.6678935712789 420.07071057628696 369.32285707300895 403.4666465994519 359.7364962663414 386.8538700086974 350.1451052296822 370.1812650996134 354.60153952026167 347.28167197289974 337.70587518025457 325.54557280988973 337.4684736776397 300.0 342.54736201306366 290.54158474554913 330.6634291358913 258.5193891837596 309.46767873252435 247.92879291337846 303.9021975144308 238.25080812173468 273.8813668695967 236.6010767872946 249.44104585406853 206.59225313328074 225.50980755832762 191.60241577138015 213.5558111585367 176.72782939121777 201.2349241386068 161.31134205628427 189.85828616119022 146.789448985218 177.3598624585836 116.40377144728461 154.04569364115542 97.73674804744442 162.0992497860253" />
	<path id="line6" style="stroke:#8c564b"  d="M 479.4510982239415 466.5062862063211 L 479.4510982239415 466.5062862063211 459.7922497937053 471.6877153128273 405.4550209784385 454.0373391420717 377.1654645052565 459.40900870800004 360.1561208662984 424.91547211366014 351.83738872364455 407.6414468270854 343.51429151099586 390.3583573792689 327.22834004293355 384.64842341988003 300.0 381.09026642489783 279.40167344586257 366.77813456260776 265.1545316838891 351.1089151182304 233.46154641500203 326.1144186608601 220.9428358561065 318.04428181963465 209.56053506007834 306.77750094611656 195.30419320882066 275.00829662682867 188.78572757936053 256.35161452399103 170.93834433944355 249.34703276988347 152.83084999294513 242.6257066038418 117.44734875996664 227.9680223535034 121.93152354766707 196.77792096543166 116.85106857921824 153.4848007785604 120.54890177605853 133.4937137936789" />
	<path id="line7" style="stroke:#e377c2"  d="M 452.630303495018 491.39234690817375 L 452.630303495018 491.39234690817375 459.26635185784403 472.17567728737345 420.72384959147473 429.5819937699456 407.17515158820333 416.03471523019783 394.3030349709013 401.6345002759215 381.26227242063953 387.579900809194 368.2146670197676 373.5179265034443 368.8493655826037 356.27168868834394 366.53845358499797 326.1144186608601 360.3064264943803 313.76454831113153 352.07120708662154 303.9021975144307 328.93955570535593 268.8105766349024 322.1500992649758 254.00484494007657 300.0 239.52447166281365 269.6789752283887 237.03774329574924 254.32022640913192 233.00007766013493 243.50451282081795 217.13633943416158 221.89808825699282 185.4455350798284 210.72323216832729 169.69180001996392 200.53048111940535 153.46824308962144 167.5812237769519 106.41409558786913 147.369696504982 108.60765309182631" />
	<path id="line8" style="stroke:#7f7f7f"  d="M 422.40000000000003 512.0030188464306 L 422.40000000000003 512.0030188464306 402.08728600700874 511.159704297945 361.0101223158878 496.5730014047558 329.60419912709324 494.0042980773211 300.3587044492149 486.67655083231693 273.95880677109255 475.1787579154332 261.95879949698383 423.3265430294532 248.16261127635548 407.6414468270855 238.10059665585274 390.7897498373534 231.7853329802324 373.5179265034443 213.1461299913026 350.1451052296822 197.71262570008076 340.1448361401421 183.52244482799694 326.5852418809284 171.30054742294277 309.64469064677826 161.7419673906945 289.6389928065115 155.41618902741513 266.631759440558 153.09294889478699 241.95788949324984 155.09391027826064 215.92423387131032 161.7586391882179 189.2973932985952 173.29064831068143 162.91242399836128 168.17397482587378 106.00996476555034 177.59999999999988 87.99698115356944" />
	<path id="line9" style="stroke:#bcbd22"  d="M 389.4354827648935 527.8778936681013 L 389.4354827648935 527.8778936681013 401.4409229239674 511.4709763532718 385.47273833917393 476.659240571315 376.5191014222152 459.72028076332697 383.2912657338288 422.80261774834304 394.3030349709013 401.6345002759215 400.9034302572585 380.4678004771152 403.4666465994519 359.7364962663414 402.2873742999193 340.14483614014205 397.77572549542384 322.31667129809307 390.43946493992166 306.77750094611656 377.29115773495016 282.3587976189379 363.39892321270537 249.44104585406853 361.6869476877324 233.51728177439725 356.49548717918196 217.13633943416156 347.67652809030847 200.9986693061923 335.2152827513636 185.83485730987763 298.93189951700964 173.6493425812356 259.1334583455661 167.51392592326644 253.7841011178256 148.9547784700883 230.52466548426517 75.98345467934939 210.56451723510654 72.12210633189878" />
	<path id="line10" style="stroke:#17becf"  d="M 354.4731246325058 538.6623529021105 L 354.4731246325058 538.6623529021105 335.3114188559138 531.8692268970908 300.3587044492149 524.9691766440742 268.251587042272 513.0436867352029 239.67541411808057 496.7844613897364 215.17362474386738 476.97051262664195 195.13773007048354 454.4414699643905 179.8020483443865 430.0699557444917 169.2432342897178 404.73384128139895 163.38450696090902 379.28918790222 162.0043489284921 354.5446437218136 164.8304233746649 330.8515738008121 171.30054742294277 309.64469064677826 180.8610781858099 291.07177208698243 188.78572757936053 256.35161452399103 188.23047435244393 235.46983428018672 191.60241577138015 213.5558111585367 199.33624844550175 190.98290502694914 211.31598321724923 169.28766919764513 227.63453549474343 148.90483516833058 231.21020191823357 75.7719946943688 245.5268753674942 61.337647097889544" />
	<path id="line11" style="stroke:#1f77b4" stroke-dasharray='6,2' d="M 318.29392690995667 544.1154895499529 L 318.29392690995667 544.1154895499529 334.60202282213834 531.9761511450877 332.45780899150355 512.9367624872059 328.89480309331776 494.11122232531807 326.7505892626829 475.0718336674363 317.8065255539202 418.13857791768135 314.94748024214914 399.17005167082533 325.1870444921484 385.2780797081844 320.59832655413743 366.77813456260776 325.54557280988973 337.4684736776397 330.5533715441317 311.99131469121124 322.3995298407698 305.11254651556317 313.9229195379848 271.08875967661953 322.1500992649758 254.00484494007657 330.3210247716113 237.03774329574924 323.9017756230975 222.51234659041467 329.56105847565624 204.16540219846263 335.2152827513636 185.83485730987763 340.8665416544339 167.51392592326644 321.760778432292 153.21993869939405 299.6412955507851 65.45766690298646 281.7060730900432 55.88451045004706" />
	<path id="line12" style="stroke:#ff7f0e" stroke-dasharray='6,2' d="M 281.7060730900434 544.1154895499529 L 281.7060730900434 544.1154895499529 265.3979771778617 531.9761511450877 267.5421910084965 512.9367624872059 271.1051969066823 494.11122232531807 273.2494107373171 475.0718336674363 282.1934744460798 418.13857791768135 285.05251975785086 399.17005167082533 274.81295550785165 385.2780797081844 279.40167344586257 366.77813456260776 284.9525211861009 348.7827281707362 290.54158474554913 330.6634291358913 287.7477782037709 313.20475464987675 279.8807983440332 283.9554720738077 277.84990073502416 254.00484494007657 269.6789752283887 237.03774329574924 276.0982243769026 222.51234659041467 270.43894152434376 204.16540219846257 264.78471724863635 185.83485730987763 259.1334583455661 167.51392592326644 278.23922156770794 153.21993869939405 300.35870444921477 65.45766690298646 318.29392690995667 55.88451045004706" />
	<path id="line13" style="stroke:#2ca02c" stroke-dasharray='6,2' d="M 245.52687536749426 538.6623529021105 L 245.52687536749426 538.6623529021105 264.68858114408624 531.8692268970908 299.64129555078523 524.9691766440742 331.7484129577281 513.0436867352029 360.32458588191946 496.7844613897364 384.8263752561326 476.97051262664195 404.8622699295165 454.4414699643904 420.1979516556135 430.0699557444917 430.7567657102822 404.733841281399 436.615493039091 379.28918790222 437.99565107150795 354.5446437218136 435.16957662533514 330.8515738008121 428.6994525770572 309.6446906467782 419.1389218141901 291.0717720869824 411.2142724206395 256.351614523991 411.769525647556 235.46983428018666 408.39758422861985 213.55581115853664 400.6637515544982 190.98290502694914 388.6840167827507 169.2876691976451 372.3654645052565 148.90483516833055 368.78979808176643 75.77199469436886 354.47312463250574 61.337647097889544" />
	<path id="line14" style="stroke:#d62728" stroke-dasharray='6,2' d="M 210.56451723510645 527.8778936681013 L 210.56451723510645 527.8778936681013 198.55907707603262 511.4709763532719 214.5272616608261 476.659240571315 223.48089857778479 459.72028076332697 216.70873426617118 422.80261774834304 205.69696502909875 401.6345002759215 199.0965697427415 380.4678004771152 196.5333534005481 359.7364962663414 197.71262570008076 340.1448361401421 202.2242745045762 322.3166712980931 209.56053506007834 306.77750094611656 222.7088422650499 282.3587976189379 236.6010767872946 249.44104585406853 238.3130523122676 233.51728177439725 243.50451282081795 217.13633943416158 252.32347190969145 200.99866930619234 264.78471724863635 185.83485730987763 301.0681004829903 173.6493425812356 340.8665416544339 167.51392592326644 346.21589888217443 148.9547784700883 369.47533451573486 75.98345467934945 389.4354827648936 72.12210633189878" />
	<path id="line15" style="stroke:#9467bd" stroke-dasharray='6,2' d="M 177.60000000000002 512.0030188464306 L 177.60000000000002 512.0030188464306 197.9127139929913 511.159704297945 238.9898776841122 496.5730014047558 270.3958008729068 494.0042980773211 299.6412955507852 486.67655083231693 326.04119322890745 475.1787579154332 338.0412005030162 423.3265430294532 351.83738872364455 407.6414468270854 361.89940334414723 390.7897498373534 368.2146670197676 373.5179265034443 386.8538700086974 350.1451052296822 402.2873742999193 340.14483614014205 416.47755517200306 326.5852418809284 428.6994525770572 309.6446906467782 438.2580326093055 289.6389928065114 444.58381097258484 266.6317594405579 446.907051105213 241.95788949324975 444.90608972173936 215.92423387131026 438.2413608117821 189.29739329859518 426.70935168931857 162.91242399836128 431.826025174126 106.00996476555028 422.39999999999986 87.99698115356932" />
	<path id="line16" style="stroke:#8c564b" stroke-dasharray='6,2' d="M 147.36969650498204 491.39234690817375 L 147.36969650498204 491.39234690817375 140.73364814215597 472.1756772873735 179.27615040852527 429.5819937699456 192.82484841179667 416.03471523019783 205.69696502909875 401.6345002759215 218.73772757936052 387.579900809194 231.7853329802324 373.5179265034443 231.15063441739628 356.27168868834394 233.46154641500203 326.1144186608601 239.69357350561972 313.7645483111316 247.92879291337846 303.9021975144308 263.02822673429705 285.48964826088707 277.84990073502416 254.00484494007657 300.0 239.52447166281365 330.3210247716113 237.03774329574924 345.67977359086797 233.00007766013493 356.49548717918196 217.13633943416156 378.1019117430071 185.44553507982835 389.2767678316726 169.69180001996384 399.4695188805945 153.46824308962138 432.4187762230479 106.41409558786901 452.630303495018 108.60765309182625" />
	<path id="line17" style="stroke:#e377c2" stroke-dasharray='6,2' d="M 120.5489017760585 466.5062862063211 L 120.5489017760585 466.5062862063211 140.20775020629472 471.6877153128273 194.5449790215616 454.0373391420717 222.83453549474348 459.40900870800004 239.84387913370165 424.91547211366014 248.16261127635548 407.6414468270855 256.48570848900414 390.3583573792689 272.7716599570665 384.64842341988003 300.00000000000006 381.09026642489783 320.59832655413743 366.77813456260776 347.28167197289974 337.70587518025457 366.53845358499797 326.1144186608601 379.0571641438935 318.04428181963465 390.43946493992166 306.77750094611656 404.69580679117934 275.0082966268286 411.2142724206395 256.351614523991 429.0616556605564 249.34703276988338 447.1691500070549 242.6257066038417 482.55265124003336 227.96802235350327 478.0684764523329 196.77792096543158 483.14893142078176 153.48480077856038 479.4510982239416 133.493713793679" />
	<path id="line18" style="stroke:#7f7f7f" stroke-dasharray='6,2' d="M 97.7367480474444 437.9007502139747 L 97.7367480474444 437.9007502139747 97.05973349972191 417.58181371397734 163.0258025116942 378.6678935712789 179.92928942371302 369.3228570730089 196.5333534005481 359.7364962663414 213.1461299913026 350.1451052296822 229.81873490038657 354.60153952026167 265.1545316838891 351.1089151182304 284.9525211861009 348.7827281707362 300.0 342.54736201306366 330.5533715441317 311.99131469121124 341.4806108162404 309.46767873252435 352.07120708662154 303.9021975144307 361.7491918782654 273.8813668695967 363.39892321270537 249.44104585406853 393.40774686671926 225.50980755832757 408.39758422861985 213.55581115853664 423.2721706087822 201.23492413860677 438.6886579437157 189.8582861611902 453.210551014782 177.35986245858356 483.5962285527154 154.0456936411554 502.2632519525555 162.09924978602513" />
	<path id="line19" style="stroke:#bcbd22" stroke-dasharray='6,2' d="M 79.44282113748781 406.21473933597827 L 79.44282113748781 406.21473933597827 96.70102905050706 416.9605193830362 168.7959371577842 404.1729484188039 192.29895047593544 415.5467532556517 216.11598321724927 422.3984869260243 239.84387913370165 424.91547211366014 261.95879949698383 423.3265430294532 282.1934744460798 418.13857791768135 300.0 409.88318711199923 314.94748024214914 399.17005167082533 343.51429151099586 390.3583573792689 361.89940334414723 390.7897498373534 381.26227242063953 387.579900809194 400.9034302572585 380.4678004771152 420.07071057628696 369.32285707300895 438.2577499733498 353.87682661122165 491.4091366389624 343.3199571740052 505.274147283493 315.0234604305584 514.7669232152542 283.54573381415025 519.2489104418175 249.58993772201404 518.1982513748537 213.9781552137568 520.5571788625122 193.7852606640217" />
	<path id="line20" style="stroke:#17becf" stroke-dasharray='6,2' d="M 66.07577714355278 372.15606669578943 L 66.07577714355278 372.15606669578943 71.41795212452834 352.5402899928039 94.77946475062643 315.7388633082041 104.27224068238763 285.6919424470873 155.256550529308 267.33118140008474 170.93834433944355 249.34703276988347 188.23047435244393 235.46983428018672 206.59225313328074 225.50980755832762 238.3130523122676 233.51728177439725 254.32022640913192 233.00007766013493 276.0982243769026 222.51234659041467 301.0681004829903 211.08657440901766 329.56105847565624 204.16540219846263 347.67652809030847 200.9986693061923 378.1019117430071 185.44553507982835 401.1896494903595 191.47086700149526 423.7194677407158 201.79581700120178 445.26479417095413 216.54552820225135 482.8147501418752 228.6358394640952 500.37545130744354 220.97308878363003 518.4603502766955 214.6459723243487 533.9242228564472 227.8439333042105" />
	<path id="line21" style="stroke:#1f77b4" stroke-dasharray='6,2,2,2' d="M 57.93421374008847 336.48554675992756 L 57.93421374008847 336.48554675992756 71.2583136264212 351.84086803327716 108.75050185914469 344.01937913353197 164.8304233746649 330.8515738008121 183.52244482799694 326.5852418809284 202.2242745045762 322.3166712980931 220.9428358561065 318.04428181963465 239.69357350561972 313.7645483111316 258.5193891837596 309.46767873252435 287.7477782037709 313.20475464987675 300.0 277.5376609033308 313.9229195379848 271.08875967661953 328.93955570535593 268.8105766349024 363.03054289348216 277.14619601089714 377.29115773495016 282.3587976189379 405.1711562252477 277.09093857459294 419.1389218141901 291.0717720869824 438.2580326093055 289.6389928065114 495.67414728349297 284.9765395694415 514.8205352493735 284.2611366917959 533.8596991470154 282.114928058859 542.0657862599114 263.51445324007227" />

	<text text-anchor='middle' dominant-baseline='middle' x='550.92' y='300.0'>1</text>
	<text text-anchor='middle' dominant-baseline='middle' x='548.1174309164093' y='337.3976854289257'>2</text>
	<text text-anchor='middle' dominant-baseline='middle' x='539.7723284278584' y='373.9599683631841'>3</text>
	<text text-anchor='middle' dominant-baseline='middle' x='526.071108334075' y='408.8701078193777'>4</text>
	<text text-anchor='middle' dominant-baseline='middle' x='507.31983325136946' y='441.34826896932407'>5</text>
	<text text-anchor='middle' dominant-baseline='middle' x='483.93737567954' y='470.6689433614791'>6</text>
	<text text-anchor='middle' dominant-baseline='middle' x='456.4460610823934' y='496.17715558087804'>7</text>
	<text text-anchor='middle' dominant-baseline='middle' x='425.46000000000004' y='517.3030943175913'>8</text>
	<text text-anchor='middle' dominant-baseline='middle' x='391.6713698340158' y='533.5748410098038'>9</text>
	<text text-anchor='middle' dominant-baseline='middle' x='355.8349527483184' y='544.6289117246631'>10</text>
	<text text-anchor='middle' dominant-baseline='middle' x='318.7512750827056' y='550.2183767887018'>11</text>
	<text text-anchor='middle' dominant-baseline='middle' x='281.24872491729445' y='550.2183767887018'>12</text>
	<text text-anchor='middle' dominant-baseline='middle' x='244.1650472516816' y='544.6289117246631'>13</text>
	<text text-anchor='middle' dominant-baseline='middle' x='208.32863016598412' y='533.5748410098038'>14</text>
	<text text-anchor='middle' dominant-baseline='middle' x='174.54000000000005' y='517.3030943175913'>15</text>
	<text text-anchor='middle' dominant-baseline='middle' x='143.5539389176066' y='496.1771555808781'>16</text>
	<text text-anchor='middle' dominant-baseline='middle' x='116.06262432045997' y='470.6689433614791'>17</text>
	<text text-anchor='middle' dominant-baseline='middle' x='92.68016674863054' y='441.34826896932395'>18</text>
	<text text-anchor='middle' dominant-baseline='middle' x='73.92889166592502' y='408.8701078193777'>19</text>
	<text text-anchor='middle' dominant-baseline='middle' x='60.22767157214162' y='373.9599683631842'>20</text>
	<text text-anchor='middle' dominant-baseline='middle' x='51.88256908359071' y='337.39768542892574'>21</text>

	</svg>