<?xml version="1.0" encoding="UTF-8" standalone="no"?>
<!-- Created with LineOrder (https://github.com/zegalur/line-order) -->

<svg
    width="600.0px"
    height="600.0px"
    viewBox="0 0 600.0 600.0"
    version="1.1"
    xmlns="http://www.w3.org/2000/svg">

    <style>
path { fill: none; stroke-width:1.5px }
    </style>

    <rect width="100%" height="100%" fill="white"/>
    
    
    <text x='20' y='30'>(23 pseudolines)</text>
    <text x='20' y='45'>by Pavlo Savchuk (2025)</text>

    	<path id="line1" style="stroke:#1f77b4"  d="M 544.2857142857142 300.0 L 544.2857142857142 300.0 534.6365166127754 315.75642653828 500.4705544494512 314.0057124784711 483.4474494289841 312.2549984186622 466.34450966025696 311.67142706539255 449.3214046397898 309.9207130055837 432.1008185388164 309.03594353449745 415.01741021543245 307.86740639222756 379.31922902461883 316.4827253335915 368.253407595345 324.25726688684125 356.69218259366215 329.3755212762136 339.6304539690837 337.0122602689627 324.2356058145823 339.8537558512087 287.41553083892836 344.9145586706761 271.82493908151764 346.33191377714616 253.33553811446163 343.58156507533363 236.88339951944886 332.70438630997387 220.6807709753812 316.4827253335915 167.8991814611836 309.0359435344975 150.7185127343402 310.50428435885334 116.55255057101596 312.25499841866224 99.52944555054881 314.00571247847114 65.36348338722459 315.75642653828004 55.71428571428572 300.00000000000006" />
	<path id="line2" style="stroke:#ff7f0e"  d="M 542.0104239603037 333.2635671363688 L 542.0104239603037 333.2635671363688 534.5965992386455 316.3399978915496 509.0419830208798 285.994287521529 496.81525848801994 259.4000343646222 481.3960553233686 235.84221551473325 463.37766912255523 215.673913168451 443.38728561241993 199.14419212600643 422.06886657961206 186.39581910940535 400.0660950823801 177.46567973369008 378.00579188355937 172.2878280555928 356.16232331776143 170.70136357876223 335.7236543927194 172.5006076445324 300.00000000000006 167.59050436549526 280.8046826011671 160.3436942676835 259.34320611011776 155.9780310482646 236.7039911315586 155.01207536664046 213.10781931776037 157.674784243483 189.14047521476107 164.1987723855024 165.43172398676157 174.72218560708387 142.64016557114368 189.28129017433662 106.25151877369711 199.93702677047952 86.37316886771845 224.38739504039168 69.6944003682521 252.44066144599475 57.98957603969632 266.73643286363125" />
	<path id="line3" style="stroke:#2ca02c"  d="M 535.2269373378195 365.90749695407305 L 535.2269373378195 365.90749695407305 521.6845250845098 378.4763100781937 473.1424785746732 361.84524073249213 457.22297346668404 355.56666912951033 440.9117027657603 350.3904202581504 424.76429345385634 344.34124054583884 408.6296518004101 338.60698752463315 384.4139366423909 330.00072028994254 368.253407595345 324.25726688684125 352.06509938362854 318.5039407662443 343.95105792124485 303.00633472260506 327.6263792647825 301.8896961113517 305.98969737601163 313.7896664087835 278.57244097092627 320.01194314683687 259.35673453903905 308.4457676844708 237.48469653170784 287.00917055189535 220.68077097538117 283.5172746664086 203.89728193538934 280.02962553785153 153.53926176480851 269.2663932194459 136.675082655708 266.35940728324977 103.30375004921657 258.82733384150464 86.43957094011606 255.9203479053085 69.81340890548867 251.86796092287713 64.77306266218045 234.0925030459269" />
	<path id="line4" style="stroke:#d62728"  d="M 524.0616179391893 397.32369480529616 L 524.0616179391893 397.32369480529616 521.4886422880426 379.0274714440046 488.32366466485144 339.4328229288385 483.4075320548541 312.8385697719318 474.91593823168546 288.32857293460745 463.324917344292 266.3594072832497 429.6400302337856 273.0604919278935 412.87485348441635 276.54433571869987 392.4883131907935 267.1296455953672 372.4922389231994 249.8966930096147 351.12677227669934 237.1567546664793 337.63647020617475 238.10946150165233 325.43822879686843 241.43532350332174 292.4760435761362 245.25915165582842 275.03563727463995 242.52627261783152 254.28665067024528 243.81074534885207 215.7447215955557 221.31106305842536 198.8194740878746 228.57898586721814 166.99314298119228 231.41079956642267 152.07684505914264 223.02300125234035 136.6223308774447 215.67391316845107 106.52062690352128 199.417671655383 91.06611272182334 192.06858357149372 75.93838206081077 202.67630519470384" />
	<path id="line5" style="stroke:#9467bd"  d="M 508.7224545392137 426.9269363657988 L 508.7224545392137 426.9269363657988 492.2912064699472 435.37596470483817 465.81679959730434 454.46189814871997 437.8430990423858 468.9684959849669 409.10815267894 478.8578252867917 380.33053708063005 484.2053419302423 352.19255728753126 485.19364773318847 325.3248127192116 482.10383178005327 300.29246748584865 475.3046551577662 277.58351779159943 465.2398844990354 257.59929742680947 452.4141182747268 240.64740574068284 437.3774799041963 205.3306197690492 415.90086659221606 184.18083813720108 407.7673641394339 163.59898879579822 395.92435689815863 144.21503390338165 380.3918652320561 126.66163862885958 361.29407936668116 111.55732679791205 338.8601224057209 99.48952817641882 313.4221411252015 90.99793435325026 285.41071616825934 86.55857947735265 255.34764738219087 86.56905166418562 223.83623367458074 91.33522085164748 191.5492284563972 91.27754546078631 173.07306363420133" />
	<path id="line6" style="stroke:#8c564b"  d="M 489.4951867292226 454.16576925679294 L 489.4951867292226 454.16576925679294 491.9538859820526 435.8538389660837 478.31865765351085 425.51306275316824 436.0636907163072 396.40223115940415 425.16455897302035 364.85504697345857 424.76429345385634 344.34124054583884 421.25813172729084 325.1977295329616 415.01741021543245 307.86740639222756 380.8248429217758 294.47142928481406 370.9207224220121 285.2625044076123 360.16411484330405 278.6176684478954 344.30116923851375 268.7288200396329 328.7098715034282 252.78862768395274 325.43822879686843 241.43532350332174 310.82587122973007 221.23593734533426 287.80129514044756 211.24783091591232 250.72033279517194 188.73546161696078 231.2021512360245 186.86675758366556 221.99420811644052 172.28782805559285 213.60759910797628 157.37086142037472 195.33504172040006 128.44869661926327 167.55361580904358 137.66495768912694 127.93349568588249 139.70128510011932 110.50481327077739 145.8342307432071" />
	<path id="line7" style="stroke:#e377c2"  d="M 466.73798212912834 478.53278555937027 L 466.73798212912834 478.53278555937027 448.6365287452445 482.23540333315464 437.3893583805125 469.3376413938197 427.04966933952704 455.7015886367792 373.2453864618486 420.44690657254193 352.7520873667779 421.4474858226047 342.51818241762294 397.8866735730194 335.6913924445858 382.16982671727817 328.85849485359023 366.4389187147191 308.2114887897126 359.74301779471034 287.41553083892836 344.9145586706761 280.6203284687688 331.86851212184655 278.57244097092627 320.01194314683687 264.1880268789857 287.27242169517586 255.69883076148625 268.728820039633 253.33553811446163 256.4184349246663 215.7447215955557 221.31106305842536 203.23037857837664 209.62348256267217 190.82979205752468 197.64196109764657 177.93113342038788 186.39581910940535 165.83097319027198 174.29469409300359 152.93231455313517 163.04855210476234 128.33274488939293 139.273793586039 133.26201787087163 121.4672144406297" />
	<path id="line8" style="stroke:#7f7f7f"  d="M 440.87476440234616 499.5740738639794 L 440.87476440234616 499.5740738639794 448.1827880833712 482.6045487420074 465.41755039379393 454.8893896628002 477.9813371656163 425.9909370144138 455.5158579667942 380.9112203471526 457.0270906702168 356.11783049532124 454.8333235211235 332.473450010211 449.28148726565985 310.5042843588533 440.6406694342551 290.3799146612522 429.6400302337856 273.0604919278935 416.6976365495122 258.52565000669375 402.36088523855665 246.96086436239207 384.25527840444425 221.3110630584253 378.1593185379427 203.92929161657176 368.7978487639754 186.86675758366556 356.16232331776143 170.70136357876223 340.0935498936607 155.82021748156387 321.2520603808978 143.23191345899116 299.70753251415147 99.04100506304852 271.1819217982803 92.48077434586702 240.88598467387934 90.1033449979397 209.44874599205667 92.26420769162803 177.5622641230397 99.22260899504354 159.12523559765387 100.42592613602059" />
	<path id="line9" style="stroke:#bcbd22"  d="M 412.38731636003865 516.8976747811516 L 412.38731636003865 516.8976747811516 393.958159650381 515.5792757677485 379.79402811394357 484.43838066045566 373.51672579575455 468.5183750114892 342.9639465694121 452.25630470802605 320.66712540920065 448.21663994794704 300.0 398.1557348073177 287.80129514044756 388.75216908408765 278.14276408866505 378.00949663854266 263.0646260228299 360.7376348675193 253.33553811446163 343.58156507533363 251.85336245393856 324.94757673645444 237.48469653170784 287.00917055189535 231.74659240465502 275.74273311315875 212.84897396315912 254.84197816234243 197.63911476144335 246.96086436239213 167.26225111101644 230.89144445132612 170.92258369191097 208.52921981643084 178.3303826238983 185.96832759532504 189.59421587663445 163.8296269766496 195.83482151061594 128.144773796155 186.44865292171983 113.83565280715342 178.06204391325565 98.91868617193529 187.6126836399613 83.10232521884836" />
	<path id="line10" style="stroke:#17becf"  d="M 381.8063052589124 530.1808824033119 L 381.8063052589124 530.1808824033119 393.42165068369457 515.8123144979619 408.6083728887241 479.1617481099 426.59592867765366 456.070734045632 383.56203640922905 402.71154076016285 388.33747069445934 383.6945301242259 377.26121196206896 370.96384314251117 363.80433252312184 360.7821785291537 351.9525278922442 348.5202739660351 339.6304539690837 337.0122602689627 333.74534678194175 317.48542933107956 327.6263792647825 301.8896961113517 320.2375298826603 281.09946649104074 304.8877909462575 264.43867988410096 281.7630467103701 258.01432252926 275.03563727463995 242.52627261783152 268.32529165485334 227.0775075508201 252.3198655482958 188.0406864969384 264.2763456072805 172.5006076445324 259.90645010633926 155.82021748156387 245.50029003293895 106.57201651052091 241.44922867010087 89.94553143123898 236.27167931481972 73.63467348535846 218.1936947410876 69.81911759668813" />
	<path id="line11" style="stroke:#1f77b4" stroke-dasharray='6,2' d="M 349.70139747428624 539.1762557052532 L 349.70139747428624 539.1762557052532 332.311343684228 532.9346195282126 300.29246748584865 526.6133347161367 270.596986826583 516.0706722471947 243.75638134963066 501.82013281247043 220.20597188605643 484.43838066045566 240.11089677399642 437.14444117398307 228.79798414969184 418.76490473344256 203.23037857837667 390.3765174373279 198.81947408787468 371.4210141327819 175.23570654614366 344.3412405458388 161.9792001349394 328.6810520282831 150.67859536021018 309.9207130055837 142.18700153704162 288.9121442878771 136.79409119294453 265.7867067601321 134.915215377555 241.0184643860933 136.89143900726887 215.15455805335455 142.97748605903826 188.8034159130911 153.33156375664564 162.62106059068205 168.00735647091693 137.29581228027416 186.94843271193577 113.53172998404511 209.98525495874316 92.03116896141466 236.83492331104125 73.47685991865774 250.29860252571376 60.82374429474683" />
	<path id="line12" style="stroke:#ff7f0e" stroke-dasharray='6,2' d="M 316.6706466933697 543.7162279022602 L 316.6706466933697 543.7162279022602 331.73185682842245 533.0142681632478 329.98250002922254 515.9910236121594 324.74532586340604 482.18348041508847 322.9959690642061 465.16023586400013 320.0876385533951 448.29628858298224 326.48210032155947 394.5158538982923 335.6913924445858 382.16982671727817 342.0934206253271 369.21968121525725 351.9525278922442 348.5202739660351 356.69218259366215 329.3755212762136 352.06509938362854 318.5039407662443 354.0997818475605 288.7579360545248 360.16411484330405 278.6176684478954 358.07548236309367 259.0058481191827 351.12677227669934 237.1567546664793 351.0001444098166 216.13383551310858 342.51818241762294 202.1133264269806 315.7057644425303 179.32849522490753 300.00000000000006 167.59050436549526 299.70753251415147 150.3496846214191 300.29246748584865 99.04100506304852 299.70753251415147 64.83521869080144 283.3293533066305 56.2837720977397" />
	<path id="line13" style="stroke:#2ca02c" stroke-dasharray='6,2' d="M 283.3293533066304 543.7162279022602 L 283.3293533066304 543.7162279022602 268.26814317157755 533.0142681632478 270.0174999707775 515.9910236121594 272.9258304815885 499.12707633114155 277.0040309357939 465.16023586400013 279.9123614466049 448.29628858298224 268.8961638759686 411.01104501073274 246.23968852779998 390.08324382378066 228.26425890266614 366.99650531767134 222.1628696947431 341.314007567815 220.6807709753812 316.4827253335915 210.6222636473484 293.88639534669915 203.89728193538934 280.02962553785153 199.43997947619175 264.2609601200539 197.63911476144335 246.96086436239213 198.8194740878746 228.57898586721814 203.23037857837664 209.62348256267217 211.0359733582551 190.64852125130128 222.49398790665646 171.98390523248457 237.24050009824504 154.77903663642712 246.06353402916045 106.41420294382019 271.7614086540858 92.40112571083185 300.29246748584865 64.83521869080144 316.67064669336963 56.2837720977397" />
	<path id="line14" style="stroke:#d62728" stroke-dasharray='6,2' d="M 250.29860252571373 539.1762557052532 L 250.29860252571373 539.1762557052532 267.68865631577205 532.9346195282126 299.70753251415147 526.6133347161367 329.403013173417 516.0706722471947 351.62931329130976 485.3514612998892 372.9802168290681 468.75141374170255 359.8891032260036 437.144441173983 352.7520873667779 421.4474858226047 359.9008430133256 398.50273977051836 376.07090160879056 372.2383543266898 387.15102603684085 345.15802183765754 384.4139366423909 330.00072028994254 379.31922902461883 316.4827253335915 380.8248429217758 294.47142928481406 387.71279823357315 281.77307092740415 392.4883131907935 267.1296455953672 385.198827771034 238.79279736955493 384.25527840444425 221.3110630584253 409.1702079424753 197.64196109764657 399.6123544205068 177.09653432483728 386.3924008920236 157.37086142037464 369.5733111866303 139.09206971767395 363.16507668895866 73.47685991865768 349.7013974742861 60.8237442947468" />
	<path id="line15" style="stroke:#9467bd" stroke-dasharray='6,2' d="M 218.19369474108765 530.1808824033119 L 218.19369474108765 530.1808824033119 206.5783493163055 515.8123144979619 182.5052383125958 493.77479192200985 162.61064161948755 469.3376413938197 184.5800873407115 408.1948556535142 177.90885810012918 386.5393292077343 198.81947408787468 371.4210141327819 199.80907369121456 352.8968110525974 221.3605582805572 339.765616825662 236.88339951944886 332.70438630997387 251.85336245393856 324.94757673645444 259.35673453903905 308.4457676844708 264.1880268789857 287.27242169517586 276.0146006603139 270.517983670694 281.7630467103701 258.01432252926 292.4760435761362 245.25915165582842 310.82587122973007 221.23593734533426 312.27757188644915 204.270448398885 317.4334302662546 179.56595742664348 335.7236543927194 172.5006076445324 340.65679388988224 155.9780310482646 344.7078552527203 139.3515459689826 363.72832068518017 73.63467348535846 381.8063052589123 69.81911759668813" />
	<path id="line16" style="stroke:#8c564b" stroke-dasharray='6,2' d="M 187.6126836399614 516.8976747811516 L 187.6126836399614 516.8976747811516 206.04184034961906 515.5792757677485 213.39216060118096 500.1253475792088 219.66946291937 484.2053419302423 257.0360534305879 452.25630470802605 279.33287459079935 448.21663994794704 285.4680155927659 405.72803851617135 287.80129514044756 388.75216908408765 290.1366621670357 371.76111211504843 308.2114887897126 359.74301779471034 324.2356058145823 339.8537558512087 333.74534678194175 317.48542933107956 343.95105792124485 303.00633472260506 354.0997818475605 288.7579360545248 370.9207224220121 285.2625044076123 387.71279823357315 281.77307092740415 412.87485348441635 276.54433571869987 416.6976365495122 258.52565000669375 447.92315494085733 223.0230012523403 443.0499651245254 198.6663178647609 434.16902680972805 174.2946940930035 421.1992138262243 150.56271962846185 421.9379560867442 98.91868617193518 412.3873163600385 83.10232521884825" />
	<path id="line17" style="stroke:#e377c2" stroke-dasharray='6,2' d="M 159.12523559765387 499.57407386397944 L 159.12523559765387 499.57407386397944 151.81721191662882 482.6045487420074 162.1569009576142 468.9684959849669 205.78436043092256 416.27001200106884 227.30795473091615 417.85879777126814 237.51883633874593 404.4240742786116 244.74965910902426 389.17713686160624 254.96054071685404 375.7424133689497 263.0646260228299 360.7376348675193 271.82493908151764 346.33191377714616 280.6203284687688 331.86851212184655 305.98969737601163 313.7896664087835 320.2375298826603 281.09946649104074 332.19607026786866 269.93096941756477 328.7098715034282 252.78862768395274 337.63647020617475 238.10946150165233 351.0001444098166 216.13383551310858 359.9008430133255 201.49726022948164 368.7978487639754 186.86675758366556 377.50601209334343 171.98390523248452 386.89218068223954 157.67478424348292 395.2787896907038 142.7578176082648 422.4377358769601 99.22260899504346 440.87476440234605 100.42592613602051" />
	<path id="line18" style="stroke:#7f7f7f" stroke-dasharray='6,2' d="M 133.26201787087157 478.53278555937027 L 133.26201787087157 478.53278555937027 151.3634712547554 482.23540333315464 182.00545852237985 493.4708690989015 212.8556516344945 499.8923088489954 243.19313735340916 501.6623192457697 272.34634362578294 499.0474276961064 299.70753251415147 475.3046551577662 322.41648220840057 465.2398844990354 342.40070257319053 452.4141182747268 359.3525942593172 437.3774799041963 373.2453864618486 420.44690657254193 383.56203640922905 402.71154076016285 408.1745714820879 376.3579505935733 425.16455897302035 364.85504697345857 441.10758556222754 349.83925889233944 454.95233205836007 331.9007494870934 466.38442703438693 311.0878557121229 474.8760208575555 287.7450015813378 479.9510793789194 262.3070203008183 481.2001725269014 235.29105414892234 478.2939670446049 207.2861148543687 470.99506275739805 178.94051396142112 471.667255110607 139.27379358603898 466.73798212912834 121.4672144406297" />
	<path id="line19" style="stroke:#bcbd22" stroke-dasharray='6,2' d="M 110.50481327077748 454.16576925679294 L 110.50481327077748 454.16576925679294 108.04611401794742 435.8538389660837 144.48414203320579 380.9112203471526 142.97290932978322 356.11783049532124 161.9792001349394 328.6810520282831 167.8991814611836 309.0359435344975 210.6222636473484 293.88639534669915 220.68077097538117 283.5172746664086 231.74659240465502 275.74273311315875 243.30781740633788 270.6244787237864 253.33553811446163 256.4184349246663 254.28665067024528 243.81074534885207 268.32529165485334 227.0775075508201 287.80129514044756 211.24783091591232 314.0052377101734 204.50791060062096 342.51818241762294 202.1133264269806 359.9008430133255 201.49726022948164 378.1593185379427 203.92929161657176 409.5694571459857 198.0694526117269 421.66961737610166 185.96832759532504 434.56827601323846 174.72218560708382 446.66843624335434 162.621060590682 472.06650431411754 139.70128510011926 489.4951867292225 145.83423074320703" />
	<path id="line20" style="stroke:#17becf" stroke-dasharray='6,2' d="M 91.2775454607864 426.92693636579884 L 91.2775454607864 426.92693636579884 107.70879353005284 435.3759647048382 163.93630928369282 396.40223115940415 177.57153761223464 386.06145494648877 203.23037857837667 390.3765174373279 236.0288069199702 403.5179673164372 268.8961638759686 411.01104501073274 285.4680155927659 405.72803851617135 300.0 398.1557348073177 326.48210032155947 394.5158538982923 342.51818241762294 397.8866735730194 359.9008430133256 398.50273977051836 389.52778104773773 382.42001894004727 408.1745714820879 376.3579505935733 436.40101120420184 395.92435689815863 455.7849660966184 380.39186523205603 473.3383613711404 361.29407936668116 488.44267320208803 338.86012240572086 500.51047182358116 313.42214112520145 509.00206564674977 285.41071616825934 513.4414205226474 255.3476473821908 513.4309483358143 223.83623367458063 508.66477914835247 191.54922845639712 508.7224545392137 173.07306363420122" />
	<path id="line21" style="stroke:#1f77b4" stroke-dasharray='6,2,2,2' d="M 75.93838206081071 397.3236948052961 L 75.93838206081071 397.3236948052961 78.51135771195743 379.0274714440046 111.6763353351486 339.43282292883856 116.59246794514596 312.8385697719319 142.14708416291163 289.4957156411467 153.42025322757198 269.8390937425635 199.43997947619175 264.2609601200539 212.84897396315912 254.84197816234243 243.30781740633788 270.6244787237864 255.69883076148625 268.728820039633 276.0146006603139 270.517983670694 304.8877909462575 264.43867988410096 332.19607026786866 269.93096941756477 344.30116923851375 268.7288200396329 358.07548236309367 259.0058481191827 371.48656110197027 248.47197211919234 386.20450559226316 240.21751825997728 402.36088523855665 246.96086436239207 448.1922630706815 223.5423563674368 463.1085609927311 215.1545580533545 478.56307517442906 207.80546996946524 493.47937309647864 199.4176716553829 508.9338872781766 192.06858357149366 524.0616179391892 202.67630519470373" />
	<path id="line22" style="stroke:#ff7f0e" stroke-dasharray='6,2,2,2' d="M 64.77306266218045 365.90749695407305 L 64.77306266218045 365.90749695407305 78.3154749154902 378.4763100781937 126.85752142532678 361.84524073249213 142.77702653331602 355.56666912951033 175.23570654614366 344.3412405458388 199.00676227702866 351.3484203104444 228.26425890266614 366.99650531767134 253.47051129807832 374.8363064067753 278.14276408866505 378.00949663854266 290.1366621670357 371.76111211504843 328.85849485359023 366.4389187147191 342.0934206253271 369.21968121525725 364.9946428764002 359.50766734497506 387.15102603684085 345.15802183765754 408.6296518004101 338.60698752463315 421.25813172729084 325.1977295329616 432.1008185388164 309.03594353449745 440.6406694342551 290.3799146612522 463.20590880705544 265.78670676013206 480.070087916156 262.87972082393594 496.69624995078334 258.8273338415046 513.5604290598839 255.9203479053084 530.1865910945113 251.86796092287705 535.2269373378194 234.09250304592666" />
	<path id="line23" style="stroke:#2ca02c" stroke-dasharray='6,2,2,2' d="M 57.98957603969632 333.2635671363689 L 57.98957603969632 333.2635671363689 65.40340076135456 316.3399978915497 90.95801697912023 285.994287521529 103.18474151198006 259.40003436462223 134.7193325810878 241.56962575190423 151.8077369293185 223.54235636743687 170.5852632040164 209.00709407767636 190.43054285401422 198.0694526117269 211.0359733582551 190.64852125130128 231.2021512360245 186.86675758366556 264.2763456072805 172.5006076445324 280.8046826011671 160.3436942676835 300.29246748584865 150.34968462141913 321.83154723670333 143.31156209402639 345.2710992489418 139.50935953568333 370.1098201533167 139.32510844788726 395.77856948091966 143.0617404313731 421.65295448809763 150.93186503731465 447.0676854468648 163.0485521047623 471.33238324529265 179.41838822266664 493.74848122630283 199.93702677047943 513.6268311322815 224.38739504039154 530.3055996317479 252.44066144599466 542.0104239603037 266.73643286363125" />

	<text text-anchor='middle' dominant-baseline='middle' x='550.3928571428571' y='300.0'>1</text>
	<text text-anchor='middle' dominant-baseline='middle' x='548.0606845593112' y='334.095156314778'>2</text>
	<text text-anchor='middle' dominant-baseline='middle' x='541.1076107712651' y='367.5551843779249'>3</text>
	<text text-anchor='middle' dominant-baseline='middle' x='529.663158387669' y='399.75678717542854'>4</text>
	<text text-anchor='middle' dominant-baseline='middle' x='513.940515902694' y='430.10010977494375'>5</text>
	<text text-anchor='middle' dominant-baseline='middle' x='494.2325663974531' y='458.01991348821275'>6</text>
	<text text-anchor='middle' dominant-baseline='middle' x='470.9064316823566' y='482.99610519835454'>7</text>
	<text text-anchor='middle' dominant-baseline='middle' x='444.3966335124047' y='504.5634257105789'>8</text>
	<text text-anchor='middle' dominant-baseline='middle' x='415.19699926903957' y='522.3201166506805'>9</text>
	<text text-anchor='middle' dominant-baseline='middle' x='383.85146289038516' y='535.9354044633947'>10</text>
	<text text-anchor='middle' dominant-baseline='middle' x='350.9439324111434' y='545.1556620978845'>11</text>
	<text text-anchor='middle' dominant-baseline='middle' x='317.0874128607039' y='549.8091335998167'>12</text>
	<text text-anchor='middle' dominant-baseline='middle' x='282.91258713929614' y='549.8091335998167'>13</text>
	<text text-anchor='middle' dominant-baseline='middle' x='249.05606758885656' y='545.1556620978845'>14</text>
	<text text-anchor='middle' dominant-baseline='middle' x='216.14853710961484' y='535.9354044633947'>15</text>
	<text text-anchor='middle' dominant-baseline='middle' x='184.80300073096046' y='522.3201166506805'>16</text>
	<text text-anchor='middle' dominant-baseline='middle' x='155.60336648759525' y='504.56342571057894'>17</text>
	<text text-anchor='middle' dominant-baseline='middle' x='129.0935683176434' y='482.9961051983545'>18</text>
	<text text-anchor='middle' dominant-baseline='middle' x='105.76743360254693' y='458.01991348821275'>19</text>
	<text text-anchor='middle' dominant-baseline='middle' x='86.05948409730607' y='430.1001097749438'>20</text>
	<text text-anchor='middle' dominant-baseline='middle' x='70.336841612331' y='399.7567871754285'>21</text>
	<text text-anchor='middle' dominant-baseline='middle' x='58.892389228735' y='367.5551843779249'>22</text>
	<text text-anchor='middle' dominant-baseline='middle' x='51.93931544068877' y='334.09515631477814'>23</text>

	</svg>