<?xml version="1.0" encoding="UTF-8" standalone="no"?>
<!-- Created with LineOrder (https://github.com/zegalur/line-order) -->

<svg
    width="600.0px"
    height="600.0px"
    viewBox="0px 0px 600.0px 600.0px"
    version="1.1"
    id="svg1=-body"
    xml:space="preserve"
    xmlns="http://www.w3.org/2000/svg"
    xmlns:svg="http://www.w3.org/2000/svg">

    <style>
path { fill: none; stroke-width:1.5px }
    </style>

    <rect width="100%" height="100%" fill="white"/>
    
    
    <text x='20' y='30'>(19 pseudolines)</text>
    <text x='20' y='45'>by Kyle Wood</text>

    	<path id="line1" style="stroke:#1f77b4"  d="M 546.0 300.0 L 546.0 300.0 520.527020767494 282.22378424968076 503.0003794209588 249.104438390803 458.9993468544022 230.79746675646425 435.42875483426377 212.11182739509172 409.8056854269375 198.91674564259358 384.3121692139608 191.67572277938754 359.62902520302487 189.81521226232312 336.7871255124878 192.8427642104242 316.6734126692792 200.0817157806268 283.3265873307208 200.08171578062684 263.2128744875121 192.84276421042426 240.3709747969751 189.81521226232314 215.6878307860392 191.67572277938757 190.19431457306254 198.91674564259358 164.57124516573617 212.11182739509178 141.00065314559777 230.79746675646436 96.99962057904122 249.10443839080304 79.47297923250596 282.22378424968076 54.0 300.00000000000006" />
	<path id="line2" style="stroke:#ff7f0e"  d="M 542.6448806370697 340.49026920906056 L 542.6448806370697 340.49026920906056 508.52702076749404 317.77621575031924 484.77251730624505 314.81351312526607 436.7998393299962 311.3355578697688 418.76842507238933 328.5568435822244 384.80486595064065 355.40578419693554 365.69570922979165 360.47716072665344 340.06570024630366 351.47641272880344 316.7874000958602 348.900025900512 300.0 341.00233342656014 290.93480394823547 326.40601398627643 266.61053869728596 308.4553599387795 236.7650657966174 283.98673987138636 213.4384011793696 278.07962613505333 190.17090375201968 272.1874955660921 166.9317036763601 266.30253085978694 143.3719056615218 260.84749581845307 97.24288494925375 248.14380911725934 73.81347803780093 243.23290967697804 57.35511936293028 259.5097307909395" />
	<path id="line3" style="stroke:#2ca02c"  d="M 532.6710414583562 379.8760694243521 L 532.6710414583562 379.8760694243521 513.7580766416158 393.2219391107884 485.48718265235027 420.59297577671055 454.3098953206361 441.3788118591435 406.89898672860056 436.53713613463424 377.2758884052155 441.7523036531469 348.4609066751175 441.16179861346774 322.59368238518266 435.3965155726289 300.0 425.2849076922671 281.35210425146414 411.75071261377263 246.07710161066166 399.6407889111049 223.048416987258 398.86739587595576 199.00814885482342 392.9695483220293 175.05416416605618 381.6311887168184 130.04890718815506 374.0064144169862 108.59269184966138 347.9597972522845 91.39114705292229 316.78864820863487 79.55481141208963 281.2362167079964 74.05674240801343 242.27228040343434 67.32895854164383 220.12393057564788" />
	<path id="line4" style="stroke:#d62728"  d="M 516.3505427967963 417.0830586871201 L 516.3505427967963 417.0830586871201 513.3600156986511 394.12942665378273 491.8545847267304 383.6141767638873 469.5530318688801 374.9139019599806 425.7069970767341 355.1402012952584 418.0452675796283 331.41252794044686 400.9538921258795 291.6347219998498 386.56159882063037 278.0796261350533 370.7651277250146 268.95953703308874 354.60919398336705 264.32203290348843 339.1045888272569 264.0016900436587 300.00000000000006 255.3511211593318 259.93429975369634 248.52358727119656 245.15450810728208 229.53451057568242 230.4122048353673 210.5935989447098 215.6878307860392 191.67572277938757 185.75563489291045 154.0255215317518 154.48863716549667 166.7208078810333 104.5011317840324 172.86606358892914 83.64945720320361 182.91694131288" />
	<path id="line5" style="stroke:#9467bd"  d="M 494.12856531151283 451.09632732165835 L 494.12856531151283 451.09632732165835 471.9069602929018 457.57805133949716 453.6387416940122 442.1078790470443 419.11576537610483 408.98033289843636 400.9918511451766 392.9695483220293 383.3545182896793 376.73323964378017 365.69570922979165 360.47716072665344 339.1045888272569 335.9983099563413 333.38946130271404 308.4553599387795 326.28419029786255 288.4706851837187 300.0 282.3106738745376 265.67422092474067 277.57384925362135 245.39080601663292 264.3220329034885 225.24608112499084 251.16082726344203 205.15245255520455 238.0330045165853 185.0832613567406 224.92114750125404 165.11324461659675 211.28223547717624 144.54787403850156 199.02990612637092 105.04313123489294 172.03647167101357 105.87143468848708 148.9036726783418" />
	<path id="line6" style="stroke:#8c564b"  d="M 466.6112666199323 480.9880820255904 L 466.6112666199323 480.9880820255904 471.23580666627777 458.30711852739796 484.9451832014897 421.4225676946261 491.45652378376553 384.5216643068817 491.1640437801261 348.9204265258282 484.6906851266614 315.80108066695044 448.7387343987958 287.67515707977867 433.0682963236399 266.3025308597869 414.73257669701917 249.67362580194663 394.8475474447954 238.0330045165852 374.52874576488966 231.39145631850243 354.8454918927179 229.53451057568242 336.77818197836916 232.0398721785797 300.00000000000006 224.8341947640888 271.0062951516392 215.5442230517714 263.2128744875121 192.84276421042426 231.57737444911783 102.21765359544207 194.26480411152266 105.65950219932552 156.37412137895438 116.27615219729594 133.3887333800677 119.01191797440961" />
	<path id="line7" style="stroke:#e377c2"  d="M 434.5492468981171 505.94295365258205 L 434.5492468981171 505.94295365258205 411.42705738512973 504.85813663017996 364.53954008011965 486.4713048489916 330.99874785802666 482.755029900776 300.495476072834 473.40570178316057 273.9154669833418 459.32631815582806 251.53909332488266 441.1617986134678 234.66732890799005 420.72420221693284 223.048416987258 398.86739587595576 216.64548171032078 376.73323964378017 215.1951340493594 355.4057841969356 199.04610787412045 291.6347219998498 190.17090375201968 272.1874955660921 185.26742330298077 249.67362580194674 185.0832613567406 224.92114750125404 190.19431457306254 198.91674564259358 186.5376353739303 153.4168661262154 171.06487813593242 135.15083686452388 157.1561218599743 115.66749679175953 165.45075310188295 94.05704634741795" />
	<path id="line8" style="stroke:#7f7f7f"  d="M 398.81707446463054 525.2802383571441 L 398.81707446463054 525.2802383571441 410.55554098431304 505.32977772053516 388.65961139852027 462.78758131215795 376.40437200439874 442.22394474350205 365.3326710920099 420.7242022169329 353.92289838933834 399.6407889111049 333.499009121283 393.0430454904967 300.0 389.29397057339764 275.59370293755705 371.0931145784366 259.93429975369634 351.47641272880344 260.8954111727431 335.9983099563413 236.7650657966174 283.98673987138636 229.23487227498532 268.95953703308885 225.24608112499084 251.16082726344203 225.47125423511028 231.39145631850243 230.4122048353673 210.5935989447098 240.3709747969751 189.81521226232314 232.51463407419084 101.89589195973642 223.8112035075926 79.5955704843094 201.18292553536963 74.71976164285581" />
	<path id="line9" style="stroke:#bcbd22"  d="M 360.3894298366366 538.4724654210753 L 360.3894298366366 538.4724654210753 338.8723038407418 529.93866411548 300.495476072834 521.2417574474807 266.0419110006266 506.5099523705321 236.39771954495345 486.7930664846972 212.2119050022965 463.25922240251305 193.88301375241934 437.14579154017065 181.55538825051906 409.70940008633715 175.05416416605618 381.6311887168184 174.2930029232659 355.1402012952584 163.20016067000378 311.3355578697688 151.26126560120417 287.67515707977867 143.61517003173432 259.88686654490937 141.39871408856266 229.88997921347 145.08987348936216 198.20031420845532 155.1597907921206 165.99174069313247 171.8468786169523 134.54218145898747 195.1363205123394 105.18786110897031 224.74846313266562 79.2738088486038 239.61057016336343 61.5275345789247" />
	<path id="line10" style="stroke:#17becf"  d="M 320.3145189861938 545.1597852796408 L 320.3145189861938 545.1597852796408 337.894866990731 530.1017694778841 334.93552584938425 506.346847008128 330.02131100801586 482.91813526318003 327.0619698666691 459.163212793424 322.59368238518266 435.3965155726289 318.6478957485359 411.75071261377263 330.71279624538244 393.9995535789616 324.40629706244295 371.0931145784366 316.7874000958602 348.900025900512 317.6289081083736 322.6496216006735 326.28419029786255 288.4706851837187 334.32577907525933 277.5738492536213 339.1045888272569 264.0016900436587 340.06570024630366 248.52358727119656 336.77818197836916 232.0398721785797 328.9937048483608 215.54422305177138 316.6734126692792 200.0817157806268 299.50452392716596 66.79922863643927 279.68548101380617 54.84021472035923" />
	<path id="line11" style="stroke:#1f77b4" stroke-dasharray='6,2' d="M 279.6854810138063 545.1597852796408 L 279.6854810138063 545.1597852796408 262.105133009269 530.1017694778841 265.0644741506158 506.346847008128 269.9786889919842 482.91813526318003 272.938030133331 459.163212793424 277.4063176148174 435.3965155726289 281.35210425146414 411.75071261377263 269.28720375461756 393.9995535789615 275.59370293755705 371.0931145784366 283.2125999041398 348.90002590051193 290.93480394823547 326.40601398627643 273.7158097021374 288.47068518371873 265.67422092474067 277.57384925362135 260.8954111727431 264.0016900436587 259.93429975369634 248.52358727119656 263.2218180216308 232.03987217857974 271.0062951516392 215.5442230517714 283.3265873307208 200.08171578062684 300.4954760728339 66.79922863643927 320.3145189861938 54.84021472035923" />
	<path id="line12" style="stroke:#ff7f0e" stroke-dasharray='6,2' d="M 239.61057016336346 538.4724654210753 L 239.61057016336346 538.4724654210753 261.1276961592582 529.93866411548 299.504523927166 521.2417574474807 333.95808899937344 506.5099523705321 363.60228045504664 486.7930664846972 387.7880949977035 463.25922240251305 406.1169862475807 437.14579154017065 418.44461174948094 409.70940008633715 424.9458358339439 381.6311887168184 425.7069970767341 355.1402012952584 436.7998393299962 311.3355578697688 448.7387343987958 287.67515707977867 456.38482996826565 259.88686654490937 458.60128591143734 229.88997921346987 454.91012651063784 198.20031420845524 444.8402092078794 165.99174069313247 428.1531213830477 134.54218145898744 404.8636794876605 105.18786110897031 375.25153686733427 79.27380884860375 360.3894298366365 61.5275345789247" />
	<path id="line13" style="stroke:#2ca02c" stroke-dasharray='6,2' d="M 201.18292553536952 525.2802383571441 L 201.18292553536952 525.2802383571441 189.44445901568696 505.32977772053516 211.34038860147973 462.78758131215795 223.59562799560126 442.22394474350205 234.66732890799005 420.72420221693284 246.07710161066166 399.6407889111049 266.500990878717 393.0430454904967 300.0 389.29397057339764 324.40629706244295 371.0931145784366 340.06570024630366 351.47641272880344 339.1045888272569 335.9983099563413 363.2349342033826 283.98673987138636 370.7651277250146 268.95953703308874 374.75391887500916 251.16082726344197 374.52874576488966 231.39145631850243 369.58779516463267 210.5935989447098 359.62902520302487 189.81521226232312 367.4853659258091 101.89589195973639 376.18879649240733 79.5955704843094 398.8170744646303 74.71976164285579" />
	<path id="line14" style="stroke:#d62728" stroke-dasharray='6,2' d="M 165.45075310188295 505.942953652582 L 165.45075310188295 505.942953652582 188.57294261487024 504.85813663017996 235.4604599198804 486.4713048489916 269.0012521419734 482.75502990077604 299.504523927166 473.40570178316057 326.08453301665827 459.32631815582806 348.4609066751175 441.16179861346774 365.3326710920099 420.7242022169329 376.951583012742 398.86739587595576 383.3545182896793 376.73323964378017 384.80486595064065 355.40578419693554 400.9538921258795 291.6347219998498 409.82909624798026 272.187495566092 414.73257669701917 249.67362580194663 414.91673864325935 224.92114750125393 409.8056854269375 198.91674564259358 413.46236462606964 153.41686612621538 428.9351218640676 135.15083686452385 442.8438781400257 115.66749679175953 434.54924689811696 94.0570463474179" />
	<path id="line15" style="stroke:#9467bd" stroke-dasharray='6,2' d="M 133.38873338006775 480.9880820255904 L 133.38873338006775 480.9880820255904 128.76419333372223 458.30711852739796 115.0548167985103 421.4225676946261 108.54347621623444 384.52166430688163 108.83595621987388 348.92042652582813 115.30931487333862 315.8010806669505 151.26126560120417 287.67515707977867 166.9317036763601 266.30253085978694 185.26742330298077 249.67362580194674 205.15245255520455 238.0330045165853 225.47125423511028 231.39145631850243 245.15450810728208 229.53451057568242 263.2218180216308 232.03987217857974 300.00000000000006 224.8341947640888 328.9937048483608 215.54422305177138 336.7871255124878 192.8427642104242 368.4226255508821 102.21765359544204 405.7351958884773 105.65950219932549 443.62587862104556 116.27615219729594 466.6112666199324 119.01191797440961" />
	<path id="line16" style="stroke:#8c564b" stroke-dasharray='6,2' d="M 105.8714346884872 451.09632732165835 L 105.8714346884872 451.09632732165835 128.0930397070983 457.57805133949716 146.36125830598783 442.1078790470443 180.88423462389517 408.98033289843636 199.00814885482342 392.9695483220293 216.64548171032078 376.73323964378017 234.30429077020838 360.47716072665344 260.8954111727431 335.9983099563413 266.61053869728596 308.4553599387795 273.7158097021374 288.47068518371873 300.0 282.3106738745376 334.32577907525933 277.5738492536213 354.60919398336705 264.32203290348843 374.75391887500916 251.16082726344197 394.8475474447954 238.0330045165852 414.91673864325935 224.92114750125393 434.8867553834032 211.28223547717616 455.4521259614984 199.0299061263708 494.95686876510695 172.03647167101346 494.12856531151294 148.9036726783418" />
	<path id="line17" style="stroke:#e377c2" stroke-dasharray='6,2' d="M 83.6494572032037 417.0830586871201 L 83.6494572032037 417.0830586871201 86.63998430134896 394.12942665378273 108.14541527326958 383.6141767638873 130.4469681311199 374.91390195998054 174.2930029232659 355.1402012952584 181.95473242037173 331.41252794044686 199.04610787412045 291.6347219998498 213.4384011793696 278.07962613505333 229.23487227498532 268.95953703308885 245.39080601663292 264.3220329034885 260.8954111727431 264.0016900436587 300.00000000000006 255.3511211593318 340.06570024630366 248.52358727119656 354.8454918927179 229.53451057568242 369.58779516463267 210.5935989447098 384.3121692139608 191.67572277938754 414.24436510708955 154.02552153175176 445.5113628345033 166.7208078810333 495.4988682159676 172.86606358892902 516.3505427967963 182.91694131287974" />
	<path id="line18" style="stroke:#7f7f7f" stroke-dasharray='6,2' d="M 67.32895854164383 379.87606942435207 L 67.32895854164383 379.87606942435207 86.2419233583841 393.2219391107884 114.51281734764976 420.59297577671055 145.6901046793639 441.3788118591436 193.10101327139944 436.53713613463424 222.72411159478452 441.7523036531469 251.53909332488266 441.1617986134678 277.4063176148174 435.3965155726289 300.0 425.2849076922671 318.6478957485359 411.75071261377263 353.92289838933834 399.6407889111049 376.951583012742 398.86739587595576 400.9918511451766 392.9695483220293 424.9458358339439 381.6311887168184 469.95109281184494 374.0064144169862 491.4073081503386 347.9597972522845 508.6088529470777 316.78864820863487 520.4451885879104 281.23621670799633 525.9432575919865 242.2722804034343 532.6710414583562 220.1239305756478" />
	<path id="line19" style="stroke:#bcbd22" stroke-dasharray='6,2' d="M 57.35511936293031 340.49026920906056 L 57.35511936293031 340.49026920906056 91.47297923250596 317.7762157503193 115.22748269375495 314.81351312526607 163.20016067000378 311.3355578697688 181.23157492761067 328.5568435822244 215.1951340493594 355.4057841969356 234.30429077020838 360.47716072665344 259.93429975369634 351.47641272880344 283.2125999041398 348.90002590051193 300.0 341.00233342656014 317.6289081083736 322.6496216006735 333.38946130271404 308.4553599387795 363.2349342033826 283.98673987138636 386.56159882063037 278.0796261350533 409.82909624798026 272.187495566092 433.0682963236399 266.3025308597869 456.6280943384782 260.847495818453 502.7571150507462 248.1438091172593 526.1865219621991 243.232909676978 542.6448806370697 259.5097307909395" />

	<text text-anchor='middle' dominant-baseline='middle' x='552.15' y='300.0'>1</text>
	<text text-anchor='middle' dominant-baseline='middle' x='548.7110026529964' y='341.50252593928707'>2</text>
	<text text-anchor='middle' dominant-baseline='middle' x='538.4878174948151' y='381.8729711599609'>3</text>
	<text text-anchor='middle' dominant-baseline='middle' x='521.7593063667161' y='420.0101351542981'>4</text>
	<text text-anchor='middle' dominant-baseline='middle' x='498.9817794443006' y='454.87373550469977'>5</text>
	<text text-anchor='middle' dominant-baseline='middle' x='470.77654828543064' y='485.5127840762301'>6</text>
	<text text-anchor='middle' dominant-baseline='middle' x='437.9129780705699' y='511.0915274938966'>7</text>
	<text text-anchor='middle' dominant-baseline='middle' x='401.2875013262463' y='530.9122443160727'>8</text>
	<text text-anchor='middle' dominant-baseline='middle' x='361.89916558255254' y='544.4342770566021'>9</text>
	<text text-anchor='middle' dominant-baseline='middle' x='320.8223819608486' y='551.2887799116318'>10</text>
	<text text-anchor='middle' dominant-baseline='middle' x='279.1776180391514' y='551.2887799116318'>11</text>
	<text text-anchor='middle' dominant-baseline='middle' x='238.10083441744757' y='544.4342770566021'>12</text>
	<text text-anchor='middle' dominant-baseline='middle' x='198.71249867375377' y='530.9122443160727'>13</text>
	<text text-anchor='middle' dominant-baseline='middle' x='162.08702192943002' y='511.09152749389654'>14</text>
	<text text-anchor='middle' dominant-baseline='middle' x='129.22345171456948' y='485.5127840762301'>15</text>
	<text text-anchor='middle' dominant-baseline='middle' x='101.0182205556994' y='454.87373550469977'>16</text>
	<text text-anchor='middle' dominant-baseline='middle' x='78.2406936332838' y='420.0101351542981'>17</text>
	<text text-anchor='middle' dominant-baseline='middle' x='61.51218250518497' y='381.87297115996085'>18</text>
	<text text-anchor='middle' dominant-baseline='middle' x='51.2889973470036' y='341.50252593928707'>19</text>

	</svg>