<?xml version="1.0" encoding="UTF-8" standalone="no"?>
<!-- Created with LineOrder (https://github.com/zegalur/line-order) -->

<svg
    width="600.0px"
    height="600.0px"
    viewBox="0px 0px 600.0px 600.0px"
    version="1.1"
    id="svg1=-body"
    xml:space="preserve"
    xmlns="http://www.w3.org/2000/svg"
    xmlns:svg="http://www.w3.org/2000/svg">

    <style>
path { fill: none; stroke-width:1.5px }
    </style>

    <rect width="100%" height="100%" fill="white"/>
    
    
    <text x='20' y='30'>(20 pseudolines)</text>
    <text x='20' y='45'>by Kyle Wood</text>

    	<path id="line1" style="stroke:#1f77b4"  d="M 544.8 300.0 L 544.8 300.0 505.1589847319899 315.76859407605525 490.86041029632463 345.43422553605023 416.138571907156 327.88240422480686 399.60694572127716 340.04568650735985 376.23936699966373 365.1145708263736 358.8835114171512 368.9437337939543 342.3573764590901 369.1209562371155 327.3461885890635 366.0195393709294 314.43615603355386 360.1309174075512 276.33502910561816 357.1322936863812 262.6627570471724 360.92884290530924 247.35121332113536 361.6438090393003 231.0562662060457 358.8835114171513 214.51310306653045 352.38643781646726 195.35485552285417 323.9706983862481 180.92951764498886 309.37105019377003 104.38191930286678 315.0177086438622 94.90011123315344 283.48052049175163 58.21389422231027 261.7048429581515" />
	<path id="line2" style="stroke:#ff7f0e"  d="M 541.7861057776897 338.29515704184854 L 541.7861057776897 338.29515704184854 528.0843115486182 354.37089355682167 507.9288309475975 385.7193089232399 483.7993148763903 412.19067381333116 456.70855814959845 433.3464861856892 427.7037477636814 448.94199500359895 397.83131779632413 458.9254264659741 368.1030018902421 463.43107801388044 339.4641206612783 462.76665160046446 312.76505234728285 457.3953685925633 262.7700463439146 453.46067628739115 235.55943408150745 454.5891754195595 207.1692058134296 450.7653135768702 178.5117339970179 441.6646008809038 150.56883597309675 427.1310044249899 124.36079801271364 407.19015020357745 100.91307164672338 382.0568729514904 81.2216637644552 352.13672655162884 66.21830316344011 318.0212503726346 55.19999999999999 300.00000000000006" />
	<path id="line3" style="stroke:#2ca02c"  d="M 532.8186351890536 375.6473602229871 L 532.8186351890536 375.6473602229871 527.9084787919783 355.10328969762827 509.47236092247147 349.90255954643595 490.6845775396847 346.16662167685683 428.625521062512 310.1230480488256 419.0704823550111 290.62894980623 406.8164122891903 274.3556482882211 392.6294557500285 261.63162315309967 369.1209562371155 257.6426235409099 354.337876116124 253.5910695201119 326.6728346692041 235.60608079467215 306.36044130798865 219.18293052827298 278.20845601250176 214.03168683895836 247.61356218353268 214.51310306653045 222.43078762647275 209.1781213487642 201.8899459014428 216.2060977446465 181.8190547095295 227.57862358287753 162.8063898069697 243.5801788507567 127.75154032982215 259.03410847433554 109.31542246031526 253.8333783231432 67.18136481094638 224.352639777013" />
	<path id="line4" style="stroke:#d62728"  d="M 518.1183971213125 411.136874336241 L 518.1183971213125 411.136874336241 507.640590985485 386.41518174899 509.29652816583155 350.6349556872426 505.09988876684656 316.51947950824837 495.6180806971332 284.9822913561378 481.5544349832512 256.7999414691426 463.719317975993 232.5928709355079 442.9987504308707 212.8119442354373 420.32158753612254 197.7309226178073 396.6263389601849 187.4449756098769 372.4213764171225 181.8190547095295 332.3569014545172 165.22380581066113 311.2632814828966 152.0864394771501 287.23494765271715 142.60463140743676 260.53587933872166 137.23334839953552 231.89699810975787 136.5689219861196 202.16868220367587 141.0745735340259 159.86528871491996 136.5032167510107 128.73665360501116 154.22255029291227 99.8804593454019 177.8082789671615 81.88160287868754 188.86312566375898" />
	<path id="line5" style="stroke:#9467bd"  d="M 498.0473602229871 443.88982976119746 L 498.0473602229871 443.88982976119746 483.40576513328585 412.83288862558516 467.4790890981825 402.18962659382373 398.1100540985572 383.79390225535354 377.56921237352725 390.8218786512358 358.8835114171512 368.9437337939543 346.4089304798881 354.337876116124 333.90262778563255 339.6948770328828 321.31022317954046 324.9510655635263 298.6254159871403 317.4657458944684 272.0224700945009 282.8553476237016 255.49029333216046 272.72441667407077 239.07115709469076 262.6627570471724 214.51310306653045 247.61356218353274 198.16179114398318 237.59346535027387 181.8190547095295 227.57862358287753 165.1613624582332 217.81246784519107 149.2346864231298 207.16920581342964 116.2006851236097 187.8093261866689 100.27400908850632 177.16606415490747 101.95263977701288 156.11017023880257" />
	<path id="line6" style="stroke:#8c564b"  d="M 473.09974003446683 473.09974003446683 L 473.09974003446683 473.09974003446683 456.2193891262941 433.91922952438074 467.085539355078 402.8318414060778 401.8382088560169 362.40653464972615 398.74932325942024 342.11617028617064 390.3875119091684 307.11365146288205 380.817069471727 293.6395586920113 360.1309174075512 285.56384396644614 348.22855960538675 280.0230765177296 320.59629780085714 266.3898966850643 304.0957387210533 247.9587052644182 278.0688112173526 247.053426601968 253.5910695201119 245.66212388387603 241.11648858284875 231.05626620604568 222.43078762647275 209.1781213487642 209.98267794849286 194.6032575333802 197.73092261780732 179.67841246387746 184.72721575771715 165.6127932417914 160.4380320536115 136.01404772770638 147.43432519352135 121.94842850562037 126.90025996553311 126.90025996553317" />
	<path id="line7" style="stroke:#e377c2"  d="M 443.88982976119746 498.0473602229871 L 443.88982976119746 498.0473602229871 427.1310044249899 449.4311640269033 415.2727842422828 434.3872067582086 377.8292233573093 426.28497490955846 353.04217614258005 428.05514102119923 327.3461885890635 366.0195393709294 319.9769234822704 348.22855960538675 296.90723188555523 339.29734486364845 272.37563661911423 332.3439738786452 260.30512296711726 333.90262778563255 247.27311671655934 332.31107563225464 224.69970796721606 304.0837010330009 202.50883005351676 276.59444089797967 183.86142809284397 272.1175957751932 165.2238058106611 267.6430985454828 127.92737308646207 258.30171233352894 127.72701939179865 228.23456213800836 116.59423486671415 187.16711137441484 129.2258226283155 153.64980695422074 148.0070685322129 121.45925948231604 156.11017023880254 101.95263977701288" />
	<path id="line8" style="stroke:#7f7f7f"  d="M 411.136874336241 518.1183971213125 L 411.136874336241 518.1183971213125 397.18910298407 459.3189762090785 414.70004090359123 434.87637578151293 390.0173220515071 405.3967424666198 377.56921237352725 390.8218786512358 376.23936699966373 365.1145708263736 390.3875119091684 307.11365146288205 399.9523279842126 292.1335811865484 406.8164122891903 274.3556482882211 410.3469443771248 254.2927990725653 410.01041080125276 232.58553355739457 405.3967424666198 209.9826779484929 396.05359562149334 186.95580658657258 382.18753215480893 165.16136245823319 363.74469309274247 145.1225846183279 340.96589152566446 127.75154032982215 314.266823211669 113.92282333772343 284.2314059239447 104.44101526801012 251.59921131795025 100.00944714724187 209.92238227926043 83.5175064201942 188.86312566375892 81.88160287868757" />
	<path id="line9" style="stroke:#bcbd22"  d="M 375.6473602229871 532.8186351890536 L 375.6473602229871 532.8186351890536 367.40712906449204 463.719317975993 360.778129946743 445.7472728252386 353.04217614258005 428.05514102119923 342.3573764590901 369.1209562371155 346.4089304798881 354.337876116124 352.946573398032 321.9311887826474 360.1309174075512 285.56384396644614 366.0195393709294 272.6538114109365 369.1209562371155 257.6426235409099 368.94373379395427 241.11648858284875 365.11457082637355 223.7606330003362 340.04568650735985 200.39305427872284 309.37105019377 180.92951764498886 269.49183841750244 177.72436157454166 246.95782385741995 171.9448589788007 239.221870053257 154.25272717476142 232.5928709355079 136.280682024007 224.5721261662587 118.88511679747779 210.61825510501046 83.22926645808161 224.35263977701283 67.18136481094643" />
	<path id="line10" style="stroke:#17becf"  d="M 338.29515704184854 541.7861057776897 L 338.29515704184854 541.7861057776897 338.7317245204717 462.94248435710443 360.0822571209929 446.0355127873512 377.1870085450553 426.6785246526629 390.0173220515071 405.3967424666198 398.1100540985572 383.79390225535354 401.8382088560169 362.40653464972615 416.138571907156 327.88240422480686 428.625521062512 310.1230480488256 438.178610159993 289.125107533755 444.15470097431773 265.0042133491074 445.7472728252386 239.221870053257 442.6052006877663 212.16972942318327 434.38720675820855 184.72721575771715 420.9155226642905 157.84623009579187 402.18962659382373 132.52091090181753 378.3944369797407 109.75497424104427 349.9025595464359 90.52763907752853 317.2703649404414 75.75920719829676 281.22786419517223 66.27739912858345 261.70484295815146 58.2138942223103" />
	<path id="line11" style="stroke:#1f77b4" stroke-dasharray='6,2' d="M 300.0 544.8 L 300.0 544.8 312.01416691508973 457.4544645577066 289.76494332009355 444.33053373095765 276.33502910561816 357.1322936863812 272.72441667407077 344.5097066678395 272.37563661911423 332.3439738786452 275.0489344364737 321.31022317954046 272.0224700945009 282.8553476237016 267.6560261213548 272.37563661911423 278.0688112173526 247.053426601968 283.7289804893346 232.2263261730889 280.38761041125156 213.50851815506252 273.8501472150021 195.87802420675 271.67099281625224 177.20119289064584 289.12510753375494 161.821389840007 287.98583308491027 142.5455354422934 285.7331767883309 123.52282333772342 284.9822913561378 104.38191930286678 282.72963505955846 85.35920719829682 281.97874962736535 66.21830316344011 299.99999999999994 55.19999999999999" />
	<path id="line12" style="stroke:#ff7f0e" stroke-dasharray='6,2' d="M 261.7048429581516 541.7861057776897 L 261.7048429581516 541.7861057776897 263.50244248472126 453.6365090440311 287.53077631490066 444.15470097431773 314.43615603355386 360.1309174075512 319.9769234822704 348.22855960538675 322.2245493766831 336.2671683960174 321.31022317954046 324.9510655635263 318.22613729283376 278.659935058778 320.59629780085714 266.3898966850643 329.94384834124617 251.13608056520886 326.6728346692041 235.60608079467215 332.9011772209659 217.64142549443562 342.1161702861706 201.25067674057976 347.1901957937538 183.14468306301 332.3569014545172 165.22380581066113 336.49755751527874 146.36349095596896 341.6982876664711 127.9273730864621 345.4342255360502 109.13958970367534 350.63495568724255 90.70347183416845 354.3708935568216 71.91568845138175 338.2951570418485 58.21389422231027" />
	<path id="line13" style="stroke:#2ca02c" stroke-dasharray='6,2' d="M 224.35263977701288 532.8186351890536 L 224.35263977701288 532.8186351890536 236.25530690725753 454.8774153816721 217.81246784519107 434.8386375417668 203.94640437850666 413.04419341342737 194.6032575333802 390.0173220515071 189.98958919874724 367.41446644260543 189.65305562287514 345.7072009274347 180.92951764498886 309.37105019377003 171.37447893748796 289.8769519511744 165.2238058106611 267.6430985454828 163.09462976908225 242.88430602500665 165.55491220133763 217.170253032937 172.89018736448656 190.94269751841648 185.2999590964087 165.1236242184871 202.81089701592992 140.68102379092147 225.26799899200878 118.59687683536521 252.33160745875688 99.83361439060195 283.4805204917516 85.30011123315347 318.02125037263454 75.8183031634401 355.10328969762827 72.09152120802167 375.6473602229871 67.18136481094638" />
	<path id="line14" style="stroke:#d62728" stroke-dasharray='6,2' d="M 188.86312566375895 518.1183971213125 L 188.86312566375895 518.1183971213125 207.81142062568364 451.15886331997467 217.170253032937 434.44508779866237 227.5786235828775 418.1809452904705 247.35121332113536 361.6438090393003 245.662123883876 346.4089304798881 247.27311671655934 332.31107563225464 242.86770631361878 276.33502910561816 239.07115709469076 262.6627570471724 238.35619096069968 247.35121332113536 241.11648858284875 231.05626620604568 247.61356218353268 214.51310306653045 276.0293016137519 195.35485552285417 309.37105019377 180.92951764498886 349.2606795725646 184.00230552486693 372.4213764171225 181.8190547095295 382.829746967063 165.55491220133763 392.1885793743163 148.84113668002536 402.83184140607773 132.91446064492197 422.1917210328385 99.88045934540185 411.136874336241 81.88160287868754" />
	<path id="line15" style="stroke:#9467bd" stroke-dasharray='6,2' d="M 156.11017023880257 498.0473602229871 L 156.11017023880257 498.0473602229871 179.08447733570947 442.15376990420816 165.6127932417914 415.27278424228285 194.6032575333802 390.0173220515071 209.1781213487642 377.56921237352725 214.51310306653045 352.38643781646726 214.03168683895836 321.79154398749824 202.50883005351676 276.59444089797967 198.51033543909918 257.9616044981789 198.16179114398318 237.59346535027387 201.8899459014428 216.2060977446465 209.98267794849286 194.6032575333802 222.81299145494472 173.32147534733713 239.91774287900708 153.96448721264883 261.2682754795283 137.0575156428956 286.48406222052404 123.46372737258008 315.01770864386214 113.98191930286677 346.16662167685683 109.31542246031529 379.09030980549085 110.04321420315685 422.8339358450925 100.27400908850629 443.88982976119735 101.95263977701279" />
	<path id="line16" style="stroke:#8c564b" stroke-dasharray='6,2' d="M 126.90025996553317 473.09974003446683 L 126.90025996553317 473.09974003446683 151.05800499640105 427.7037477636814 165.1236242184871 414.70004090359123 203.3736610398151 412.5550243901231 227.5786235828775 418.1809452904705 262.6627570471724 360.92884290530924 272.72441667407077 344.5097066678395 296.90723188555523 339.29734486364845 322.2245493766831 336.2671683960174 333.90262778563255 339.6948770328828 352.946573398032 321.9311887826474 380.817069471727 293.6395586920113 399.9523279842126 292.1335811865484 419.0704823550111 290.62894980623 438.178610159993 289.125107533755 476.4771766622766 285.7331767883309 481.3786022266113 256.06754532833594 498.79868839116403 217.24725422275952 491.5658780223897 182.16658776466107 478.0515714943796 147.43432519352135 473.0997400344668 126.90025996553311" />
	<path id="line17" style="stroke:#e377c2" stroke-dasharray='6,2' d="M 101.95263977701288 443.88982976119746 L 101.95263977701288 443.88982976119746 124.75434775581809 407.8323650158315 118.88511679747779 375.4278738337413 189.65305562287514 345.7072009274347 195.87802420675 326.1498527849979 213.50851815506252 319.61238958874844 224.9879479293286 307.74613700475044 242.86770631361878 276.33502910561816 255.49029333216046 272.72441667407077 267.6560261213548 272.37563661911423 304.0957387210533 247.9587052644182 329.94384834124617 251.13608056520886 354.337876116124 253.5910695201119 368.94373379395427 241.11648858284875 390.8218786512358 222.4307876264727 405.3967424666198 209.9826779484929 419.8324185128182 197.15817927911576 434.87637578151293 185.2999590964087 463.4967832489893 159.86528871491993 478.54074051768396 148.00706853221288 498.0473602229871 156.11017023880254" />
	<path id="line18" style="stroke:#7f7f7f" stroke-dasharray='6,2' d="M 81.88160287868757 411.1368743362411 L 81.88160287868757 411.1368743362411 101.20131160883597 382.7527457772404 118.59687683536521 374.73200100799124 189.98958919874724 367.41446644260543 209.1781213487642 377.56921237352725 231.0562662060457 358.8835114171513 245.662123883876 346.4089304798881 260.30512296711726 333.90262778563255 275.0489344364737 321.31022317954046 298.6254159871403 317.4657458944684 318.22613729283376 278.659935058778 348.22855960538675 280.0230765177296 366.0195393709294 272.6538114109365 392.6294557500285 261.63162315309967 410.3469443771248 254.2927990725653 428.0551410211993 246.95782385742 446.0355127873512 239.91774287900705 463.43107801388044 231.89699810975782 499.0869283532766 217.9431270485096 516.4824935798058 209.92238227926038 518.1183971213125 188.86312566375886" />
	<path id="line19" style="stroke:#bcbd22" stroke-dasharray='6,2' d="M 67.18136481094643 375.6473602229872 L 67.18136481094643 375.6473602229872 81.39749652109512 352.86912269243544 85.35920719829682 317.27036494044154 94.8410152680101 284.23140592394475 109.13958970367534 254.56577446394982 127.43877942968606 228.93043496375844 148.84113668002536 207.8114206256837 172.40101834118224 191.51544085710805 197.15817927911576 180.16758148718176 222.17077664269067 173.71502509044154 246.95782385741995 171.9448589788007 289.12510753375494 161.821389840007 312.01416691508973 152.14553544229344 337.2299536560854 146.53932371260888 364.4405659184925 145.41082458044048 392.83079418657036 149.2346864231298 421.4882660029821 158.3353991190962 463.9859522722936 160.4380320536115 491.9594277654942 182.80880257691513 516.7707335419184 210.61825510501046 532.8186351890536 224.3526397770128" />
	<path id="line20" style="stroke:#17becf" stroke-dasharray='6,2' d="M 58.2138942223103 338.29515704184854 L 58.2138942223103 338.29515704184854 66.27739912858345 318.7721358048277 85.30011123315347 316.5194795082484 104.44101526801012 315.7685940760553 171.37447893748796 289.8769519511744 183.86142809284397 272.1175957751932 198.51033543909918 257.9616044981789 214.51310306653045 247.61356218353274 238.35619096069968 247.35121332113536 253.5910695201119 245.66212388387603 283.7289804893346 232.2263261730889 306.36044130798865 219.18293052827298 334.97166099977665 218.49904795629254 365.11457082637355 223.7606330003362 390.8218786512358 222.4307876264727 410.01041080125276 232.58553355739457 428.0551410211993 246.95782385742 444.33053373095765 265.73660948991403 476.5362726274199 286.48406222052404 495.5589847319899 284.2314059239447 541.7861057776897 261.7048429581514" />

	<text text-anchor='middle' dominant-baseline='middle' x='550.92' y='300.0'>1</text>
	<text text-anchor='middle' dominant-baseline='middle' x='547.830758422132' y='339.25253596789474'>2</text>
	<text text-anchor='middle' dominant-baseline='middle' x='538.6391010687798' y='377.5385442285618'>3</text>
	<text text-anchor='middle' dominant-baseline='middle' x='523.5713570493452' y='413.91529619464706'>4</text>
	<text text-anchor='middle' dominant-baseline='middle' x='502.99854422856174' y='447.4870755052274'>5</text>
	<text text-anchor='middle' dominant-baseline='middle' x='477.42723353532847' y='477.42723353532847'>6</text>
	<text text-anchor='middle' dominant-baseline='middle' x='447.4870755052274' y='502.99854422856174'>7</text>
	<text text-anchor='middle' dominant-baseline='middle' x='413.91529619464706' y='523.5713570493452'>8</text>
	<text text-anchor='middle' dominant-baseline='middle' x='377.5385442285618' y='538.6391010687798'>9</text>
	<text text-anchor='middle' dominant-baseline='middle' x='339.25253596789474' y='547.830758422132'>10</text>
	<text text-anchor='middle' dominant-baseline='middle' x='300.0' y='550.92'>11</text>
	<text text-anchor='middle' dominant-baseline='middle' x='260.7474640321053' y='547.830758422132'>12</text>
	<text text-anchor='middle' dominant-baseline='middle' x='222.46145577143824' y='538.63910106878'>13</text>
	<text text-anchor='middle' dominant-baseline='middle' x='186.08470380535294' y='523.5713570493452'>14</text>
	<text text-anchor='middle' dominant-baseline='middle' x='152.51292449477265' y='502.99854422856174'>15</text>
	<text text-anchor='middle' dominant-baseline='middle' x='122.57276646467153' y='477.42723353532847'>16</text>
	<text text-anchor='middle' dominant-baseline='middle' x='97.00145577143823' y='447.4870755052274'>17</text>
	<text text-anchor='middle' dominant-baseline='middle' x='76.42864295065479' y='413.9152961946471'>18</text>
	<text text-anchor='middle' dominant-baseline='middle' x='61.360898931220106' y='377.5385442285618'>19</text>
	<text text-anchor='middle' dominant-baseline='middle' x='52.16924157786809' y='339.25253596789474'>20</text>

	</svg>