<?xml version="1.0" encoding="UTF-8" standalone="no"?>
<!-- Created with LineOrder (https://github.com/zegalur/line-order) -->

<svg
    width="600.0px"
    height="600.0px"
    viewBox="0px 0px 600.0px 600.0px"
    version="1.1"
    id="svg1=-body"
    xml:space="preserve"
    xmlns="http://www.w3.org/2000/svg"
    xmlns:svg="http://www.w3.org/2000/svg">

    <style>
path { fill: none; stroke-width:1.5px }
    </style>

    <rect width="100%" height="100%" fill="white"/>
    
    
    <text x='20' y='30'>(24 pseudolines)</text>
    <text x='20' y='45'>by Pavlo Savchuk (2025)</text>

    	<path id="line1" style="stroke:#1f77b4"  d="M 543.6363636363636 300.0 L 543.6363636363636 300.0 528.126511645775 314.7138616684422 502.90117860339785 340.1170648627348 489.05698368690423 363.92503976992003 472.5869377316369 384.84528245039064 454.00179638427744 402.6146753644291 433.8341682027565 417.0530853588915 412.62572951155533 428.0643257279111 390.91459224436574 435.6352207634766 369.223098471516 439.83283296725335 336.11978758761916 406.405463017498 320.5047021536653 403.0840989113992 314.83219951705036 374.5665023871573 296.88741658087054 365.3606329290628 272.8114621902518 355.1329007115689 254.66865495978024 351.69049222315806 242.839614419894 350.12831276934355 230.73897416031969 346.27873790645094 218.7708596182885 340.05777903969573 207.35499655174016 331.44874098292394 139.80509094561037 331.6222596847879 129.80642977600857 310.9167360765862 79.14621562695228 285.2861383315578 64.63187067650205 284.8114976325758 56.363636363636346 300.00000000000006" />
	<path id="line2" style="stroke:#ff7f0e"  d="M 541.5520207710738 331.80092683179436 L 541.5520207710738 331.80092683179436 531.3720249694034 345.7802683146995 516.5450616330911 373.25598489672166 498.62191862321106 397.68431419388287 478.1382144799236 418.7421143318287 455.65904269697876 436.1929865980954 431.7656307507592 449.88920022213335 407.04203121176533 459.77163885912273 382.0621302150082 465.8678138588275 357.3772468785009 468.2880296135266 333.5045800128061 467.2198241546738 310.9167360765862 462.92084295126415 290.0325453213779 455.71033486854554 247.28822568489994 454.5439906404331 224.35738565673796 452.8503234130405 201.0216882719345 447.70342981129966 177.80431986884273 438.9767629750222 155.2533945501324 426.6230359784935 133.9299945678995 410.67839484812896 114.39557182257596 391.26479832213676 97.1989773400023 368.5905123333209 82.86339821359937 342.94866658871723 71.87348835422497 314.71386166844223 64.66298027150637 284.3368569335938 58.44797922892616 268.1990731682056" />
	<path id="line3" style="stroke:#2ca02c"  d="M 535.3346558595184 363.05773098861414 L 535.3346558595184 363.05773098861414 531.2792284781862 346.2467877797267 528.0954020507706 315.1885023674242 499.1600409348832 312.8152988725142 484.645695984433 312.3406581735321 470.1935702239914 310.9167360765861 455.6792252735412 310.4420953776041 433.8720673395269 291.22556113233264 424.45827125710974 275.2437106242686 413.28420002064934 261.54519584106 392.3224517744684 239.16532132494675 369.29964241780715 220.97890269333305 354.35544244568 218.6513316035629 340.0577790396957 218.7708596182885 326.77575558125676 221.1211676326808 295.11265322352494 225.4334976128427 273.2242444187432 221.12116763268082 259.94222096030427 218.7708596182885 245.6445575543199 218.65133160356297 230.70035758219274 220.9789026933331 207.6775482255316 239.16532132494675 172.9605046270818 256.8759022518088 159.20004833266037 251.95369824830073 76.58291888036206 224.41127882157798 64.66534414048155 236.94226901138583" />
	<path id="line4" style="stroke:#d62728"  d="M 525.0906497391135 393.2355998853128 L 525.0906497391135 393.2355998853128 516.3921660193538 373.7064008504037 502.80102265999767 368.5905123333208 488.9040880731668 364.3754557236021 475.3129447138107 359.25956720651925 461.4160101269798 355.0445105968005 447.82486676762375 349.9286220797176 406.405463017498 336.11978758761916 392.64500344825984 331.44874098292394 378.8788323673192 326.7757555812568 345.99136720662426 309.14825173009683 338.8238814081893 297.4553483725791 323.56120966816025 292.00204703417006 312.4265850110076 289.10217742996775 286.25727486285564 295.3349734238076 276.43879033183975 298.4557167302329 262.51625734610866 297.54318570718874 254.00863279337574 303.01443346632936 239.70879593081187 303.9516942919948 218.0999184521255 304.6570734163168 209.6246113820176 294.07648407670456 151.56239240418174 290.0325453213779 147.015599028329 269.3270217131762 76.73581449409943 223.9608628678959 74.9093502608865 206.76440011468725" />
	<path id="line5" style="stroke:#9467bd"  d="M 510.9952801947542 421.81818181818176 L 510.9952801947542 421.81818181818176 498.4115399732953 398.1109198943734 502.6481270462603 369.0409282870029 502.80838211218065 340.58358432776197 499.1289313398789 313.2899395714962 491.91842325716027 287.6593418264678 481.5480438288937 264.1303377262386 468.44092522726396 243.07316907518114 453.06070206295624 224.7839913572285 435.8994828125427 209.48090386112045 417.4655123320897 197.3018405705114 393.48582827235134 193.76054876631116 374.5349206331169 188.4506082606623 356.1249101929802 186.18994067397568 338.4548041589399 186.7157999793506 321.92207787857296 189.79027213159156 306.8741066749118 195.12139915021936 279.4952978463347 196.91590108860075 263.8802124123809 193.59453698250195 247.0876267540927 192.7043211741185 229.50005251393895 194.4893723247468 211.5426185971927 199.13368814832404 193.4469249150214 206.8717911901134 103.7594719483418 169.16230644262163 89.00471980524583 178.18181818181824" />
	<path id="line6" style="stroke:#8c564b"  d="M 493.2897229073191 448.31642088576103 L 493.2897229073191 448.31642088576103 477.8739524308574 419.13761043731495 466.0700054321005 410.67839484812896 453.7375343352112 403.0101714699154 441.93358733645437 394.55095588072936 429.60111623956504 386.88273250251586 417.79716924080816 378.42351691332976 381.34866839643706 354.35544244568007 369.2610258396803 346.27873790645094 344.55571315835834 350.8060535699079 327.18853780974825 355.1329007115689 315.07306520483337 344.4038182207636 297.54318570718874 337.48374265389134 282.3872288718927 326.3593747668337 271.56720538860117 314.0215026118989 262.51625734610866 297.54318570718874 255.59618177923642 284.92693479516663 241.7899525845452 280.2403514961848 228.0074149028436 275.56181038218625 214.2371968078966 270.887451204379 200.4742005396678 266.215543506408 172.9605046270818 256.8759022518088 173.18465747853372 237.1964174002302 104.02373399740799 168.76681033713535 106.71027709268088 151.68357911423897" />
	<path id="line7" style="stroke:#e377c2"  d="M 472.2769248709043 472.2769248709043 L 472.2769248709043 472.2769248709043 455.345418845689 436.5506060605602 465.80574338303427 411.0738909536152 472.3765590817211 385.2718881508812 475.16004910007337 359.70998316020126 474.33753574617515 334.9203808757973 470.1624606289871 311.3913767755681 462.9519525462685 289.5579046223959 453.0771974628882 269.7935411782033 440.95284728107697 252.40411420198274 427.0257211713821 237.62302310072073 400.86631185167596 211.54261859719276 393.12820880988653 193.44692491502138 382.45537665517963 176.1687262352803 368.7964927710253 159.95678838283078 352.26135836141793 145.30311374582948 333.0380605477789 132.687379354109 311.3913767755681 122.56481209828564 287.6593418264678 115.35430401556698 259.41641567223803 97.19161788781938 230.95907171299717 97.3518729537397 201.88908010562653 101.58846002670472 172.79867007898514 110.05783852131958 144.30949270023578 122.82970666008879 127.7230751290956 127.72307512909578" />
	<path id="line8" style="stroke:#7f7f7f"  d="M 448.31642088576103 493.2897229073191 L 448.31642088576103 493.2897229073191 431.40801128829446 450.20282407342313 422.19568013115725 438.9767629750222 412.2681100490905 428.3779495792009 403.05577889195337 417.1518884807999 393.1282088098866 406.55307508497856 368.09360842197356 359.7164918663162 369.2610258396803 346.27873790645094 351.1124147907801 334.1522236956697 338.98959846219765 326.0520167934916 330.019721457103 310.19032229850586 323.56120966816025 292.00204703417006 323.0121944648289 279.8188470925329 302.3269401844941 264.4977533296716 279.26002564512794 257.9434924059186 272.81146219025175 244.86709928843112 266.3739644813299 231.81314528397235 259.94222096030427 218.7708596182885 253.51385058390747 205.73541401326588 247.0876267540927 192.7043211741185 233.9866594643571 166.67591225564018 213.11726749748414 170.39888376043498 153.87944331983775 133.74214390719996 144.66711216270062 122.51608280879901 151.68357911423894 106.71027709268094" />
	<path id="line9" style="stroke:#bcbd22"  d="M 421.81818181818187 510.9952801947541 L 421.81818181818187 510.9952801947541 406.64653510627903 460.0359009081889 421.8380606686925 439.290386826312 433.5205443514667 417.4107048213563 441.6693252873881 394.9464519862156 446.34157819014695 372.432856407389 447.6719711538864 350.3790380333997 417.33439714474997 323.3392627111272 412.1282737195811 307.3492753390762 383.12117682255905 305.4480497622282 374.56650238715724 295.1126532235249 358.21004741545477 280.2403514961848 344.2837496082806 270.4105445047798 330.10455273914584 254.94535288812713 327.1885378097482 244.86709928843115 303.11258341912946 234.63936707093723 295.11265322352494 225.4334976128427 292.99408679063777 203.95729176034 279.4952978463347 196.91590108860075 267.91122085018503 139.8978874368276 244.95548940319955 138.58398987302013 208.30859597737265 114.60595047249183 202.31568580611713 101.37808137678891 195.46956423388042 88.57096958091765 178.18181818181807 89.00471980524588" />
	<path id="line10" style="stroke:#17becf"  d="M 393.2355998853128 525.0906497391135 L 393.2355998853128 525.0906497391135 381.6355245145176 466.0781925087433 375.6426143432621 452.8503234130404 368.7964927710254 440.04321161716916 346.48614941609253 394.2645859867341 340.05777903969573 381.22914038171143 333.62603551867005 368.18685471602765 327.18853780974825 355.1329007115689 317.5077705593076 335.5022466703284 311.0048843515648 322.3156979070636 301.0238536811774 315.6209885349445 286.25727486285564 295.3349734238076 278.7334430675512 275.75013945086414 269.08169799820905 264.74443350933325 259.46844443462703 253.7826187181175 249.87168723065645 242.83961441989402 240.28350813368382 231.90639157802644 230.70035758219274 220.9789026933331 221.12040701418996 210.05506269047783 211.5426185971927 199.13368814832404 201.72919641784756 188.30433014275567 154.2370627823026 133.42852005591018 173.19416618447138 109.79357647225336 195.89616993437102 88.36059093100178 206.76440011468728 74.9093502608865" />
	<path id="line11" style="stroke:#1f77b4" stroke-dasharray='6,2' d="M 363.05773098861414 535.3346558595184 L 363.05773098861414 535.3346558595184 356.92683092481883 468.44092522726396 375.2160086427715 453.06070206295624 390.5190961388795 435.89948281254283 402.69815942948856 417.4655123320897 411.69566985724435 398.27080358215244 417.53290719174197 378.81901301881607 394.2645859867341 346.48614941609253 392.64500344825984 331.44874098292394 388.8290406619372 317.6691947701298 383.12117682255905 305.4480497622282 381.698950441581 283.7490683552317 385.7628031921034 270.887451204379 379.6724685791214 245.91134706415335 369.29964241780715 220.97890269333305 366.4645969565558 200.5287011815794 356.1249101929802 186.18994067397568 347.5958857980171 159.04715271892297 352.7117743151 145.45600935956688 361.5923034882195 117.81503579964252 338.70126399974356 104.2165329881035 314.2392209694601 79.1151060319479 284.81149763257577 71.9045979492293 253.75321222027333 68.72077152181384 236.9422690113859 64.66534414048155" />
	<path id="line12" style="stroke:#ff7f0e" stroke-dasharray='6,2' d="M 331.8009268317944 541.5520207710738 L 331.8009268317944 541.5520207710738 333.03806054777897 467.312620645891 330.6729782868238 452.984400971671 308.29943165077106 426.6248576790412 277.73478211694027 415.5711728006567 263.1575610838919 374.7090756019086 257.7614693710964 363.21442834574 254.66865495978024 351.69049222315806 253.7826187181175 340.53155556537297 254.94535288812716 330.10455273914584 248.68892116711763 317.41776423669637 239.70879593081187 303.9516942919948 232.56904808051326 286.587149719031 228.0074149028436 275.56181038218625 232.1892500659537 253.83709407180163 240.28350813368382 231.90639157802644 245.6445575543199 218.65133160356297 253.51385058390747 205.73541401326588 263.8802124123809 193.59453698250195 268.37774031521224 139.80509094561037 265.07961912420274 125.66246425382485 259.8829351372652 97.09882139660212 256.5848139462557 82.9561947048166 254.2197316853005 68.62797503059664 268.1990731682056 58.44797922892616" />
	<path id="line13" style="stroke:#2ca02c" stroke-dasharray='6,2' d="M 300.0 543.6363636363636 L 300.0 543.6363636363636 310.4420953776041 462.9519525462685 330.2064588217966 453.07719746288825 323.3392627111272 417.33439714474997 320.5047021536653 403.0840989113992 326.7757555812568 378.8788323673192 333.62603551867005 368.18685471602765 344.55571315835834 350.8060535699079 351.1124147907801 334.1522236956697 348.59863099760514 323.9661925878521 345.99136720662426 309.14825173009683 353.1455798832103 296.51665466113053 358.21004741545477 280.2403514961848 356.18708831877706 262.4569878585082 350.1283127693435 242.83961441989396 346.27873790645094 230.73897416031963 340.0577790396957 218.7708596182885 333.784456493592 200.4742005396678 321.92207787857296 189.79027213159156 310.44209537760406 137.04804745373147 311.8660174745501 122.59592169328994 312.3406581735321 108.08157674283973 314.7138616684421 79.14621562695228 315.1885023674241 64.63187067650199 299.99999999999994 56.363636363636346" />
	<path id="line14" style="stroke:#d62728" stroke-dasharray='6,2' d="M 268.1990731682056 541.5520207710738 L 268.1990731682056 541.5520207710738 289.5579046223959 455.6792252735412 272.1684776461753 443.55487509172997 237.6230231007208 427.0257211713821 225.46507936688306 411.5493917393377 216.33128886862295 395.40587993188603 210.05506269047783 378.87959298581006 206.56870414588582 362.4287960028371 205.73541401326588 346.48614941609253 207.35499655174016 331.44874098292394 211.1709593380628 317.6691947701299 209.6246113820176 294.07648407670456 204.0427029886481 280.912906884119 200.4742005396678 266.215543506408 208.46581277580339 237.9856000565051 221.12040701418996 210.05506269047783 229.50005251393895 194.4893723247468 234.41326516484767 166.46553360572437 227.567143592611 153.65842180985308 208.73520167786324 114.39557182257602 231.4094876666792 97.1989773400023 257.0513334112828 82.86339821359937 285.2861383315578 71.87348835422497 315.6631430664061 64.66298027150637 331.8009268317943 58.4479792289261" />
	<path id="line15" style="stroke:#9467bd" stroke-dasharray='6,2' d="M 236.9422690113859 535.3346558595184 L 236.9422690113859 535.3346558595184 247.738641638582 454.6968862541705 270.7769015284841 443.278073391771 274.9516298815578 429.5630239461933 276.343205999249 415.29437110069773 285.42158352894893 373.2906488575728 294.5546802991702 365.2077373153254 296.6368942125072 351.31107883288234 297.54318570718874 337.48374265389134 298.4557167302329 323.5612096681603 301.0238536811774 315.6209885349445 312.4265850110076 289.10217742996775 323.0121944648289 279.8188470925329 333.4561904142512 270.6597084652978 330.10455273914584 254.94535288812713 338.19656597542 242.8347992471538 346.27873790645094 230.73897416031963 354.35544244568 218.6513316035629 366.4645969565558 200.5287011815794 374.5349206331169 188.4506082606623 382.8508727606659 176.43298828434646 414.7102545899788 127.89589004398792 394.4745562580097 107.88682659968242 375.5887211784219 76.582918880362 363.057730988614 64.6653441404815" />
	<path id="line16" style="stroke:#8c564b" stroke-dasharray='6,2' d="M 206.76440011468728 525.0906497391135 L 206.76440011468728 525.0906497391135 224.78399135722856 453.0607020629563 209.48090386112054 435.89948281254283 225.46507936688306 411.5493917393377 233.53540304344418 399.47129881842056 235.49144397157204 373.55791033237887 231.90639157802644 359.7164918663162 230.73897416031969 346.27873790645094 231.81314528397235 333.6260355186701 248.68892116711763 317.41776423669637 254.00863279337574 303.01443346632936 255.59618177923642 284.92693479516663 255.7162503917194 270.4105445047798 259.46844443462703 253.7826187181175 261.80343402457993 242.83479924715382 266.3739644813299 231.81314528397235 273.2242444187432 221.12116763268082 294.4098876536289 203.86449526912278 306.8741066749118 195.12139915021936 310.9167360765861 137.07915704873582 333.50458001280606 132.78017584532623 362.04271944190157 117.96793141337989 366.25777605162034 104.07099682654902 376.039137132104 76.73581449409937 393.23559988531264 74.90935026088644" />
	<path id="line17" style="stroke:#e377c2" stroke-dasharray='6,2' d="M 178.18181818181824 510.9952801947542 L 178.18181818181824 510.9952801947542 201.41718437742077 447.9676918603659 209.08540775563426 435.6352207634766 237.1964174002302 426.8153425214663 273.56005376386656 429.2862222462344 308.29943165077106 426.6248576790412 323.3392627111272 417.33439714474997 336.11978758761916 406.405463017498 346.48614941609253 394.2645859867341 354.35544244568007 381.34866839643706 368.09360842197356 359.7164918663162 381.34866839643706 354.35544244568007 394.2645859867341 346.48614941609253 406.405463017498 336.11978758761916 417.33439714474997 323.3392627111272 426.6248576790412 308.2994316507711 433.8720673395269 291.22556113233264 438.7489777886682 272.1586234391585 440.7999516673396 251.95369824830067 439.83283296725335 230.77690152848402 435.6352207634766 209.0854077556342 466.25785609280007 153.87944331983775 450.54791252749817 127.97230143235444 430.8376935573783 103.75947194834171 421.81818181818187 89.00471980524588" />
	<path id="line18" style="stroke:#7f7f7f" stroke-dasharray='6,2' d="M 151.68357911423897 493.2897229073191 L 151.68357911423897 493.2897229073191 178.1619393313075 439.290386826312 166.47945564853333 417.4107048213563 210.05506269047783 378.87959298581006 220.97890269333305 369.29964241780726 231.90639157802644 359.7164918663162 242.839614419894 350.12831276934355 253.7826187181175 340.53155556537297 264.74443350933325 330.91830200179095 271.56720538860117 314.0215026118989 276.43879033183975 298.4557167302329 278.7334430675512 275.75013945086414 278.00803777172786 267.0867025968462 279.26002564512794 257.9434924059186 282.5822357633037 248.68892116711763 305.4453197008298 234.7922626846746 326.77575558125676 221.1211676326808 333.784456493592 200.4742005396678 338.4548041589399 186.7157999793506 348.0463017516992 159.20004833266037 369.2230984715159 160.16716703274665 415.105750695465 128.16015209305408 422.7739740736785 115.82768099616484 431.23318966286456 104.02373399740793 448.31642088576086 106.71027709268074" />
	<path id="line19" style="stroke:#bcbd22" stroke-dasharray='6,2' d="M 127.72307512909572 472.2769248709043 L 127.72307512909572 472.2769248709043 155.56701840142222 426.9806554409583 166.16583179724358 417.0530853588915 216.33128886862295 395.40587993188603 233.53540304344418 399.47129881842056 249.68239042171334 375.30562445841605 257.7614693710964 363.21442834574 272.8114621902518 355.1329007115689 296.6368942125072 351.31107883288234 315.07306520483337 344.4038182207636 317.5077705593076 335.5022466703284 320.90268024713106 323.83493871180866 330.019721457103 310.19032229850586 338.8238814081893 297.4553483725791 353.1455798832103 296.51665466113053 374.56650238715724 295.1126532235249 381.698950441581 283.7490683552317 410.20972786840844 278.0779221214269 413.28420002064934 261.54519584106 403.39590586927176 230.05985304885678 400.86631185167596 211.54261859719276 417.1518884807999 196.94422110804658 466.57147994408984 154.23706278230262 477.1702933399112 144.30949270023584 472.2769248709043 127.72307512909563" />
	<path id="line20" style="stroke:#17becf" stroke-dasharray='6,2' d="M 106.71027709268091 448.3164208857611 L 106.71027709268091 448.3164208857611 134.1942566169657 411.0738909536152 127.6234409182789 385.27188815088124 124.83995089992666 359.7099831602013 125.66246425382485 334.9203808757974 129.8375393710129 311.3913767755682 137.0480474537315 289.5579046223959 146.92280253711175 269.7935411782034 159.047152718923 252.4041142019828 172.9742788286179 237.6230231007208 193.76054876631116 206.5141717276486 202.08681588031237 187.9907062914659 213.51276360297035 170.1346217113688 227.99374929310156 153.44804315993727 245.40590535688162 138.43109425928276 265.5461385892299 125.5696677626076 288.1339825254498 115.32319442056269 312.8152988725141 108.11268633784405 339.16778346477076 104.30932947932072 366.7081920053024 104.22389244028639 394.9011619585003 108.09720524959823 423.1694701791648 116.091943045231 450.90553198996304 128.28592528364425 477.483917191201 144.66711216270065 493.28972290731906 151.68357911423888" />
	<path id="line21" style="stroke:#1f77b4" stroke-dasharray='6,2,2,2' d="M 89.00471980524583 421.81818181818176 L 89.00471980524583 421.81818181818176 114.60595047249183 391.69140402262735 127.41306226836309 384.84528245039064 140.64093136406598 378.8523722791351 205.73541401326588 346.48614941609253 218.7708596182885 340.05777903969573 231.81314528397235 333.6260355186701 254.94535288812716 330.10455273914584 264.74443350933325 330.91830200179095 282.3872288718927 326.3593747668337 298.4557167302329 323.5612096681603 311.0048843515648 322.3156979070636 320.90268024713106 323.83493871180866 338.98959846219765 326.0520167934916 348.59863099760514 323.9661925878521 378.8788323673192 326.7757555812568 388.8290406619372 317.6691947701298 412.1282737195811 307.3492753390762 426.6248576790412 308.2994316507711 455.71033486854554 309.9674546786221 462.92084295126415 289.0832639234139 467.2198241546737 266.49541998719377 468.2880296135266 242.62275312149907 511.4290304190823 195.46956423388042 510.99528019475406 178.18181818181807" />
	<path id="line22" style="stroke:#ff7f0e" stroke-dasharray='6,2,2,2' d="M 74.9093502608865 393.2355998853128 L 74.9093502608865 393.2355998853128 97.3518729537397 369.04092828700294 97.19161788781938 340.5835843277621 125.56966776260765 334.4538614107702 139.8978874368276 332.088779149815 211.1709593380628 317.6691947701299 218.19271494334276 306.07287427930794 232.56904808051326 286.587149719031 241.7899525845452 280.2403514961848 255.7162503917194 270.4105445047798 269.08169799820905 264.74443350933325 278.00803777172786 267.0867025968462 302.3269401844941 264.4977533296716 333.4561904142512 270.6597084652978 344.2837496082806 270.4105445047798 356.18708831877706 262.4569878585082 367.81074993404627 253.8370940718016 380.4607331293932 247.091068332595 391.5341872241966 237.98560005650506 404.18417041954353 231.23957431729846 426.8153425214663 237.19641740023013 440.04321161716916 231.20350722897462 452.8503234130404 224.3573856567379 511.63940906899813 195.89616993437102 525.0906497391135 206.76440011468725" />
	<path id="line23" style="stroke:#2ca02c" stroke-dasharray='6,2,2,2' d="M 64.66534414048155 363.05773098861425 L 64.66534414048155 363.05773098861425 82.95619470481665 343.4151860537444 97.09882139660212 340.1170648627349 124.68705528618932 359.25956720651925 140.4305527141502 378.4257665786445 206.56870414588582 362.4287960028371 220.97890269333305 369.29964241780726 235.49144397157204 373.55791033237887 249.68239042171334 375.30562445841605 263.1575610838919 374.7090756019086 285.42158352894893 373.2906488575728 314.83219951705036 374.5665023871573 326.7757555812568 378.8788323673192 340.05777903969573 381.22914038171143 354.35544244568007 381.34866839643706 393.48582827235145 406.2394512336888 412.0092937085342 397.91318411968757 429.8653782886313 386.48723639702956 446.55195684006276 372.0062507068984 461.56890574071724 354.5940946431184 474.4303322373924 334.4538614107701 484.6768055794373 311.8660174745501 491.887313662156 287.1847011274858 531.279228478186 253.7532122202732 535.3346558595184 236.94226901138566" />
	<path id="line24" style="stroke:#d62728" stroke-dasharray='6,2,2,2' d="M 58.44797922892616 331.80092683179447 L 58.44797922892616 331.80092683179447 71.9045979492293 315.18850236742423 79.11510603194796 285.7607790305398 137.07915704873582 289.0832639234139 151.5312828091774 290.5071860203599 204.0427029886481 280.912906884119 214.2371968078966 270.887451204379 231.40098551568192 255.01681534024328 249.87168723065645 242.83961441989402 261.80343402457993 242.83479924715382 272.81146219025175 244.86709928843112 282.5822357633037 248.68892116711763 327.1885378097482 244.86709928843115 338.19656597542 242.8347992471538 350.1283127693435 242.83961441989396 368.59901448431805 255.01681534024328 385.7628031921034 270.887451204379 410.20972786840844 278.0779221214269 424.45827125710974 275.2437106242686 438.8417742798855 272.6251429041857 452.984400971671 269.3270217131761 467.312620645891 266.961939452221 481.4552473376765 263.6638182612114 531.3720249694034 254.2197316853004 541.5520207710738 268.1990731682056" />

	<text text-anchor='middle' dominant-baseline='middle' x='549.7272727272727' y='300.0'>1</text>
	<text text-anchor='middle' dominant-baseline='middle' x='547.5908212903507' y='332.59595000258923'>2</text>
	<text text-anchor='middle' dominant-baseline='middle' x='541.2180222560064' y='364.6341742633295'>3</text>
	<text text-anchor='middle' dominant-baseline='middle' x='530.7179159825913' y='395.5664898824456'>4</text>
	<text text-anchor='middle' dominant-baseline='middle' x='516.270162199623' y='424.8636363636363'>5</text>
	<text text-anchor='middle' dominant-baseline='middle' x='498.1219659800021' y='452.02433140790504'>6</text>
	<text text-anchor='middle' dominant-baseline='middle' x='476.5838479926769' y='476.5838479926769'>7</text>
	<text text-anchor='middle' dominant-baseline='middle' x='452.02433140790504' y='498.1219659800021'>8</text>
	<text text-anchor='middle' dominant-baseline='middle' x='424.8636363636364' y='516.270162199623'>9</text>
	<text text-anchor='middle' dominant-baseline='middle' x='395.5664898824456' y='530.7179159825913'>10</text>
	<text text-anchor='middle' dominant-baseline='middle' x='364.6341742633295' y='541.2180222560064'>11</text>
	<text text-anchor='middle' dominant-baseline='middle' x='332.5959500025893' y='547.5908212903507'>12</text>
	<text text-anchor='middle' dominant-baseline='middle' x='300.0' y='549.7272727272727'>13</text>
	<text text-anchor='middle' dominant-baseline='middle' x='267.40404999741077' y='547.5908212903507'>14</text>
	<text text-anchor='middle' dominant-baseline='middle' x='235.36582573667056' y='541.2180222560064'>15</text>
	<text text-anchor='middle' dominant-baseline='middle' x='204.43351011755448' y='530.7179159825913'>16</text>
	<text text-anchor='middle' dominant-baseline='middle' x='175.1363636363637' y='516.270162199623'>17</text>
	<text text-anchor='middle' dominant-baseline='middle' x='147.97566859209496' y='498.1219659800021'>18</text>
	<text text-anchor='middle' dominant-baseline='middle' x='123.41615200732312' y='476.5838479926769'>19</text>
	<text text-anchor='middle' dominant-baseline='middle' x='101.87803401999795' y='452.0243314079051'>20</text>
	<text text-anchor='middle' dominant-baseline='middle' x='83.729837800377' y='424.8636363636363'>21</text>
	<text text-anchor='middle' dominant-baseline='middle' x='69.28208401740869' y='395.56648988244564'>22</text>
	<text text-anchor='middle' dominant-baseline='middle' x='58.78197774399362' y='364.63417426332956'>23</text>
	<text text-anchor='middle' dominant-baseline='middle' x='52.409178709649325' y='332.59595000258935'>24</text>

	</svg>