<?xml version="1.0" encoding="UTF-8" standalone="no"?>
<!-- Created with LineOrder (https://github.com/zegalur/line-order) -->

<svg
    width="600.0px"
    height="600.0px"
    viewBox="0 0 600.0 600.0"
    version="1.1"
    xmlns="http://www.w3.org/2000/svg">

    <style>
path { fill: none; stroke-width:1.5px }
    </style>

    <rect width="100%" height="100%" fill="white"/>
    
    
    <text x='20' y='30'>(27 pseudolines)</text>
    <text x='20' y='45'>by Pavlo Savchuk (2025)</text>

    	<path id="line1" style="stroke:#1f77b4"  d="M 543.2432432432432 300.0 L 543.2432432432432 300.0 535.9672893363565 313.55463213570255 526.4210314021744 339.73264989565524 514.0739013308586 363.89267140235074 487.3711644816482 380.61865677611587 471.13701467809904 398.58825057839516 453.34029143623286 413.92251899362316 434.36774500791864 426.51017074039464 414.6098848744857 436.293367032751 394.4538874896494 443.26698390091326 374.2767377869587 447.476961633737 354.43871914393003 449.0177869218765 335.2773589342883 448.02916739952167 299.81142217650654 452.1745408824312 281.39455026316324 457.55542580696965 261.735929214611 460.6310956070527 241.13176951282514 461.1877693166598 219.91085291981437 459.0504200812919 198.42940813173797 454.08740722981804 177.06535687964498 446.214427579744 156.2120209532422 435.3977031809974 136.27139123707366 421.65633469799513 117.64706887820572 405.063762956371 100.73699598683191 385.74829563142055 85.92609866914142 363.89267140235074 73.57896859782556 339.7326498956552 64.0327106636434 313.55463213570255 56.756756756756744 300.00000000000006" />
	<path id="line2" style="stroke:#ff7f0e"  d="M 541.5985194507429 328.23881694938035 L 541.5985194507429 328.23881694938035 535.94535968579 313.9311496950276 523.038175664517 312.8015970170524 510.0871323421107 312.42507945772735 484.2508346489981 310.54249166110196 471.2997913265918 310.1659741017769 425.97597936664255 292.6627347413576 417.8908162020823 279.2126683258303 383.6320056284837 274.9622211266316 374.20507867668425 267.99105354289907 358.8136511552611 256.21485899672757 343.6058765259821 248.03253999194126 326.56902968015396 259.60375290542225 318.7785531011948 262.60882655405345 312.08048548157683 266.8091389233182 290.1566414594559 272.9555946782593 275.42238208544495 281.70264139744563 258.7938982505542 292.73425249175443 233.1919211998782 288.2199331782413 220.4133577639276 285.96672766978855 207.64149607882848 283.7147038608289 194.87389914427112 281.4634320424558 182.10918379791775 279.21266832583024 169.34650664809882 276.9622639982457 156.48172092706764 274.8853421149817 143.7929437287495 272.2649944619464 67.20183380326847 259.14288918044963 58.401480549257116 271.7611830506197" />
	<path id="line3" style="stroke:#2ca02c"  d="M 536.6865901410382 356.0957523427557 L 536.6865901410382 356.0957523427557 526.4808472207984 367.607067169279 513.9657318720675 364.2539825566747 489.2600095509788 356.4638798684942 476.7448942022478 353.1107952558899 464.446117771099 349.03508833463763 402.26331157768635 330.6156257152876 389.8434012719785 326.8973486570668 377.4193423532249 323.1778295856324 364.9887641853994 319.4563587791481 346.31926465577556 313.8670775298655 334.7725738153045 320.0759548526822 322.70388612509817 327.0574378554355 315.8148986191393 324.0453851753439 306.9748911518724 313.88815013706585 287.6206940151329 307.1471956427437 271.26863628480083 301.6734113747781 258.2290173679027 302.4328826910235 245.24140091926745 303.1893252084006 219.3223306877207 304.69893914037686 206.37538375564404 305.45301292815617 193.43276003817033 306.2068349173587 180.4930574116445 306.96048677238775 167.55542092261842 307.7140182886112 141.60739269468115 309.0364214238017 135.16476550932805 290.21054345754817 67.26732619406457 258.77146337520463 63.313409858961705 243.9042476572443" />
	<path id="line4" style="stroke:#d62728"  d="M 528.5738807317075 383.19408891705456 L 528.5738807317075 383.19408891705456 526.3726777620074 367.968378323603 526.3555390113784 340.10407570090024 523.0162460139503 313.1781145763775 516.5736188285971 287.57492054227265 507.2896270185032 263.6407328760303 468.96132586036464 270.01607261415614 456.2725486620466 272.63642026719145 433.4287530462493 260.2509010826831 421.8188439814235 247.45248001883056 400.2526830031595 226.06675850627943 376.947765407765 208.2972241331995 362.2203297101564 205.398584610147 347.9083432653859 204.60664552318394 334.2929910444762 205.78078145974195 321.62791340452213 208.74465780753408 299.99999999999994 206.2167172844885 288.3598280916664 200.41196469927792 275.382253833352 196.12956144095654 261.27341511334504 193.5995824913229 246.27448707341563 193.02370840368184 230.65775220838935 194.5702342311845 214.72198870085086 198.36962366494944 198.60307412801865 204.59619280171495 183.01881920719444 213.1458359716787 168.11869287483427 224.07604274452012 82.89923668955203 206.5572460856226 71.42611926829252 216.80591108294556" />
	<path id="line5" style="stroke:#9467bd"  d="M 517.3701017002895 409.16736815686914 L 517.3701017002895 409.16736815686914 504.78476400918476 418.0147877123226 474.1169260896198 429.3901504023671 453.20821308559704 444.2852356216001 434.1089250989989 426.7845038167833 424.9475109690794 417.6226382997919 381.11302906231646 396.6667437912142 365.78142966177114 400.0158048239304 350.8170641064986 401.1850938557656 336.5099116776545 400.31015792063835 312.0540949936875 398.27823104146006 289.1124254133259 393.149153708003 279.8673497444325 384.9463308803942 272.35984921815214 375.94069014344797 255.59176467745698 367.5194415723656 243.88496293525128 366.8752970204716 231.78451213254368 364.3579935353991 219.57431747075998 359.8747022273959 207.55365840348168 353.37392020634593 196.03134581014018 344.8476997063777 185.31958123352865 334.33306357539107 175.72762964452863 321.91257185026444 167.55542092261842 307.7140182886112 161.0229928530073 291.71661369484843 156.5472133178637 274.5139163097367 154.27247052260188 256.17519416143085 83.04862040997094 206.21093569575842 82.6298982997105 190.83263184313086" />
	<path id="line6" style="stroke:#8c564b"  d="M 503.22676493828186 433.6643460172231 L 503.22676493828186 433.6643460172231 504.5961861856913 418.3414140837939 482.3529311217943 405.06376295637097 470.94843685460563 398.91487694986654 459.92109823440387 392.11273820041936 448.51660396721513 385.96385219391493 392.4463415965183 353.37392020634593 381.218705281931 346.89164135775576 369.5091835356367 351.0455541511009 353.67912605440495 339.96262869346293 343.40258748356166 332.3120291895807 334.7725738153045 320.0759548526822 328.34282130914255 304.99760410620064 317.6847228355244 292.3715552028808 308.5400452543352 287.0154920053143 300.0 285.7056087145125 284.5512115965654 288.49880316410866 275.42238208544495 281.70264139744563 270.1760932595385 264.45725199686035 262.15951682366256 254.9034682290991 259.70864620939835 238.73997270152614 248.05350854577546 238.09258218676348 223.05223459223498 208.2972241331995 214.72198870085086 198.36962366494944 197.8772524943182 178.58822378773857 179.7626060503402 186.82112792050953 110.3005979203399 159.0091260410749 96.77323506171814 166.3356539827769" />
	<path id="line7" style="stroke:#e377c2"  d="M 486.3351348127244 456.35374289672575 L 486.3351348127244 456.35374289672575 472.04868116327543 462.0603005028056 447.90891785796305 475.97760922072314 422.92070500410006 486.54867721653227 394.13877854358634 443.47423431506263 387.3371831110367 432.4465605720085 362.6519192005047 424.33004473862724 345.3754820527521 424.6681123368048 315.020474286236 423.65722784907206 286.1025785391721 418.9000394434973 289.1124254133259 393.149153708003 290.6180214418832 380.267956452382 292.1244074985283 367.3800000744965 279.8654994519965 355.31908560763634 264.74220037043585 342.0186093754999 264.8311262550003 333.1801211115835 250.31566813221798 321.43172875595053 239.58503878840662 310.6527877000593 219.3223306877207 304.69893914037686 212.84819673056248 294.9239854965065 207.64149607882848 283.7147038608289 209.3076387849589 260.2657890477746 203.9782560613736 228.51446024607532 193.5830907997251 220.7755464430188 183.24404094220185 212.843310679952 172.6305018805009 205.41202026730673 110.52581965534733 158.70660074934818 113.66486518727561 143.64625710327422" />
	<path id="line8" style="stroke:#7f7f7f"  d="M 466.923641643746 476.9287236258767 L 466.923641643746 476.9287236258767 471.78986125435574 462.33463357919425 462.6284471244362 453.1727680622028 452.9493931766773 444.55956869798877 453.1150697012254 414.2250442853499 459.7325204109104 392.43936457189074 463.4381016981894 370.7056894553708 464.33794831230796 349.3963994889616 411.5087569791124 319.66200244068085 406.56723996182967 306.2068349173587 380.6776693122793 304.69893914037686 373.1984167723074 295.73667771370947 362.29058802224716 273.1304631388805 358.8136511552611 256.21485899672757 351.94649145422454 238.09258218676348 347.97185914472243 227.06233163479018 342.08986039922974 216.1921974487404 334.2929910444762 205.78078145974195 324.61774616664803 196.12956144095654 313.14507984791095 187.5366544211131 299.8114221765065 128.39892198364146 279.1392669559235 123.14939235351545 257.25586143796 120.46601208165077 234.48750249795785 120.55725709116518 205.37982968674692 112.01593379982083 180.63764718520622 118.86153444792012 147.92870301910233 119.06186050578037 133.07635835625396 123.0712763741233" />
	<path id="line9" style="stroke:#bcbd22"  d="M 445.2547925763534 495.11104688636203 L 445.2547925763534 495.11104688636203 430.0374093827128 497.36910054543705 422.60559605803695 486.75592763068164 414.3209668869205 436.5357980095574 424.68869106015967 417.89697137618055 387.07351462927056 382.1496241807063 377.6455654110383 373.2548128437559 368.2154878674564 364.3579935353991 368.8365640682161 351.94903889068763 368.24881818089693 329.4396664739222 364.9887641853994 319.4563587791481 354.01808296565997 309.5248454729942 345.69287606125835 291.94311312423224 326.895372794347 267.9473428481764 326.56902968015396 259.60375290542225 324.61726288896125 250.9829995162381 320.98189583642295 242.35271497207899 307.76908862334136 233.53119883720672 291.3710899549092 226.1749564401169 281.3629180491318 221.36396798500652 270.1418124270162 217.96530385738646 252.09165673461408 204.60664552318394 246.27448707341563 193.02370840368184 222.81705756642782 146.73630914248554 201.98776032104422 151.32280443463438 164.57821951084097 138.90398159976644 148.21762100666757 118.81942952897396 154.7452074236466 104.88895311363797" />
	<path id="line10" style="stroke:#17becf"  d="M 421.6216216216216 510.6548279475662 L 421.6216216216216 510.6548279475662 429.7223004366497 497.5763509595864 447.6199998703978 476.22004019752956 462.3696272155165 453.4471011385915 473.8917043546124 429.69267569409385 482.16435329830085 405.39038932784234 487.2217807612293 380.96496716598006 489.1518400921877 356.82519102281816 488.09273024403586 333.35731015752935 484.2289049984314 310.9190092204271 477.78627781307824 289.8340258982231 469.0268182511607 270.38749841940114 458.24264482612904 252.8221095488265 445.7497261213284 237.33507921745024 431.8813071251657 224.07604274452007 410.5583400019009 195.4343272847235 401.8338295181165 178.3457928109321 390.58042635427995 161.9359773493897 376.84590383694234 146.56704199730981 360.72857578043596 132.59824465750995 342.37714919432926 120.37903400371545 321.9896497934765 110.24215269570135 299.8114221765064 102.49687247173827 276.1322225462707 97.42248323416223 248.29572588465794 82.66022745905778 221.19896846822328 84.04730990681523 193.75501110029296 88.86901690471103 178.37837837837827 89.3451720524339" />
	<path id="line11" style="stroke:#1f77b4" stroke-dasharray='6,2' d="M 396.3437268743895 523.3498638357423 L 396.3437268743895 523.3498638357423 381.0157872033991 522.0376812905764 354.0843087655687 449.1467817503151 350.0092078006852 436.8478045270931 345.3754820527521 424.6681123368048 340.94305079431723 412.4901075409702 336.5099116776545 400.31015792063835 332.07577179591095 388.1274587208448 327.64015078184786 375.94069014344797 323.2022022741397 363.74752682981745 314.31072895509874 339.3184046600692 296.4428315853117 330.4335207797894 281.50053723140155 322.0468012155401 265.215628393325 306.13342322124623 258.2290173679027 302.4328826910235 251.73130895846538 297.1886688903728 233.1919211998782 288.2199331782413 232.67413000525187 270.9584545118641 235.17689988143258 251.74099000471892 236.50064462708383 240.09144799297417 223.05223459223498 208.2972241331995 230.65775220838935 194.5702342311845 223.15409616305757 146.56704199730987 217.00464827320087 135.16285069493063 205.7168682833767 111.84666665464516 199.56742039351997 100.44247535226594 194.09204969692274 88.69974975953537 203.65627312561048 76.65013616425767" />
	<path id="line12" style="stroke:#ff7f0e" stroke-dasharray='6,2' d="M 369.76294849729226 533.0244759686325 L 369.76294849729226 533.0244759686325 380.6613768250378 522.1666761190149 373.93969919032895 447.6462287789127 387.0220741649737 432.65381098615785 372.90282534188583 410.84336093024376 365.78142966177114 400.0158048239304 358.65889669644383 389.18651955945734 351.53475584512626 378.35478962310333 344.4082353225431 367.5194415723656 330.1413361917713 345.8276752753613 322.9924295309025 334.95829075492304 315.8148986191393 324.0453851753439 312.3793059848671 307.1471956427438 308.5400452543352 287.0154920053143 312.91646509605994 274.28120344987803 312.08048548157683 266.8091389233182 300.0 259.84809029463565 288.84960908922415 252.95280135855091 284.3553188751869 233.98989986531376 281.3629180491318 221.36396798500652 278.37208659547787 208.74465780753405 275.382253833352 196.12956144095654 260.24257328906066 133.06794028918182 257.62285080567074 120.37903400371547 254.26914958685927 107.86408387411981 248.66271525236874 82.57324938112251 245.30901403355725 70.05829925152679 230.2370515027077 66.9755240313676" />
	<path id="line13" style="stroke:#2ca02c" stroke-dasharray='6,2' d="M 342.23874591898306 539.5478318137802 L 342.23874591898306 539.5478318137802 327.6265829657953 534.7361531650292 300.1885778234934 452.1745408824312 283.272677923416 444.73575634543056 268.07634228452315 435.514217269926 254.62451794724797 424.6681123368048 243.36626842496804 412.7670310274579 234.2185703382289 400.01580482393047 227.21782790754253 386.73841506799624 222.35443458896165 373.2548128437559 219.57431747075998 359.8747022273959 218.78129471806898 346.89164135775576 210.15659872802155 326.89734865706686 201.25726769718068 317.4110078538603 193.43276003817033 306.2068349173587 186.96260618334492 293.41632153408733 182.10918379791775 279.21266832583024 185.84559318072849 250.14525046857574 193.5830907997251 220.7755464430188 198.86189403693834 204.3218597253263 198.16617048188346 178.34579281093212 189.5524942484489 168.66716324074557 164.8671374984062 138.66155062296 180.95275613126933 118.65428403377075 199.9044589901497 100.27320820709028 221.55337884658456 83.91831507837668 245.67600340126805 69.97132117359146 257.76125408101694 60.452168186219694" />
	<path id="line14" style="stroke:#d62728" stroke-dasharray='6,2' d="M 314.1433367620076 542.8317141740922 L 314.1433367620076 542.8317141740922 327.251977510369 534.7799382631667 334.9103695665775 448.116145477457 349.6547974223239 436.97679935553174 362.314880603875 424.49931188380293 372.90282534188583 410.84336093024376 381.11302906231646 396.6667437912142 387.07351462927056 382.1496241807063 390.82357434194887 367.6156458725092 392.4463415965183 353.37392020634593 392.06585443757353 339.71333307332617 389.8434012719785 326.8973486570668 385.9732246377325 315.15939912214196 380.6776693122793 304.69893914037686 379.5866422360724 285.9667276697886 383.6320056284837 274.9622211266316 386.11332074548903 262.85433932365606 379.08439722405706 240.4217319951058 368.61618917807436 218.22641003690592 362.2203297101564 205.398584610147 353.7255129265844 193.02370840368178 343.15934129315485 181.42068435852138 339.3904373432286 132.9809622112465 342.74413856204006 120.46601208165077 348.3505728965306 95.17517758865347 324.9966942031293 84.51524357634815 299.8114221765064 63.643798203883534 285.8566632379923 57.16828582590773" />
	<path id="line15" style="stroke:#9467bd" stroke-dasharray='6,2' d="M 285.8566632379924 542.8317141740922 L 285.8566632379924 542.8317141740922 272.74802248963107 534.7799382631667 262.1029185823218 460.718073684988 245.91569123443128 449.1467817503151 254.62451794724797 424.6681123368048 259.05694920568277 412.4901075409702 272.35984921815214 375.94069014344797 267.0929370182942 365.52334958476433 279.8654994519965 355.31908560763634 284.13103067920315 343.59963487890747 296.4428315853117 330.4335207797894 297.7640655679102 319.12964163301046 287.6206940151329 307.1471956427437 284.48506359379246 299.0963578576198 284.5512115965654 288.49880316410866 290.1566414594559 272.9555946782593 300.0 259.84809029463565 306.28174438422036 246.25624205446874 307.76908862334136 233.53119883720672 309.4521548772892 214.28050418627316 299.99999999999994 206.2167172844885 299.99999999999994 193.25215958730809 300.18857782349335 128.39892198364146 299.8114221765064 115.44789722768985 300.1885778234933 102.49687247173827 299.8114221765064 89.54584771578669 300.1885778234933 63.643798203883534 314.14333676200744 57.168285825907674" />
	<path id="line16" style="stroke:#8c564b" stroke-dasharray='6,2' d="M 257.761254081017 539.5478318137804 L 257.761254081017 539.5478318137804 272.37341703420475 534.7361531650292 281.76915571858956 457.59921090510716 282.89807246798966 444.69197124729305 284.5980652188514 431.77197353815063 286.1025785391721 418.9000394434973 310.9353445235635 398.40899421753284 332.07577179591095 388.1274587208448 339.1799441247151 378.0136828687033 344.4082353225431 367.5194415723656 339.43306537517043 346.9944973278617 343.40258748356166 332.3120291895807 346.31926465577556 313.8670775298655 354.01808296565997 309.5248454729942 357.9749837243409 289.77744616326453 362.29058802224716 273.1304631388805 374.20507867668425 267.99105354289907 386.11332074548903 262.85433932365606 409.91916539945436 252.58550031042736 399.580063535739 225.16327376669267 385.2780112991491 198.36962366494942 376.3470175970546 183.5768240071992 371.0334945437154 158.14050044486473 377.1829424335721 146.7363091424855 400.0955410098502 100.27320820709025 378.4466211534153 83.91831507837662 354.323996598732 69.97132117359146 342.23874591898317 60.452168186219694" />
	<path id="line17" style="stroke:#e377c2" stroke-dasharray='6,2' d="M 230.2370515027078 533.0244759686325 L 230.2370515027078 533.0244759686325 219.3386231749622 522.1666761190149 202.81066363676328 493.94006256913235 184.51110832057574 475.9355043017769 177.35427486721022 446.4568585565505 165.89107490100108 426.7845038167833 157.27324762546812 406.4912285809779 151.48339603278487 385.963852193915 196.03134581014018 344.8476997063777 197.73668842231368 330.6156257152876 201.25726769718068 317.4110078538603 206.37538375564404 305.45301292815617 212.84819673056248 294.9239854965065 220.4133577639276 285.96672766978855 232.67413000525187 270.9584545118641 245.58500447922452 259.48953678662303 259.70864620939835 238.73997270152614 263.7305660102637 227.78161928725746 252.09165673461408 204.60664552318394 261.27341511334504 193.5995824913229 260.60956265677146 132.9809622112465 279.5138724113499 123.10560725537795 300.1885778234933 115.44789722768985 322.3642552489028 110.28593779383885 348.7175622642414 95.2621556665888 351.3372847476313 82.57324938112251 354.6909859664428 70.05829925152679 369.76294849729226 66.97552403136754" />
	<path id="line18" style="stroke:#7f7f7f" stroke-dasharray='6,2' d="M 203.65627312561048 523.3498638357423 L 203.65627312561048 523.3498638357423 218.9842127966009 522.0376812905764 228.19764586145192 497.82671132944836 220.24789151644416 459.2196872264676 205.86122145641374 443.47423431506263 234.2185703382289 400.01580482393047 241.34110330355622 389.18651955945734 243.88496293525128 366.8752970204716 241.2177395976433 355.45820242936105 240.38009186419384 344.38537708596084 238.55178532225372 326.5061724693304 239.58503878840662 310.6527877000593 245.24140091926745 303.1893252084006 251.73130895846538 297.1886688903728 258.7938982505542 292.73425249175443 270.1760932595385 264.45725199686035 281.2397166639042 248.4565451515059 284.3553188751869 233.98989986531376 291.3710899549092 226.1749564401169 310.5709053474132 214.41126736234594 321.62791340452213 208.74465780753408 324.61774616664803 196.12956144095654 327.60690413720084 183.5173122439026 339.7574267109394 133.06794028918182 361.08298615879727 132.72723948594847 400.43257960648 100.44247535226592 405.9079503030772 88.69974975953531 396.3437268743894 76.65013616425762" />
	<path id="line19" style="stroke:#bcbd22" stroke-dasharray='6,2' d="M 178.37837837837841 510.6548279475662 L 178.37837837837841 510.6548279475662 170.2776995633504 497.5763509595864 152.38000012960228 476.22004019752956 137.63037278448346 453.4471011385915 136.49661297208107 421.9588599897219 129.05156314539443 398.9148769498666 124.67005877029067 375.83532831067544 123.25510579775218 353.1107952558899 124.66153934507827 331.10838830973904 128.7002086734082 310.1659741017769 135.14283585876137 290.58706101687324 143.72745133795343 272.6364202671914 154.16430106381077 256.5365053157548 168.3072706983277 223.74941637304875 172.85572361550834 205.10949497558002 180.02142595925994 186.54679484412083 189.84141223601415 168.4247322639391 202.30286926710733 151.11555402048498 217.3416868698306 134.99358354975493 234.84191287631913 120.42826226272666 254.63613895457007 107.77710579618449 276.50682800169704 97.37869813602478 300.1885778234933 89.54584771578669 325.37129965855564 84.5590286744856 351.70427411534206 82.66022745905778 378.80103153177663 84.04730990681517 406.2449888997069 88.86901690471097 421.6216216216216 89.34517205243381" />
	<path id="line20" style="stroke:#17becf" stroke-dasharray='6,2' d="M 154.7452074236467 495.11104688636203 L 154.7452074236467 495.11104688636203 169.96259061728733 497.36910054543705 177.39440394196308 486.75592763068164 184.19599937451264 475.7282538876276 198.74451707780105 454.2946576439674 205.54611251035067 443.26698390091326 243.36626842496804 412.7670310274579 259.05694920568277 412.4901075409702 279.8673497444325 384.9463308803942 290.6180214418832 380.267956452382 308.512218839487 372.8266864914083 323.2022022741397 363.74752682981745 321.69966136138066 343.20757820420494 322.9924295309025 334.95829075492304 322.70388612509817 327.0574378554355 328.34282130914255 304.99760410620064 328.13478632924335 287.863837822765 326.895372794347 267.9473428481764 343.6058765259821 248.03253999194126 351.94649145422454 238.09258218676348 360.2827321252606 228.15783741832632 368.61618917807436 218.22641003690592 376.947765407765 208.2972241331995 385.2780112991491 198.36962366494942 393.5090712722472 188.26685335792513 402.12274750568173 178.58822378773857 451.7823789933324 118.81942952897387 445.25479257635334 104.88895311363794" />
	<path id="line21" style="stroke:#1f77b4" stroke-dasharray='6,2,2,2' d="M 133.07635835625402 476.9287236258767 L 133.07635835625402 476.9287236258767 128.21013874564423 462.33463357919425 137.37155287556374 453.1727680622028 156.47084086216188 435.672036257386 165.63225499208139 426.5101707403946 175.31130893984033 417.89697137618055 222.35443458896165 373.2548128437559 231.78451213254368 364.3579935353991 241.2177395976433 355.45820242936105 250.65591693941366 346.55374135553814 264.8311262550003 333.1801211115835 265.2274261846955 320.0759548526822 265.215628393325 306.13342322124623 271.26863628480083 301.6734113747781 284.48506359379246 299.0963578576198 300.0 285.7056087145125 312.91646509605994 274.28120344987803 318.7785531011948 262.60882655405345 324.61726288896125 250.9829995162381 336.2694339897362 227.78161928725746 342.08986039922974 216.1921974487404 347.9083432653859 204.60664552318394 353.7255129265844 193.02370840368178 359.54175373549566 181.44262078114497 371.3705331403452 158.30976759004037 390.895535300343 162.14322776353913 452.0712969808976 119.06186050578037 466.923641643746 123.0712763741233" />
	<path id="line22" style="stroke:#ff7f0e" stroke-dasharray='6,2,2,2' d="M 113.66486518727558 456.35374289672575 L 113.66486518727558 456.35374289672575 127.95131883672454 462.0603005028056 152.09108214203704 475.97760922072314 177.0792949959 486.54867721653227 202.47362504013353 493.77079542395666 227.8432354830906 497.69771650100984 241.48617989118645 461.3167641450983 245.56128085607 449.0177869218765 267.7093529168124 435.4272391919907 284.5980652188514 431.77197353815063 313.901723816112 423.78799102514483 340.94305079431723 412.4901075409702 350.8170641064986 401.1850938557656 358.65889669644383 389.18651955945734 364.4497412583431 376.8082106863977 368.2154878674564 364.3579935353991 381.218705281931 346.89164135775576 392.06585443757353 339.71333307332617 402.26331157768635 330.6156257152876 411.5087569791124 319.66200244068085 419.5069425883555 306.9604867723878 425.97597936664255 292.6627347413576 430.65349335190115 276.9622639982458 433.32058358745826 259.88958992835904 433.7085028693896 242.11840768289073 431.6927293016722 223.74941637304866 489.4741803446526 158.7066007493481 486.3351348127243 143.64625710327414" />
	<path id="line23" style="stroke:#2ca02c" stroke-dasharray='6,2,2,2' d="M 96.7732350617182 433.6643460172231 L 96.7732350617182 433.6643460172231 95.4038138143087 418.341414083794 100.88637970725085 386.09460602128473 98.4412140178724 360.53958678974647 123.14693633896113 352.74948410156594 135.66205168769207 349.39639948896166 175.72762964452863 321.91257185026444 180.4930574116445 306.96048677238775 186.96260618334492 293.41632153408733 194.87389914427112 281.4634320424558 208.86150778225544 261.3000369634342 224.774253841185 243.9965069683409 236.50064462708383 240.09144799297417 248.05350854577546 238.09258218676348 263.7305660102637 227.78161928725746 270.1418124270162 217.96530385738646 278.37208659547787 208.74465780753405 288.3598280916664 200.41196469927792 299.99999999999994 193.25215958730809 313.14507984791095 187.5366544211131 327.60690413720084 183.5173122439026 343.15934129315485 181.42068435852138 359.54175373549566 181.44262078114497 376.6621265431177 183.78407442134863 393.7979892598124 188.50928433473163 410.8171599108206 195.7086603611122 489.69940207966 159.00912604107478 503.22676493828175 166.33565398277676" />
	<path id="line24" style="stroke:#d62728" stroke-dasharray='6,2,2,2' d="M 82.62989829971056 409.1673681568692 L 82.62989829971056 409.1673681568692 95.21523599081524 418.0147877123226 117.83564670169915 405.3903893278424 128.862985321901 398.5882505783952 140.26747958908962 392.4393645718908 151.29481820929146 385.6372258224436 207.55365840348168 353.37392020634593 218.78129471806898 346.89164135775576 221.0386615870741 334.67394166262596 238.55178532225372 326.5061724693304 250.31566813221798 321.43172875595053 265.2274261846955 320.0759548526822 281.50053723140155 322.0468012155401 297.7640655679102 319.12964163301046 306.9748911518724 313.88815013706585 312.3793059848671 307.1471956427438 317.6847228355244 292.3715552028808 328.13478632924335 287.863837822765 345.69287606125835 291.94311312423224 357.9749837243409 289.77744616326453 373.1984167723074 295.73667771370947 379.5866422360724 285.9667276697886 417.8908162020823 279.2126683258303 430.65349335190115 276.9622639982458 456.2070562712505 272.26499446194646 458.134475367338 252.46079839450252 516.951379590029 206.21093569575822 517.3701017002894 190.83263184313074" />
	<path id="line25" style="stroke:#9467bd" stroke-dasharray='6,2,2,2' d="M 71.42611926829258 383.1940889170546 L 71.42611926829258 383.1940889170546 73.62732223799264 367.968378323603 73.64446098862163 340.10407570090024 76.98375398604969 313.1781145763775 128.67827902284156 309.78945654245183 141.62932234524783 309.41293898312676 161.00106320244066 292.0931312541735 169.34650664809882 276.9622639982457 185.39946217802503 251.1794983842353 203.9782560613736 228.51446024607532 224.774253841185 243.9965069683409 235.17689988143258 251.74099000471892 245.58500447922452 259.48953678662303 262.15951682366256 254.9034682290991 281.2397166639042 248.4565451515059 288.84960908922415 252.95280135855091 306.28174438422036 246.25624205446874 320.98189583642295 242.35271497207899 336.2694339897362 227.78161928725746 347.97185914472243 227.06233163479018 360.2827321252606 228.15783741832632 379.75701669147765 241.32521673469256 409.91916539945436 252.58550031042736 421.8188439814235 247.45248001883056 433.8578865898085 242.46471807275492 445.60034240090954 236.98876882758606 517.100763310448 206.5572460856224 528.5738807317074 216.80591108294527" />
	<path id="line26" style="stroke:#8c564b" stroke-dasharray='6,2,2,2' d="M 63.31340985896179 356.09575234275576 L 63.31340985896179 356.09575234275576 73.51915277920156 367.60706716927905 86.03426812793253 364.25398255667477 98.33304455908132 360.1782756354225 124.52067504987176 375.4890179208113 140.0789017655962 392.1127382004194 157.04802589046065 406.18870328925124 175.05248903092058 417.62263829979184 227.21782790754253 386.73841506799624 241.34110330355622 389.18651955945734 255.59176467745698 367.5194415723656 267.0929370182942 365.52334958476433 292.1244074985283 367.3800000744965 308.512218839487 372.8266864914083 327.64015078184786 375.94069014344797 339.1799441247151 378.0136828687033 351.53475584512626 378.35478962310333 364.4497412583431 376.8082106863977 377.6455654110383 373.2548128437559 390.82357434194887 367.6156458725092 448.7051817907086 385.63722582244355 463.58748541860837 370.35937906550663 476.8530636610389 352.74948410156594 488.15822263483193 332.98588435228436 510.1090619926773 312.0485618984023 516.5516891780305 287.1984029829476 532.7326738059355 258.7714633752047 536.6865901410383 243.9042476572444" />
	<path id="line27" style="stroke:#e377c2" stroke-dasharray='6,2,2,2' d="M 58.401480549257116 328.23881694938024 L 58.401480549257116 328.23881694938024 64.05464031421005 313.9311496950276 76.96182433548304 312.8015970170524 124.5960469542822 330.73696250449404 135.553882228901 349.03508833463763 185.31958123352865 334.33306357539107 197.73668842231368 330.6156257152876 210.15659872802155 326.89734865706686 220.59253058437068 333.63969374696643 240.38009186419384 344.38537708596084 250.65591693941366 346.55374135553814 264.74220037043585 342.0186093754999 284.13103067920315 343.59963487890747 314.31072895509874 339.3184046600692 321.69966136138066 343.20757820420494 330.1413361917713 345.8276752753613 339.43306537517043 346.9944973278617 353.67912605440495 339.96262869346293 368.24881818089693 329.4396664739222 377.4193423532249 323.1778295856324 385.9732246377325 315.15939912214196 406.56723996182967 306.2068349173587 419.5069425883555 306.9604867723878 471.3217209771584 309.78945654245183 477.7643481625116 289.45750833889804 507.22413462770714 263.2693070707853 532.7981661967316 259.14288918044974 541.5985194507429 271.7611830506197" />

	<text text-anchor='middle' dominant-baseline='middle' x='549.3243243243244' y='300.0'>1</text>
	<text text-anchor='middle' dominant-baseline='middle' x='547.6384824370115' y='328.9447873731148'>2</text>
	<text text-anchor='middle' dominant-baseline='middle' x='542.6037548945642' y='357.4981461513246'>3</text>
	<text text-anchor='middle' dominant-baseline='middle' x='534.2882277500001' y='385.27394113998093'>4</text>
	<text text-anchor='middle' dominant-baseline='middle' x='522.8043542427968' y='411.8965523607909'>5</text>
	<text text-anchor='middle' dominant-baseline='middle' x='508.3074340617389' y='437.00595466765367'>6</text>
	<text text-anchor='middle' dominant-baseline='middle' x='490.99351318304247' y='460.2625864691439'>7</text>
	<text text-anchor='middle' dominant-baseline='middle' x='471.0967326848397' y='481.35194171652364'>8</text>
	<text text-anchor='middle' dominant-baseline='middle' x='448.88616239076225' y='499.988823058521'>9</text>
	<text text-anchor='middle' dominant-baseline='middle' x='424.6621621621622' y='515.9211986462553'>10</text>
	<text text-anchor='middle' dominant-baseline='middle' x='398.7523200462492' y='528.9336104316359'>11</text>
	<text text-anchor='middle' dominant-baseline='middle' x='371.50702220972454' y='538.8500878678483'>12</text>
	<text text-anchor='middle' dominant-baseline='middle' x='343.2947145669576' y='545.5365276091247'>13</text>
	<text text-anchor='middle' dominant-baseline='middle' x='314.49692018105776' y='548.9025070284446'>14</text>
	<text text-anchor='middle' dominant-baseline='middle' x='285.5030798189422' y='548.9025070284446'>15</text>
	<text text-anchor='middle' dominant-baseline='middle' x='256.70528543304243' y='545.5365276091248'>16</text>
	<text text-anchor='middle' dominant-baseline='middle' x='228.49297779027552' y='538.8500878678483'>17</text>
	<text text-anchor='middle' dominant-baseline='middle' x='201.24767995375078' y='528.9336104316359'>18</text>
	<text text-anchor='middle' dominant-baseline='middle' x='175.33783783783787' y='515.9211986462553'>19</text>
	<text text-anchor='middle' dominant-baseline='middle' x='151.11383760923786' y='499.9888230585211'>20</text>
	<text text-anchor='middle' dominant-baseline='middle' x='128.9032673151604' y='481.35194171652364'>21</text>
	<text text-anchor='middle' dominant-baseline='middle' x='109.00648681695748' y='460.26258646914386'>22</text>
	<text text-anchor='middle' dominant-baseline='middle' x='91.69256593826117' y='437.00595466765367'>23</text>
	<text text-anchor='middle' dominant-baseline='middle' x='77.19564575720335' y='411.89655236079096'>24</text>
	<text text-anchor='middle' dominant-baseline='middle' x='65.71177224999991' y='385.27394113998093'>25</text>
	<text text-anchor='middle' dominant-baseline='middle' x='57.39624510543587' y='357.49814615132465'>26</text>
	<text text-anchor='middle' dominant-baseline='middle' x='52.36151756298855' y='328.94478737311476'>27</text>

	</svg>