<?xml version="1.0" encoding="UTF-8" standalone="no"?>
<!-- Created with LineOrder (https://github.com/zegalur/line-order) -->

<svg
    width="600.0px"
    height="600.0px"
    viewBox="0 0 600.0 600.0"
    version="1.1"
    xmlns="http://www.w3.org/2000/svg">

    <style>
path { fill: none; stroke-width:1.5px }
    </style>

    <rect width="100%" height="100%" fill="white"/>
    
    
    <text x='20' y='30'>(21 pseudolines)</text>
    <text x='20' y='45'>by Pavlo Savchuk</text>

    	<path id="line1" style="stroke:#1f77b4"  d="M 544.2857142857142 300.0 L 544.2857142857142 300.0 534.4218527489077 282.7536806281854 487.56733170202733 257.5174887467489 471.1840626567681 233.1592613206773 451.9076644811601 212.66588707396636 430.5118330760854 196.32992923320035 407.78915142095957 184.30179127683425 384.52635614338794 176.59114907674285 361.4805273851242 173.0725206743883 320.70319943258676 160.49438079861753 299.6797281703439 150.41943042282298 276.11554530117587 143.68586279693187 250.5654932892948 140.82383440997685 223.68505505430898 142.26853520418302 196.2138186818908 148.34217388384343 168.9558484586651 159.23886178702372 142.75747013284337 175.01290987603682 118.48306165223846 195.5709648365748 96.98950865142794 220.66830851733232 79.10003460635085 249.90953262239913 65.57814725109228 282.7536806281856 55.71428571428572 300.00000000000006" />
	<path id="line2" style="stroke:#ff7f0e"  d="M 541.5572446921385 336.4088964516083 L 541.5572446921385 336.4088964516083 529.2331238165546 351.99245640868844 462.4253220600011 337.40102805242316 445.90153958750017 332.9725660978136 429.02954977401976 329.4501527394191 378.9457113748936 318.01884345240774 370.5867536999049 305.28974591238676 353.8450236556967 287.7102247222039 343.3996754888235 282.9668825408931 325.37937759994406 285.34720951080715 316.0384180746427 287.20978838570187 280.90414278491767 292.505428317993 264.63730145355123 286.12116355183883 240.5906664419661 276.6835547670892 224.62161625625396 270.4161644131301 208.67198723221492 264.15639630344464 192.73314774243875 257.9008627739111 160.64236603503574 245.65021412402245 145.76530198959438 265.125444871099 82.62526861873619 284.0311857668385 65.62601513869885 282.1149280588591 58.44275530786143 263.59110354839174" />
	<path id="line3" style="stroke:#2ca02c"  d="M 533.4327854134715 372.00447832037804 L 533.4327854134715 372.00447832037804 529.0905894432447 352.616940301123 474.7090600745473 313.4138039558557 466.2333672783319 287.8637011827972 454.2346980104056 265.1254448710988 439.3576339649643 245.6502141240224 392.3809344637963 246.66384261933797 376.70547774829134 238.82942271422627 360.90595269622105 234.35899419335328 345.61537541381324 233.0945324378697 300.0 219.0240525597237 286.6540354980811 211.45531100819167 260.98980553065894 173.5320556871207 238.51947261487572 173.0725206743883 215.47364385661194 176.5911490767429 192.2108485790404 184.30179127683425 169.48816692391455 196.32992923320035 148.09233551883986 212.66588707396647 112.9027229973299 226.91378491900485 97.22352552807249 220.0720432400181 81.076294305526 214.42283211565982 66.56721458652845 227.99552167962202" />
	<path id="line4" style="stroke:#d62728"  d="M 520.0938234447339 405.9915991272892 L 520.0938234447339 405.9915991272892 503.7238937477126 417.250226841469 429.380437251553 375.06764832918725 414.6165439997473 366.1738925318387 371.7475888547483 375.92342400103007 342.5683286520612 388.3940452623283 326.39380221040733 385.5666051799441 312.0688387122616 380.071513011731 300.0 372.4020235936588 290.48796711863235 363.10821469961616 283.72074576952497 352.7760459921054 250.1026993233337 339.7917694667053 233.5311958690538 313.5650574382432 219.2504777322128 293.9486598695388 202.1643469335216 292.6682313781659 185.08977448477032 291.38866906537663 168.02228618598224 290.10963763623545 150.81375408931206 289.14120632145017 82.67313650634281 283.39243319751205 79.24256897966077 249.2850487299646 81.31031118217055 213.82656683834557 79.90617655526614 194.0084008727108" />
	<path id="line5" style="stroke:#9467bd"  d="M 501.83832915433595 437.611042755542 L 501.83832915433595 437.611042755542 503.4036219180565 417.8049539226664 447.0802242612707 358.06878935412806 445.7590052141902 333.5970499902482 440.6148173392594 310.85879367854983 431.9777138140177 290.10963763623533 387.29975490662844 280.0744006267025 375.37838374374604 270.4161644131301 362.7019917175088 263.79898820317055 349.89730067666625 260.2082305332947 331.7113638005118 265.82327796844015 284.61367684921424 268.04997076281717 263.54904983035743 270.93133724023147 250.10269932333372 260.2082305332947 236.69045496851552 249.5123225751389 223.29452225170866 238.82942271422627 182.8535153194502 206.98843891178217 169.887539363141 195.8291320344548 156.12281852837899 185.67141955461858 143.1568425720698 174.51211267729124 116.02677334177213 153.69589051887323 98.16167084566405 162.38895724445803" />
	<path id="line6" style="stroke:#8c564b"  d="M 479.07410011842904 466.1564830840389 L 479.07410011842904 466.1564830840389 460.11290169180404 472.0898000752395 379.71139984970773 416.3466071250323 357.42355184735527 419.2412340782141 336.48798362003026 418.29113756851206 317.17450381358043 413.94538765208466 300.0 406.67231476132395 285.37746498050626 397.01418098232915 273.6061977895926 385.5666051799441 264.8658531460261 372.95680769259155 244.92236813595323 359.35956984428816 229.99103221386108 355.83028879257125 215.03425760018735 349.05499424642824 197.9501725078756 322.314020868903 185.08977448477032 291.38866906537663 179.3128780130936 272.45395196356066 160.87638291168025 245.05394884670824 144.7291516891338 239.40473772234995 113.13673987397442 226.31751964169064 118.80333348189453 195.01623775537735 116.42614578099858 153.19509332012768 120.92589988157101 133.8435169159611" />
	<path id="line7" style="stroke:#e377c2"  d="M 452.30965159691925 490.99026214576156 L 452.30965159691925 490.99026214576156 459.6433499633565 472.52548040965564 410.0644380435556 388.18310344767247 414.6165439997473 366.1738925318387 384.96574239981265 349.05499424642824 370.12722757879277 340.48797372013814 347.27763431165545 348.65118703376424 335.06704317052095 337.7932842764796 324.1201884241679 325.9953807192717 325.37937759994406 285.34720951080715 329.7007742123014 276.3144229364849 331.7113638005118 265.82327796844015 315.19642269061774 250.7344076404834 290.48796711863235 236.8917853003839 269.2876774897394 236.22520516901375 254.38462458618673 233.0945324378697 225.44583803333745 190.6491282855505 216.00288586457793 176.23031798538688 205.84373126925135 162.46666148029317 196.74306068985675 147.98134279248742 167.32408091980906 105.96871109449427 147.69034840308078 109.00973785423844" />
	<path id="line8" style="stroke:#7f7f7f"  d="M 422.14285714285717 511.55763435305573 L 422.14285714285717 511.55763435305573 402.27517567668286 511.63843936867625 367.0703654603865 516.350215414804 332.8019855251062 515.4780884839582 300.3202718296561 509.4127974080478 270.3792697411311 498.66957048227255 243.61935421261748 483.86813335866185 220.5535605597399 465.71038264133875 201.55801698353713 444.95641340928773 186.86665027739411 422.3996214300346 176.57021356090883 398.8416131262543 170.61956274844698 375.0676483291872 168.83299008463123 351.8233129524556 159.33731477313404 310.2200411092234 150.86162197691866 288.5024537521237 145.90783636290433 264.5009609786644 144.9631685657783 238.8084724450357 148.41260734849595 212.11115999276905 156.52219096760538 185.17062235587304 169.42540018711264 158.80318145260753 167.85332292777505 105.60788000313823 177.85714285714275 88.44236564694432" />
	<path id="line9" style="stroke:#bcbd22"  d="M 389.2475930952194 527.3991585973699 L 389.2475930952194 527.3991585973699 401.69806578111024 511.91636084664674 394.8579668963995 496.2364466335736 346.9150983178936 451.008444186483 322.6105217236409 447.8621441629409 317.17450381358043 413.94538765208466 314.62253501949374 397.01418098232915 312.0688387122616 380.071513011731 309.51203288136765 363.10821469961616 305.6619243341474 337.56441351167626 303.0574391404396 320.2847832963052 280.90414278491767 292.505428317993 274.62062240005594 285.34720951080715 263.54904983035743 270.93133724023147 262.4342305747783 259.5137292856906 269.2876774897394 236.22520516901375 276.1319204891532 222.62158670330413 260.98980553065894 173.5320556871207 255.60431007491803 157.15927721705708 251.1775793910523 140.6350308519585 230.4102261468019 75.48206318165589 210.75240690478066 72.6008414026301" />
	<path id="line10" style="stroke:#17becf"  d="M 354.35868529504256 538.1609614044169 L 354.35868529504256 538.1609614044169 335.3498514754726 532.3820745642125 332.16859620923526 515.5735565625268 330.2541195747399 498.57410240370393 300.3202718296561 475.22295293326454 275.47500164186374 464.86159832176395 253.69698778386393 451.1972477445014 235.38797812030668 434.90639717113345 220.8178421582583 416.7074382163883 209.98064469532136 397.0177915734602 229.99103221386108 355.83028879257125 229.87277242120723 340.48797372013814 219.2504777322128 293.9486598695388 212.70024509337156 280.07440062670264 208.67198723221492 264.15639630344464 207.61906553620366 246.66384261933803 183.25288775867665 206.48764171303662 192.68040030748796 183.86611094241806 206.37297327721734 162.10583038893714 224.26216494988154 141.9906137262126 231.0223122485594 75.29325962363754 245.64131470495744 61.83903859558308" />
	<path id="line11" style="stroke:#1f77b4" stroke-dasharray='6,2' d="M 318.25549429039796 543.6026418828311 L 318.25549429039796 543.6026418828311 334.71646215960163 532.4775426427811 366.45827935862894 516.5390189728223 394.28085700082687 496.51436811154406 365.18913177526593 434.628475693163 357.42355184735527 419.2412340782141 349.9974814078362 403.82083991809935 342.5683286520612 388.3940452623283 335.1341468539739 372.9568076925915 344.98208641078674 350.7811442174499 359.40933355803395 323.3164452329108 353.8450236556967 287.7102247222039 359.4093335580339 276.68355476708916 362.7019917175088 263.79898820317055 363.30954503148445 249.5123225751389 360.90595269622105 234.35899419335328 355.2673244144172 218.93772335950587 329.877819499815 199.90305339099166 300.0 167.65221493632262 300.32027182965606 150.41943042282298 299.6797281703439 64.94481923586466 281.744505709602 56.397358117168864" />
	<path id="line12" style="stroke:#ff7f0e" stroke-dasharray='6,2' d="M 281.74450570960215 543.6026418828311 L 281.74450570960215 543.6026418828311 265.2835378403985 532.4775426427811 269.74588042526017 498.57410240370393 272.9271356914974 481.76558440201825 274.8416123259928 464.76613024319533 278.0228675922301 447.95761224150965 285.37746498050626 397.01418098232915 287.93116128773846 380.071513011731 290.48796711863235 363.10821469961616 293.0512746808191 346.10178021887543 280.023624604337 329.2999613380085 254.54640860233394 289.6255143758865 240.5906664419661 276.6835547670892 237.2980082824912 263.7989882031706 236.69045496851552 249.5123225751389 239.09404730377892 234.35899419335328 225.44583803333745 190.6491282855505 239.09658251044834 172.7945991964179 256.2163961766755 156.97047365903873 276.74893461704687 143.5903947183632 300.32027182965606 64.94481923586466 318.25549429039796 56.397358117168864" />
	<path id="line13" style="stroke:#2ca02c" stroke-dasharray='6,2' d="M 245.6413147049575 538.1609614044169 L 245.6413147049575 538.1609614044169 264.6501485245275 532.3820745642125 299.67972817034394 509.4127974080478 329.62073025886895 498.66957048227255 325.15838767400726 464.76613024319533 321.97713240776994 447.95761224150965 336.48798362003026 418.29113756851206 349.9974814078362 403.82083991809935 370.34942267910833 377.22073262554784 384.96574239981265 349.05499424642824 383.3549322880578 332.71440019923705 378.9457113748936 318.01884345240774 380.74952226778714 293.94865986953874 387.29975490662844 280.0744006267025 391.328012767785 264.1563963034445 392.3809344637963 246.66384261933797 390.09234844398077 228.15374957400422 384.1991383668761 209.2549104679273 374.5541619666625 190.6491282855505 360.90341748955166 172.7945991964179 368.9776877514406 75.29325962363754 354.3586852950425 61.83903859558308" />
	<path id="line14" style="stroke:#d62728" stroke-dasharray='6,2' d="M 210.75240690478063 527.3991585973699 L 210.75240690478063 527.3991585973699 198.30193421888976 511.91636084664674 219.97645066416732 465.4324611633683 227.9707693400233 450.30838990623613 234.81086822473407 434.628475693163 242.57644815264473 419.2412340782141 264.8658531460261 372.95680769259155 260.1255688103557 358.48504891859943 250.1026993233337 339.7917694667053 249.7365341388612 311.47230808303703 254.54640860233394 289.6255143758865 264.63730145355123 286.12116355183883 274.62062240005594 285.34720951080715 284.61367684921424 268.04997076281717 315.19642269061774 250.7344076404834 318.49434673968017 234.73077413839343 300.0 219.0240525597237 300.0 201.8900115071435 300.0 167.65221493632262 321.3365887484577 160.5898488771862 369.5897738531981 75.48206318165592 389.24759309521943 72.6008414026301" />
	<path id="line15" style="stroke:#9467bd" stroke-dasharray='6,2' d="M 177.8571428571429 511.55763435305573 L 177.8571428571429 511.55763435305573 197.72482432331716 511.6384393686763 243.00726811086 483.6793298006435 272.2937463756265 481.67011632344963 299.67972817034394 475.22295293326454 324.52499835813626 464.86159832176395 346.3030122161361 451.1972477445014 364.6120218796933 434.90639717113345 379.18215784174174 416.70743821638825 410.46381048278204 387.6823062489269 429.7007090812091 374.5129212479898 447.31424113791525 357.47252407681384 462.567856433311 336.7765441599886 474.7569279621539 312.77505138652924 483.2326207583693 285.94744347481776 487.42479732871743 256.8930048543143 486.8632601260256 226.31751964169052 481.1966665181054 195.0162377553773 470.20850582346577 163.85360299870945 453.8295999332627 133.74025196279695 432.1466770722248 105.60788000313812 422.142857142857 88.44236564694415" />
	<path id="line16" style="stroke:#8c564b" stroke-dasharray='6,2' d="M 147.6903484030808 490.9902621457616 L 147.6903484030808 490.9902621457616 140.35665003664352 472.5254804096557 186.3970985489466 421.9639410956184 198.4941503375818 409.8681566851293 209.98064469532136 397.0177915734602 244.92236813595323 359.35956984428816 260.1255688103557 358.48504891859943 283.72074576952497 352.7760459921054 293.0512746808191 346.10178021887543 300.0 329.3055809783857 303.0574391404396 320.2847832963052 316.0384180746427 287.20978838570187 329.7007742123014 276.3144229364849 349.89730067666625 260.2082305332947 363.30954503148445 249.5123225751389 376.70547774829134 238.82942271422627 390.09234844398077 228.15374957400422 416.74711224132335 206.48764171303657 407.31959969251204 183.8661109424181 422.5167644848642 119.73236759958786 432.6759190801908 105.96871109449415 452.30965159691914 109.00973785423838" />
	<path id="line17" style="stroke:#e377c2" stroke-dasharray='6,2' d="M 120.92589988157096 466.1564830840389 L 120.92589988157096 466.1564830840389 139.88709830819593 472.0898000752395 201.02877497557114 444.59558231793176 227.3936594444507 450.03046842826564 253.08490168210642 451.008444186483 277.3894782763591 447.8621441629409 300.0 406.67231476132395 314.62253501949374 397.01418098232915 326.39380221040733 385.5666051799441 335.1341468539739 372.9568076925915 370.12722757879277 340.48797372013814 383.3549322880578 332.71440019923705 429.02954977401976 329.4501527394191 440.66268522686596 310.2200411092234 449.1383780230814 288.50245375212364 454.0921636370956 264.50096097866424 455.03683143422165 238.80847244503562 451.587392651504 212.11115999276893 456.84315742793024 174.5121126772912 470.6078782626922 164.354400197455 483.5738542190014 153.19509332012765 479.0741001184291 133.84351691596115" />
	<path id="line18" style="stroke:#7f7f7f" stroke-dasharray='6,2' d="M 98.16167084566405 437.6110427555419 L 98.16167084566405 437.6110427555419 96.5963780819435 417.80495392266636 170.2992909187909 374.51292124798977 185.38345600025272 366.1738925318387 198.37459164543665 324.17352260797827 202.1643469335216 292.6682313781659 212.70024509337156 280.07440062670264 224.62161625625396 270.4161644131301 237.2980082824912 263.7989882031706 250.10269932333372 260.2082305332947 262.4342305747783 259.5137292856906 290.48796711863235 236.8917853003839 321.48671772015945 235.65379834430695 345.61537541381324 233.0945324378697 355.2673244144172 218.93772335950587 364.91274410739345 204.79049101652402 374.5541619666625 190.6491282855505 383.99711413542195 176.2303179853868 423.0460064928302 120.0931986909439 454.2991516617102 134.17593229721317 483.9732266582279 153.6958905188732 501.83832915433584 162.38895724445788" />
	<path id="line19" style="stroke:#bcbd22" stroke-dasharray='6,2' d="M 79.9061765552662 405.99159912728925 L 79.9061765552662 405.99159912728925 96.2761062522874 417.25022684146893 176.17084112168237 398.3408159275087 198.02459860913424 409.4324763507131 220.28860015029227 416.3466071250323 242.57644815264473 419.2412340782141 273.6061977895926 385.5666051799441 287.93116128773846 380.071513011731 300.0 372.4020235936588 309.51203288136765 363.10821469961616 313.7422275971542 344.5512076556734 324.1201884241679 325.9953807192717 343.3996754888235 282.9668825408931 359.4093335580339 276.68355476708916 375.37838374374604 270.4161644131301 391.328012767785 264.1563963034445 439.12361708831975 245.05394884670815 455.2708483108662 239.40473772234984 470.95004578012356 232.56299604336306 487.09727700267007 226.91378491900474 518.6896888178294 213.82656683834546 520.0938234447337 194.00840087271075" />
	<path id="line20" style="stroke:#17becf" stroke-dasharray='6,2' d="M 66.56721458652851 372.00447832037815 L 66.56721458652851 372.00447832037815 70.90941055675538 352.61694030112307 159.38518266074064 310.8587936785499 168.02228618598224 290.10963763623545 179.3128780130936 272.45395196356066 192.73314774243875 257.9008627739111 207.61906553620366 246.66384261933803 223.29452225170866 238.82942271422627 239.09404730377892 234.35899419335328 254.38462458618673 233.0945324378697 276.1319204891532 222.62158670330413 286.6540354980811 211.45531100819167 300.0 201.8900115071435 331.70040481301606 200.46524650554912 364.91274410739345 204.79049101652402 384.1991383668761 209.2549104679273 417.1464846805498 206.9884389117821 430.112460636859 195.8291320344548 457.24252986715663 175.01290987603676 481.51693834776154 195.5709648365747 518.9237056944739 214.42283211565967 533.4327854134715 227.99552167962185" />
	<path id="line21" style="stroke:#1f77b4" stroke-dasharray='6,2,2,2' d="M 58.44275530786143 336.40889645160837 L 58.44275530786143 336.40889645160837 70.76687618344545 351.9924564086885 168.59897320798675 351.2270476751413 185.38345600025272 366.1738925318387 215.03425760018735 349.05499424642824 229.87277242120723 340.48797372013814 234.22801894866433 316.6180388278423 249.7365341388612 311.47230808303703 280.023624604337 329.2999613380085 300.0 329.3055809783857 305.6619243341474 337.56441351167626 313.7422275971542 344.5512076556734 335.06704317052095 337.7932842764796 359.40933355803395 323.3164452329108 370.5867536999049 305.28974591238676 380.74952226778714 293.94865986953874 431.9777138140177 290.10963763623533 449.18624591068794 289.1412063214501 466.18549939072534 287.2249486134707 483.2804886459759 286.58619604414423 534.3739848613011 282.114928058859 541.5572446921385 263.59110354839146" />

	<text text-anchor='middle' dominant-baseline='middle' x='550.3928571428571' y='300.0'>1</text>
	<text text-anchor='middle' dominant-baseline='middle' x='547.596175809442' y='337.31911886289856'>2</text>
	<text text-anchor='middle' dominant-baseline='middle' x='539.2686050488084' y='373.8045902783875'>3</text>
	<text text-anchor='middle' dominant-baseline='middle' x='525.5961690308521' y='408.64138910547143'>4</text>
	<text text-anchor='middle' dominant-baseline='middle' x='506.8842873831943' y='441.0513188244305'>5</text>
	<text text-anchor='middle' dominant-baseline='middle' x='483.55095262138974' y='470.3103951611398'>6</text>
	<text text-anchor='middle' dominant-baseline='middle' x='456.11739288684214' y='495.7650186994056'>7</text>
	<text text-anchor='middle' dominant-baseline='middle' x='425.1964285714286' y='516.846575211882'>8</text>
	<text text-anchor='middle' dominant-baseline='middle' x='391.47878292259986' y='533.0841375623041'>9</text>
	<text text-anchor='middle' dominant-baseline='middle' x='355.7176524274186' y='544.1149854395273'>10</text>
	<text text-anchor='middle' dominant-baseline='middle' x='318.7118816476579' y='549.6927079299019'>11</text>
	<text text-anchor='middle' dominant-baseline='middle' x='281.28811835234217' y='549.6927079299019'>12</text>
	<text text-anchor='middle' dominant-baseline='middle' x='244.28234757258144' y='544.1149854395273'>13</text>
	<text text-anchor='middle' dominant-baseline='middle' x='208.52121707740014' y='533.0841375623041'>14</text>
	<text text-anchor='middle' dominant-baseline='middle' x='174.8035714285715' y='516.846575211882'>15</text>
	<text text-anchor='middle' dominant-baseline='middle' x='143.88260711315783' y='495.76501869940563'>16</text>
	<text text-anchor='middle' dominant-baseline='middle' x='116.44904737861026' y='470.3103951611398'>17</text>
	<text text-anchor='middle' dominant-baseline='middle' x='93.1157126168057' y='441.0513188244305'>18</text>
	<text text-anchor='middle' dominant-baseline='middle' x='74.40383096914789' y='408.6413891054715'>19</text>
	<text text-anchor='middle' dominant-baseline='middle' x='60.73139495119173' y='373.8045902783876'>20</text>
	<text text-anchor='middle' dominant-baseline='middle' x='52.403824190558' y='337.3191188628986'>21</text>

	</svg>