<?xml version="1.0" encoding="UTF-8" standalone="no"?>
<!-- Created with LineOrder (https://github.com/zegalur/line-order) -->

<svg
    width="600.0px"
    height="600.0px"
    viewBox="0 0 600.0 600.0"
    version="1.1"
    xmlns="http://www.w3.org/2000/svg">

    <style>
path { fill: none; stroke-width:1.5px }
    </style>

    <rect width="100%" height="100%" fill="white"/>
    
    
    <text x='20' y='30'>(16 pseudolines)</text>
    <text x='20' y='45'>by Johannes Bader (based on 15-line solution by Toshitaka Suzuki)</text>

    	<path id="line1" style="stroke:#1f77b4"  d="M 546.6666666666666 300.0 L 546.6666666666666 300.0 531.1556651123661 277.88976350483875 509.70281524690336 237.07019738589577 481.69411136479175 203.6234105790968 449.14359414099897 178.4463437872953 414.14605310577656 161.94266735636828 378.7640947842394 154.02893766620977 344.92129820372327 154.16538350286015 313.6253558233486 161.6594407337426 259.6475473130577 166.97579084406547 227.49092965165852 165.73126529830202 194.27179365559766 172.19984331296223 140.59922990240705 170.02849702592104 106.60356100311597 197.36838614319896 77.59941933366648 233.21837235668778 58.07296416720317 251.877720569355" />
	<path id="line2" style="stroke:#ff7f0e"  d="M 541.9270358327968 348.122279430645 L 541.9270358327968 348.122279430645 522.4005806663336 366.7816276433122 493.396438996884 402.6316138568011 459.40077009759295 429.971502974079 422.56389986715095 448.3145086002256 385.0191192201373 457.6733899658824 348.7731232329314 458.53238191657 315.6072257612903 451.7961557655918 255.07870179627673 445.83461649713985 221.23590521576062 445.9710623337902 185.85394689422338 438.05733264363175 150.85640585900103 421.5536562127047 118.30588863520822 396.37658942090314 90.29718475309664 362.9298026141042 68.84433488763386 322.11023649516125 53.33333333333334 300.00000000000006" />
	<path id="line3" style="stroke:#2ca02c"  d="M 527.8902846861174 394.39524665005547 L 527.8902846861174 394.39524665005547 522.0212090137205 368.032248378972 497.0050498274733 359.07797758489596 399.1255987659576 352.9837363981944 376.58691380923483 362.8532558182617 345.58744869597314 337.41265227277484 327.7520695924031 333.81599464070604 309.2443800700995 330.4746370066323 264.8325395773922 328.86118889614056 247.98965496847904 305.1225718712448 230.739461348563 278.9900452952284 205.1900182015885 271.23970644857934 179.70538023697787 263.50902603908094 128.7698526639999 247.3750517378605 102.99495017252673 240.922022415104 77.97879098627945 231.96775162102801 72.10971531388259 205.60475334994453" />
	<path id="line4" style="stroke:#d62728"  d="M 505.0958377012945 437.04065747816855 L 505.0958377012945 437.04065747816855 492.780372862159 403.7841925278311 496.6256781748603 360.3285983205557 394.8099817984115 328.76029355142066 382.04709963324075 308.08093398426297 356.43451297524496 282.8807776479639 340.1222661671733 278.55420193406417 324.6172222958255 279.7971677727016 297.5754152293289 275.3827777041745 264.83253957739214 271.13881110385944 244.05176750948755 254.08447221068548 223.41308619076514 237.14674418173834 202.8267540954257 220.2519780501379 181.62793372878286 203.69988407141835 141.4283154431804 169.0182533714747 120.08487798921914 153.1928035031724 94.90416229870542 162.9593425218315" />
	<path id="line5" style="stroke:#9467bd"  d="M 474.41967269268173 474.41967269268173 L 474.41967269268173 474.41967269268173 458.5716845568196 430.9817466285253 438.886418184405 413.1358094513303 388.1869660715406 407.4561290690795 359.25812623482267 410.8641565145578 324.88871557334477 382.04709963324075 293.1784323509468 369.260538651437 254.08447221068548 355.94823249051245 233.7228630497006 354.3922406119572 212.6226203470448 346.70418245470466 192.4424576236508 332.6272237768218 121.6652756983867 316.90782790806446 108.5881386263436 280.49096779838715 103.3743218251397 239.67140167944427 107.21962713784092 196.21580747216888 120.91396352999246 152.18255984872607 125.58032730731821 125.58032730731827" />
	<path id="line6" style="stroke:#8c564b"  d="M 437.04065747816855 505.0958377012945 L 437.04065747816855 505.0958377012945 421.5536562127047 449.14359414099897 438.05733264363175 414.1460531057766 397.1732459045743 379.7480219498621 376.58691380923483 362.8532558182617 363.8308779932303 334.1183151048979 356.43451297524496 282.8807776479639 363.8308779932303 265.88168489510207 366.27713695029934 245.60775938804278 362.85325581826163 223.41308619076514 352.98373639819437 200.8744012340424 336.49097396091906 179.70538023697787 313.6253558233486 161.6594407337426 281.7915699451613 121.79337382903182 243.5232267086523 116.07208724456984 189.9607830362708 95.51729950574875 162.95934252183147 94.9041622987055" />
	<path id="line7" style="stroke:#e377c2"  d="M 394.39524665005547 527.8902846861174 L 394.39524665005547 527.8902846861174 383.86654054910724 458.28945610060737 372.5090703483414 434.268734701698 359.25812623482267 410.8641565145578 334.1183151048979 363.8308779932303 327.7520695924031 333.81599464070604 328.0855863170213 302.76618881047216 324.6172222958255 279.7971677727016 328.86118889614056 264.83253957739214 327.80010860399085 247.98965496847904 289.38072642035553 224.2429034587631 253.2958175452953 212.62262034704483 240.7418737651773 189.13584348544222 228.6435083226886 165.11519916357707 214.98088077986262 142.3266100341176 191.1133617073009 94.9012333710238 205.60475334994436 72.10971531388262" />
	<path id="line8" style="stroke:#7f7f7f"  d="M 348.122279430645 541.9270358327968 L 348.122279430645 541.9270358327968 347.52250249727166 458.9117535691829 371.3564916773114 434.8848008364229 388.1869660715406 407.4561290690795 397.1732459045743 379.7480219498621 399.1255987659576 352.9837363981944 394.8099817984115 328.76029355142066 398.59908951340526 290.28883730408603 407.55754237634915 267.3727762231782 410.8641565145578 240.74187376517727 407.45612906907945 211.81303392845936 396.30011592858165 181.62793372878286 377.6115161132093 153.41287153148485 359.077977584896 102.99495017252673 320.809634348387 82.04957009032208 276.58916135806453 68.97243301827902 251.87772056935492 58.07296416720317" />
	<path id="line9" style="stroke:#bcbd22"  d="M 300.0 546.6666666666666 L 300.0 546.6666666666666 314.30662361451607 451.9242538962369 288.79439479017674 433.51622273032274 247.01626360180563 399.1255987659576 237.14674418173834 376.58691380923483 233.7228630497006 354.3922406119572 236.16912200676973 334.1183151048979 230.739461348563 278.9900452952284 224.38495991571182 259.5829190295825 223.41308619076514 237.14674418173834 228.6958862565939 213.11568601473357 240.7418737651773 189.13584348544222 259.6475473130577 166.97579084406547 283.0921720919355 121.6652756983867 279.1903656516129 95.38290342365542 277.8897635048387 68.84433488763386 299.99999999999994 53.33333333333334" />
	<path id="line10" style="stroke:#17becf"  d="M 251.87772056935503 541.9270358327968 L 251.87772056935503 541.9270358327968 256.3293225319365 446.2139881497528 284.94256976096864 433.1368510777097 292.546256997156 395.4229264720323 293.1784323509468 369.260538651437 284.8291419505061 350.01161663969714 264.8325395773922 328.86118889614056 271.9144136829787 302.7661888104722 264.83253957739214 271.13881110385944 262.5873477272252 254.4125513040269 295.6357508562534 223.62683732403815 328.76029355142066 205.1900182015885 336.49097396091906 179.70538023697787 343.67067746806356 153.7860118502472 360.3285983205558 103.3743218251397 366.7816276433123 77.59941933366653 348.122279430645 58.07296416720317" />
	<path id="line11" style="stroke:#1f77b4" stroke-dasharray='6,2' d="M 205.60475334994453 527.8902846861174 L 205.60475334994453 527.8902846861174 222.3884838867907 446.5871284685152 203.69988407141835 418.37206627121714 192.5438709309205 388.1869660715406 189.1358434854422 359.25812623482267 192.4424576236508 332.6272237768218 188.1438900478176 288.9831347567363 179.70538023697787 263.50902603908094 177.40418671141487 234.47117257630728 182.45701926955616 202.68964041697205 195.28203731004402 171.37075777218894 216.1334594508927 141.71054389939263 244.77384744431203 115.6927155919569 280.4909677983871 95.25480529301029 322.1102364951612 82.17766822096723 368.032248378972 77.97879098627948 394.3952466500555 72.10971531388262" />
	<path id="line12" style="stroke:#ff7f0e" stroke-dasharray='6,2' d="M 162.9593425218315 505.0958377012945 L 162.9593425218315 505.0958377012945 186.8641905486697 438.886418184405 202.68964041697205 417.5429807304438 220.2519780501379 397.1732459045743 237.14674418173834 376.58691380923483 254.08447221068548 355.94823249051245 284.8291419505061 350.01161663969714 309.2443800700995 330.4746370066323 328.0855863170213 302.76618881047216 340.1222661671733 278.55420193406417 363.8308779932303 265.88168489510207 387.37737965295514 253.29581754529534 410.8641565145578 240.74187376517727 457.6733899658824 214.98088077986262 448.3145086002256 177.43610013284905 446.8071964968276 120.08487798921914 437.04065747816844 94.90416229870542" />
	<path id="line13" style="stroke:#2ca02c" stroke-dasharray='6,2' d="M 125.58032730731827 474.41967269268173 L 125.58032730731827 474.41967269268173 151.68549139977435 422.56389986715095 142.3266100341176 385.0191192201373 189.1358434854422 359.25812623482267 212.6226203470448 346.70418245470466 236.16912200676973 334.1183151048979 247.98965496847904 305.1225718712448 271.9144136829787 302.7661888104722 297.5754152293289 275.3827777041745 328.86118889614056 264.83253957739214 345.9155277893145 244.05176750948755 362.85325581826163 223.41308619076514 379.74802194986205 202.8267540954257 397.31035958302795 182.45701926955616 413.13580945133026 161.11358181559493 447.8174401512739 120.91396352999246 474.41967269268173 125.58032730731821" />
	<path id="line14" style="stroke:#d62728" stroke-dasharray='6,2' d="M 94.90416229870547 437.04065747816855 L 94.90416229870547 437.04065747816855 118.92195476993311 397.52916809193323 141.71054389939263 383.86654054910724 192.5438709309205 388.1869660715406 220.2519780501379 397.1732459045743 247.01626360180563 399.1255987659576 288.6944319679479 395.04355481941934 324.88871557334477 382.04709963324075 334.1183151048979 363.8308779932303 345.58744869597314 337.41265227277484 363.8308779932303 334.1183151048979 382.04709963324075 308.08093398426297 398.59908951340526 290.28883730408603 504.6170965763446 279.1903656516129 509.3234435942903 235.819576650236 504.4827004942513 189.9607830362708 505.0958377012945 162.95934252183147" />
	<path id="line15" style="stroke:#9467bd" stroke-dasharray='6,2' d="M 72.10971531388259 394.3952466500555 L 72.10971531388259 394.3952466500555 90.67655640570959 364.18042334976394 95.38290342365542 320.8096343483871 108.46004049569848 281.79156994516137 128.39048101138695 248.62567247352024 177.40418671141487 234.47117257630728 202.8267540954257 220.2519780501379 228.6958862565939 213.11568601473357 253.2958175452953 212.62262034704483 328.76029355142066 205.1900182015885 352.98373639819437 200.8744012340424 379.74802194986205 202.8267540954257 407.45612906907945 211.81303392845936 458.28945610060737 216.1334594508927 481.07804523006683 202.4708319080667 505.0987666289762 191.1133617073009 527.8902846861174 205.60475334994436" />
	<path id="line16" style="stroke:#8c564b" stroke-dasharray='6,2' d="M 58.07296416720317 348.12227943064505 L 58.07296416720317 348.12227943064505 68.97243301827902 323.41083864193547 95.25480529301029 319.50903220161285 121.79337382903182 318.2084300548387 188.1438900478176 288.9831347567363 205.1900182015885 271.23970644857934 224.38495991571182 259.5829190295825 244.05176750948755 254.08447221068548 262.5873477272252 254.4125513040269 327.80010860399085 247.98965496847904 345.9155277893145 244.05176750948755 366.27713695029934 245.60775938804278 387.37737965295514 253.29581754529534 407.55754237634915 267.3727762231782 504.7451947069897 280.49096779838715 531.027566981721 276.58916135806453 541.9270358327968 251.87772056935492" />

	<text text-anchor='middle' dominant-baseline='middle' x='552.8333333333333' y='300.0'>1</text>
	<text text-anchor='middle' dominant-baseline='middle' x='547.9752117286167' y='349.3253364164111'>2</text>
	<text text-anchor='middle' dominant-baseline='middle' x='533.5875418032704' y='396.75512781630687'>3</text>
	<text text-anchor='middle' dominant-baseline='middle' x='510.2232336438268' y='440.4666739151227'>4</text>
	<text text-anchor='middle' dominant-baseline='middle' x='478.78016450999877' y='478.78016450999877'>5</text>
	<text text-anchor='middle' dominant-baseline='middle' x='440.4666739151228' y='510.2232336438268'>6</text>
	<text text-anchor='middle' dominant-baseline='middle' x='396.75512781630687' y='533.5875418032704'>7</text>
	<text text-anchor='middle' dominant-baseline='middle' x='349.3253364164111' y='547.9752117286167'>8</text>
	<text text-anchor='middle' dominant-baseline='middle' x='300.0' y='552.8333333333333'>9</text>
	<text text-anchor='middle' dominant-baseline='middle' x='250.6746635835889' y='547.9752117286167'>10</text>
	<text text-anchor='middle' dominant-baseline='middle' x='203.24487218369316' y='533.5875418032704'>11</text>
	<text text-anchor='middle' dominant-baseline='middle' x='159.5333260848773' y='510.22323364382686'>12</text>
	<text text-anchor='middle' dominant-baseline='middle' x='121.21983549000126' y='478.78016450999877'>13</text>
	<text text-anchor='middle' dominant-baseline='middle' x='89.77676635617314' y='440.4666739151227'>14</text>
	<text text-anchor='middle' dominant-baseline='middle' x='66.41245819672966' y='396.75512781630687'>15</text>
	<text text-anchor='middle' dominant-baseline='middle' x='52.02478827138327' y='349.3253364164112'>16</text>

	</svg>