<?xml version="1.0" encoding="UTF-8" standalone="no"?>

<svg
    width="400.0px"
    height="400.0px"
    viewBox="0px 0px 400.0px 400.0px"
    version="1.1"
    id="svg1=-body"
    xml:space="preserve"
    xmlns="http://www.w3.org/2000/svg"
    xmlns:svg="http://www.w3.org/2000/svg">

    <style>
path { fill: none; stroke-width:1.5px }
    </style>

    <rect width="100%" height="100%" fill="white"/>
    
    
    <text x='20' y='30'>(9 pseudolines)</text>
    <text x='20' y='45'>Kobon Triangles</text>

    	<path id="line1" style="stroke:#1f77b4"  d="M 370.0 200.0 L 370.0 200.0 345.7784834550136 176.0585899672032 305.8014156792314 181.3443558185999 266.503746998374 188.27359508597706 226.72017916286813 168.15613048789095 183.83244373599365 155.58000423688048 156.59276195020647 148.26926810956647 124.18946382644948 156.23076653279077 54.2215165449864 176.0585899672032 30.0 200.00000000000003" />
	<path id="line2" style="stroke:#ff7f0e"  d="M 359.7477455336044 258.14342436536367 L 359.7477455336044 258.14342436536367 328.7985206812011 272.35674414411125 293.04020348572107 253.7167865279386 258.4824136195961 233.76483724613286 214.21751037084914 239.06228870476994 169.61493336514454 236.21151232330348 141.5175863804039 233.76483724613286 113.79143907618183 215.20089525891862 54.82459033712732 172.6383885339465 40.252254466395556 141.85657563463633" />
	<path id="line3" style="stroke:#2ca02c"  d="M 330.22755533022627 309.27389364671166 L 330.22755533022627 309.27389364671166 327.06203890453185 275.36441880771997 325.7784834550136 223.9414100327968 305.8014156792314 181.3443558185999 275.81053617355053 156.23076653279074 229.9399190074191 117.74074858681568 199.99999999999997 92.56642694412275 154.58110933998415 80.28975655435683 103.7164445504817 87.9552129601662 69.77244466977368 90.7261063532884" />
	<path id="line4" style="stroke:#d62728"  d="M 285.0 347.22431864335454 L 285.0 347.22431864335454 252.15537243668513 338.21857501360967 200.0 287.53846693441847 176.90349105141954 263.45713680445647 169.61493336514454 236.21151232330348 159.06231046628272 192.7815808073391 156.59276195020647 148.26926810956647 130.94303037532842 117.7011083561285 106.37688898167147 85.72283501918719 114.99999999999993 52.775681356645435" />
	<path id="line5" style="stroke:#9467bd"  d="M 229.52019020337818 367.4173180120754 L 229.52019020337818 367.4173180120754 248.89185421335443 339.40639850588735 256.268641916399 267.0583561542657 258.4824136195961 233.76483724613286 246.5526228988618 208.20848343981606 226.72017916286813 168.15613048789095 200.0 132.4703255077343 199.99999999999997 92.56642694412275 198.26351822333066 52.27883704816878 170.47980979662185 32.582681987924616" />
	<path id="line6" style="stroke:#8c564b"  d="M 170.47980979662185 367.4173180120754 L 170.47980979662185 367.4173180120754 151.1081457866456 339.40639850588735 119.03733341286134 299.1890348461031 106.95979651427893 253.7167865279386 113.79143907618183 215.20089525891862 124.18946382644948 156.23076653279077 130.94303037532842 117.7011083561285 157.84462756331484 79.10193306207911 201.73648177666928 52.27883704816878 229.5201902033781 32.582681987924616" />
	<path id="line7" style="stroke:#e377c2"  d="M 115.00000000000003 347.2243186433546 L 115.00000000000003 347.2243186433546 147.8446275633149 338.21857501360967 163.25555394544017 300.95453582527165 176.90349105141954 263.45713680445647 214.21751037084914 239.06228870476994 246.5526228988618 208.20848343981606 266.503746998374 188.27359508597706 275.81053617355053 156.23076653279074 293.6231110183284 85.72283501918712 284.9999999999999 52.77568135664535" />
	<path id="line8" style="stroke:#7f7f7f"  d="M 69.77244466977373 309.2738936467117 L 69.77244466977373 309.2738936467117 72.93796109546817 275.36441880771997 106.95979651427893 253.7167865279386 141.5175863804039 233.76483724613286 159.06231046628272 192.7815808073391 183.83244373599365 155.58000423688048 200.0 132.4703255077343 229.9399190074191 117.74074858681568 296.2835554495182 87.95521296016608 330.2275553302262 90.72610635328826" />
	<path id="line9" style="stroke:#bcbd22"  d="M 40.252254466395584 258.1434243653637 L 40.252254466395584 258.1434243653637 71.20147931879887 272.3567441441113 116.37688898167154 296.9566569051241 163.25555394544017 300.95453582527165 200.00000000000003 287.53846693441847 256.268641916399 267.0583561542657 293.04020348572107 253.7167865279386 326.3815572471545 220.52120859954013 345.17540966287265 172.6383885339465 359.7477455336044 141.85657563463633" />

	<text text-anchor='middle' dominant-baseline='middle' x='374.25' y='200.0'>1</text>
	<text text-anchor='middle' dominant-baseline='middle' x='363.74143917194453' y='259.5970099744978'>2</text>
	<text text-anchor='middle' dominant-baseline='middle' x='333.4832442134819' y='312.00574098787945'>3</text>
	<text text-anchor='middle' dominant-baseline='middle' x='287.125' y='350.9049266094384'>4</text>
	<text text-anchor='middle' dominant-baseline='middle' x='230.25819495846264' y='371.60275096237723'>5</text>
	<text text-anchor='middle' dominant-baseline='middle' x='169.7418050415374' y='371.60275096237723'>6</text>
	<text text-anchor='middle' dominant-baseline='middle' x='112.87500000000004' y='350.90492660943846'>7</text>
	<text text-anchor='middle' dominant-baseline='middle' x='66.5167557865181' y='312.0057409878795'>8</text>
	<text text-anchor='middle' dominant-baseline='middle' x='36.258560828055494' y='259.59700997449784'>9</text>

	</svg>