<?xml version="1.0" encoding="UTF-8" standalone="no"?>

<svg
    width="300.0px"
    height="300.0px"
    viewBox="0px 0px 300.0px 300.0px"
    version="1.1"
    id="svg1=-body"
    xml:space="preserve"
    xmlns="http://www.w3.org/2000/svg"
    xmlns:svg="http://www.w3.org/2000/svg">

    <style>
path { fill: none; stroke-width:1.5px }
    </style>

    <rect width="100%" height="100%" fill="white"/>
    
    
    <text x='20' y='30'>(5 pseudolines)</text>
    <text x='20' y='45'>Generated by LineOrder</text>

    	<path id="line1" style="stroke:#1f77b4"  d="M 285.0 150.0 L 285.0 150.0 246.40576474687265 123.5496636468387 190.2492235949962 94.60169633084541 109.75077640500379 94.60169633084544 53.59423525312735 123.54966364683872 15.0 150.00000000000003" />
	<path id="line2" style="stroke:#ff7f0e"  d="M 259.2172942406179 229.35100905948389 L 259.2172942406179 229.35100905948389 212.44678440936949 228.06465837083027 150.00000000000003 218.47606917325106 84.8753882025019 171.16026908252903 56.45898033750315 114.73288486245161 40.78270575938208 70.64899094051614" />
	<path id="line3" style="stroke:#2ca02c"  d="M 191.71729424061792 278.39262969984577 L 191.71729424061792 278.39262969984577 204.94678440936949 233.5137273308705 215.12461179749812 171.16026908252903 190.2492235949962 94.60169633084541 145.36474508437578 50.13906578900887 108.28270575938208 21.60737030015426" />
	<path id="line4" style="stroke:#d62728"  d="M 108.28270575938211 278.39262969984577 L 108.28270575938211 278.39262969984577 95.05321559063053 233.51372733087052 84.8753882025019 171.16026908252903 109.75077640500379 94.60169633084544 154.6352549156242 50.13906578900887 191.7172942406179 21.60737030015426" />
	<path id="line5" style="stroke:#9467bd"  d="M 40.78270575938211 229.35100905948389 L 40.78270575938211 229.35100905948389 87.55321559063053 228.06465837083033 150.00000000000003 218.47606917325106 215.12461179749812 171.16026908252903 243.54101966249686 114.7328848624516 259.2172942406179 70.64899094051609" />

	<text text-anchor='middle' dominant-baseline='middle' x='288.375' y='150.0'>1</text>
	<text text-anchor='middle' dominant-baseline='middle' x='261.94772659663334' y='231.33478428597095'>2</text>
	<text text-anchor='middle' dominant-baseline='middle' x='192.76022659663334' y='281.60244544234183'>3</text>
	<text text-anchor='middle' dominant-baseline='middle' x='107.23977340336666' y='281.6024454423419'>4</text>
	<text text-anchor='middle' dominant-baseline='middle' x='38.05227340336667' y='231.33478428597098'>5</text>

	</svg>